<svg xmlns="http://www.w3.org/2000/svg" viewBox="0 0 234.44 160.27"><defs><style>.cls-1{fill:#fff9f2;}.cls-2{fill:#fff;}.cls-3{fill:#4bf7fb;}.cls-4{fill:#e6fdff;}.cls-5{fill:#877b77;}.cls-6{fill:#e0e0e0;}.cls-7{fill:#4c413d;}.cls-8{fill:#dfe2e6;}.cls-9{fill:#555c69;}.cls-10{fill:#929396;}.cls-11{fill:#2b2016;}</style></defs><g id="图层_2" data-name="图层 2"><g id="央铋_1" data-name="央铋 1"><path class="cls-1" d="M195,94.33c1.28,5.06,1.71,10.3,4.11,15a.85.85,0,0,0,1.62-.27c.16-3.89,0-7.87,1.19-11.62a1.3,1.3,0,0,0-.41-1.3c0-.16,0-.32,0-.48a1.23,1.23,0,0,0,.11-.23,5.52,5.52,0,0,0,.27-2,1.17,1.17,0,0,0-.81-1c-.11-.87-.15-1.76-.21-2.65a1.1,1.1,0,0,0-.13-.41,9.11,9.11,0,0,0-.33-3.76c.7.66,1.42,0,1.46-.71a1.06,1.06,0,0,0,.39-.92,8.07,8.07,0,0,0-.42-2.23,1,1,0,0,0-1.27-.73.76.76,0,0,0-.81-.09c-3-3.87-7.27-7.64-12-9.28a1.86,1.86,0,0,0-1.14-1.15c-.88-.19-1.2.91-1.91.8a.66.66,0,0,0-.14,0c-.28-.42-.76-.68-1.12-.46a5.87,5.87,0,0,0-.14-.68.75.75,0,0,0-1.43-.11l-.21.5a1.12,1.12,0,0,0,.25,1.07c-.07,2-1.24,4.1-1.55,6-.11.73.83,2,1.52,1.11l.06-.09a1.11,1.11,0,0,0,.66.53v0c0,.86,1.14,1.54,1.6.62.05-.11.1-.22.16-.33a1.14,1.14,0,0,0,.16.15,1,1,0,0,0,.22.51l.48.53v0c-.06.65.68,1.57,1.2,1.18a58,58,0,0,1,5.2,5.08A18.4,18.4,0,0,1,195,94.33Z"/><path class="cls-2" d="M197.47,86.37c.11-1.52,1.14-2.52.21-3.89a9,9,0,0,0-2-1.62c-1.35-1-2.66-2.15-4-3.21a55.05,55.05,0,0,0-6.12-4c-1.39-.83-2.84-2-4.52-1.46-.59.18-.42,1,0,1.39l-.39-.06c-.92-.09-.86,1.1-.34,1.54,2.12,1.76,4.91,2.64,7.18,4.27a58.84,58.84,0,0,1,8.82,7.31C196.67,87,197.42,87,197.47,86.37Z"/><path class="cls-2" d="M145,93.57c9.61-.13,21-.5,27.91-8.18,3-3.31,5.76-8.28,5.67-12.86-.11-5.3-3.22-9.38-8.61-9.89-4.33-.42-8.46.79-12.89.18A38.08,38.08,0,0,1,147,59.89c-3.09-1.34-5.94-3.28-9.25-4.06a16.33,16.33,0,0,0-5.07-.42c-1.74.14-3.43.66-5.18.35-.77-.13-1,.73-.85,1.42-3.79,1-7.6,2.57-9.39,6.23-2.55,5.23,1,9.78,1.93,14.89,1,5.44,3,10.75,8.07,13.59C132.54,94.83,139.24,93.66,145,93.57Z"/><path class="cls-1" d="M114.6,72c.68-2.26.59-4.44,1.55-6.66,1.21-2.82,2.17-5.23,4.28-7.52a16.18,16.18,0,0,1,6.35-4.64,73.66,73.66,0,0,1,7.9-2.29,21.94,21.94,0,0,1,6-.5,41.59,41.59,0,0,1,5.12-.17,36.44,36.44,0,0,1,9.79,2,39.22,39.22,0,0,0,8.24,2.72c3,.55,5.94-.64,8.89.32.69.23.91-.53.64-1,.16-1.79-4.18-6.35-4.41-6.62a26,26,0,0,0-6.47-5.34c-3.22-2-6.13-4.51-9.51-6.27-2.85-1.49-6.23-1.75-9.38-2-3.68-.32-7.34-.75-11-1.22-8.81-1.11-17.6.39-26.41-.9a24,24,0,0,0-8.86.39c-3.77.79-7.49.51-11.26,1.16-3.54.61-6.75,1.84-10.2,2.66a41.25,41.25,0,0,0-9.45,3.41,27.74,27.74,0,0,0-7.19,5.46c-1.06,1.09-1.79,2.47-2.91,3.51S53.8,50,52.84,51.1c-1.73,1.92-2.91,5-4,7.38-.75,1.7-1.53,3.68-.77,5.51s3.62,3.29,1.83,5.52c-1.22,1.52-3.06,1.11-4.86,1.33s-3.19,1.62-5,2.08a36.25,36.25,0,0,0-5.42,1.4,23.14,23.14,0,0,0-4.77,2.76,26.88,26.88,0,0,1-4.75,2.42c-1.75.85-5,2.78-5.62,4.76-.13.42,0,1.26.64,1.22,3.05-.21,4.77,1.25,7,3,.85.68,1.6,1.55,2.75,1.41s2.24-1.55,3.23-2.13c2-1.15,4.19-1.78,6.26-2.74a34.51,34.51,0,0,0,4.12-2.72c2.05-1.34,4.68-2.15,6.92-3.16a38,38,0,0,1,12-3.62,13,13,0,0,1-.93,1c-1.42,1.24-2.79.75-4.47.86-2.81.19-3.54,2.79-6,3.32-.49.11-.42.88-.21,1.17a23.67,23.67,0,0,0,4,4.23c1.64,1.39,3.26,3.41,2,5.43-.69,1.14-1.52,2.22-2.24,3.35A8.43,8.43,0,0,1,51,98.1c-1,.56-2.36,1.12-3,2.14a.86.86,0,0,0,.36,1.13c1.14.66,1.93.43,3.15.12a19.48,19.48,0,0,1,6.51-.62c2.51.14,4.69,1,6-1.55.91-1.76,1.13-5,4.09-4.14,1.64.47,3.11,1.64,4.78,2.12,2.16.63,4.27.53,6.39,1.45a20.77,20.77,0,0,0,5.34,1.47,51.25,51.25,0,0,1,11.7,3.16c4.4,1.86,12.1,3.44,13.91,8.31.37,1,.25,1.35,1.06,2.15s1.94,1.51,2.85,2.44a13,13,0,0,0,1.55,1.42c1.65,1.18,2,2.67,2.59,4.51.49,1.56,1.86,3.16,2.67,4.57.21.37.83.74,1.14.25a8.91,8.91,0,0,0,1.64-4.62c-.09-1.87-1.63-3.49-2-5.33-.52-2.47-1.49-5.41-.59-7.86,1.66-4.53,5.75-1.51,8.77-1.06a.6.6,0,0,0,.53-1c-.08-.09-1.43-1.18-1.47-1.24-1-1.9.2-1.3,1.11-1.36a23.19,23.19,0,0,0,6.92-1.11c2.31-.89,4.82-1.92,7.21-2.57a44.49,44.49,0,0,0,4.42-.93c1.68-.63,2.86-2.12.95-3.43-1.24-.86-3.08-.69-4.5-.73-3.23-.09-6.61,0-9.72-1A44.38,44.38,0,0,1,126.47,91c-2.55-1.51-4.68-3.56-7.22-5.09-2.8-1.69-3.16-4-4.72-6.59C112.78,76.5,113.72,74.86,114.6,72Z"/><path class="cls-2" d="M55.71,68.34a8.58,8.58,0,0,0,4-.08c2.42-1,3.3-4.59,6.71-4a.57.57,0,0,0,.45-.18c.85-1.08,1.22-2.64,2-3.82a43.43,43.43,0,0,1,4.52-5.78,32,32,0,0,1,9.84-7.7A46.44,46.44,0,0,1,92,43.37c3-.74,5.79-1.86,8.8-2.55s6.28-.56,9.41-.73a34.89,34.89,0,0,1,8,.33c1.58.29,2.13,1,3.48.87A28.22,28.22,0,0,0,126.47,40a20.15,20.15,0,0,1,4.94-.68,33,33,0,0,0,3.26-.74c1-.11.86-1.23-.08-1.29-2.44-.14-4.64-1-7-1.31-2.08-.31-4.16,0-6.24-.15-3.6-.21-6.92-.7-10.52-.56a74.92,74.92,0,0,0-10.71.78c-4.1.75-8.17,1.6-12.25,2.47C80.3,40.08,72.39,43,66.21,47.55,60.33,51.93,54.46,59.2,54.78,66.94a1,1,0,0,0,.25.92.66.66,0,0,0,.48.45l.19,0Z"/><path class="cls-2" d="M22.83,87.48l.28-.06A.63.63,0,0,0,24,87.1c1-.53,1.94-1.48,2.78-2,1.44-1,2.9-1.71,4.42-2.55,3.13-1.71,6.13-3.3,9.37-4.79a50.48,50.48,0,0,1,9.9-3.3c2.23-.5,4.51-.56,6.78-.9,1.65-.24,3.51-.06,5.09-.61a.7.7,0,0,0,.46-1c-1.13-3.17-5.33-2.42-7.82-2a88.63,88.63,0,0,0-12.51,2.88,70.82,70.82,0,0,0-13,6.44c-2.31,1.37-8.15,3.7-9.14,6.48a.92.92,0,0,0,.56,1,9.93,9.93,0,0,0,1.21.14A.81.81,0,0,0,22.83,87.48Z"/><path class="cls-2" d="M74.25,74.07c-2,1.39-3.45,3.8-5.13,5.52l-.57.61a34,34,0,0,0-3.82,3.86,13.61,13.61,0,0,0-3,3.6,13,13,0,0,0-.94,2.85,78.26,78.26,0,0,0-2.9,7.28c-.15.42.64.92.84.45l.35-.87h0l0,.13c.1.4.81.91,1.1.38.9-1.66,1.11-3.63,1.75-5.39a21.71,21.71,0,0,1,3.83-6.29l1.13-1.37a.56.56,0,0,0,.25-.17,68.53,68.53,0,0,1,4.79-5.15c1.12-1.19,2.78-2.26,3.62-3.64a.69.69,0,0,0-.41-1l0,0C75.47,74.34,74.71,73.74,74.25,74.07Z"/><path class="cls-2" d="M63.8,86c.52-.5,1.16-.94,1.66-1.4s1-1,1.43-1.51C68,82,69.13,80.8,70.28,79.74c.17-.16,0-.43-.18-.48-.63-.16-.74.1-1.24.53C68,80.5,67.2,81.25,66.45,82s-1.29,1.44-2,2.14a7.1,7.1,0,0,0-1.86,2.24c-.07.2.15.57.39.46C63.52,86.64,63.59,86.43,63.8,86Z"/><path class="cls-2" d="M93.67,75.76a2.67,2.67,0,0,0-1.44.26,2.37,2.37,0,0,0-2.31.46.56.56,0,0,0-.16.18l-.15.25a.74.74,0,0,0,0,.75,3.6,3.6,0,0,0-1.36,1.62l-.16,0c-.84-.12-.67,1.14,0,1.31,3.79,1,7.63,3.22,10.93,5.25a38.67,38.67,0,0,1,9.86,8c2.08,2.49,4.11,4.94,6,7.61,1,1.44,1.93,2.88,2.85,4.37a32,32,0,0,1,1.88,4.33.94.94,0,0,0,1.52.2c.77-1.13,1.73-2,2.59-3.08a.57.57,0,0,0,.3-.37h0a4.19,4.19,0,0,0,.26-.33.75.75,0,0,0,0-.8l-.13-.27a1,1,0,0,0-.44-.46c-.32-.69-.76-1.38-1-1.94a27.41,27.41,0,0,0-3.19-5.52A42.09,42.09,0,0,0,111,88.29c-3.93-3.05-7.7-6.49-12.09-8.87-.84-.45-2.55-1.66-4.31-2.53A1.18,1.18,0,0,0,93.67,75.76Z"/><path class="cls-3" d="M98.76,53.3a9.8,9.8,0,0,0,1.38-.67,2.15,2.15,0,0,0,.56-.34,9.91,9.91,0,0,0,2-1.8c.9-1.05,2.46-2.84,1.83-4.35-.21-.5-.66-.86-1.18-.62a.66.66,0,0,0-.79-.28l-.19.09c-.35.29-.92.21-1.37.26-.31-.31-.72-.42-1,0a4.26,4.26,0,0,1-.46.59l-.29.18-.5.35a.54.54,0,0,0-.75,0,10.93,10.93,0,0,0-1.67,1.73.85.85,0,0,0-.14.48,3.43,3.43,0,0,0-.77,1.87.88.88,0,0,0,1.22.87,2.83,2.83,0,0,0,.28-.2.69.69,0,0,0,.76.29,1,1,0,0,0,.12.16C97.38,52.53,98,53.58,98.76,53.3Z"/><path class="cls-4" d="M99.1,50.06c.69-1,1.58-2.75,1-3.92-.29-.56-1.19-.9-1.58-.26a5.28,5.28,0,0,0-.33.62.65.65,0,0,0-.55.14,4.14,4.14,0,0,0-.38.35,3.43,3.43,0,0,0-1.51,2.16,1,1,0,0,0,.2.68l0,0a1,1,0,0,0-.09.52A4.43,4.43,0,0,0,95,51c-.42.4.06,1,.43,1.12C96.76,52.67,98.45,51,99.1,50.06Z"/><path class="cls-5" d="M10.23,121.12a.91.91,0,0,0,1.22.14l.32.12a2.28,2.28,0,0,0,.73,1.2c1.89,1.31,5.77,2.24,8.15,2.31a1.19,1.19,0,0,0,1.66.5,32.83,32.83,0,0,0,7.18-5.69l.49-.35a1.08,1.08,0,0,0,.44-.72,8.27,8.27,0,0,0,1.38-2.33,1,1,0,0,0,1.15-.56,12.54,12.54,0,0,0,1.24-3.49,1.37,1.37,0,0,0,.13-.39c0-.13,0-.26.06-.39h0a29.47,29.47,0,0,0,.46-5.13c0-.47.07-.93.12-1.39a1.52,1.52,0,0,0-.2-.86c0-.7-.12-1.39-.23-2.08a1.77,1.77,0,0,0-.75-1.16,6.27,6.27,0,0,0-1.36-4.19,1.17,1.17,0,0,0-1.37-.33.31.31,0,0,0,0-.1A7.71,7.71,0,0,0,31,95.16a1.94,1.94,0,0,0-.21-.6,8.08,8.08,0,0,0-.49-1.32,1.41,1.41,0,0,0-1.83-.64,4.91,4.91,0,0,0-.4-.83,1.62,1.62,0,0,0-.62-.6c-.39-.59-1-1.07-1.58-.79A1.57,1.57,0,0,0,24,88.86a1.84,1.84,0,0,0-.38-.17,1.37,1.37,0,0,0-2-1,1.2,1.2,0,0,0-1.31-.53A1,1,0,0,0,19,87.1a1.1,1.1,0,0,0-1.16.28,2.89,2.89,0,0,0-.29.32l0,0c-.21-1.08-1.52-2.07-2.25-.88a1,1,0,0,0-1.3.52c-.23.39-.46.83-.69,1.27-.32-1-1.56-1.76-2.45-.82C8.09,90.68,5,94.08,3.42,97.81a2.12,2.12,0,0,0,.9,2.54c-.32.74-.62,1.47-.92,2.22a2.38,2.38,0,0,0,.43,2c-.26.88-.49,1.76-.68,2.68a2,2,0,0,0,.53,2l.17.14a10.81,10.81,0,0,0,.5,1.92C4.23,115.13,7.2,118.53,10.23,121.12Zm-2.3-11.84a9.19,9.19,0,0,0-.34-4.72A1.43,1.43,0,0,0,7.2,104a10.57,10.57,0,0,0-.07-1.14,12.35,12.35,0,0,0,1.12-2.17,1.38,1.38,0,0,1-.1-.78,2,2,0,0,1,.23-1.77,13.5,13.5,0,0,1,2.07-2.5c.17-.16.35-.32.54-.47a1.69,1.69,0,0,1,2.31.14,7.58,7.58,0,0,0,1.47-1.85,1.15,1.15,0,0,0,1.14.12c.55.59,1.37.82,1.8,0a1.16,1.16,0,0,0,.42.14c.39.66,1.07,1.12,1.61.81.52.89,1.86,1.42,2.28.19.08-.23.14-.45.2-.67h0a2.54,2.54,0,0,0,.44.54A1.91,1.91,0,0,0,24,95.68a1.3,1.3,0,0,0,.57.22,1.51,1.51,0,0,0,.45.24,2,2,0,0,0,.54.64c0,.24,0,.48,0,.73a2,2,0,0,0,1.34,2,1.5,1.5,0,0,0,1,.83,2.1,2.1,0,0,0,.37.71c0,.13,0,.26,0,.39a1.76,1.76,0,0,0,.13.41c0,.23-.07.46-.13.68a1.89,1.89,0,0,0,.3,1.46,31.16,31.16,0,0,0-.34,3.88,21.52,21.52,0,0,0-1.41,5.67c-.12.35-.24.7-.35,1a1.25,1.25,0,0,0-1,.22c-3,2.15-7.82,2.26-11.44,2.78-1.53-1.43-3.4-2.79-5.08-4.07A10.86,10.86,0,0,0,7.93,109.28Z"/><path class="cls-5" d="M39.93,110.75a7.34,7.34,0,0,0-.27,2.06,1.32,1.32,0,0,0,.19.62c-.08.2-.15.39-.22.59s-.09.2-.13.31a1,1,0,0,0-.07.35,4.71,4.71,0,0,0-.13,1.69,6.9,6.9,0,0,0-.25,2,4.63,4.63,0,0,0-.16,3.84,1.75,1.75,0,0,0,.22.3,7.25,7.25,0,0,0,.32,2.16,2.16,2.16,0,0,0,.35.65,14.86,14.86,0,0,0,1.47,4.52,1.77,1.77,0,0,0,.44.83,20.3,20.3,0,0,0,3.59,4.62,1.91,1.91,0,0,0,1.36,2.11,22.53,22.53,0,0,0,3.43.58,2.37,2.37,0,0,0,.72,1.33c2.72,2.24,6.91,2.11,10,.63a1.32,1.32,0,0,0,.71-1.28c1.23-.38,2.45-.81,3.64-1.17.84-.25.83-1.06.5-1.76a7.83,7.83,0,0,0,.61-.67c.59.33,1.24.35,1.57-.32s.77-1.54,1.16-2.3a1.21,1.21,0,0,0,.47-.5l.15-.33v0c1.41-2.78,2.57-5.62,3.76-8.51a1.38,1.38,0,0,0,0-1.13,10.65,10.65,0,0,0,.32-1.93,1.73,1.73,0,0,0-.49-1.27c.89-2.14,1.83-4.71,1-6.71a2,2,0,0,0-1.73-1.24,1.13,1.13,0,0,0-1.07,0,4.17,4.17,0,0,0-.69-.83.28.28,0,0,0,0-.09c0-.11.06-.21.08-.31a1.41,1.41,0,0,0,0-.61v-.06a1.89,1.89,0,0,0-.77-1.34c.07-.32.14-.64.18-1,.14-1.23-1.76-3.19-2.53-1.46,0,.06-.05.14-.08.2a4.46,4.46,0,0,0-1-2.16c-.34-.4-1.11-.84-1.63-.48a5.07,5.07,0,0,0-.61.52c-.22-.17-.44-.34-.68-.5a2,2,0,0,0-1.21-1.44,4.77,4.77,0,0,0-2.21-.42c-.48-.22-.92-.4-1.29-.55a1.12,1.12,0,0,0-1.61.6,14.47,14.47,0,0,0-1.46,0l-.14-.06a1.17,1.17,0,0,0-.85-.07l-.2,0a1.17,1.17,0,0,0-.82.11,1.06,1.06,0,0,0-.65-.06,1.08,1.08,0,0,0-1-.4,5.8,5.8,0,0,0-2.92,1,.84.84,0,0,0-.79.13,1.12,1.12,0,0,0-1.85-.18,22.87,22.87,0,0,0-1.62,2,.93.93,0,0,0-1.26.36c-.13.21-.26.42-.4.62a.84.84,0,0,0-.8.51c-.78,1.46-1.7,2.8-2.47,4.27l0,0-.15.3A1.42,1.42,0,0,0,39.93,110.75Zm4.46,1.75a1.72,1.72,0,0,0-.19-1.22l.33-.78a1.17,1.17,0,0,0,0-.74l.55-1.26a1.39,1.39,0,0,0,.1-.63.94.94,0,0,0,1.24-.06,2.44,2.44,0,0,0,.23-.22h.16A4.62,4.62,0,0,0,49,105.49a1.3,1.3,0,0,0,1.46.64c1.19-.31,2-1,3.25-1.29a8.38,8.38,0,0,1,.93-.17,13.39,13.39,0,0,0,2.25,1,31.59,31.59,0,0,0,4.35,2.75l.5.2c.43,2.2,1.1,5.39,2.86,6.28a1.85,1.85,0,0,0,1,.27,18.47,18.47,0,0,0-.44,2.29,1.76,1.76,0,0,0,.22,1,8.65,8.65,0,0,0,.46,2.8c0,.24-.11.49-.17.73a16.63,16.63,0,0,0-.53,1.83l0,.08c0,.12-.06.23-.09.35a1.26,1.26,0,0,0,.09.74c-.07.19-.15.37-.22.55a1.2,1.2,0,0,0-.49.39c-.74,1-1.65,2.65-2.73,4.17-2.72,1.29-5.67,2.23-8.47,3.29a1.25,1.25,0,0,0-.36.2c-.88-.21-1.77-.42-2.65-.65l-.48-.25a6.26,6.26,0,0,0-1.33-1.2c-1.15-1.31-1.88-2.59-3.81-3.4-.7-2-1.13-4-1.94-5.94a8.8,8.8,0,0,0-.45-1.55,6.35,6.35,0,0,0,.9-2.74,1.63,1.63,0,0,0-.28-.89c0-.16.11-.31.17-.48a1.34,1.34,0,0,0,0-.79A14.32,14.32,0,0,0,44.39,112.5Z"/><path class="cls-5" d="M87.29,152.1a1.82,1.82,0,0,0,.83,1,25.87,25.87,0,0,0,3.79,1.37c-.61.9.89,2.45,2,2.34a30.15,30.15,0,0,0,3.21-.6,1.71,1.71,0,0,0,.57.21,17.69,17.69,0,0,0,7.87-1,1.34,1.34,0,0,0,.69-.51c3.11-.93,5.08-4.32,6.7-7.13a1,1,0,0,0,.86-.65c.59-1.31,1.09-2.61,1.55-3.92a1.05,1.05,0,0,0,.8-.65,23.23,23.23,0,0,0,1.66-8.47.91.91,0,0,0,.45-.71,11.34,11.34,0,0,0-.83-5.2,18.66,18.66,0,0,0-2.62-7.94,1.69,1.69,0,0,0-1.26-.84,7.82,7.82,0,0,0-1.35-1.23,13.78,13.78,0,0,0-1.44-1.52,1.82,1.82,0,0,0-1-2l-.9-.37a2.45,2.45,0,0,0-.6-.82,2,2,0,0,0-1.07-1.2,17.24,17.24,0,0,0-4.73-.71c-.12,0-.25,0-.37-.06a1.66,1.66,0,0,0-1-.59,18.26,18.26,0,0,0-3.44-.11,13.4,13.4,0,0,0-1.88-.31,1.57,1.57,0,0,0-1.34-1.33,12.73,12.73,0,0,0-6,1.27,1.06,1.06,0,0,0-.59.8,1.22,1.22,0,0,0-.29.17C85,113.69,76,122.1,78.61,126l.24.33c-.06.27-.12.55-.17.83a.85.85,0,0,0-1.2.62c-1.16,3.21-1.61,14.32,2.75,16.62a31.71,31.71,0,0,0,2.26,3.32A11.29,11.29,0,0,0,87.29,152.1Zm-3.54-10.48c0-.35-.11-.71-.19-1.1-.2-.93-.42-1.73-.53-2.67a2.43,2.43,0,0,0-.3-.92,1.58,1.58,0,0,0-.16-1.12c-.12-.24-.26-.5-.41-.77a1.05,1.05,0,0,0-.29-.55c-.24-.44-.48-.9-.72-1.37a7.89,7.89,0,0,1-.08-.85,1,1,0,0,0,.55-.26,3.7,3.7,0,0,0,.28-.28c-1.13-2.74.85-9.41,2.59-10.49l.26-.13a0,0,0,0,0,0,0c.25-.66.44-1.21.53-1.54a1.12,1.12,0,0,0,.68-.14c1.18-.69,1.79-1.8,2.94-2.56,1.54-1,3.28-.94,4.94-1.56a1.4,1.4,0,0,0,.38-.22,8.72,8.72,0,0,0,.87.42,1.56,1.56,0,0,0,1,.69c1.59.34,3.2.52,4.79.76a1.52,1.52,0,0,0,.94,1.12c1.27.52,2.49,1.06,3.73,1.51a6.77,6.77,0,0,0,.85,1.53c0,.16.07.33.11.49a1.61,1.61,0,0,0,.41,1.81c.24.24.47.49.69.74a18.1,18.1,0,0,0,2.19,2.87,11.61,11.61,0,0,0,1,4.6,17.7,17.7,0,0,0-.63,7.44,9.54,9.54,0,0,0-.61,1,.92.92,0,0,0-.41.55c-.08.28-.17.57-.26.85-.5,1.2-.92,2.49-1.32,3.75,0,.07,0,.14-.08.2a3.5,3.5,0,0,0-1,.48,9.15,9.15,0,0,1-2.24,1.4c-.85.26-1.65,0-2.42.55s-.23,1.58.55,1.85c-.75.25-1.51.51-2.28.75a24.5,24.5,0,0,1-4.78.18,26.63,26.63,0,0,0-6.34-2.2,28.66,28.66,0,0,0-2.78-2.58A15.07,15.07,0,0,0,83.75,141.62Z"/><path class="cls-5" d="M162.55,97.73a21.5,21.5,0,0,0-5,2.91,4,4,0,0,1-2.47.42c-1.46-.5-1.7,1.83-.53,2.34a4,4,0,0,0,1.85.36,1.18,1.18,0,0,0,.48.75c.34,1.25,1.21,1.78,2.78,1.73l.93,0a1.34,1.34,0,0,0,1.74.82c.46-.23.94-.5,1.42-.79a1.44,1.44,0,0,0,.49-.28c.47-.07.94-.14,1.41-.25a1.49,1.49,0,0,0,1.59.48,35.19,35.19,0,0,0,7.1-4.32c1.16-.68,2.26-1.42,3.38-2.21a1.38,1.38,0,0,0,.38-1.73,12.43,12.43,0,0,0,2.78-2.8,1.66,1.66,0,0,0-.75-2.13,6.33,6.33,0,0,0,.46-.44,1.59,1.59,0,0,0-.71-2.51l.6-.55c.78-.68.31-2-.48-2.46l.75-.82a1.85,1.85,0,0,0-.48-2.51l.09-.14c.67-1.08-.92-3.32-1.93-2.12l-.26.29a1,1,0,0,0-1,.2,12.83,12.83,0,0,0-3.81,5.18,1.07,1.07,0,0,0,0,.51,8.69,8.69,0,0,0-1,2.36,2.11,2.11,0,0,0,.68,1.86,1.7,1.7,0,0,0,0,.22,14.09,14.09,0,0,0-2.8,3.68,1.59,1.59,0,0,0-.09,1c-.48.41-1,.82-1.5,1.23a1,1,0,0,0-1.42-.38l-1.2.8a1,1,0,0,0-1.44-.43l-.53.35A1.25,1.25,0,0,0,162.55,97.73Z"/><path class="cls-5" d="M193.3,116.6a78.25,78.25,0,0,0,8.15,3.93c.31.8,1,1.43,1.77,1.09-.12,1,1,2.34,2,2a25.34,25.34,0,0,0,2.91-1.1,1.51,1.51,0,0,0,1.32.86,7.21,7.21,0,0,0,1.92-.22c.49.65,1.3,1,1.93.53a36.59,36.59,0,0,0,4.59-4.55c.7-.72,1.38-1.45,2.06-2.19a1.05,1.05,0,0,0,.49-.39l.59-.82c.57-.65,1.13-1.3,1.66-2a1.36,1.36,0,0,0,.3-.9q.57-.87,1.08-1.8c0,.8,0,1.6-.07,2.37-.06,1.3,2.17,3,2.74,1.18q.65-2.07,1.11-4.23a.94.94,0,0,0,.58-.47c1.74-3.06,1.78-8.69.76-13,.05-2.25.08-4.81-.81-6.8A17.52,17.52,0,0,0,226,82.83a2.14,2.14,0,0,0-1.79-1.07c0-.26-.06-.53-.08-.79-.13-1.5-2.83-2.16-3-.56l-.7-.58a14.19,14.19,0,0,0-1.8-1.7,1.72,1.72,0,0,0-1.32-.33,11.64,11.64,0,0,0-1.61-.69,1.39,1.39,0,0,0-.92.07,1.31,1.31,0,0,0-.28-.2,20.93,20.93,0,0,0-11.16-1.6,1.16,1.16,0,0,0-.84.54c-1.22-.51-2.25,1.07-1.29,2.39.53.72,1.09,1.4,1.66,2.08a1.6,1.6,0,0,0,.37.67c.93,1,1.83,1.94,2.68,3a1.63,1.63,0,0,0,.83.56,21,21,0,0,0,3.35,7.77,2.06,2.06,0,0,0,1.11,2.27,10.21,10.21,0,0,0-.42,1.65,2.54,2.54,0,0,0,1.13,2c-.27.73-.53,1.44-.79,2.13q-.3.76-.54,1.53l-.07.21a.36.36,0,0,0,0,.1,9.89,9.89,0,0,0-.46,4.28,1.83,1.83,0,0,0,.15.45l-.14.52a66.58,66.58,0,0,1-5.94,3.64,32.31,32.31,0,0,0-5.52-1.19l-.5-.13c-1-.54-1.88-1.11-2.85-1.61a.67.67,0,0,0,.06-.12c1.08-3,1.39-8.33-1.1-10.88a1.44,1.44,0,0,0-1-.38,12.23,12.23,0,0,0-.62-1.39,2.15,2.15,0,0,0-1.08-1,12.67,12.67,0,0,1,.15-1.62c.27-1.67-2.41-3-2.75-1a16.52,16.52,0,0,0-.2,3.14,1.07,1.07,0,0,0-.25.23c-1.73,2.41-.7,8.72,1.57,12.37a2.32,2.32,0,0,0,.54,2.72c-.82.39-1,2.26,0,3,.59.46,1.23.94,1.91,1.4A2.1,2.1,0,0,0,193.3,116.6ZM216.86,84a.47.47,0,0,0,.1.1l-.09,0S216.86,84,216.86,84Z"/><path class="cls-6" d="M36.94,107c-1.85-5.76-3.88-13.46-9.87-16-4.92-2.1-11.68-4.81-16.51-1.64-9,5.92-10.64,20.26-3.88,28.53.89,1.1,2.74.38,1.83-1-4.57-6.85-5.07-18.6,2.13-24.11,4.19-3.2,9.26-2,13.84.08,6.13,2.83,7.63,9,10.69,14.61C35.72,108.49,37.36,108.34,36.94,107Z"/><path class="cls-6" d="M68.78,107l.37-.23a.89.89,0,0,0,.16-1.35c-3-3.77-11.06-5.68-15.78-5.29-9.84.81-14.66,9-15.26,17.8-.68,10.1,6.18,22.18,16.86,23.54.86.11.75-1.11,0-1.28-5.42-1.27-11.14-8.19-13-13.1-3.1-8-1.45-18.52,6.79-22.67a16,16,0,0,1,10.73-1.2,27.2,27.2,0,0,1,3.56,1.23,8.89,8.89,0,0,1,4,1.7A1.13,1.13,0,0,0,68.78,107Z"/><path class="cls-6" d="M119.14,128.08c-.82-6.46-5.89-11.64-11.52-14.76-5.34-3-15.39-3.7-20.64-.46-6.08,3.74-8.75,12-10,18.63a20.17,20.17,0,0,0,.56,9.58c1.1,3.62,3.56,5.53,5.45,8.62a.8.8,0,0,0,1.48-.62c-.5-1.58-1.89-2.68-2.79-4a17.83,17.83,0,0,1-2.63-7.82c-.75-7,3.09-17.6,9.09-21.58,4.8-3.19,14.6-2,19.14.68,4.9,2.84,7.44,6.76,9.51,11.82C117.19,129.07,119.33,129.57,119.14,128.08Z"/><path class="cls-6" d="M81.53,122.82c1.69-4.93,4.47-10.07,10.26-10.2a12.28,12.28,0,0,0,7.35-2.25c.77-.61-.37-1.88-1.13-1.67A33.41,33.41,0,0,1,90.79,110a9.26,9.26,0,0,0-4.38,1.12c-4,2.59-5.69,6.57-6.5,11C79.76,122.9,81.21,123.74,81.53,122.82Z"/><path class="cls-6" d="M190.72,107.43c.8-2.06-.3-5,.09-7.26.42-2.42,2.14-5.37,1.78-7.79-.12-.81-1.29-1.84-2.09-1.15l0,0A1.23,1.23,0,0,0,189,91a1.91,1.91,0,0,0-.8,2.08,1.17,1.17,0,0,0,.17.43,7.27,7.27,0,0,0-.05,1.68,1.65,1.65,0,0,0,.67,1.06,30.56,30.56,0,0,0-.71,3.87c-.25,2.2.53,4.42.33,6.57C188.48,107.82,190.24,108.67,190.72,107.43Z"/><path class="cls-6" d="M201.79,81.18a1.19,1.19,0,0,0,1.43.1c3.18-2.61,7.71-1.61,11.23-.44,2.21.73,5,1.77,6.32-.8a1.56,1.56,0,0,0-.19-1.7c-.93-1.29-2.24-1.54-3.73-1.84-1.92-.39-3.87-1.07-5.81-1.27-3.67-.39-6.92,1.15-10.34,2-1.34.33-.71,2.26.35,2.64a1,1,0,0,0,.38,1.07Z"/><path class="cls-7" d="M196,118.12a16.17,16.17,0,0,0,9.42,3,1.63,1.63,0,0,0,2.16,1.46c.7-.34,1.41-.66,2.12-1a1.45,1.45,0,0,0,1,.2,12.25,12.25,0,0,0,3-.94c.38.76,1.29,1.35,2,.83a37.15,37.15,0,0,0,6.75-6.27,1,1,0,0,0,1.21-.31c2.65-3.34,6.34-8.17,6.53-12.56a1.72,1.72,0,0,0-1.07-1.8c-8.64-2.27-9.72,3.94-13.35,9.92-2.08,3.43-4.61,5-8.39,6.47-4.3,1.65-7.66.52-11.08-2.53-2.16-1.92-3.81-4.16-6.35-5.65-1.16-.67-1.62,1.31-.74,1.93C192.11,113,193.2,116.15,196,118.12ZM225.71,106c.47-.43.9-.87,1.3-1.31a21,21,0,0,1-2.07,3.91A14.67,14.67,0,0,1,225.71,106Z"/><path class="cls-7" d="M224.26,111c.14,0,.25-.11.35-.33a1.32,1.32,0,0,0,.81-.21,4,4,0,0,0,1.27-2.15,9.18,9.18,0,0,1,.76-1.65.8.8,0,0,0,.31-.25l.13-.16a1.37,1.37,0,0,0,.14-1.62l-.1-.18a1.42,1.42,0,0,0-2.39-.33,8.56,8.56,0,0,0-1.06,1.89,2.35,2.35,0,0,0-1.48,1.3c-.33.62-.44,1.72-.94,2.23a1.36,1.36,0,0,0,.41,2,1.46,1.46,0,0,0,.95.24C223.6,111.81,224.44,111.07,224.26,111Z"/><path class="cls-7" d="M78.62,143.85c1,3.59,4.8,6.42,7.64,8.41,5.34,3.73,12.21,5.1,18.26,2.34,10.33-4.7,20.68-21.9,11.61-31.85-.64-.7-1.71-.08-1.22.8,6,11.06-3.85,27.77-15.89,29.7-8.49,1.36-13.82-4.84-19.19-10.06A.7.7,0,0,0,78.62,143.85Z"/><path class="cls-7" d="M73.26,124c.69-3.57,0-8.16-.19-11.79-.24-5-2.56-7.17-6.72-9.22-.93-.46-1.31.86-.8,1.46,3.15,3.7,4.89,4,4.85,9.44a38.14,38.14,0,0,0,.41,5.67c.6,5.22-3,10.74-7,13.83-4.66,3.62-9.76,4.17-15.47,3.56-1.1-.12-.7,1.3,0,1.58C58.81,142.77,71.18,134.8,73.26,124Z"/><path class="cls-7" d="M16.63,123.72c2.5.11,6.7-.19,9-1.13,2.75-1.13,5.24-4.83,6.87-7.17a17.29,17.29,0,0,0,3.26-9.66c0-.68-1.18-1.19-1.5-.47-2.13,4.85-4.18,9.9-8.22,13.53-4.52,4.06-12.3,1.55-16.77-1.17a.88.88,0,0,0-1.28.49l-.2.68c-.25.82.84,1.77,1.52,1.21C11.46,121.58,14,123.6,16.63,123.72Z"/><path class="cls-7" d="M174.84,100.73c5-5,9.06-14,3.59-20-.66-.73-1.3.3-1.07,1,2.39,7-.31,14-6.35,18.42s-12.27,2.31-18.86,1c-.91-.19-.79,1.2-.26,1.54,4.24,2.73,7,3.59,12.19,3.11A17,17,0,0,0,174.84,100.73Z"/><path class="cls-8" d="M107.15,141.86c3.43-5.6.67-14.06-2-19.41-.75-1.49-1.61-4-3.65-3.81a2.2,2.2,0,0,0-1,.37c-.12-.13-.83.1-1.42.31a.9.9,0,0,0-1.08.43,12.79,12.79,0,0,0-4.74,2.88,9.42,9.42,0,0,0-.93,1.19.64.64,0,0,0-.1.13,10,10,0,0,0-1.89,6.5,1.63,1.63,0,0,0,.18.46c-.45,3.83.07,7.5,3,10.85C97.22,146.18,103.79,147.34,107.15,141.86Z"/><path class="cls-8" d="M63.44,124.86c1-2.85,1.51-9-.84-11.83a1.33,1.33,0,0,0-.48-.92c-2-1.71-3.81-3.52-6.59-2.42a9.63,9.63,0,0,0-5.07,5.36c-1.64,4.13-.49,10.07,3,12.81,1.87,1.47,3.16,1.41,5.5,1.14C61.75,128.68,62.52,127.45,63.44,124.86Z"/><path class="cls-8" d="M20.87,95.35a1.35,1.35,0,0,0-1.53-.29c-1.88-.38-3.16.91-4.14,3-1.27,2.74-2.72,5.4-2,8.46a10.19,10.19,0,0,0,2.52,5.26,1.89,1.89,0,0,0,1,1.84c1.2.54,2.51,1.38,3.88,1.32a2.51,2.51,0,0,0,.81-.18,4.33,4.33,0,0,0,3.19-1.19,1.18,1.18,0,0,0,.19-1.41c1.32-.92,1.61-2.5,1.91-4.15a6.23,6.23,0,0,0,0-2.2c1.19-2.25-.47-6.14-1.95-7.73a1.48,1.48,0,0,0-1.14-.45l0-.07C22.78,96.47,21.86,96.19,20.87,95.35Z"/><path class="cls-2" d="M101.83,131.85c1.49-3-.17-7.48-3.53-8.42-.84-.24-.71,1.09-.39,1.44,1.7,1.84,3,3.71,1.2,6.13-1.34,1.8-3.82,1.6-5.84,1.82-.93.1-.74,1.26-.28,1.75,1.19,1.26,3,.85,4.58.64A5.45,5.45,0,0,0,101.83,131.85Z"/><path class="cls-2" d="M101.79,128.92a3.51,3.51,0,0,0-1,2.2c0,.11,0,.22,0,.32a1,1,0,0,0-.55.27,4.16,4.16,0,0,0-.74,1,.59.59,0,0,0-.23,0,4,4,0,0,0-1.42.84.89.89,0,0,0-.66-.11,1.53,1.53,0,0,0-.94.48,1.62,1.62,0,0,0,.22,2.27,1.17,1.17,0,0,0,1.14.56,2,2,0,0,0,.22-.08,3.41,3.41,0,0,0,.46.05,1.17,1.17,0,0,0,1.29.3,1.49,1.49,0,0,0,.63.36,1.34,1.34,0,0,0,.8-.05,2,2,0,0,0,.33.75c0,.1-.08.2-.11.3-.22.87.52,2.12,1.52,2,1.59-.25,2.32-2.7,2.65-4a11.28,11.28,0,0,0-.29-6.12c-.86-3.08-3.6-7.3-7.24-7-.61,0-.5,1-.18,1.27.75.71,1.63,1.16,2.44,1.79a8.82,8.82,0,0,1,1.91,2.49A.7.7,0,0,0,101.79,128.92Z"/><path class="cls-2" d="M61.23,120.15c0-1.72-1-2.81-1.53-4.36A4.87,4.87,0,0,0,57,112.65a1,1,0,0,0-1.4,1.23,3,3,0,0,0,.59,1.08c0,.1,0,.2,0,.3s.3.59.28.8a4.78,4.78,0,0,0-.45.58,7.77,7.77,0,0,1-.6,1.4,10,10,0,0,1-1.24,1.65c-.43.35-1.37.14-2,.31-.94.28-.27,1.64.33,1.87,1.15.43,2.06.88,3.2.24a2,2,0,0,0,.93.91,1.46,1.46,0,0,0,.59,1C59.75,125.57,61.27,122.18,61.23,120.15Z"/><path class="cls-2" d="M20.07,100.72a4.39,4.39,0,0,0,.31-.83,1,1,0,0,0-.06-.61c-.24-1.11-1.75-2-2.42-.73-.26.48-.53.87-.79,1.27h0c-1,0-1.24,1-1.6,1.75a5.67,5.67,0,0,0-.36,4.24,6.74,6.74,0,0,0,2.52,3.38,12.12,12.12,0,0,0,1.54.93c.12.07.42.21.69.34a3.21,3.21,0,0,0,1.42.88,1.12,1.12,0,0,0,1.18-1.81,3.71,3.71,0,0,0-1.25-1,16.8,16.8,0,0,1-1.22-3.2A7.53,7.53,0,0,1,20.07,100.72Z"/><path class="cls-3" d="M13.4,111.82a30.78,30.78,0,0,0-1.16-4.8,23.8,23.8,0,0,1-.31-7.63c.31-1.23.69-2.45,1.06-3.71s-1.89-2.54-2.48-1.18c-1.73,4-3.91,8.71-2.59,13.16a30,30,0,0,0,2.38,5.63c1,1.8,2.35,1.77,3.91,3,.78.59,2.12-.09,1.51-1.09C15,113.92,14,113.91,13,113a2.4,2.4,0,0,1-.36-.41A.66.66,0,0,0,13.4,111.82Z"/><path class="cls-3" d="M50.18,131.4c1.48.57,2.18-1.66.79-2.26l.14,0a1.08,1.08,0,0,0,.56-.77c.2-2.31-1.64-5.14-3.41-7.11a15.31,15.31,0,0,0-.53-6l0,0a33,33,0,0,1,2.1-4.65c.44-.76-.31-1.48-1.08-1.59a1.83,1.83,0,0,0-1.16-.56,1.47,1.47,0,0,0-2-.13,10.32,10.32,0,0,0-1.88,4.07,1.1,1.1,0,0,0,0,.36,10.1,10.1,0,0,0-1,4.27,21.52,21.52,0,0,0,.83,5.5c-.46.4-.56,1.07.2,1.65a4.36,4.36,0,0,1,.72.76A12.39,12.39,0,0,0,46,128.18a1.31,1.31,0,0,0,.69.57l.16.24A6.89,6.89,0,0,0,50.18,131.4Z"/><path class="cls-3" d="M87.53,118l-.16.29h0l0,.09c-.29.5-.56,1-.8,1.52a1.33,1.33,0,0,0-.63.31,5.58,5.58,0,0,0-1.56,2.62,1.54,1.54,0,0,0,.37,1.38l-.06.2c-.74-.29-1.53-.15-1.54.89a24.63,24.63,0,0,0,.33,4,.88.88,0,0,0-.72.45c-.79,1.4-.34,2.8.21,4.22s1.16,2.76,1.79,4.12a8.54,8.54,0,0,0,2.12,4.69,1.43,1.43,0,0,0,1.74.43,5.39,5.39,0,0,0,1.13,1.16c.86.67,2.32,0,2-1.14a10.94,10.94,0,0,0-1.14-2.4,1.66,1.66,0,0,0,0-.45A21.34,21.34,0,0,0,89.08,135a.86.86,0,0,0,.52-.91,54.76,54.76,0,0,1,0-8.78.77.77,0,0,0,0-.26c.81-1.56,1.94-2.91,2.74-4.5.56-1.1-1.2-2.47-2.16-1.76l-.2.16C89.76,117.9,88.16,116.93,87.53,118Z"/><path class="cls-4" d="M92.62,143.87a41.78,41.78,0,0,1-3.57-7.33,19.47,19.47,0,0,1-.65-6.41c.16-4.36,2.18-7.19,3.61-11,.29-.8-.86-2-1.57-1.27-4.52,4.68-5.3,11.31-4.32,17.54.53,3.35,2.36,7.54,4.85,9.79C92,146.08,93.31,145.1,92.62,143.87Z"/><path class="cls-4" d="M51.77,130.37c.67-1.72-2.51-6.08-2.86-7.47-1.3-5.15.7-10.33,2.46-15.1.27-.73-.81-1.81-1.48-1.2-3.19,2.94-4.28,9.59-3.79,13.88a16.65,16.65,0,0,0,2.29,7c.31.53,1.74,3,1.72,2.48C50.14,130.69,51.46,131.18,51.77,130.37Z"/><path class="cls-4" d="M14.32,113.24a1.16,1.16,0,0,0,0-1.41c-1.33-1.8-1.64-5.17-1.68-7.32-.05-3.06.89-5.6,1.33-8.56.12-.8-1.06-1.43-1.58-.77-2.19,2.81-2.4,6.7-2.23,10.12a25.17,25.17,0,0,0,.8,4.19c.3,1.3,1,2.28,1.38,3.44a1.09,1.09,0,0,0,1.7.54A2.73,2.73,0,0,0,14.32,113.24Z"/><path class="cls-3" d="M124.6,106.8a7.7,7.7,0,0,0-.25,1.76,1.23,1.23,0,0,0-.44.62.91.91,0,0,0-.76.61c-.82,2.13-1.15,6.42,1,7.89a1.4,1.4,0,0,0,0,.36c.13,1.4,0,2.76.2,4.15a2.06,2.06,0,0,0,.14.44c.11,1.21.24,2.41.39,3.62a1,1,0,0,0-.28.72c-.08,2.68-.23,5.4-.44,8.11-.12.81-.27,1.62-.41,2.44a1.17,1.17,0,0,0,.13.73c-.08.81-.16,1.61-.26,2.41-.14,1.08,1.41,2.29,2.18,1.56.7.63,1.92.69,2.05-.5,0-.46.12-1,.21-1.49a.9.9,0,0,0,1-.66,39,39,0,0,0,1.86-5.47,1,1,0,0,0,.34-.51c.94-2.94.57-6.29.47-9.33A1.48,1.48,0,0,0,131,123c0-.28,0-.55,0-.82,0-.06,0-.1,0-.15a27.39,27.39,0,0,0-.91-6.65,13.59,13.59,0,0,0-.67-5.53,1.58,1.58,0,0,0-1.7-1.1,12.22,12.22,0,0,0-.56-1.75C126.66,105.91,125,105.2,124.6,106.8Z"/><path class="cls-3" d="M202.87,107.13a7,7,0,0,0-.44.91c-.4,1,1,2.22,2,1.81a3.64,3.64,0,0,0,1.74-1.89,1,1,0,0,0,.63-.35c2.07-2.36,2.06-6,2.29-8.92.19-2.37.56-5.38-.86-7.4a1.54,1.54,0,0,0-.55-.48s0-.09,0-.13h0a1.88,1.88,0,0,0-1-1.2c0-.39,0-.77,0-1.14a1.74,1.74,0,0,0-2-1.54,1,1,0,0,0-1.28.65,12,12,0,0,0-1.16,4.47c0,1.47.17,2.77.27,4a29.76,29.76,0,0,0-.5,5.09,1.41,1.41,0,0,0,.74,1.28,14.83,14.83,0,0,1-.37,2.12A1.48,1.48,0,0,0,203,106,1,1,0,0,0,202.87,107.13Z"/><path class="cls-3" d="M124.5,110.53a.92.92,0,0,0-.11-.29,3.46,3.46,0,0,1,.72-.94.58.58,0,0,0,.18-.26,1.18,1.18,0,0,0,.26-.24,1.39,1.39,0,0,0-.55-2c-1.15-.57-2,.15-2.85.82a1.19,1.19,0,0,0-.35,1.44,2.69,2.69,0,0,0-.21,2.36,1.83,1.83,0,0,0,2.12,1A1.47,1.47,0,0,0,124.5,110.53Z"/><path class="cls-4" d="M128.81,118.11a.91.91,0,0,0,.82-.44,6,6,0,0,0,1.23-2,2,2,0,0,0-1.76-2.39,1.66,1.66,0,0,0-1.68,1c-.07.14-.13.28-.19.42-1.17.65-1.57,2.76-.24,3.46a1.22,1.22,0,0,0,.87.16A.89.89,0,0,0,128.81,118.11Z"/><path class="cls-4" d="M131.15,127.27a2,2,0,0,0-1.18-2.81c-1.28-.48-2,.54-2.41,1.61a2.54,2.54,0,0,0,.55,2.71,2,2,0,0,0,3,0A1.28,1.28,0,0,0,131.15,127.27Z"/><path class="cls-4" d="M129.3,138.23a2,2,0,0,0,.9-2.24c-.32-1.18-1.84-1.88-2.64-.76a2.76,2.76,0,0,0-.51,2.25c.27.9,1.35,1.52,2.07.81Z"/><path class="cls-4" d="M208.09,93.13c.84-.31.8-1.12.43-1.75a2.44,2.44,0,0,0,.06-.26,1.58,1.58,0,0,0-1.42-1.68,1.39,1.39,0,0,0-1.18.47h0l0,0a1.12,1.12,0,0,0-.6,1.4,1.5,1.5,0,0,0,0,.3,2,2,0,0,0,1.32,1.61,1.71,1.71,0,0,0,.84,0A2.87,2.87,0,0,0,208.09,93.13Z"/><path class="cls-4" d="M205.8,96.22a1.66,1.66,0,0,0,.23,1.57,2,2,0,0,0,.6,1.28.92.92,0,0,0,.91.54,1.56,1.56,0,0,0,.61,0,1.84,1.84,0,0,0,1.31-.9,2,2,0,0,0-.18-2.11,1.13,1.13,0,0,0-.51-.44,2.42,2.42,0,0,0-.57-.67A1.45,1.45,0,0,0,205.8,96.22Z"/><path class="cls-4" d="M207.85,105.85c.36-.13.7-.26.83-.7a1.12,1.12,0,0,0-.29-1.11l0-.18c.13-.79-.54-2-1.51-1.8a2.61,2.61,0,0,0-2,1.76,2.41,2.41,0,0,0,1,2.58c.42.38,1.36.56,1.7-.06C207.7,106.21,207.77,106,207.85,105.85Z"/><path class="cls-9" d="M64.82,74.25c0,.32-.11.63-.17.91-.2.86,1,1.94,1.65,1a8.06,8.06,0,0,0,.93-6.87,1.51,1.51,0,0,0-.09-.18,5.55,5.55,0,0,0-.3-1.65,1.4,1.4,0,0,0-2.06-.82,1.64,1.64,0,0,0-.56.66.87.87,0,0,0-1,.47,9.84,9.84,0,0,0-.94,2.47c0,.12-.06.24-.08.36C62,71.86,63.44,73,64.29,72.31c0,.13,0,.26,0,.39v0a.86.86,0,0,0,0,.16h0c0,.13,0,.26,0,.4A1.56,1.56,0,0,0,64.82,74.25Z"/><path class="cls-9" d="M77.25,68.11,77,68c-.11-.06-.23-.1-.34-.15a4.56,4.56,0,0,0-.78-.27c-.67-.14-1.37-.48-1.94.14a1.69,1.69,0,0,0-.21.31.8.8,0,0,0-.87.38.84.84,0,0,0-.73.25c-.58-.53-1.45-.66-1.86.24a7.06,7.06,0,0,0-.78,2.65,1.13,1.13,0,0,0,.15.69c.36.86,1.35,1.43,2.14.7a1,1,0,0,0,.6,0l.13-.07c.28.8,1.46,1.54,2.16.89a3.75,3.75,0,0,0,.37-.44,1.74,1.74,0,0,0,.79,1.26,1.58,1.58,0,0,0,1.45.21,3,3,0,0,1-.19.69c-.44,1.16-1,1.73-.36,3,.28.57,1.29,1.18,1.92.78A5.72,5.72,0,0,0,80.74,76a9.78,9.78,0,0,0,.26-3,1.53,1.53,0,0,0-1.35-1.53,5.94,5.94,0,0,0-.26-.78,1.68,1.68,0,0,0-1-.8l0,0s0,0,0,0Z"/><path class="cls-9" d="M86.92,80.31A4,4,0,0,0,86.66,79a.94.94,0,0,0,1.5-.42,4.89,4.89,0,0,1,3.39-3,3,3,0,0,0,2-1c.74-1-.48-2.51-1.56-2.45l-.52,0a1.18,1.18,0,0,0-1.11-.35,8.83,8.83,0,0,0-1.07.29,1.3,1.3,0,0,0-.89,0c-1.92.68-3.5,2.48-4.81,4a1.63,1.63,0,0,0-.14,1.66,4.17,4.17,0,0,0-.3,1.79,1.77,1.77,0,0,0,.61,1.14c0,.06,0,.11,0,.17a2,2,0,0,0,.57,1s0,.06,0,.1c.24.9,1.06.55,1.39,1C86.43,83.71,86.93,80.47,86.92,80.31Z"/><path class="cls-10" d="M62.83,81a2.34,2.34,0,0,0-.53-1.73c-.13-.19-.29-.36-.44-.55s-.06-.11-.08-.12c-.15-1.09-1.75-1.75-2.08-.41A2.3,2.3,0,0,0,60.19,80c.13.18.27.36.4.55,0,.72.63,1.65,1.41,1.47l.1,0A1,1,0,0,0,62.83,81Z"/><path class="cls-10" d="M69.58,89.36a4,4,0,0,0-1.14,2,.85.85,0,0,0-.29,1.29,1,1,0,0,0,.82,1,2.87,2.87,0,0,0,.88,0c10.1,5.11,22.49,6.66,33.8,6.46a1.14,1.14,0,0,0,.11.11.71.71,0,0,0,1.14-.14l1.7,0c.9,0,.73-1.26-.07-1.36l-2-.23-.28-.47a.79.79,0,0,0,0-1.15c-2.55-2.69-7.64-7.69-12.53-9.57l.34-.31c1-.85-.41-2.89-1.56-2.36a1.61,1.61,0,0,0-.63-.13c-3.46-.06-7.09-.4-10.58-.23-1.45.07-3.81.06-5.37.82a6.15,6.15,0,0,0-3.48.5c-1.21.48-.67,2.27.35,2.73l-.89.79A1,1,0,0,0,69.58,89.36Zm5.54,2.11a4.83,4.83,0,0,1,1.37,0h0a29.62,29.62,0,0,0,11.77.62,21.9,21.9,0,0,1,7.64,2.32,40.45,40.45,0,0,1,5.39,3.6c-3.59-.39-7.16-.81-10.8-1.52-3.16-.63-6.34-.82-9.51-1.48a61,61,0,0,1-8.13-2.55c.42-.21.81-.4,1.17-.55A8.28,8.28,0,0,1,75.12,91.47Z"/><path class="cls-10" d="M131.07,102.51c1.67-.08,3.29-.14,5-.2a41.38,41.38,0,0,0,9.37-1.72c.9-.25.43-1.53-.32-1.64-2.82-.41-6,.47-8.83.72-1.54.13-3.05.06-4.59.19s-3.73-.19-5.26.36a.75.75,0,0,0-.52.67l0,.14c-.07.54.55,1.34,1.15,1.1S130.27,102.55,131.07,102.51Z"/><path class="cls-10" d="M26,103.27c.31.69,1.37.86,1.56,0,.62-2.61-1.72-6-4-7.25a10.81,10.81,0,0,0-6-1.57c-1.87.17-4.61,1.39-5.27,3.3a1,1,0,0,0,1.49,1.1,7.84,7.84,0,0,1,9.49-.18c.08.06.56.53.8.73a3.34,3.34,0,0,0,.17.51A21.75,21.75,0,0,1,26,103.27Z"/><path class="cls-10" d="M65.11,115.65c.08-2.86-3.57-5.44-6-6.25a8.13,8.13,0,0,0-9.76,3.92c-.39.68.69,1.43,1.27,1.08,2.7-1.6,4.91-3.85,8.39-2.46a13.15,13.15,0,0,1,4.64,3.81C64,116.13,65.08,116.5,65.11,115.65Z"/><path class="cls-10" d="M109.68,128.16c-.64-4.71-10.6-12.08-15.3-9.9a.77.77,0,0,0-.3,1.06,8.33,8.33,0,0,0-4.46,3.54c-.37.64.52,1.74,1.21,1.32,3.41-2.09,6.83-4,10.86-1.35a30.85,30.85,0,0,1,6.2,6C108.49,129.51,109.81,129.16,109.68,128.16Z"/><path class="cls-11" d="M108.33,145.62a16.79,16.79,0,0,0,2.25-4.35.59.59,0,0,0,.12-.34c2.79-8.28-.1-18.81-7.33-23.65-5.05-3.39-11.06-3.54-15.34-.61a.7.7,0,0,0-.54.12c-8.11,5.85-7.95,19.73-2.72,27.4C90.3,152.31,102.21,154,108.33,145.62ZM95.94,117.84h0ZM91.06,143.4a.83.83,0,0,0-.37.35,12.43,12.43,0,0,1-3.4-6c-.09-.48-1.05-.5-1.13,0a8.71,8.71,0,0,0,1.17,5,.6.6,0,0,0-.08.43,15.83,15.83,0,0,1-2.3-4.1,20.54,20.54,0,0,1,2.1-19.26,9.46,9.46,0,0,1,1.09-.79,1.29,1.29,0,0,0,0,.28,7,7,0,0,0-1,1.59,11.62,11.62,0,0,0-1.39,5.92c.07.59,1.25.82,1.3.15A9.92,9.92,0,0,1,89,121.73a7,7,0,0,1,1.74-1.42,3.16,3.16,0,0,0-.16.43,19.62,19.62,0,0,0-1.12,2,12.54,12.54,0,0,0-1.89,6.87,7.32,7.32,0,0,0-.11,3.72c.06.57.16,1.12.27,1.67a7,7,0,0,0,.49,2.16A12.83,12.83,0,0,0,91.06,143.4Zm10.28,1.92c-5.41-.06-10.47-7.15-10.83-11.94a21.57,21.57,0,0,1,.83-7.41c1-3.32,5-6.8,8.57-6.69a13.92,13.92,0,0,1,5.54,5.22c2.8,4.85,3.73,12,1.47,17.47a10.05,10.05,0,0,1-1.8,1.71c-1.13.78-2.92.48-3.77,1.62C101.34,145.3,101.34,145.31,101.34,145.32Z"/><path class="cls-11" d="M67.1,122.65c1.15-8.48-3.9-18.11-13.27-18.42-6.34-.21-12.52,5.59-11.67,11.9-1.08,6.52.83,13.58,7.05,16.94C57.65,137.63,65.92,131.38,67.1,122.65ZM55.31,132.1a.08.08,0,0,0,0,0l.12,0ZM58,130.72h0Zm-2.92-23.49h0l-.09,0Zm.76,3a5.26,5.26,0,0,1,4.22.86,19,19,0,0,1,1.59,1.64,16,16,0,0,1,1.81,8.92,17.54,17.54,0,0,1-.89,4.6,8.61,8.61,0,0,1-1.75,1.58c-3.17,2-5.44.52-7.57-2a9.19,9.19,0,0,1-2.15-5.75,24.83,24.83,0,0,1,.4-6.49c.5-.36.61-.9,1-1.39A5.11,5.11,0,0,1,55.84,110.26Zm-7,20.06a10.07,10.07,0,0,1-1.52-1.26c-4.83-4.81-4.07-11.79-2.35-17.78A8.9,8.9,0,0,1,47.74,108a12.49,12.49,0,0,0-2.1,6.56c0,.61.92.64,1.2.27.94-1.25.78-3,1.69-4.32a7.27,7.27,0,0,1,.91-1c-1.62,3-1.89,7.17-1.61,10.21a14.54,14.54,0,0,0,.46,2.39A15.56,15.56,0,0,0,51.17,129l-.29-.16A7.79,7.79,0,0,1,47.59,126c-.23-.45-1.24-.41-1.1.21A7.21,7.21,0,0,0,49,129.88l.07.06A1,1,0,0,0,48.87,130.32Z"/><path class="cls-11" d="M29.27,109.47c1.29-7.49-1.71-16.16-10-17.55C15,91.2,10.73,93.61,8.4,97.19a.52.52,0,0,0-.21.25c0,.09-.07.18-.1.27a10.23,10.23,0,0,0-1.42,6.34c-.45,6.1,1.66,12.38,8,14.59C21.76,121.13,28.06,116.45,29.27,109.47ZM17.57,96.26c3.59-1.65,4.36.84,6.63,1.77,2,2.94,2.16,7.07,1.61,10.69A10.22,10.22,0,0,1,24,113.26c-3.87,1.68-6.59,1.34-9-2.62a11.34,11.34,0,0,1-1.39-7.39C13.84,100.54,14.94,97.47,17.57,96.26ZM13,115.06a10.71,10.71,0,0,1-2.13-2c-3.5-4.26-3.23-9.43-1.67-14.32A9.35,9.35,0,0,1,12,95.66c-.76,1.18-.74,2.67-1.41,3.93-.28.53.51.88.89.57a4.29,4.29,0,0,0,.43-.4,12.23,12.23,0,0,0-.51,4.67,12.21,12.21,0,0,0,.42,3.87,8.36,8.36,0,0,0,1.08,3.43,8.87,8.87,0,0,1-2.15-3.92c-.09-.56-1.11-.47-1.11.08,0,2.12,1.49,4.61,2.65,6.34A4.51,4.51,0,0,0,13,115.06Z"/><path class="cls-11" d="M15.27,106.87a3.55,3.55,0,0,0,.7,2.38,8.57,8.57,0,0,0,2.11,2.22c1.2.81,3.66,1.23,4.85.23,1.58-1.31.5-3.12-1.2-3.42a2.81,2.81,0,0,0-1.29,0c-.15,0-1,.26-.78.29A10.15,10.15,0,0,1,18.3,108a3.22,3.22,0,0,1-1.38-.83.74.74,0,0,0-.32-.16c-.11-.14-.21-.27-.32-.39A.6.6,0,0,0,15.27,106.87Z"/><path class="cls-11" d="M52.63,120.05a4.69,4.69,0,0,0,.55,2.17,5.92,5.92,0,0,0,1.13,1.9,2.68,2.68,0,0,0,.83.59c-.26-.15.56.44.58.45a4.19,4.19,0,0,0,2.42.86,2.19,2.19,0,0,0,2.1-3,2,2,0,0,0-1.56-1.36c-.64-.09-1.51.24-2.12,0-.23-.14-.45-.3-.66-.4a8.2,8.2,0,0,1-1.27-.79l-.09-.06,0,0a1.08,1.08,0,0,0-.18-.11h0a1.07,1.07,0,0,0-.32-.07c-.05-.1-.1-.21-.14-.31C53.61,119.5,52.72,119.49,52.63,120.05Z"/><path class="cls-11" d="M92.42,134.17a17.65,17.65,0,0,0,1.42,3.63,11.77,11.77,0,0,0,3.08,2.89c2.16,1.53,4.9,2.59,7,.5,1.65-1.62,1.84-4.24-.94-4.31-.86,0-1.75.23-2.57.22a7.63,7.63,0,0,1-2.47-.85c-.53-.23-1.06-.39-1.61-.61a6.59,6.59,0,0,1-1.8-1.29.91.91,0,0,0-.31-.16c-.08-.15-.15-.31-.24-.46C93.59,133.08,92,133.25,92.42,134.17Z"/><path class="cls-11" d="M114.84,50.72a.46.46,0,0,0-.2-.9,1.09,1.09,0,0,0-.8.43c-.5.61.5,1.07.93.52Z"/><path class="cls-11" d="M104.93,50.14a8.06,8.06,0,0,0,.53-3.94,13.4,13.4,0,0,0,3.91.65c.84-.08,1.07-1.25.12-1.38-1.62-.21-2.93-1.4-4.65-1.52a38,38,0,0,0-5-.22,7,7,0,0,0-6,5.42c-.79,3,.45,4,3.2,4.8,1.13.31-.81-.3.25,0l1.85.59a13.82,13.82,0,0,0,5.51.52c.85-.07,1.07-1.27.12-1.38a19.85,19.85,0,0,1-2.58-.47A5.78,5.78,0,0,0,104.93,50.14Zm-5.14,1.32a12.13,12.13,0,0,0,1.49.18,4.69,4.69,0,0,1-1.32.45c-.35,0-.68,0-1,.06l-.2-.08c-1.55-.63-2.73-.58-1.88-2.77,1.26-3.24,3.87-3.13,6.71-3.19a1.92,1.92,0,0,1,.35,2h-.11a3.66,3.66,0,0,0-.8-.16,8.55,8.55,0,0,0-1.6,0c-.66.13-.47.94.08,1.06a5.83,5.83,0,0,0,.94.21c.22,0,.45,0,.67,0l.4.06a7.18,7.18,0,0,1-.55,1l-.06.08-.25,0a15.51,15.51,0,0,0-2.81,0C99.15,50.5,99,51.31,99.79,51.46Z"/><path class="cls-11" d="M11.05,124.46a13.78,13.78,0,0,0,2.24.77,3.71,3.71,0,0,0,2.1.28.88.88,0,0,0,.23-.14,15.1,15.1,0,0,0,2.82.54.56.56,0,0,0,.35-.09h.12l.59,0a.67.67,0,0,0,.41.14,21.39,21.39,0,0,0,6.77-.59c1.08-.35,3-1.22,3.71-2.4a15.35,15.35,0,0,0,1.53-1.48l0-.06a10.49,10.49,0,0,0,2-1.79,9.76,9.76,0,0,0,2.29-3.31c0,.14,0,.27,0,.4a10.38,10.38,0,0,0,0,2.67.61.61,0,0,0,.09.18c0,.1,0,.2.06.3s0,.44,0,.66c0,.76,0,1.53,0,2.29a18.23,18.23,0,0,0,.43,4.26c.16.73.34,1.94,1.09,2.33l0,.11c.26.62.46,1.51,1,1.91l0,.1a6.43,6.43,0,0,0,1.34,2,4.06,4.06,0,0,0,1.7,2,2.14,2.14,0,0,0,.13.19,6.44,6.44,0,0,0,1.91,1.84,2,2,0,0,0,.33.25,6.31,6.31,0,0,0,.53.63,3.59,3.59,0,0,0,1.68,1c.14.11.29.21.44.31s0,.05.07.07a6.23,6.23,0,0,0,1.44,1A.93.93,0,0,0,49,141a24.31,24.31,0,0,0,3.62,1.19.87.87,0,0,0,.47.15h.11l1.18.3c1.28.32,3.05,1,4.18.12a19.55,19.55,0,0,0,2-.24,5,5,0,0,0,.87-.17c3.48-.73,7.19-2.39,8.42-5.24.31-.32.61-.65.91-1s.41-.43.64-.69a11.62,11.62,0,0,0,.94-1.14A17.35,17.35,0,0,0,74,131.75a20.57,20.57,0,0,0,.21,2.33,20.08,20.08,0,0,0,.52,5.18c.22,1,.4,2.32,1.26,2.89a5.41,5.41,0,0,0,1.39,2.42,9.9,9.9,0,0,0,.49,1.29l.23.44a10.42,10.42,0,0,0,2,3.67,18.1,18.1,0,0,0,2.09,2.59.46.46,0,0,0,.18.61c1.17.72,2.54,1.17,3.65,2l.09.06a.58.58,0,0,0,.31.44c.3.2.59.37.88.55a.54.54,0,0,0,.3.52,16.69,16.69,0,0,0,4.86,2.16c1.71.47,3.65,1.18,5.45.92l1,.2a7.4,7.4,0,0,0,2.73.21,7.74,7.74,0,0,0,3.74-.74l1.32-.61a8.4,8.4,0,0,0,1.41-.55,12.3,12.3,0,0,0,5.48-2.82,29.75,29.75,0,0,0,2.52-2.63,15.1,15.1,0,0,0,2-2.1,13.81,13.81,0,0,0,2.76-4.28,4.87,4.87,0,0,0,1.32,0,3.84,3.84,0,0,0,1.06.12,2.93,2.93,0,0,0,1.32.33,1.44,1.44,0,0,0,.74-.25.39.39,0,0,0,.23.13,3.33,3.33,0,0,0,1.66-.49,3.86,3.86,0,0,0,1.09-.82,3.63,3.63,0,0,0,1.45-1.37,12.88,12.88,0,0,0,1.79-1.67,1.11,1.11,0,0,0,.25-.44,6.31,6.31,0,0,0,1.35-1.91,6.9,6.9,0,0,0,.92-1.91c.87-.3,1.15-1.7,1.31-2.48a26.17,26.17,0,0,0,.65-4.38,23.8,23.8,0,0,0,.36-6.2v-1a3.17,3.17,0,0,0-.19-1.59,24.14,24.14,0,0,0-.47-2.85,42.42,42.42,0,0,0-1-4.21.32.32,0,0,0,0-.14,19.73,19.73,0,0,0-1.76-5.83,22.71,22.71,0,0,0-1.2-2.65c3-.4,5.93-.87,8.86-1.42s6.14-1.13,9.22-1.9a2.16,2.16,0,0,0,.79,0l.24-.07c1.13,2.46,4.72,4.37,7,5.15a17.44,17.44,0,0,0,6.72,1.05,13.61,13.61,0,0,0,1.43.17.56.56,0,0,0,.62-.41l.26,0,.46-.06a.74.74,0,0,0,.33,0,11.37,11.37,0,0,0,3.81-1.47l.42-.19a.64.64,0,0,0,.38-.12l.21-.15.93-.45c1-.27,2.3-.57,2.61-1.43,4.63-2.81,7.43-7.64,9-12.88.13-.42.27-.92.4-1.46a1.24,1.24,0,0,0,.37.17c-.15.74-.26,1.48-.34,2.22a28.78,28.78,0,0,0-.16,7.11,15.6,15.6,0,0,0,.57,4.92c.06.31.11.61.18.93a16.31,16.31,0,0,0,.7,2.75,13.6,13.6,0,0,0,.67,3.11c.25.38.51.76.79,1.12a2.31,2.31,0,0,1,.22.45,1.78,1.78,0,0,0,1.23.45h0c.07.16.15.31.23.46a5.49,5.49,0,0,0,.57,1.1c.17.23.35.51.54.79s.38.59.6.88a14,14,0,0,0,2.18,2.46,4,4,0,0,0,.39.6,30.32,30.32,0,0,0,3.9,3v0l.35.22.1,0a25.14,25.14,0,0,0,3.09,1.62c.75.11,1.46.07,2.13.16a.77.77,0,0,0,.74-.28l.62.08c-.13.36,0,.77.6.85a27.41,27.41,0,0,0,9.68-.72.9.9,0,0,0,1,.2,23.38,23.38,0,0,0,9.76-6,15.55,15.55,0,0,0,3.81-5.54,26.65,26.65,0,0,0,2.43-5.19c1.19-2.81,2.31-5.64,1.83-8.7a12.45,12.45,0,0,0,.09-2.78c.25-2.66.39-5.74-.61-8a1,1,0,0,0-.64-.49c-.11-.5-.25-1-.43-1.61a6.6,6.6,0,0,0-1-2.29,7.9,7.9,0,0,0-.56-.89,7.62,7.62,0,0,0-1.23-2.55,25.32,25.32,0,0,0-2.27-3.26c-1.18-1.32-3.17-3.1-5.12-3.35a8.6,8.6,0,0,0-3.11-1.28l-.26-.18c-2.93-1.91-5.37-2-8.89-2.23a1.09,1.09,0,0,0-1,.57h-.3a14.91,14.91,0,0,0-1.64,0h-.06a.79.79,0,0,0-.6-.18,10.23,10.23,0,0,0-3,.58l-.05,0a4.75,4.75,0,0,0-2.51.39l-1.46,0A39.21,39.21,0,0,0,195,70.83c-1.31-1.14-3.21-1.55-4.86-2l-.84-.22a19.2,19.2,0,0,0-6.14-1.73,1.59,1.59,0,0,0-.13-.13.51.51,0,0,0-.25-.14,27,27,0,0,0-2.57-10.18c-.2-.4-.42-.8-.63-1.19a.47.47,0,0,0,.22-.64A28.18,28.18,0,0,0,177,50.1a22.54,22.54,0,0,0-4-4.39.74.74,0,0,0-.39-.16c-.54-.51-1.1-1-1.69-1.45a9.83,9.83,0,0,0-1.12-.86,8.33,8.33,0,0,0-2.31-1.81,13.48,13.48,0,0,0-1.31-1.15,19.87,19.87,0,0,0-4.56-2.7,10.15,10.15,0,0,0-1.53-.71.76.76,0,0,0-.2-.29A9,9,0,0,0,156.15,35c-.69-1-2.51-1.19-3.49-1.47s-2.2-.59-3.31-.84a17.53,17.53,0,0,0-3.76-1l-.87-.17a41.92,41.92,0,0,0-5.39-1.14c-4.46-1.25-9.92-1-14-1.43l-.19,0-2.29-.14a.73.73,0,0,0-.33-.16,46.12,46.12,0,0,0-15,.1.89.89,0,0,0-.54-.16A69.44,69.44,0,0,0,89.85,31a.65.65,0,0,0-.3.18A41.43,41.43,0,0,0,85,32.1,20.12,20.12,0,0,0,81,33a14.37,14.37,0,0,0-3.58,1.08c-2,.61-3.91,1.27-5.85,2a.72.72,0,0,0-.48.52L70,37.1a74.5,74.5,0,0,0-3.9-8c-4-7-9.59-13.14-15.52-18.66-.43-.4-1.29.06-.83.6a82.5,82.5,0,0,1,7.17,9.3c1.76,2.72,4.23,4.84,5.86,7.63A55.68,55.68,0,0,1,67,36.42,13.63,13.63,0,0,0,67.76,38l-1,.44a.56.56,0,0,0-.36.56,14.79,14.79,0,0,0-3.84,1.9c-1.42.31-2.86,1.89-3.92,2.7A28.08,28.08,0,0,0,54.46,47a.65.65,0,0,0-.17.33,26.49,26.49,0,0,0-7.08,10.08,31,31,0,0,0-2.4,11.8,44.87,44.87,0,0,0-5.33,1.9l-.35.15A19.88,19.88,0,0,0,37,72H37a57.09,57.09,0,0,0-13.18,6.55c-.6.34-1.2.69-1.8,1.06a90.65,90.65,0,0,0-8.94,5.56q-.87.27-1.74.6a7,7,0,0,0-1.35.54l-.06,0a5.9,5.9,0,0,0-2.79,1.78,9.84,9.84,0,0,0-1.39,1.34l-.93.82a.64.64,0,0,0-.24.59A15.89,15.89,0,0,0,2.83,93a13.29,13.29,0,0,0-2,4.46.62.62,0,0,0,0,.41c-.13.48-.25,1-.35,1.46a6,6,0,0,0-.3,2.11c0,.16,0,.32,0,.48a.67.67,0,0,0,.17.5,11.51,11.51,0,0,0,.49,6.85c0,.18,0,.37.08.55a6.78,6.78,0,0,0,.75,2.71,7.5,7.5,0,0,0,.67,2.38c.42.85.83,2,1.74,2.35a4.44,4.44,0,0,0,.88,1.17,6.61,6.61,0,0,0,.64.86,5.65,5.65,0,0,0,1.56,1.48,2,2,0,0,0,.88.74,6.2,6.2,0,0,0,.88.73C9,123.22,10.13,124,11.05,124.46Zm51.34,13c-15.2,6.32-24.22-9.94-22.43-22.86a.52.52,0,0,0,.33-.43v-.07a.66.66,0,0,0,0-.14c-.06-.31,0-.6-.06-.91,1-4.59,3.38-8.6,7.49-10.79,8.14-2.88,17.15-.9,21.82,7.33S71.74,133.54,62.39,137.42ZM36.31,116a.34.34,0,0,1,.12-.12A.34.34,0,0,0,36.31,116Zm.07-.34h0Zm.25-.55h0Zm24.73-27.9c2.71-4.76,7.09-7.58,10.32-11.72A6.83,6.83,0,0,0,73,75.06a2,2,0,0,1,.85-.24h0a1.51,1.51,0,0,0,.44.91,1.23,1.23,0,0,0,.53.29,4.11,4.11,0,0,0,.08.84.48.48,0,0,0-.37.3c-.37.86-.44,1.82-.75,2.71-1.08.41-1.83,1.9-2.49,2.7-.23.3-.45.61-.67.92a40.13,40.13,0,0,0-8,14.06.85.85,0,0,0-.53-.37c-1.28-.28-2.62-.53-3.94-.75A30.54,30.54,0,0,1,61.36,87.22ZM58.07,85.1a.2.2,0,0,0,0-.07h.1a.31.31,0,0,0,0,.1Zm-.29-2.24c-.39-.19-.74-.47-1.13-.67a14.69,14.69,0,0,1-1.3-.74c-.3-.43-.58-.89-.88-1.31a7.34,7.34,0,0,0,3.75-1s0,0,0,0c.93-.09,1.87-.16,2.8-.24a2.79,2.79,0,0,0,.46.45A29.59,29.59,0,0,0,59,83.59a.75.75,0,0,0-.27-.32C58.44,83.08,58.11,83,57.78,82.86Zm9.7-16.56a21.27,21.27,0,0,1,8.89-.69,33.8,33.8,0,0,1,12.08,3.27A8.85,8.85,0,0,0,83.31,71a5.46,5.46,0,0,0-1,1.31,9.14,9.14,0,0,0-4.42-4.85,8.34,8.34,0,0,0-8.56.92A4.51,4.51,0,0,0,67.48,66.3ZM93,73.84l.1.11-.48,0a4.56,4.56,0,0,0-.8-1A4.34,4.34,0,0,1,93,73.84Zm-3.62-.26c-.34-.28-.64-.6-1-.9a5.21,5.21,0,0,1,2-.13,13.8,13.8,0,0,1,1.63,1.53,8.83,8.83,0,0,0-1,.28c-.15.06-.3.15-.45.22A7.28,7.28,0,0,0,89.42,73.58Zm-3.24.28-.07,0a6.65,6.65,0,0,1,1.57-.9c.32.32.65.66,1,1a9.93,9.93,0,0,1,1.28,1,8,8,0,0,0-1.5,1c-.49-.55-1-1.09-1.52-1.57A2.42,2.42,0,0,0,86.18,73.86Zm-.55,2.69a12.22,12.22,0,0,0-1.26-.74,6.28,6.28,0,0,1,1.21-1.52,4.19,4.19,0,0,1,.46.2,6.86,6.86,0,0,1,1.22,1.19c.24.24.48.49.73.72a9.29,9.29,0,0,0-1,1.25A6.44,6.44,0,0,0,85.63,76.55Zm-1.92,1.29a7.42,7.42,0,0,1,.15-.86c.06-.18.13-.36.2-.53l.84.49a15.23,15.23,0,0,1,1.71,1.24A5.43,5.43,0,0,0,86,79.82a3,3,0,0,1-.35-.36,10,10,0,0,0-.74-.72C84.55,78.41,84.12,78.13,83.71,77.84ZM76.4,72.52c.2-.19.39-.4.59-.6a5.91,5.91,0,0,1,1.39-1.11A7.2,7.2,0,0,1,79.76,73a4.31,4.31,0,0,0-2,1A4.65,4.65,0,0,0,76.4,72.52Zm.81-1.5c-.38.33-.76.85-1.18,1.27a5.17,5.17,0,0,0-2-.66c.11-.17.21-.35.32-.5a9.92,9.92,0,0,1,.91-1.22c.25-.26.54-.4.68-.73a5,5,0,0,1,1.06.47,5.93,5.93,0,0,1,1,.79A4.48,4.48,0,0,0,77.21,71Zm-3-.73c-.21.29-.41.58-.61.88-.06.1-.15.26-.26.43a5.62,5.62,0,0,0-1.72.27c.22-.52.38-1.05.65-1.55a6.45,6.45,0,0,0,.63-1.26,5.54,5.54,0,0,1,2.56,0A3.93,3.93,0,0,0,74.23,70.29Zm4.16,6c.38-.09.74-.22,1.13-.34l.61-.16A3.31,3.31,0,0,1,78,78.53,4.74,4.74,0,0,0,78.39,76.31Zm2.38,3.13c0,.24.11.48.18.71a.4.4,0,0,0-.07.24,1.21,1.21,0,0,0,.38.73,4.16,4.16,0,0,0,.45.95l.12.13a24.36,24.36,0,0,0-4.6,0,7.12,7.12,0,0,0-.76-.31.5.5,0,0,0-.08-.32,2.07,2.07,0,0,0,.38-.46A.69.69,0,0,0,76.9,81,7.39,7.39,0,0,0,80.77,79.44ZM82.7,86a32.31,32.31,0,0,1,5,.92c1.1.52,2.24.83,3.37,1.38.84.42,1.67.83,2.47,1.28a91.59,91.59,0,0,1,7.92,6.78.68.68,0,0,0,.35.19c.15.16.3.33.44.5a.38.38,0,0,0,.08.27c.74,1,1.46,2,2.14,3.08A59.58,59.58,0,0,0,95,99.67a41.94,41.94,0,0,0-6.79-1.58,24.13,24.13,0,0,0-3.65-1c-.54-.13-1.08-.23-1.62-.35A33,33,0,0,0,78,95.42a36,36,0,0,0-5.48-1.37l-.61-.21a11.48,11.48,0,0,0-1.34-1c-.12-.12-1.24-1.1-1.24-1.1a.53.53,0,0,0,0-.2.55.55,0,0,0,.18-.22,22.49,22.49,0,0,1,3.28-4.85c.26-.29.53-.57.79-.85a.48.48,0,0,0,.32-.29l0-.08.27-.28a16.2,16.2,0,0,0,3.4.76.38.38,0,0,0,.15,0A16.92,16.92,0,0,0,82.7,86ZM86,82.37a4.48,4.48,0,0,1-2.36-3.7c.24.19.5.37.67.52.45.38,1,1.2,1.59,1.38A6.39,6.39,0,0,0,86,82.37Zm-5.85-7.08a4.25,4.25,0,0,0-.62.12c-.41.12-.79.37-1.19.52a5.22,5.22,0,0,0-.43-1.53c.31-.19.62-.37.94-.53a5.18,5.18,0,0,1,1-.35A5.38,5.38,0,0,1,80.17,75.29Zm-8-6a14.4,14.4,0,0,0-1.15,2.75s0,0,0,0a5.63,5.63,0,0,0-.76.42,4.61,4.61,0,0,0-.45.37,8.06,8.06,0,0,0,.12-1.7A4.67,4.67,0,0,1,72.2,69.3ZM67,69.15l-1.69.27a10.58,10.58,0,0,0-1.47.28c-.17-.27-.35-.52-.53-.76a10.82,10.82,0,0,1,.92-.88l.13,0c1,.14,1.56-.36,2.38.64A1.9,1.9,0,0,1,67,69.15Zm-1.64.91a10,10,0,0,0,1.85-.4,4.88,4.88,0,0,1,.2,1.4,8.68,8.68,0,0,0-2.67.64,11.93,11.93,0,0,0-.57-1.39C64.61,70.23,65,70.11,65.4,70.06Zm.47,1.86a7.27,7.27,0,0,1,1.56-.34,6.71,6.71,0,0,1-.54,2.18A2.55,2.55,0,0,0,66,74a4.6,4.6,0,0,1-.7.2,8.46,8.46,0,0,0-.34-2A4.19,4.19,0,0,0,65.87,71.92Zm-.15,2.58c.33-.08.64-.21,1-.31a5.78,5.78,0,0,1-1.57,2,2.27,2.27,0,0,1-.32.22,4.59,4.59,0,0,0,.46-1.77C65.41,74.56,65.57,74.54,65.72,74.5Zm1.84,20.66.12.17-.18,0Zm8.45,18a.64.64,0,0,0-.39-.5c-.05-.23-.12-.47-.19-.7s-.08-.26-.12-.39a3.6,3.6,0,0,0-.4-1.83c-.34-.84-.76-1.64-1.16-2.45a.74.74,0,0,0-.29-.29c-.26-.54-.53-1.08-.82-1.6A.8.8,0,0,0,72,105c-.43-.68-.88-1.36-1.31-2a.85.85,0,0,0-.76-.36c-.33-.46-.65-.93-1-1.38a.72.72,0,0,0-.68-.25,3.45,3.45,0,0,1-.26-.28.66.66,0,0,0-.3-.2s0,0,0,0l-.18-.22c0-.21,0-.41,0-.61s0-.15,0-.23l.48.09a1.87,1.87,0,0,1,.09.48c0,.3.5.44.69.23s.39-.27.52-.46l.38.07c.73.25,1.48.48,2.22.75.93.34,2.32,1.09,3.41,1l1.86.68a14.52,14.52,0,0,0,4,1c.81.22,1.62.44,2.44.6,1.08.21,2.24.65,3.36.81l2.4.61c.43.1.87.22,1.31.34a11.42,11.42,0,0,0-2.6,1.34,16.79,16.79,0,0,0-2,.83l-.19.07A12.46,12.46,0,0,0,83,109.54a3.67,3.67,0,0,0-1.83,1.53.86.86,0,0,0-.19.26l-.5.76c-.39.37-.77.75-1.14,1.15a.53.53,0,0,0-.14.55,6,6,0,0,0-.44.64l-.54.7a.6.6,0,0,0-.1.61l-.38.92,0,0a6.11,6.11,0,0,0-1.18,2.59,11.21,11.21,0,0,0-.13-1.18s0-.08,0-.11a10.18,10.18,0,0,0-.21-2.66A16.08,16.08,0,0,0,76,113.11Zm7-.91-.26.24.13-.14Zm33.09,28.52c-2.42,7-6.77,13.1-14.48,14.43-6.38,1.11-12.27-1.46-16.61-6.08a25.17,25.17,0,0,1-6.54-20.16,24.75,24.75,0,0,1,4.46-11.28c4.52-6.09,11.25-7.88,18.47-5.73a22.71,22.71,0,0,1,7.86,4.13c0,.08,0,.15,0,.22,0,.27.32.33.52.2A22.18,22.18,0,0,1,116.11,140.72Zm14-4.62a17.41,17.41,0,0,1-.72,1.78c-.42.55-1.5,0-1.76-.39a3,3,0,0,1-.16-2.22c.41-.67,1.39-.32,1.87.06A6.22,6.22,0,0,1,130.14,136.1Zm.41-10.63a3.53,3.53,0,0,1,.43,1.38c0,.37,0,.71,0,1.05a2,2,0,0,1-1,.31,1.7,1.7,0,0,1-1.42-2.67c.16-.28.45-.8.79-.87C130,124.55,130.33,125,130.55,125.47Zm-.7-9.23a6.28,6.28,0,0,1-1,1.5,1.16,1.16,0,0,1-1.41-.09c-.43-.27-.47-.62-.45-1.13a3.58,3.58,0,0,1,.4-1.46c.38-.64.78-.58,1.39-.16A4.06,4.06,0,0,1,129.85,116.24Zm-1-3.52a3.16,3.16,0,0,0-2.14-.13,3.52,3.52,0,0,0-2,2.57c-.66,2.47.64,4.23,3,4.85a3.18,3.18,0,0,0,2.9-.71c.25,1.28.43,2.57.56,3.87a3.35,3.35,0,0,0-5,1.55,3.68,3.68,0,0,0,2.14,4.83,4.71,4.71,0,0,0,3,0,31.72,31.72,0,0,1-.51,3.94,3.43,3.43,0,0,0-2.21-.72,4.74,4.74,0,0,0-2.41,1,2.42,2.42,0,0,0-.88,1.89,3.48,3.48,0,0,0,.41,2.55,4,4,0,0,0,2.29,1.38,1.35,1.35,0,0,0,.38.05.75.75,0,0,1-.07.12,9.68,9.68,0,0,1-1.82,1.93.91.91,0,0,0-.7-.18c-3.34.73-.59-7.72-.48-8.47a34.53,34.53,0,0,0,.05-9c-.24-2.21-.64-4.42-1.09-6.6-.24-1.14-1.29-3.32-1-4.48l.09-.13a6.41,6.41,0,0,1-.48-2.45,2,2,0,0,1,1.41-1.91l.29-.05a1.67,1.67,0,0,1,1.64-.28l.22.08a2.75,2.75,0,0,0,.19-.28c.22.15.43.32.64.47C127.83,109.88,128.39,111.29,128.88,112.72Zm-3.49-8.22c-2.49,0-5.67.85-6.14,3.14s1.22,5.93,1.81,8.13a32.43,32.43,0,0,1,.82,4.57c0,1.45,0,2.9-.07,4.35a15.86,15.86,0,0,0-2-4.72,51.6,51.6,0,0,0-3.91-6.56.61.61,0,0,0-.25-.21,37.61,37.61,0,0,0-6.19-14.47c-4-5.72-10.94-11.93-18.14-14.15a1.73,1.73,0,0,0-.61-.46L90.39,84a5.93,5.93,0,0,0-.31-.73c-.2-.43-.4-.85-.59-1.27l0,0a5.16,5.16,0,0,0-.23-.7,6.71,6.71,0,0,1,.77-2l.15-.3a18.49,18.49,0,0,1,1.7-1.49l.15-.12,2.66-.94A3.26,3.26,0,0,0,96,76.19c1.87,1.11,3.93,2,5.79,3.08a65.63,65.63,0,0,1,9.29,6.88A60.35,60.35,0,0,1,125.39,104.5ZM96.23,74v0s0-.09-.08-.15h0l.09.18Zm47.17,26.67a1.06,1.06,0,0,0-.43,0l-.62.15h0l-1,.07a.88.88,0,0,0-.65-.19l-1.83.35a39.69,39.69,0,0,0-4.26.34,20.49,20.49,0,0,0-2.35.19,26,26,0,0,0-3.05.3,34.25,34.25,0,0,0-1.85-3,31.25,31.25,0,0,0-1.82-2.71,49.4,49.4,0,0,0,18.67,4.37C144,100.6,143.67,100.65,143.4,100.69ZM129.88,89.34c-9.89-3.08-15.61-20.51-5.68-26.69a2,2,0,0,1,2.94,1.82,2.3,2.3,0,0,1,.24.91c.26,6.53,3.88,10.38,9.59,13.23,2.17,1.08,5.37,1.82,5.64,4.7C143.22,89.63,134,90.64,129.88,89.34Zm25-.41a29.57,29.57,0,0,0,.77-4.75,1.81,1.81,0,0,1,1.52-1.87l.08,0c4.78-2,11.4-5,11.62-11a2,2,0,0,1,2.46-1.93c4,.57,4,3.9,3,7,0,.15-.1.3-.15.44a21.34,21.34,0,0,1-1.61,3.5c-3.43,6-8.74,10.38-15.75,11.08C155.41,91.52,154.69,90.07,154.86,88.93Zm24.6-3a21.12,21.12,0,0,1-3.12,11.92,16.6,16.6,0,0,1-9.55,7.39c-4.75,1.29-8.53-.21-11.62-3.1,1.56-.54,3.11-1.15,4.61-1.82a12.25,12.25,0,0,0,2.18.48A10.75,10.75,0,0,0,170.41,98a14.9,14.9,0,0,0,4.3-8.55c.72-.84,1.41-1.7,2.06-2.62A32.52,32.52,0,0,0,179,83.18,13.63,13.63,0,0,1,179.46,85.92Zm18-11.61v0h0l-.07,0Zm10.35,10.78-1.33-2.45a.7.7,0,0,0-.47-.35A15.42,15.42,0,0,0,203.22,79a.76.76,0,0,0-.75-.12.86.86,0,0,0-.14-.13.55.55,0,0,0-.08-.85l-.36-.3c13.22-5.24,25.74,5.2,25.94,18.9.19,13.32-10.09,29.57-25.27,23.56-11.09-4.39-13.93-16.19-13-26.95.08-.43.15-.86.26-1.3l.06-.18a.49.49,0,0,0,0,.17c.9,2.66,2,5.24,3,7.85.45,2.27.75,4.63,1.38,6.85a7.72,7.72,0,0,0,2.44,3.39,8.35,8.35,0,0,0,1,.76,7.08,7.08,0,0,0,3.63,1.58,9.84,9.84,0,0,0,9.5-4.61C215.09,100.78,212.24,91.65,207.84,85.09Zm-4.15,6a3.17,3.17,0,0,0,1.72,2.7,4.54,4.54,0,0,0,2.92.47c.06.23.1.46.15.69a4.21,4.21,0,0,0-1.25.12,3.5,3.5,0,0,0-2,.89,2.48,2.48,0,0,0-.73,1.92,2.65,2.65,0,0,0,1.12,1.78,4.07,4.07,0,0,0,1.86,1,4.58,4.58,0,0,0,1.37-.09c0,.34-.07.68-.11,1a3.07,3.07,0,0,0-.8-.33,4,4,0,0,0-4.27,2.3,3.4,3.4,0,0,0,1.89,4,1.83,1.83,0,0,0,.33.11,5.33,5.33,0,0,1-1.88,1c-2.49-1,0-10.32-.13-12.38a13.32,13.32,0,0,0-.51-2.43,7.46,7.46,0,0,0-.35-1.74c0-.16-.06-.32-.07-.47-1-2-.14-3.54,2.47-4.56q.45.77.84,1.56l-.2,0A3.29,3.29,0,0,0,203.69,91.11Zm3.29-.9a23.52,23.52,0,0,1,1,2.7,2.49,2.49,0,0,1-2.37-1.41c-.19-.58.45-.94.9-1.15A2.43,2.43,0,0,1,207,90.21Zm1.8,6.5a20.55,20.55,0,0,1,.15,2.17,1.13,1.13,0,0,0-.18.12h0a2.46,2.46,0,0,0-.33.07.82.82,0,0,1-.72-.16c-.55-.36-1.38-.81-1.15-1.59s1-.71,1.53-.82c0,0,.21,0,.22-.06l.32.18Zm-.49,7.13a9.91,9.91,0,0,1-.86,2s0,0-.06,0c-.24.27-.16.33-.49.36a1.21,1.21,0,0,1-.92-.48,1.55,1.55,0,0,1-.07-2.09c.49-.5,1.23-.93,1.84-.51A2,2,0,0,1,208.29,103.84ZM195.87,77.26c.94.84,1.83,1.73,2.71,2.64a28,28,0,0,1,2,2.58,1.35,1.35,0,0,0,.82.6l.72,1c.06.07.11.15.17.23l-.42.2a3.84,3.84,0,0,1-.85.23c-.55.07-1-.09-1.39.37a2.54,2.54,0,0,0-.22,2.33.64.64,0,0,0,.08.39l.06.13.12.36a9.86,9.86,0,0,0,.48,1.38,17.49,17.49,0,0,0,.7,2c.28,1.48.38,3,.56,4.49,0,.74,0,1.48,0,2.22v0c0,.27-.06.54-.1.81a.69.69,0,0,0-.47.68,37.66,37.66,0,0,1-.77,5.61,3.06,3.06,0,0,0,.3,1.9,1.86,1.86,0,0,0,0,.33,3.85,3.85,0,0,0,.38.92,3.89,3.89,0,0,1-1.06-.67c-.43-.79-1-1.44-1.47-2.24a19.27,19.27,0,0,1-1.07-3.8.73.73,0,0,0,.09-.39c-.23-2.8-.36-5.9-1.29-8.57-.52-1.48-1.1-3.83-2.55-4.66a1,1,0,0,0-.2-.08l-.07-.14a.59.59,0,0,0,.07-.38c-.27-1.51-1.7-2.79-3.06-3.89-.63-1.63-2.68-2.83-4-3.81-.91-.71-1.84-1.38-2.77-2.06a14.55,14.55,0,0,0-1.83-1.31,32.4,32.4,0,0,0,1-5A50.89,50.89,0,0,1,195.87,77.26ZM73.58,42.91c.12.06.14.13.12.29C73.72,43,73.7,43,73.58,42.91ZM52,68.09a.46.46,0,0,0,.06-.58c-.06-.09,0-.46,0-.57a5.71,5.71,0,0,0-.08-.71,8.62,8.62,0,0,0-.22-1,29.45,29.45,0,0,0,1.86-7.32c.69-1.54,1.36-3,2.1-4.5.31-.48.64-1,1-1.41l.1,0a48.91,48.91,0,0,0,4-4.13l1.51-1.43c1.8-.83,3.52-2.54,5.1-3.69a.66.66,0,0,0,.33-.12,4,4,0,0,0,.64-.52l.94-.59.08,0,.08,0a9.89,9.89,0,0,1,.39,1.11,1.09,1.09,0,0,0-.1,1l.06.23a.71.71,0,0,0-.17.11,2.41,2.41,0,0,0,.87,3.76c1.54.76,3.51-.13,4.64-1.26,1-.94,1.76-2.52,1-3.77a3.25,3.25,0,0,0-1.58-1.3,3.46,3.46,0,0,0-1.89.06.74.74,0,0,0-.64,0c-.14-.32-.3-.64-.46-1l2.68-1.18c2.12-.83,4.27-1.57,6.43-2.28a.64.64,0,0,0,.39-.29c.47-.15,1-.28,1.43-.42,4-.83,7.92-1.37,12-2a.63.63,0,0,0,.22-.07c2.92-.27,5.83-.54,8.71-.91a29.72,29.72,0,0,0,6.41-.27.72.72,0,0,0,.44-.24,94.81,94.81,0,0,0,9.48.85,88,88,0,0,0,10.69,1.09.58.58,0,0,0,.47-.25,76,76,0,0,0,8.39,1.58.64.64,0,0,0,.77-.39c2.26.52,4.52,1.22,6.73,1.79S151,39,153.15,39.37a20.71,20.71,0,0,0,2.09.75.61.61,0,0,0,.13,0A35.28,35.28,0,0,0,160,42.68c.71.52,1.4,1,2.07,1.58a35.37,35.37,0,0,0-6.36-1.71,80.07,80.07,0,0,0-14.27-.61,65.1,65.1,0,0,0-12.34,1.48c-4.68,1-10,2.29-13.87,5.25-.62.48.34,1.21.88.85,7.52-5,18.3-6.14,27.19-6.05a65.78,65.78,0,0,1,12.36,1.19c3.61.74,7,2,10.55,3A55.21,55.21,0,0,1,171,52.4a57.29,57.29,0,0,0-16.95-5.26c-13-2.08-29.21-.18-39.84,8.38-7.92,6.38-9,16.92-5,25.56-.48-.34-1-.68-1.43-1-1.31-.84-2.72-1.76-4.18-2.63a.14.14,0,0,0,0-.06,22.87,22.87,0,0,0-.85-3.77,13.67,13.67,0,0,1,.58-7.07A32.76,32.76,0,0,1,106.2,60c.75-1.32,1.93-2.32,2.61-3.62.29-.55-.59-.85-1-.53-3.48,3-5.89,7.8-6.92,12.29a15,15,0,0,0-.35,5.82c.08.43.21,1.26.4,2.07a25.28,25.28,0,0,0-3.65-1.5s0,0,0,0a6.05,6.05,0,0,0-.89-2.24,4.38,4.38,0,0,0-.4-1,10.86,10.86,0,0,0-1-1.61,5.31,5.31,0,0,0-1-1c-.12-.14-.26-.27-.39-.4a3.44,3.44,0,0,0-1-.68s0,0,0,0a.43.43,0,0,0-.46-.16.86.86,0,0,0-.16-.18,15.47,15.47,0,0,0-5.94-2.91l-.37-.14c-.71-.22-1.45-.4-2.19-.56a.82.82,0,0,0-.23-.14,25.53,25.53,0,0,0-5.73-1.08A5.56,5.56,0,0,0,75.81,62a25.36,25.36,0,0,0-3.8-.26.26.26,0,0,0-.26.17h-.18a.28.28,0,0,0-.16.06,14.13,14.13,0,0,0-3.14.32c-.56.1-1.11.22-1.66.34h-.07l-.8.15a.37.37,0,0,0-.26.15,2.77,2.77,0,0,0-1.1.69l-.25.12a.37.37,0,0,0-.25-.07A4.39,4.39,0,0,0,62,64.79a6.42,6.42,0,0,0-.88.85,5.4,5.4,0,0,0-.52.45c-.25.24-.52.47-.79.69l-1,.25a7.67,7.67,0,0,0-2.2.61c-.78.14-1.56.32-2.34.51s-1.38.21-2.07.34A.55.55,0,0,0,52,68.09ZM37.28,76c7.3-3.15,14.86-4.74,22.69-5.92a.94.94,0,0,0,.38.49,1.68,1.68,0,0,0,.65.19.6.6,0,0,0,.13.82,2,2,0,0,1,.24.26.51.51,0,0,0,.09.48l.1.14.22.3a8.15,8.15,0,0,1,.13,1.63.42.42,0,0,0,0,.16c0,.1-.07.21-.11.31-.15.41-.1.48-.5.56a.76.76,0,0,0-.3.14A44.56,44.56,0,0,0,41,80.37a48.86,48.86,0,0,0-11.86,7.74l-.64-.38a5.86,5.86,0,0,0-3.38-1.68,6,6,0,0,0-1.64-.77l-1.31-.38A81.21,81.21,0,0,1,37.28,76Zm-.8,20,0,0c-.09-1.11-1.17-2.24-1.8-3-.16-.19-.34-.37-.51-.56a42.5,42.5,0,0,1,5-6.53c1.12-.65,2.23-1.33,3.34-2l.7-.44a30,30,0,0,1,4-1.71l.32-.09A30.71,30.71,0,0,0,55,90.88a4,4,0,0,0-.64.87,17,17,0,0,0-2.3,4.7,18.16,18.16,0,0,0-3.43.82A1.21,1.21,0,0,0,47.43,97c-2.69,1.3-5,3.9-7,6a.5.5,0,0,0-.13.6,6.77,6.77,0,0,0-.91,1.42l0,0a.64.64,0,0,0-.19.45c-.08.18-.16.36-.23.55a.5.5,0,0,0-.58.24c0,.05-.06.11-.1.16,0-.13,0-.26,0-.39a14.53,14.53,0,0,0-.27-5.41C37.71,99.06,37.59,97.34,36.48,96ZM4.59,110.27a20.67,20.67,0,0,1,3-17.07C10.38,91,13.14,89,17,88.63c5.51-.5,10.87,2.55,13.89,7.06,4.88,7.32,4.05,18.85-3,24.58C18.88,127.57,7.43,119.93,4.59,110.27Z"/><path class="cls-11" d="M45.36,5.1a2.86,2.86,0,0,0,.07-.28,3,3,0,0,0,.08-.51,2.28,2.28,0,0,0,0-.26,3.83,3.83,0,0,0-.08-.81A4.39,4.39,0,0,0,40.11.19C38.2.91,37.34,4,38.38,5.69a3.1,3.1,0,0,0,.76.78,4.58,4.58,0,0,0,2,1,3.06,3.06,0,0,0,1.56-.27h.14a3.32,3.32,0,0,0,1.42-.55,10.27,10.27,0,0,0,1.07.8l.16.11c.38.25.69.57,1,.85l.31.21a2,2,0,0,1,.81.79.48.48,0,0,0,.12.16.69.69,0,0,0,.45.22c.1.07.19.15.31.22a.64.64,0,0,0,.18.06c.38,0,.74-.32.52-.61a.5.5,0,0,0-.15-.13,1.25,1.25,0,0,1-.38-.38,7.47,7.47,0,0,0-1.66-1.61h0a9.38,9.38,0,0,0-1.26-.91c-.26-.16-.47-.36-.71-.54l0,0a2,2,0,0,0,.1-.21A3.12,3.12,0,0,0,45.36,5.1Z"/></g></g></svg>