<svg xmlns="http://www.w3.org/2000/svg" xmlns:xlink="http://www.w3.org/1999/xlink" viewBox="0 0 239.07 230.87"><defs><style>.cls-1{isolation:isolate;}.cls-2{fill:#bd724f;}.cls-3{fill:#784537;}.cls-4{fill:#6b554f;}.cls-5{fill:#91756d;}.cls-6{fill:#f0f5f5;}.cls-7{fill:#bcc4c4;}.cls-8{fill:#e0a073;}.cls-9{fill:#2b2016;}.cls-10{fill:#f7d99c;}.cls-11{fill:#cc9260;}.cls-12{fill:#9c1dc3;}.cls-13{fill:#2c60e6;}.cls-14{fill:#3cfa72;}.cls-15{fill:#ffe95c;}.cls-16{fill:#eb0023;}.cls-17{fill:#641b7a;}.cls-18{fill:#294794;}.cls-19{fill:#34944f;}.cls-20{fill:#b88516;}.cls-21{fill:#94071d;}.cls-22{fill:#f7edb7;}.cls-23{mix-blend-mode:multiply;fill:url(#铃琨眄_沭噤桢眚_13);}</style><linearGradient id="铃琨眄_沭噤桢眚_13" x1="176.57" y1="238.3" x2="167.32" y2="64.9" gradientUnits="userSpaceOnUse"><stop offset="0" stop-color="#ffdd9e"/><stop offset="0.2" stop-color="#ffe6b7"/><stop offset="0.55" stop-color="#fff3de"/><stop offset="0.83" stop-color="#fffcf6"/><stop offset="1" stop-color="#fff"/></linearGradient></defs><g class="cls-1"><g id="图层_2" data-name="图层 2"><g id="央铋_1" data-name="央铋 1"><path class="cls-2" d="M130.13,10.69c-.4-4.07-2-6.62-6.17-7.07-11.43-1.21-18,7.54-24.12,15.65-3.76,5-8.32,9.23-12.3,14.07S81.42,44,77.93,49c-4.27,6.15-8.53,12.13-12.39,18.59-4,6.75-8.41,13.74-11.78,20.83-6.19,13-12.64,26.73-12.71,41.27a1.37,1.37,0,0,0-.3.19,4.72,4.72,0,0,0,1,7.43,27.22,27.22,0,0,0,2.84,1A35.59,35.59,0,0,1,49,141.61c1.5,1.12,2.91,2.59,4.72,3.07,3.83,1,10.38-.22,13.68-2.27,4.64-2.87,7.59-6.28,10.8-10.7,3.48-4.77,6.57-9.84,9.9-14.71,3.9-5.69,7.13-11.62,10.94-17.34,3.23-4.86,7.59-8.86,10.68-13.91a90.49,90.49,0,0,0,8.31-18.15c2.15-6.52,4.36-13.08,7-19.47,2.69-6.56,5.21-12.27,5-19.45C129.8,22.75,130.7,16.55,130.13,10.69Z"/><path class="cls-3" d="M104.57,86.66c-4.14,4-7.26,9.07-10.35,13.92a23.14,23.14,0,0,1-5.68,6.6c-2.39,1.82-4.64,3-6.59,5.2-3.3,3.79-5.15,8.53-8.6,12.18-1.11,1.17-2.17,2.38-3.21,3.59a2.22,2.22,0,0,0-1.15.38c-.78.55-1.54,1.16-2.29,1.79a1.73,1.73,0,0,0-.79.39c-.18.15-.32.34-.48.49l.49-1c.85-1.83,1.61-3.83,2.41-5.81,1.73-2.9,3.89-5.7,4.84-8.75.37-1.18-1.75-2.39-2.54-1.42a23.64,23.64,0,0,0-2.71,4.21c-.92,1-1.92,2-2.71,3a53.19,53.19,0,0,0-2.9,4.8,46.74,46.74,0,0,1-4.14,5.69,17,17,0,0,0-1.31,1.1,2.32,2.32,0,0,0-2.9-.4c-.15.12-.28.27-.43.41a15.83,15.83,0,0,0-1.35.9c0-2.58-.56-5.11.19-8.15.49-2,1.66-4.82,2.09-7.47A40,40,0,0,1,55.91,114c1-2.47,2.39-4.66,3.16-7.24.48-1.58-2-3.23-3.24-2s-1.6,2.92-2.4,4.53c-1.15,2.33-2.87,4.41-3.89,6.8-1.59,3.75-4,7.24-2.16,10.91-1.16,3.58-2.17,7.52-1.07,10.88a1,1,0,0,0,1.33.57l.13-.1a2.75,2.75,0,0,0,.49.53,2.65,2.65,0,0,0,1.67,1.53,2.63,2.63,0,0,0,2,1.19,2.7,2.7,0,0,0,2.84.93,4.48,4.48,0,0,0,1.88-1.27l0,0c-.45,1.74,2.06,3.45,3.64,2.15A21.52,21.52,0,0,0,62.67,141a11.9,11.9,0,0,0,1-.86,2.28,2.28,0,0,0,2.82-.43c3.7-4.77,7.61-9.24,11.44-13.88,4.12-5,6.07-10.32,11.41-14.31,3.31-2.48,5.42-4.29,7.5-7.82,3.12-5.31,6.1-10.75,9.41-16C106.86,86.83,105.25,86,104.57,86.66Z"/><path class="cls-3" d="M48.94,127.49a18,18,0,0,0,.29-2.8c.05-1.3-1.73-2.26-3-2,0-2,.25-4,.4-5.9.53-7,3.39-12.87,5.63-19.36.24-.68-.83-1.17-1.26-.65-6.33,7.69-9.38,18.91-8.84,28.79.11,1.85.27,4.28,2,5.11a.49.49,0,0,1,0,.12,2.46,2.46,0,0,0,2.6,2c-.1.59-.22,1-.37,1-.57,0-1.2.65-.71,1.17,3.24,3.48,5.12-2.63,5.22-5.22A2.21,2.21,0,0,0,48.94,127.49Z"/><path class="cls-3" d="M124.69,9.1c-1.47,1-3.35,1.36-4.81,2.51-1.15.92-1.89,2.21-2.94,3.19-3.3,3.05-7.52,4.93-10.49,8.44-3.59,4.25-7.82,7.65-9.44,13-1.46,4.8-8.45,10.16-8,15.38-.14.62,1.07,1,1.38.33,2.06-4.53,6.23-7.07,8.85-11.07,1.8-2.76,2.07-5.23,4.51-7.75a69.65,69.65,0,0,0,5.45-6.2c3-3.88,7.7-6,10.72-10,.64-.83.83-1.78,1.49-2.61,1.36-1.7,3.48-2.51,4.49-4.51C126.21,9.14,125.14,8.81,124.69,9.1Z"/><path class="cls-3" d="M123.35,8c-3.54-.94-4.83,1.21-7.09,3.62a13,13,0,0,1-5,3.47,18.84,18.84,0,0,0-5.35,3.44c-2.29,2.19-4,5.11-5.8,7.73a7,7,0,0,0-1.43,3.27c-.34,1.88.17,6.82-1.15,8.48-.27.34,0,.94.4,1.07,3.37,1.22,4.62-5.93,4.84-7.45.47-3.29,2.73-6.75,5.11-9.1s4.75-3,7.75-4.46c1.71-.83,6.41-7.62,7-7.21s1.24.44,1.57-.14l.32-.55A1.52,1.52,0,0,0,123.35,8Z"/><path class="cls-3" d="M128.21,8.07c-1.55-1.45-5.46-1.19-7.2-.34-1.25.62-2.26,1.71-3.6,2.17s-2.69.12-4,.67a8,8,0,0,0-3.94,5.1,1.35,1.35,0,0,0,2.21,1.1,16.81,16.81,0,0,1,2.92-2.92c1.35-.78,3.24-.34,4.74-.94s3-2.08,4.46-2.33c2.06-.35,1.54.57,1.7,2.64,0,.72,1.06.72,1.5.48C128.94,12.69,130,9.76,128.21,8.07Z"/><path class="cls-3" d="M123.5,5.55c-.93-.21-2.22,1-1.36,1.86,3.89,3.85,1.44,13.05.52,17.8-1.07,5.57-3.83,11.07-5.49,16.53-1.81,5.92-5.43,11.28-7.9,17-2.63,6.09-5.42,12.14-8.15,18.19-4.76,10.53-11.42,19.76-17.5,29.55-3,4.79-6.31,9.29-9.73,13.75-4,5.27-9,9.75-13,15-.9,1.19.93,2.18,1.88,1.35,10-8.78,18-19.32,25.18-30.48,3.67-5.69,7.44-11.36,11.32-16.92,3.06-4.36,4.82-9.57,7.11-14.35,3-6.18,5.51-12.53,8.38-18.75,1.33-2.89,3.21-5.48,4.6-8.34a80.72,80.72,0,0,0,3.35-9.28c2.44-7.08,4.7-13.37,5.44-20.87C128.61,13.13,128.86,6.75,123.5,5.55Z"/><path class="cls-3" d="M129.64,20.8a10.77,10.77,0,0,1-.41-1.74c-.28-1.51-3-1.9-3.55-.38-1.4,3.87-2.23,8-3.39,11.93-.88,3-2,6.15-1.88,9.3-1.79,4.49-3.56,9-5.41,13.44-2.08,5-4.48,9.79-6.83,14.63-1.26,2.59-3.6,5.87-4.38,9-2.17,4.33-4.39,8.68-6.86,12.81-.93,1.31-1.86,2.61-2.74,3.91-3.9,5.75-9.62,11.4-12.32,17.84a1.2,1.2,0,0,0,.55,1.53c-5.54,7.42-11.15,14.68-18,21-.91.85.88,2.07,1.69,1.34,8.91-8,16-17.2,23.32-26.71,5.22-6.81,14-13.87,16.11-22.43a1.43,1.43,0,0,0-.75-1.64,50.8,50.8,0,0,0,4.83-8.4c0-.06,0-.12,0-.18,1.63-3.18,3-6.56,4.66-9.63,2.87-5.3,6.2-10.52,8.75-16,.56-1.2-.59-2.15-1.78-2.26L123.77,42c2.5-2.83,3.68-7.94,4.79-11.51.37-1.18-.62-2-1.69-2.21.48-1.8,1-3.58,1.46-5.37A1.51,1.51,0,0,0,129.64,20.8Z"/><path class="cls-3" d="M125.08,5.79c-6.79-1.88-15.2,4.11-17.32,10.33-.35,1,1.2,1.91,2,1.31,3.45-2.6,14.53-13.41,17.06-5.26,1.07,3.45-.09,7.78-.78,11.18-.83,4-1,8-2.37,12a133.82,133.82,0,0,1-7.18,17.7c-2.66,5.29-6.55,11.59-5.52,17.75.15.88,1.67,1.42,1.94.34,2.32-9.08,8.61-16.81,11.48-25.7,1.21-3.78,3-7.46,4-11.32,1-4,1.56-8.67,2.16-12.79C131.35,15.84,131.75,7.65,125.08,5.79Z"/><path class="cls-3" d="M123.42,11.62a7.61,7.61,0,0,0-2.81.32,9.76,9.76,0,0,0-2.51,1.8,12.31,12.31,0,0,0-2,1.38c-.54.58-.7,1.34-1.19,2s.25,1.51.81,1.77c1,.46,1.61.09,2.42-.45s2-1.19,2.92-1.87,2.46-2.08,3-.43.4,3,1.49,4.2a1.16,1.16,0,0,0,1.42.32C130.47,18.21,127.1,11.75,123.42,11.62Z"/><path class="cls-4" d="M50.35,159.41a18.59,18.59,0,0,0-8.27-3.48,30,30,0,0,1-10-3.35,4,4,0,0,0-1.92-1.22c-.24-.16-.48-.31-.72-.49a1.36,1.36,0,0,0-2.13.73,23,23,0,0,0-5.11,3.15,28.45,28.45,0,0,0-9.27,11.73c-2.86,6.47-3.1,11.79-3.12,18.85,0,4.31.16,8.67-.07,13a23.45,23.45,0,0,1-1.2,6.35c-.47,1.45-1.83,3.41-1.85,5-.05,3.72,4.73,3.92,7.52,3.64,6.19-.63,10.08-3.63,15-7.14S38.67,198,43,193.71c4.57-4.54,9.79-10.46,10.86-17.06C54.64,171.81,54.47,162.87,50.35,159.41Z"/><path class="cls-5" d="M26.15,171.73c.09-.15-.19-.35-.3-.21a20.79,20.79,0,0,0-3.83,8.6c-.68,3.64,1.1,11.15-2.1,13.89-.56.48.28,1.19.77,1.19,2.75,0,3.58-4.94,3.72-7,.2-2.9-.93-5.79-.61-8.65A20.6,20.6,0,0,1,26.15,171.73Z"/><path class="cls-5" d="M29.62,168A28.78,28.78,0,0,0,26.4,186c.05.34.67.46.72.07.39-2.76.33-5.48.9-8.22a70.56,70.56,0,0,1,2.89-9.3h0C31.16,167.92,30,167.32,29.62,168Z"/><path class="cls-5" d="M22.55,161.69a27.42,27.42,0,0,0-6.22,10.23c-1.06,2.84-.51,6.05-1.43,8.91-.08.23.28.48.44.27C17,179,17.07,175.51,17.92,173c1.32-3.85,3.55-7.3,5.36-10.88C23.48,161.74,22.82,161.41,22.55,161.69Z"/><path class="cls-5" d="M15.81,186.72c-.05-.21-.51-.35-.57-.08a27.33,27.33,0,0,0-.37,6.88c0,1.31.54,4.53-.78,5.35-.42.26.14.67.46.61,1.72-.37,1.7-2.73,1.71-4.09A39.89,39.89,0,0,0,15.81,186.72Z"/><path class="cls-5" d="M34,180.71c-.55.15-.79.57-1,1A30.35,30.35,0,0,1,31.09,185c-.74,1.08-1.52,2.08-2.34,3.1a1.65,1.65,0,0,0-.42,1.76c.08.28.66.43.74.07.15-.7.9-1.18,1.35-1.69a16.27,16.27,0,0,0,1.94-2.8,13.56,13.56,0,0,0,1-2.17c.23-.61.32-1.78.9-2.17C34.59,181,34.22,180.65,34,180.71Z"/><path class="cls-6" d="M55.18,144.51c-.46.47-.9,1-1.33,1.47a1.84,1.84,0,0,0-2.24-.1,2.53,2.53,0,0,0-.52-.26,2.2,2.2,0,0,0-1.17-1.38c-.29-1.29-2.24-2.11-3.27-1.11l-.2-.17a2.24,2.24,0,0,0-2.35-2.53,2.33,2.33,0,0,0-1.63-2.86c-.68-1-2.15-1.61-2.87-.59a1.43,1.43,0,0,0-1.54.48c-1.68,1.95-2.62,4.33-3.83,6.57-.74,1.36-1.72,2.59-1.7,4.2,0,1.18,1.59,2.69,2.7,2.12A2.42,2.42,0,0,0,37,152.83a2.54,2.54,0,0,0,1.14.89,2.35,2.35,0,0,0,1.15.9c.31,1.06,1.58,2,2.6,1.58a6,6,0,0,0,.92-.56c0,.08,0,.15,0,.23a2.17,2.17,0,0,0,2.65,1.9,2.33,2.33,0,0,0,.65.37,2,2,0,0,0,3.39.94c.28-.38.54-.8.81-1.2a1.3,1.3,0,0,0,1.32-.35c2.44-2.88,6-7.7,6.7-11.5C58.62,144.47,56.23,143.46,55.18,144.51Z"/><path class="cls-7" d="M46.17,141.15a1.83,1.83,0,0,0-1.12-.18.19.19,0,0,0,0-.08,1.34,1.34,0,0,0-.22-.91c.08-.71-.68-1.26-1.28-1.4l-.13,0a1,1,0,0,0-1.33.9c-1.4,2.33-2.7,4.61-3.92,7.07-1,2.09-2.95,4.75-2.84,7.13a1.58,1.58,0,0,0,.88,1.21c-.34,1.44,2,2.67,2.9,1.38.14-.2.27-.42.4-.64.59.75,1.74,1.19,2.44.53a18.53,18.53,0,0,0,2.78-4.23,28.56,28.56,0,0,0,3.15-6.57c0-.05,0-.09,0-.13a18.76,18.76,0,0,0,1-2.22C49.29,141.7,47.2,140.22,46.17,141.15Z"/><path class="cls-8" d="M125.92,7.14c-8.68,1.37-16.9,12.74-22,19.32-4.38,5.65-7.87,12-12.1,17.79-3.76,5.14-8,10.43-10.87,16.11-5.9,11.69-12.86,22.69-19.4,34a223.47,223.47,0,0,0-11.36,21.55c-2.86,6.5-6,14-4.45,21.23.24,1.15,2.29,1.65,2.54.25,0-.19.08-.38.11-.57a4.62,4.62,0,0,0,.64.61c-.11.45-.23.9-.31,1.34a1.3,1.3,0,0,0,2.13,1.07C54.11,136.33,56,130.3,58,126c2.63-5.54,5.48-10.88,8.41-16.25,7-12.77,14.77-25.14,21.72-37.92C91.28,66.09,95,60.7,98.46,55.15c3.16-5,5.72-10.49,8.67-15.65,5.48-9.6,11.88-18.72,17-28.51.9-.7,1.79-1.42,2.65-2.17A1,1,0,0,0,125.92,7.14Z"/><path class="cls-9" d="M135.13,11.41a9.1,9.1,0,0,0-.3-2.54c-.76-2.13-2.26-3.8-3.42-5.68A5.81,5.81,0,0,0,128.1.66a15.43,15.43,0,0,0-10.19.45c-1.24.46-2.65.61-3.72,1.39-3.11,2.24-5.85,4.94-9.2,6.91-2.66,1.56-4.11,4.57-6.78,6.23a15.3,15.3,0,0,0-2.93,2.46c-1.8,1.88-3.59,3.79-5.22,5.81s-4,3.16-5,5.65c-.08.2-.34.32-.5.5-1.09,1.25-2.48,2.32-3.07,3.89-1.64,4.37-4.91,7.6-7.66,11.18a33.12,33.12,0,0,0-5.12,8.61,31.14,31.14,0,0,1-2.52,5.15c-1.46,2.45-2.81,5-4.48,7.29s-2.74,5.07-4.14,7.58c-.72,1.28-1.44,2.52-2.19,3.75-1.35,2.23-3,4.42-3.72,7-.55,1.85-2,3.34-2.18,5.33,0,.17-.21.32-.3.48-1.6,3.1-3.48,6.08-4.09,9.6a3.17,3.17,0,0,1-.29,1c-1,1.89-1.3,4-2.4,5.92a17.92,17.92,0,0,0-1.7,3.1c-1.3,3.81-2.53,7.65-3.53,11.56-.15.59,0,1.25-.48,1.76a5.68,5.68,0,0,0-1.17,4.56A9.74,9.74,0,0,1,34,134c-1.41,2.2-2.49,4.56-3.82,6.79-.8,1.34-4.11,5.64-5.4,6.53-1.58,1.09-2.57,2.82-4.18,3.83-3.52,2.19-5.36,5.84-7.64,9a31.47,31.47,0,0,0-4.48,9.14c-1.18,3.91-3.3,7.79-2,12.16a1.75,1.75,0,0,1,0,.85c-.76,2.88.54,5.58.73,8.37s1.17,5.48.36,8.2a70.12,70.12,0,0,1-3,8.28,6.64,6.64,0,0,1-1.86,3,8.62,8.62,0,0,0-2.2,2.77c-.84,1.35-.52,2.34.71,3.34,2.38,1.92,5.35,1.79,8,1.82,3,0,6.08,0,8.93-1.3s5.75-2.12,8.23-3.77a64.42,64.42,0,0,0,9.2-6.93,91.3,91.3,0,0,0,7.1-6.95,46.31,46.31,0,0,0,5.61-7.85c.78-1.46,1.7-2.84,2.6-4.23,1.63-2.51,3.43-5,3.88-8,.31-2.1,1.12-4.07,1.28-6.24a20.23,20.23,0,0,1,.73-4.6,14.18,14.18,0,0,0,.71-5.61c-.17-2,.11-4.05,2.39-5,.58-.25.7-.85,1-1.34a45,45,0,0,1,4-6.7A47.33,47.33,0,0,1,69.54,145c1.79-1.68,3.27-3.64,5.13-5.29s3.16-3.88,4.6-5.91c3.18-4.49,7.07-8.41,10.08-13,2.44-3.76,5.78-6.86,8-10.82,1.8-3.21,3.84-6.28,5.85-9.36,1.24-1.91,2.33-3.91,3.74-5.7a34.75,34.75,0,0,0,3.86-6.27c1.18-2.42,2.56-4.73,3.71-7.15,1-2.12,2.54-3.89,3.61-5.95,1.4-2.69,2.79-5.4,4.32-8,1.8-3.12,3.72-6.17,3.93-9.91a2,2,0,0,1,.17-.69c1.7-4,2.26-8.29,3.64-12.39,1.64-4.87,3.4-9.77,3.93-15,.24-2.4.86-4.77,1-7.17C135.26,18.74,135.13,15.07,135.13,11.41ZM47,178c-.71,2.13-2,3.84-2.79,5.83a19.23,19.23,0,0,1-3.58,5.86c-1.15,1.33-2.11,2.94-3.76,3.81-.58.31-.85.87-1.25,1.33-1,1.15-1.87,2.42-3.42,2.94a1.39,1.39,0,0,0-.75.62,7.2,7.2,0,0,1-3.41,3.1,20.79,20.79,0,0,0,4.12-8.42.3.3,0,0,0-.54-.26c-3.11,3.76-6.22,7.37-10.24,10.2a37.36,37.36,0,0,1-5.25,3,21.13,21.13,0,0,0,3.65-9.17.43.43,0,0,0-.79-.27,61.31,61.31,0,0,1-4.72,6.82c-.38.49-.75,1-1.13,1.46,2-5.86.95-11.86,1-17.83,0-3.83-.7-7.69.42-11.48a36.69,36.69,0,0,1,2.82-7.87,52.12,52.12,0,0,1,7-9.84A18.83,18.83,0,0,1,26.21,156a2.78,2.78,0,0,0-.28,1,.7.7,0,0,0,.82.73,2.66,2.66,0,0,0,.37-.07c-1.73,2.23-2.68,5-4.13,7.66a.52.52,0,0,0,.77.67,45.85,45.85,0,0,1,7.62-5.57,12.67,12.67,0,0,0-2.67,5.82c0,.23.3.33.42.14a11.41,11.41,0,0,1,4.38-4.15,7.9,7.9,0,0,1,1.87-.55A24.75,24.75,0,0,0,29,176.38c0,.5.72.82,1,.33a42.81,42.81,0,0,1,6.07-8.78,25.67,25.67,0,0,1,3-2.73l-.15.3c-.86,1.74-1.74,3.71-1.33,5.67a.72.72,0,0,0,1.16.41c1.87-1.4,2.88-4.35,3.82-6.41l.12-.29a43.9,43.9,0,0,1-1.56,9.72c-1.23,4.29-3.87,7.7-6.31,11.34a.42.42,0,0,0,.62.55c6.14-4.72,10.09-9.94,11.79-16.68,0,1.68-.18,3.35-.31,5,0,.35.53.6.71.24a21.35,21.35,0,0,0,1-2.23C48.08,174.58,47.55,176.3,47,178Zm7.42-29.6c-.89,4.35-3.65,6.46-8.71,6.18a4,4,0,0,1-3.38-1.26c-.44-.52-1.14-.35-1.76-.26-1.91.25-2.81-.36-3.29-2.15a3,3,0,0,0-.57-1.29,3.06,3.06,0,0,1-.47-3.8l.84-1.8a12.81,12.81,0,0,0,6.77,4.57c.72.15,1.4-.85.63-1.29A9.88,9.88,0,0,1,40,142.34a9.4,9.4,0,0,1-.5-3.39c.37-.4.85-.34,1.43.1.76.58,1.2,1.43,1.92,2.08a28.54,28.54,0,0,0,10.58,5.55C54.4,147,54.59,147.49,54.41,148.39Zm9.69-6.34c-.4-.09-.91-.24-.8-.76s.6-.35,1-.3.73.18.75.68C64.86,142.13,64.47,142.13,64.1,142.05Zm63.27-120.3c1.85,1.39.1,3,.32,4.52a7.32,7.32,0,0,1-.81,4.85,1,1,0,0,0-.19.39c-.64,4.48-3.19,8.35-3.93,12.87-.5,3.06-1.76,6-2.69,9.06-.84,2.71-2.92,4.5-4.06,6.92a7.46,7.46,0,0,0-.59,1.29,45.25,45.25,0,0,1-3.11,8.14c-1,2.14-2.21,4.19-3.15,6.37a2,2,0,0,1-1.85,1.38c-.48,0-.9.11-1,.59-.36,1.63-1.4,3-1.83,4.59a16.86,16.86,0,0,1-5.09,8.81,1.47,1.47,0,0,0-.57,1c-.21,2-1.62,3.56-2.47,5.26A21.41,21.41,0,0,1,93,102.79a14.62,14.62,0,0,0-2.26,3.58c-1,1.93-2.87,3-3.81,4.87s-2.41,3-3.53,4.58-2.22,3.37-3.3,5.08a.84.84,0,0,0-.1.66c.44.85.27,1.08-.7,1-.8-.07-1.26.63-1.63,1.24a6,6,0,0,1-2.92,2.61c-1.09.41-1.54,1.37-2.17,2.18-.12.14-.28.4-.22.5.73,1.22-.43,1.81-.8,2.71-1,2.52-3.34,3.76-5.2,5.44a5.47,5.47,0,0,1-2.65,1.33,2,2,0,0,0-1.26.88,4.57,4.57,0,0,1-5.67,2,27.14,27.14,0,0,0,4.52-7.11c.2-.39-.37-.69-.67-.45-1.82,1.51-3.83,2.31-5.84,3.48-.81.47-1.4,1.22-2.24,1.63a12.49,12.49,0,0,0-1.85.73c-.34-.16-.66-.32-1-.51-.17-.72-.49-1.42-.73-2.13s-.46-1.67-.78-2.48c.51-1.74.26-3.58.53-5.77.48-3.88,2.37-7.42,4.07-10.88.13-.27-.18-.63-.43-.38a44.16,44.16,0,0,0-6.84,9.34c-.85,1.41-1.82,2.71-2.49,4a7.55,7.55,0,0,1-.21-.88c-.49-3.06.36-5.91,1.43-8.7,1.46-3.83,3.39-7.47,4.57-11.44.75-2.52,2.28-4.8,3-7.36,1.14-4.17,3.68-7.77,4.73-12a12.49,12.49,0,0,1,1.27-2.53c2-4.09,4.32-8,6.68-11.93a29.58,29.58,0,0,1,2-3.58c.69-.85,1.19-1.81,2.32-2.19a1,1,0,0,0,.59-.59c.32-1.42,1.34-2.55,1.7-3.89.64-2.42,2.06-4.36,3.36-6.4,1.55-2.44,3.1-4.89,4.5-7.42,1.19-2.11,2.83-3.94,3.79-6.19a.92.92,0,0,1,.34-.45c2.72-1.54,3.63-4.52,5.46-6.77,2-2.51,3.63-5.37,5.91-7.73,1.85-1.9,3.42-4.06,5.17-6.05,3.54-4,7.64-7.5,11.38-11.33A11.89,11.89,0,0,1,113.59,12c2-1.2,3.47-3,5.67-4,4.78-2.09,9.38.07,9.4,5.41.2,2.55-.89,4.75-1.23,7.09C127.37,20.94,127.06,21.52,127.37,21.75Z"/><path class="cls-9" d="M20.45,172.72c-5.25,2.9-2.63,10.76-1.7,15.3a.35.35,0,0,0,.67,0c1-2.4.84-5,.9-7.56a35.89,35.89,0,0,1,.95-7.07C21.37,173,20.94,172.45,20.45,172.72Z"/><path class="cls-9" d="M124,8.58a47.45,47.45,0,0,1-8.5,6.47c-2.63,1.51-5.17,2.57-7.31,4.79-3.35,3.49-7.74,8.63-7.91,13.69a.66.66,0,0,0,1.08.53c4.54-3.65,7.69-9.18,11.92-13.23,4-3.81,7.94-7.35,11-12A.16.16,0,0,0,124,8.58Z"/><path class="cls-10" d="M230.69,114.61c-2.57-10.09-8.05-21.84-16.11-28.78C204.25,77,185.85,72.23,172.44,72.5c-10.23.21-25.23,10-28.78,20.11-.62,1-1.21,2-1.77,3a2.05,2.05,0,0,0-2.37,1.45c-.2.48-.37,1-.54,1.47a2.16,2.16,0,0,0-1.79,2c-1.15,5.83-3.91,12.34-3.25,18.28a3.43,3.43,0,0,0,.79,1.69c-.7,4.33-1.49,8.64-2.49,12.8a3.27,3.27,0,0,0,.82,2.74c-.74,5.3-1.7,10.56-1.81,15.93a2.29,2.29,0,0,0-2.29,1.62c-.09.23-.19.46-.29.69a1.9,1.9,0,0,0-1.8,1.06l-.94,1.69a39.6,39.6,0,0,0-6.35,9.14,2.27,2.27,0,0,0-.18,1.4l-.39.63a56.36,56.36,0,0,0-6,8.72c-2.39,4.71-2.38,10.36-2.33,15.5.11,9.79,7.2,19.55,15.18,24.79a49.49,49.49,0,0,0,34,7.8c12.15-1.6,24.63-8.95,35.76-13.81,10.34-4.52,17.22-10.07,21.82-20.54,5.11-11.65,11-23,13.17-35.59,1.14-6.67,3-13.78,3.27-20.55C234.16,128.23,232.24,120.7,230.69,114.61Zm-62.39,49c-5.7,4.6-15,6.71-21.06,1.47-7.49-6.49-2.87-18.72.12-26.27,1-2.5,2.08-5,3.11-7.45A32.63,32.63,0,0,1,153,126c1.57-2.46,3.95-3.71,6.56-4.61l-.22,0c-.38-.08-.22-.66.16-.59l1.2.26.84-.26a.29.29,0,0,1,.25.51c8.33,2.1,16,7.13,17.21,16.35S175.59,157.77,168.3,163.64Z"/><path class="cls-11" d="M213.49,193.44c-6.64,4.32-11.09,11.25-18,15.3a67.54,67.54,0,0,1-32.28,9.36c-12.63.19-33-.61-41.56-12-5.61-7.51-6.17-16.31-2.47-24.87,4.45-10.29,13.79-17.46,16.57-28.45,2.38-9.38,1.64-18.72,2.35-28.24A62.59,62.59,0,0,1,148.8,93.24c3.53-5.13,10.26-8.79,13-14.18.65-1.27-1.56-1.59-2.23-.86-5.17,5.61-12.61,8.54-17.39,15-10.8,14.63-8.37,29.32-10.17,46.07-.7,6.52-1.69,13.16-5.37,18.72s-8.37,9.93-11.28,16c-4.75,9.85-5.87,18.11-1.56,28,9.24,21.25,39.07,24.46,59.51,20.52,16.77-3.24,32-14.61,42-27.83C216.18,193.54,214.3,192.91,213.49,193.44Z"/><path class="cls-11" d="M183.94,128.92c-5.15-7.15-21.08-16.06-29.73-12.33-14.38,6.2-12.28,25.27-13.66,38-.14,1.27,1.74,2.27,2.46,1,5.82-9.94.47-24.77,11.27-31.8,7.17-4.66,19.6.2,23.95,7.46,3.28,5.45.64,12.2-1.35,17.87-1.8,5.09-5.15,6.31-9.16,10s-6.86,7.13-12.81,7.34c-4.72.16-7-1.36-10.8-3.42-.77-.42-1.81.25-1.2,1.1,7.16,10,18.85,7.57,27.19.66,3.55-2.94,8.69-4.8,11.39-8.53,1.95-2.72,1.83-5.27,2.74-8.42C186.12,141.22,188.49,135.25,183.94,128.92Z"/><path class="cls-12" d="M192.08,95.58a6.66,6.66,0,0,0-2-3.45,2.93,2.93,0,0,0-2.27-2.47,11.26,11.26,0,0,0-10.18,3,10.7,10.7,0,0,0-2.14,10,7,7,0,0,0,2.52,3.39,9.16,9.16,0,0,0,9.23,3.32C193.23,107.82,195.25,100,192.08,95.58Z"/><path class="cls-13" d="M212.26,121.43a5.67,5.67,0,0,0-1-1.78,3.1,3.1,0,0,0-1.93-3.73c-3.68-1.28-5.85.64-8.73,3s-5.58,5.94-5.35,9.92c.45,7.52,10.7,11.52,16.43,7.4C216.18,133,215.85,125.51,212.26,121.43Z"/><path class="cls-14" d="M208.68,162.78c-.37-2.55-2.71-3.87-4.89-4.91a2.67,2.67,0,0,0-.87-1.42c-3.82-3-9.22-.4-11.5,3.27a10.73,10.73,0,0,0-1.76,7.21c.59,3.3,2.38,5.14,5.25,6.7,2.31,1.25,5.27,2.77,8,2,2.94-.83,3.93-3.4,4.76-6A15.8,15.8,0,0,0,208.68,162.78Z"/><path class="cls-15" d="M178.3,186.09a9.91,9.91,0,0,0-2.52-1.07c-1.45-3.1-6.84-2-8.85,0-3.64,3.6-6.18,8.06-3.93,13.14,1.11,2.51,3.09,3.05,5.27,4.33s4.12,2.88,6.72,1.65c4.46-2.12,5.62-7.57,5.63-12C180.63,189.7,180.56,187.54,178.3,186.09Z"/><path class="cls-16" d="M144.19,189.17a5.83,5.83,0,0,0-2.22-2.89,2.18,2.18,0,0,0,.13-1c-.34-3.38-5.34-4.06-8-3.65-3.71.58-6,4.29-7.1,7.62-2.47,7.53,7.92,16.18,14.58,11.34C144.69,198.31,145.35,192.56,144.19,189.17Z"/><path class="cls-17" d="M192.77,93.79a9.85,9.85,0,0,0-9.64-4.36c-3.52.34-8.13,3.63-9.26,7-1,2.86-.93,9.35,2.29,10.89,1.11.54,2.92,0,2.5-1.56-.56-2.09-.58-5.79,1-7.32s4-2.78,6-2.61,2.74.16,4,1.43c1.66,1.63,1.65,3.26,2.65,5.36.19.42.91.73,1.2.22C195.44,99.55,194.65,96.81,192.77,93.79Z"/><path class="cls-18" d="M215.54,128.88c0-.21-.09-.4-.12-.61a14.06,14.06,0,0,0-1.77-7.81,7.85,7.85,0,0,0-6.79-4c-2.83-.17-6.33,1.06-6.84,4.12a8.22,8.22,0,0,0-4.88,4.91c-.93,2.65-1.15,7.36,1,9.52.78.79,3.26,1.44,3.47-.31.45-3.6.3-7.58,4.67-8.43.8-.15,3.2-.41,3.85,0s1.11,2.28,1.31,3c.5,1.82.72,5.33-.54,7-1,1,.91,3,2,2.17l.25-.21C214.21,135.87,216.12,132.93,215.54,128.88Z"/><path class="cls-19" d="M209.12,167.38a10.42,10.42,0,0,0-5.31-9.78c-2.94-3.22-7.18-6.08-9.14-1.24a1.62,1.62,0,0,0-.12.7,9.22,9.22,0,0,0-5.61,4.43c-1.37,2.58-3.22,7.17.08,9,1.28.73,2.21-.13,2.15-1.11h.13c-.14-.7,1.14-3.08,1.77-3.89,1.31-1.72,4.88-3.86,7.38-3.07,3.74,1.16,3.28,7.6,1.7,10.05a17,17,0,0,1-3.3,3.57c-1.13,1,.78,2.21,1.7,2a9.42,9.42,0,0,0,6.76-5.53A9.36,9.36,0,0,0,209.12,167.38Z"/><path class="cls-20" d="M174.16,184c-6.7-1.49-18.63,4.85-14.06,12.62.53.89,2.34,1.07,2.57-.15.48-2.5,1-4.26,3.56-5.51,2-1,5.93-1.77,7.64-.4s3.55,5.38,3.67,7.59-2,3.62-2.45,5.66c-.12.5.51.7.88.57C184.66,201.34,182.82,186,174.16,184Z"/><path class="cls-21" d="M146.32,195.44a8,8,0,0,0-.94-3.81,8.88,8.88,0,0,0-2.92-4.75c-1.29-1.73-3-3.54-4.62-4.17-2.88-1.11-5.64.44-7.74,2.35l.09,0a1.66,1.66,0,0,0-.45,1.17c-3.56,2-6,5.57-4.23,9.87.33.84,2,1.55,2.51.45,1.73-3.85,4.2-7.05,9-6.61,2.77.25,3.57,2,3.67,4.42.11,2.71.44,3.88-1.72,5.82-1.86,1.68,1.29,3.57,2.93,2.45s3-1.72,3.54-3.93c0-.12,0-.24.05-.36A8.69,8.69,0,0,0,146.32,195.44Z"/><path class="cls-22" d="M166.29,77.35a.66.66,0,0,0-1,.09c-.25.38.11.81.16,1.2,0,.11.22.18.23,0,0-.43.07,0,.34-.1s.34,0,.47-.18A.74.74,0,0,0,166.29,77.35Z"/><path class="cls-22" d="M234.66,126.62c-.31-1-.67-2.07-1.07-3.12a88.82,88.82,0,0,0-4.83-11.27c-.11-.24-.19-.5-.31-.74-.36-.73-.76-1.44-1.18-2.15a71.25,71.25,0,0,0-4.05-6.68,36,36,0,0,0-4.51-6,3.77,3.77,0,0,0-1.38-.91l-.06-.07a58.59,58.59,0,0,0-10.84-12.14,3.81,3.81,0,0,0-2-.82,31.41,31.41,0,0,0-8.07-7.29,23.51,23.51,0,0,0-16.43-2.72c-3.67.7-6.82,1.79-10.54,2.25-2.24.28-3.76.26-5.87,1.4-2.46,1.31.44,4.42,2.24,4.44,4.93,0,6.2,1.9,11.14.73,8.59-2,14.48-1.31,21.8,5.44,2.25,2.07,4.53,4.12,6.75,6.23,2.73,3.22,5.85,6.34,8.65,9.45.65,1,1.29,2,1.94,3a3.17,3.17,0,0,0,.77,2.21,67.34,67.34,0,0,1,5.57,8.38c.33.76.63,1.53.91,2.32.45,1.77.85,3.56,1.39,5.28.18.57.31,1.16.46,1.74.05.28.11.57.16.85a2.54,2.54,0,0,0,.19.65c2.78,13.59-2.58,28.93-7.07,41.73-2.15,6.14-6.49,11.05-8.62,17.12-1.37,3.91-1.58,7.33-3.94,10.94-2.88,4.39-7.08,10.77-11.27,14-1.64,1.25.29,3.19,1.86,2.81,6.68-1.61,13.22-10.06,16.57-15.81,2.61-4.47,3.34-9.68,5.83-14.26,3.89-7.16,7.38-12.75,9.31-20.77,2.82-11.74,7.24-21.71,5.52-33.35A2.16,2.16,0,0,0,234.66,126.62Z"/><path class="cls-22" d="M169.07,163.24a34.13,34.13,0,0,0-4.65.63,1.38,1.38,0,0,0-.85-.19c-4.24.62-8.16,2.07-12.33,3a2.53,2.53,0,0,0-1.42.78,13.48,13.48,0,0,1-6.12-5.81c-.56-1.06-3-2.11-3.74-.58-3.26,7,7.89,13.42,13.44,14.66,7.13,1.6,15-.61,19.6-6.44C175,166.75,171.83,163.08,169.07,163.24Z"/><path class="cls-22" d="M220.37,137.94a2.48,2.48,0,0,0-.79-1.81c-.08-.68-.18-1.37-.33-2-.25-1.17-2.48-1.76-2.91-.41-.29.92-.57,1.83-.85,2.74a2.52,2.52,0,0,0-.27.62c-.08.4-.17.79-.26,1.19l-.6,2c-.54,1.32-1.1,2.62-1.71,3.89-1,1.41-2.1,2.78-3,4.26a9.58,9.58,0,0,0-1.3-1.21A12.31,12.31,0,0,0,196,145.72a16.86,16.86,0,0,0-7.39,7.41,20.91,20.91,0,0,0-2.06,6.67c-.15,1.07.66,1.25-.14,2.41s1.05,2.09,1.87,1.24c1.42-1.45,2.49-4,3.58-5.83a16.72,16.72,0,0,1,4-4.88,12.37,12.37,0,0,1,2-1.22,11.2,11.2,0,0,1,1.15-.29,4.59,4.59,0,0,0,.66.57,3.12,3.12,0,0,0,1.84,2.88c3.4,1.69,6,4.25,9.53,5.78,1.09.47,2.83.7,3.72-.36,1.59-1.9,1-3.24.35-4.92.71-1.53,1.33-3.1,1.89-4.7.09-.22.17-.44.25-.67a13.32,13.32,0,0,0,.87-1.59,2.45,2.45,0,0,0,.21-1.43A21.22,21.22,0,0,0,220.37,137.94Z"/><path class="cls-22" d="M209.84,139.42c-.56.68-1.25,1.72-2,2.68a2.3,2.3,0,0,0-2,0l-.14.08a3,3,0,0,0-2.7-.79,2.46,2.46,0,0,0-1.93-.18c.38-2.17.09-4.33-2-5.21a1,1,0,0,0-1.38.37c-.92,1.83-1,3.55-1.63,5.49a18.5,18.5,0,0,1-1.7,3.6c-.12.17-.21.36-.32.53-1.33.69-2.85,1.62-2.69,3.32a2.6,2.6,0,0,0,2.34,2.36c1.8.24,3.07-1,4-2.46,1.12-.49,2.47-1.07,2.7-1.21a4.51,4.51,0,0,0,.68-.47c.08.09.13.19.22.28,1.39,1.32,2.84.88,4.21,0a3.39,3.39,0,0,0,.94.33c-1.26,1.59,1.28,3.24,2.72,2.09,2.65-2.13,5.57-6,5.25-9.63C214.19,138.43,211.15,137.86,209.84,139.42Z"/><path class="cls-22" d="M218.92,96.13c-5.09-3.21-11.2-4.56-17.14-5.77a1.52,1.52,0,0,0-.17-1.93A2,2,0,0,0,201,85.3a15.91,15.91,0,0,0-1.45-.91,19,19,0,0,0-4.94-2.14,3,3,0,0,0-2.72-1.83c-.44,0-.83,0-1.26,0A3.12,3.12,0,0,0,188,78.19c-.37,0-.72,0-1.07,0a1.59,1.59,0,0,0-.15-.21c-7.39-7.46-22.36,9-17.84,17.22.87,1.57,3,2.14,4.17.55,1.58-2.22,2.82-4.74,4.21-7.15.91-.65,1.78-1.4,2.65-2.14h.12c.71-.16,1.41-.29,2.11-.43a2.84,2.84,0,0,0,.79.14c1.46,0,2.78-.08,4-.14-.44.89-.24,1.89,1.22,2.5a26.76,26.76,0,0,1,6.24,3.7,2.29,2.29,0,0,0,1.93,1.92l.17,0a3.46,3.46,0,0,0,3,.68c5.85,1.38,11.61,3,17.49,4.29C218.69,99.55,220.79,97.3,218.92,96.13Z"/><path class="cls-23" d="M239.07,131.39c.07-2.69-.65-5.26-1-7.89a50.13,50.13,0,0,0-1.85-8.86c-.75-2.42-.86-5.28-3-7.23-.56-.53-.56-1.45-.86-2.17-1-2.45-3.13-4.13-4.32-6.47-2.57-5-6.39-9-10.46-12.87a111.86,111.86,0,0,0-9.33-7.65,34.5,34.5,0,0,0-4.88-2.6c-2.7-1.42-5.58-2.31-8.37-3.46-5.59-2.3-11.43-2.6-17.42-2.07-3.3.3-6.48,1.33-9.82,1.28a5.4,5.4,0,0,0-2.14.61c-2.79,1.17-5.5,2.76-8.42,3.33-5.87,1.14-10,4.89-14.35,8.42-3.08,2.47-5.22,5.6-7.7,8.54a30.57,30.57,0,0,0-4.54,8.2,96.65,96.65,0,0,0-3.49,10.69,21.31,21.31,0,0,0-.5,7.23,20.58,20.58,0,0,1-.08,3.16c.25,3.19-.14,6.75.73,10.31A19.66,19.66,0,0,1,124.65,147a82.91,82.91,0,0,1-5,7c-1.22,1.58-2.37,3.22-3.67,4.74a34.7,34.7,0,0,0-4,6c-1.47,2.72-3.76,5.1-4,8.49a4.43,4.43,0,0,1-1.92,3.13,1.85,1.85,0,0,0-.75,1.69,63.62,63.62,0,0,0,.39,9.31c.57,3.56,0,7.27,1.29,10.67s2.29,6.73,3.59,10.05c1.89,4.81,5.9,7.73,9.05,11.43,2.73,3.23,6.44,4.51,10.21,5.94,4,1.51,8.18,2.47,12.21,3.9a14.17,14.17,0,0,0,5.14.5c2.38-.08,4.54,1.18,6.87,1a53.76,53.76,0,0,0,10.3-1.7,30.64,30.64,0,0,1,6.2-.91c2.87-.21,5.41-1.3,8.09-2a10.6,10.6,0,0,1,1.6-.51c3.35-.35,6.33-1.83,9.34-3.14a16.28,16.28,0,0,0,5.84-4,7.31,7.31,0,0,1,2.86-1.95c3-1.17,5.38-3.37,7.67-5.46A37.12,37.12,0,0,0,212.5,204c1.36-2.1,3.14-3.91,4.64-5.93a72.68,72.68,0,0,0,5.5-8c1.15-2.06,2.54-4,3.73-6a46.84,46.84,0,0,0,2.65-6.13c.66-1.58,1.28-3.17,2.06-4.71a19.84,19.84,0,0,0,1.53-4.91c.58-2.8,1.84-5.37,2.4-8.15q.65-3.19,1.39-6.36a37.94,37.94,0,0,0,1.52-7.2,39.62,39.62,0,0,1,1-8.32.94.94,0,0,0,0-.55C238.05,135.55,239,133.48,239.07,131.39Zm-93.09,25c.45-2.06,2-3.71,2.18-5.85a9.65,9.65,0,0,1,.66-1.82c.8-2.54,2.19-5,1.86-7.75a28.84,28.84,0,0,1,0-4.74,12.22,12.22,0,0,1,2.54-7.51,10,10,0,0,1,8.48-3.76,14.33,14.33,0,0,1,4,.55,21.1,21.1,0,0,1,6.31,4,12.91,12.91,0,0,1,3.16,3.69c2.74,5.41,1.55,10.83-.59,15.91a22.27,22.27,0,0,1-8.33,10.13c-2.3,1.52-4.25,3.52-7.23,3.92-1.34.18-2.59,1-4,.37a1.12,1.12,0,0,0-.82.06,2.77,2.77,0,0,1-2.41-.23,7.18,7.18,0,0,0-1.87-.55C146.55,162.34,145.39,159.1,146,156.41Z"/><path class="cls-9" d="M105.36,178.06a63.62,63.62,0,0,0,.39,9.31c.57,3.56,0,7.27,1.29,10.67s2.29,6.73,3.59,10.05c1.89,4.81,5.9,7.73,9.05,11.43,2.73,3.23,6.44,4.51,10.21,5.94,4,1.51,8.18,2.47,12.21,3.9a14.17,14.17,0,0,0,5.14.5c2.38-.08,4.54,1.18,6.87,1a53.76,53.76,0,0,0,10.3-1.7,30.64,30.64,0,0,1,6.2-.91c2.87-.21,5.41-1.3,8.09-2a10.6,10.6,0,0,1,1.6-.51c3.35-.35,6.33-1.83,9.34-3.14a16.28,16.28,0,0,0,5.84-4,7.31,7.31,0,0,1,2.86-1.95c3-1.17,5.38-3.37,7.67-5.46A37.12,37.12,0,0,0,212.5,204c1.36-2.1,3.14-3.91,4.64-5.93a72.68,72.68,0,0,0,5.5-8c1.15-2.06,2.54-4,3.73-6a46.84,46.84,0,0,0,2.65-6.13c.66-1.58,1.28-3.17,2.06-4.71a19.84,19.84,0,0,0,1.53-4.91c.58-2.8,1.84-5.37,2.4-8.15q.65-3.19,1.39-6.36a37.94,37.94,0,0,0,1.52-7.2,39.62,39.62,0,0,1,1-8.32.94.94,0,0,0,0-.55c-.84-2.12.12-4.19.18-6.28.07-2.69-.65-5.26-1-7.89a50.13,50.13,0,0,0-1.85-8.86c-.75-2.42-.86-5.28-3-7.23-.56-.53-.56-1.45-.86-2.17-1-2.45-3.13-4.13-4.32-6.47-2.57-5-6.39-9-10.46-12.87a111.86,111.86,0,0,0-9.33-7.65,34.5,34.5,0,0,0-4.88-2.6c-2.7-1.42-5.58-2.31-8.37-3.46-5.59-2.3-11.43-2.6-17.42-2.07-3.3.3-6.48,1.33-9.82,1.28a5.4,5.4,0,0,0-2.14.61c-2.79,1.17-5.5,2.76-8.42,3.33-5.87,1.14-10,4.89-14.35,8.42-3.08,2.47-5.22,5.6-7.7,8.54a30.57,30.57,0,0,0-4.54,8.2,96.65,96.65,0,0,0-3.49,10.69,21.31,21.31,0,0,0-.5,7.23,20.58,20.58,0,0,1-.08,3.16c.25,3.19-.14,6.75.73,10.31A19.66,19.66,0,0,1,124.65,147a82.91,82.91,0,0,1-5,7c-1.22,1.58-2.37,3.22-3.67,4.74a34.7,34.7,0,0,0-4,6c-1.47,2.72-3.76,5.1-4,8.49a4.43,4.43,0,0,1-1.92,3.13A1.85,1.85,0,0,0,105.36,178.06Zm9.16-.94a24.74,24.74,0,0,1,1.9-4.63c2.21-3.62,4.15-7.43,7.25-10.48a45.59,45.59,0,0,0,5.12-6.43c3.67-5.21,6.09-10.86,6-17.36,0-3.35-.19-6.71-.24-10.06a31.37,31.37,0,0,1,.51-7.8,8.91,8.91,0,0,0,0-4.14,13.16,13.16,0,0,1-.26-5c.6-4.08,2.53-7.71,4.41-11.25a36.78,36.78,0,0,1,7-9.28l.81-.75a3.1,3.1,0,0,0,.1,1.88c.34.82,1.22,1.36,1.18,2.33,0,.39.49.45.71.24a3.43,3.43,0,0,0,.94-1.9c.27-.84.65-1.69,1-2.53.51-1.31.94-2.55.51-3.73a42.93,42.93,0,0,1,7.5-4.6c1.45-.68,3-.91,4.44-1.62a25.62,25.62,0,0,1,7.68-1.91c3.22-.46,6.49-.54,9.73-.84a27.13,27.13,0,0,1,9.55,1,56,56,0,0,1,14.17,6.13c.53.32.95.34,1.32-.18.19-.27.36-.62.76-.46s.3.63.25,1a1.92,1.92,0,0,0,1.18,2c2.9,1.75,5.05,4.32,7.14,6.91a44,44,0,0,1,3.49,4.84,31.27,31.27,0,0,0,3.95,4.73c2.18,2.36,3,5.37,4.34,8.08a14.14,14.14,0,0,1,1.78,4.68,2.83,2.83,0,0,0,1.7,2.52c.67.3.84.85.12,1.24s-.68,1.1-.53,1.8a40.21,40.21,0,0,1,1.28,7.4,18.36,18.36,0,0,0,.34,4.31,13.67,13.67,0,0,1,.2,4.73c-.31,3.56-.9,7.08-1.41,10.61-.24,1.7-.61,3.38-.94,5.05-.62,3.08-1.6,6.09-2.41,9.14a7.43,7.43,0,0,1-.94,2.14c-.57.89-1.46,1.66-1.52,2.8-.2,4.2-2.29,7.76-4.31,11.19-1.3,2.19-2.4,4.51-3.55,6.74-2.33,4.51-5.66,8.23-8.76,12.11a63.19,63.19,0,0,1-7.64,7.89c-.83.72-1.24,1.94-2.32,2.37a15.82,15.82,0,0,0-4,2.28c-1.28,1-2.95,1.14-4.31,2a46.15,46.15,0,0,1-10.93,5.07c-2.85.82-5.72,1.65-8.62,2.34-2.71.64-5.43,1.17-8.2,1.61a96.9,96.9,0,0,1-15,.72c-1.17,0-2.34.05-3.5,0a8,8,0,0,1-2.6-.45c-2-.89-4-1.63-6.12-2.33a27.57,27.57,0,0,1-6.89-3.59c-1.86-1.3-3.66-2.7-5.39-4.17a13.56,13.56,0,0,1-3.38-3.85c-.74-1.39-1.39-2.85-2.23-4.18a26.92,26.92,0,0,1-3.83-11A32.24,32.24,0,0,1,114.52,177.12Z"/><path class="cls-9" d="M173.7,122.7a14.37,14.37,0,0,0-3.1-1.83c-2.23-1.05-4.13-3-6.3-2.56-2.4.14-4.15-.28-5.94,0a11.51,11.51,0,0,0-7.55,4c-.92,1.1-2,2.05-3,3.13-2.46,2.78-2.86,6.31-3.22,9.76s-.39,7.06-1.51,10.47a83,83,0,0,0-2.89,10.45,9.48,9.48,0,0,0,1.23,7.59,34.91,34.91,0,0,0,3.75,4.64,9.83,9.83,0,0,0,2.58,1.36,24.35,24.35,0,0,0,7.35,2c1.62.3,3.14-.71,4.74-1a25.39,25.39,0,0,0,8.58-3.55,6.43,6.43,0,0,0,1.81-1.7c3.13-4.36,7-8.24,8.82-13.46.79-2.32,1.24-4.79,2.35-7a13.53,13.53,0,0,0,.92-9c-.65-3.25-1.28-6.69-4-9C176.69,125.69,175.34,124.05,173.7,122.7Zm1.45,10.5c2.74,5.41,1.55,10.83-.59,15.91a22.27,22.27,0,0,1-8.33,10.13c-2.3,1.52-4.25,3.52-7.23,3.92-1.34.18-2.59,1-4,.37a1.12,1.12,0,0,0-.82.06,2.77,2.77,0,0,1-2.41-.23,7.18,7.18,0,0,0-1.87-.55c-3.32-.47-4.48-3.71-3.89-6.4.45-2.06,2-3.71,2.18-5.85a9.65,9.65,0,0,1,.66-1.82c.8-2.54,2.19-5,1.86-7.75a28.84,28.84,0,0,1,0-4.74,12.22,12.22,0,0,1,2.54-7.51,10,10,0,0,1,8.48-3.76,14.33,14.33,0,0,1,4,.55,21.1,21.1,0,0,1,6.31,4A12.91,12.91,0,0,1,175.15,133.2Z"/><path class="cls-9" d="M196.25,93.61c-2-3.75-5.32-8.08-9.88-8.42-5-.37-10.14,3.42-12.71,7.38a14.83,14.83,0,0,0-2,9.5c-.05,6.6,6.27,12.53,13.52,12C195.23,113.4,200.89,102.41,196.25,93.61Zm-12.72,14.74c-4-.44-6.33-3.35-7.45-6.77a9.72,9.72,0,0,1,2.65-7.2c1.48-1.68,4.27-3.95,6.67-4,2.76,0,5,3.36,6.12,5.53C194.55,101.62,190.3,109.1,183.53,108.35Z"/><path class="cls-9" d="M206.37,142c10.1-.7,15.76-11.68,11.12-20.49-2-3.75-5.32-8.08-9.88-8.42-5-.37-10.14,3.42-12.71,7.38a14.83,14.83,0,0,0-2.05,9.5C192.81,136.52,199.12,142.45,206.37,142Zm-1.6-5.74c-4-.44-6.33-3.36-7.45-6.78a9.73,9.73,0,0,1,2.65-7.2c1.49-1.68,4.27-4,6.67-4,2.76,0,5,3.36,6.12,5.53C215.79,129.48,211.54,137,204.77,136.21Z"/><path class="cls-9" d="M188.58,158.47a14.83,14.83,0,0,0-2.06,9.5c0,6.6,6.27,12.53,13.53,12,10.1-.7,15.76-11.68,11.12-20.49-2-3.75-5.33-8.08-9.89-8.42C196.33,150.72,191.14,154.51,188.58,158.47Zm5.07,1.81c1.48-1.68,4.26-3.95,6.66-4,2.77,0,5,3.36,6.12,5.53,3,5.69-1.21,13.16-8,12.42-4-.44-6.33-3.36-7.45-6.78A9.7,9.7,0,0,1,193.65,160.28Z"/><path class="cls-9" d="M172.25,208.25c10.1-.7,15.76-11.69,11.12-20.49-2-3.75-5.32-8.08-9.88-8.42-5-.37-10.14,3.42-12.71,7.38a14.83,14.83,0,0,0-2.05,9.5C158.68,202.82,165,208.75,172.25,208.25Zm-6.4-19.72c1.49-1.68,4.27-3.95,6.67-4,2.76,0,5,3.35,6.12,5.52,3,5.69-1.22,13.17-8,12.42-4-.44-6.33-3.35-7.45-6.77A9.72,9.72,0,0,1,165.85,188.53Z"/><path class="cls-9" d="M125.3,185.14a14.89,14.89,0,0,0-2,9.5c0,6.59,6.27,12.53,13.53,12,10.09-.7,15.76-11.69,11.12-20.5-2-3.74-5.33-8.07-9.89-8.41C133.06,177.39,127.87,181.17,125.3,185.14Zm5.07,1.81c1.49-1.69,4.27-3.95,6.67-4,2.77,0,5,3.36,6.12,5.53,3,5.69-1.21,13.17-8,12.42-4-.44-6.33-3.35-7.45-6.77A9.72,9.72,0,0,1,130.37,187Z"/><path class="cls-9" d="M145.7,215.69c2.63.41,4.38,1.38,7.21.06,1.48-.68,1.84-1.32,3.63-1.44a13.43,13.43,0,0,1,7.71,1.74.94.94,0,0,1-.11,1.72c-3,.83-6.82,2.71-9.83,2.14a22.23,22.23,0,0,1-8.92-3.58C145.08,216.1,145.36,215.64,145.7,215.69Z"/><path class="cls-9" d="M182.35,149.83a8,8,0,0,1,1.62-2.9c2.24-3,2.62-4.52,2.68-8.06a.19.19,0,0,1,.37,0c.8,4.52,1.79,9.53-.4,13.75-1.38,2.65-3.56,6.28-6.89,6.25-.54,0-1-.67-.56-1.12C181.66,155.2,181.36,152.88,182.35,149.83Z"/><path class="cls-9" d="M142.35,108.94c-.78,3.83-1.49,8.11-3.33,11.57a.38.38,0,0,1-.7,0c-1.49-3.66-1.83-9.2-.37-13a14.08,14.08,0,0,1,2.79-3.89c1.81-2.16,3.35-4.47,5.34-6.49a.36.36,0,0,1,.59.39C145.3,101.44,143.2,104.83,142.35,108.94Z"/><path class="cls-9" d="M139,126.64a6.58,6.58,0,0,1-.3,4.8.66.66,0,0,1-1.15.08,6.63,6.63,0,0,1-.3-5C137.49,125.71,138.7,125.92,139,126.64Z"/><path class="cls-9" d="M128.75,163.19c1.73-1.68,2.31-4.15,4.23-5.58a1.07,1.07,0,0,1,1.28.09l.35.3a.46.46,0,0,1,.11.53,32.51,32.51,0,0,1-6.21,9.53c-3.62,3.78-4.67,9.14-7.08,13.68a.61.61,0,0,1-1.12-.07c-1.92-4.76-.46-9.3,2.58-13.31C124.57,166.13,126.81,165.09,128.75,163.19Z"/><path class="cls-9" d="M125.23,206.77c2.77,1.38,5.34,3.08,8.2,4.28,2.62,1.1,4.28,3.41,6.79,4.54a.88.88,0,0,1,.1,1.5,3.21,3.21,0,0,1-3.25.28,14.93,14.93,0,0,1-1.76-1.06,17.32,17.32,0,0,0-3.67-1.34c-3.73-1.2-5.82-3.94-7.15-7.55A.54.54,0,0,1,125.23,206.77Z"/><path class="cls-9" d="M207.73,98.35a.9.9,0,0,1,.6-.7c3.92-.91,6.94,3.89,8.91,6.59,2.57,3.53,5.22,8.32,5.72,12.7a.85.85,0,0,1-1.55.53c-2.51-4.14-5.87-6.76-9-10.33C210.33,104.8,207.28,101.74,207.73,98.35Z"/><path class="cls-9" d="M227.69,127.36c.86,1.8,1.74,5,.4,6.74a.89.89,0,0,1-1.22.09c-1.79-1.25-1.79-4.75-1.51-6.67C225.55,126.2,227.22,126.37,227.69,127.36Z"/></g></g></g></svg>