<svg xmlns="http://www.w3.org/2000/svg" viewBox="0 0 235.17 227.01"><defs><style>.cls-1{fill:#e3e3e3;}.cls-2{fill:#8f8f8f;}.cls-3{fill:#0086c2;}.cls-4{fill:#a9de00;}.cls-5{fill:#e82064;}.cls-6{fill:#ff9d00;}.cls-7{fill:#1ddff5;}.cls-8{fill:#a6a6a6;}.cls-9{fill:#2b2016;}</style></defs><g id="图层_2" data-name="图层 2"><g id="央铋_1" data-name="央铋 1"><path class="cls-1" d="M227.22,106.22C220.58,79.16,186.47,81.7,165.31,70l-5.16-3.55c-4.9-3.89-9.63-8-14.27-12.28s-9.22-8.39-13.55-12.84c-5-5.16-7.51-10.52-10.71-16.89C113,7.38,92.1,4.74,75.83,11.69c-21.1,9-39.18,29-53.77,46.16-9.11,10.7-21,27.78-10.78,40a8.31,8.31,0,0,0,4.51,4.07,4.07,4.07,0,0,0,2.12.37,30.8,30.8,0,0,0,23.94,4.58c7.28-1.47,13.89-5.13,19.82-9.48C64.88,95,69,92.45,71.38,89c15.43-.24,25.48,12.93,36.59,21.84C117.18,118.2,127.13,124.6,137,131a3.1,3.1,0,0,0,3.41.19,25.19,25.19,0,0,1,7.34,10c2.94,7.83.79,17.82,0,25.93-1.36,13.09-3,27.89,4,39.78,5.42,9.1,15.34,12.92,25.41,9.32,12.24-4.38,18.78-17,24.36-27.81a447.68,447.68,0,0,0,20-44.23C226.07,132.33,230.34,118.93,227.22,106.22Z"/><path class="cls-2" d="M72.88,72.92c-10,5.81-19.63,12.46-30.47,16.61-.84.32-1.74.65-2.67,1a3.7,3.7,0,0,0-2.9.86l-.12.1c-5.3,1.52-11.31,2.26-15.54-.8-8.5-6.15-6.75-16.25-2.17-24.15.71-1.23-1.09-2.61-2-1.49a29.85,29.85,0,0,0-7,15.44C8.13,80.6,6.34,81.87,6.58,84c.8,7.18,3.64,19.51,11.24,22.7,6.82,3.81,13.9,3.31,20.64.65.71,1.65,2.93,2.77,4.6,1.63,5-3.41,9-7.84,13-12.22a2.34,2.34,0,0,0,1.8-.61,2.47,2.47,0,0,0,3.21-.92c.24-.34.48-.67.71-1a2.65,2.65,0,0,0,3.11-1c.66-1,1.28-1.91,1.89-2.86a2.54,2.54,0,0,0,3.09-.9c0-.08.08-.16.13-.24a1.93,1.93,0,0,0,2.18-1.13,54.49,54.49,0,0,0,4.23-12.58A2.42,2.42,0,0,0,72.88,72.92Z"/><path class="cls-2" d="M225.49,122.81c-3.16,12.37-11.26,23.85-17.45,34.92-6,10.68-11.87,21.44-18,32.05C186.76,195.58,183,202,176,203.87c-6.28,1.68-13.11-.73-18.13-4.46-11.7-8.71-9.25-27.25-8.88-40.37,0-1.65-2.64-2-2.93-.32-2,11.77-5.82,26.2-.53,37.49a2.55,2.55,0,0,0,0,2.32c3.52,8,8,17.23,17.46,19.24a17,17,0,0,0,10.15-1,2.25,2.25,0,0,0,3.06.27c14.18-10,21.58-25.23,30.7-39.5,4.65-7.27,10.29-13.55,13.23-21.77,3.64-10.2,7.82-21.27,9-32C229.44,121.38,226.12,120.37,225.49,122.81Z"/><path class="cls-2" d="M148.83,131.86a2,2,0,0,0-.35-2.92c-23.55-17.35-47-35.27-71.45-51.3-2.93-1.91-5.83,2.45-3.51,4.79a111.13,111.13,0,0,0,8.33,7.51,3.1,3.1,0,0,0,1.35,2l24.15,16.37a2.87,2.87,0,0,0,.83.4l6.5,4.51c.84.64,1.7,1.27,2.53,1.93a2.83,2.83,0,0,0,1.26,3.35,261.89,261.89,0,0,1,26.95,17.79C148.17,138.32,150.72,134.22,148.83,131.86Z"/><path class="cls-3" d="M205.15,119.61a8,8,0,0,0-4.11,1.75,2.55,2.55,0,0,0-2.59,2c0,.29-.1.58-.14.87a5,5,0,0,0-1,2,4.62,4.62,0,0,0,1,3.59,7.2,7.2,0,0,0,7.78,1.9,8.2,8.2,0,0,0,5.49-6C212.23,122,208.79,119.18,205.15,119.61Z"/><path class="cls-4" d="M183.69,121.41a10.68,10.68,0,0,0-7.68.78,6.35,6.35,0,0,0-3.47,3.47c-1.57,4,1.35,7.34,4.93,8.28a7.2,7.2,0,0,0,1.85.55c2.68.43,6.91-.44,6.94-3.85a1.28,1.28,0,0,0-.09-.32,8.14,8.14,0,0,0,1.1-2.44A5.13,5.13,0,0,0,183.69,121.41Z"/><path class="cls-5" d="M205.69,97.49a6.42,6.42,0,0,0-1.82-.89l0-.08c-1-2.17-4.22-2.52-6.27-2a5.3,5.3,0,0,0-2.49,1.32,2.36,2.36,0,0,0-.44.11c-3.23,1.45-7.29,5.54-5.39,9.49.82,1.71,2.51,2.29,4.29,2.42a8.5,8.5,0,0,0,3.62,2.3,8.33,8.33,0,0,0,9.19-3.39C208.28,104,208.73,99.66,205.69,97.49Z"/><path class="cls-6" d="M175.43,98.67a5.6,5.6,0,0,0-5,1.36c-3.22-.09-5.35,3.52-5.12,6.54a6.9,6.9,0,0,0,1.58,3.85c0,.09,0,.18,0,.27a3,3,0,0,0,2.89,2.09h2.24l.25,0a5.14,5.14,0,0,0,5.33-1.55C180.85,107.79,180.93,99.8,175.43,98.67Z"/><path class="cls-7" d="M147.62,70.91c-6.36-2.22-13.12-6.4-18.69-9.88-4.1-2.56-8.69,3.84-11.25,6.33-2.17,2.11,1.16,5.18,3.37,3.21.25-.22.5-.46.76-.7a3.12,3.12,0,0,0,.9,1.53c1.39,1.31,2.84,2.54,4.32,3.72.67.83,1.32,1.68,1.92,2.59.85,1.28,1.34,2.41,2.85,3a3.93,3.93,0,0,0,1.51.33,3.48,3.48,0,0,0,3.09,3.33,3.14,3.14,0,0,0,4.35.21,73,73,0,0,0,8.25-9A2.91,2.91,0,0,0,147.62,70.91Z"/><path class="cls-8" d="M100.4,33.47c.4-.47.76-.92.92-1.07L106,28.09c1.81-1.68.84-4.23-.84-5.44a23.58,23.58,0,0,1-4.44-4,3.54,3.54,0,0,0-4.22-.44,56.25,56.25,0,0,0-9,5.62c-2.35-1.83-5.21-4-6-6.11a3.24,3.24,0,0,0-3.9-2.09c-2.73.52-5.29,3.31-7.4,5-1.41,1.11-2.1,3.33-.49,4.7s3.42,2.08,5.38,3.21a19.36,19.36,0,0,1,4,3,3.49,3.49,0,0,0-.4.57c-2.33,3.69-7.49,4.68-10,8.21a2.83,2.83,0,0,0,.07,2.93c1.84,2.77,4.83,5.09,7.31,7.25a2.7,2.7,0,0,0,4.47-1.72c1.68-.94,3.11-2.07,4.81-3.08,4.36-2.57,6,1,8.5,4.45a3.58,3.58,0,0,0,4.82,1.14c3.15-1.88,8.35-5.11,8.54-9.29C107.47,38.2,103.57,35.76,100.4,33.47Z"/><path class="cls-9" d="M234.6,120.74c0-.85,0-1.7,0-2.55,2.62-9.53-4.35-25.68-13.14-30.11a.64.64,0,0,0-.4-.06,26.8,26.8,0,0,0-2.05-2.2c-3.2-3.71-8.55-6.07-12.76-7.64a54.53,54.53,0,0,0-13.38-3.26h0a27.07,27.07,0,0,0-8-1.4c-1-.71-2-1.41-3-2.1-2.12-1.45-4.26-3.28-6.78-3.91-1.82-1.44-3.7-2.81-5.57-4.18A79,79,0,0,0,160.3,57a54.76,54.76,0,0,0-7.86-5.51l-.07-.06c-4-3.45-8.07-8.34-13-10.37a.68.68,0,0,0-.14,0,34.6,34.6,0,0,0-7.53-5.28,24.82,24.82,0,0,0-2.43-1.66,14.5,14.5,0,0,0-.71-7.48A16.85,16.85,0,0,0,125,18.44c-1.23-3.37-3.54-6.78-6.3-8.52a18.56,18.56,0,0,0-7.09-5,43.34,43.34,0,0,0-9.19-3.68,36.09,36.09,0,0,0-13.61-1A38.86,38.86,0,0,0,78,1.74a42.74,42.74,0,0,0-7.22,2.53C67.4,4.94,64.08,7,61.1,9.4a66.91,66.91,0,0,0-5.46,4.78A61.28,61.28,0,0,0,49.1,21l-.31.33c-2.55,2.66-4.85,5.45-7.11,8.33-2.19,1.67-4.06,4.56-5.66,6.24-2.77,2.92-5.77,5.74-8.4,8.82-1.32,1.28-2.68,2.57-4,3.92a60.73,60.73,0,0,0-6.51,7.13L17,56c-2.4,1.93-4.22,4.88-5.93,7.31-.18.26-.35.53-.53.8-1.69,1.62-2.93,4.1-4,6a30.38,30.38,0,0,0-2.09,4.54l-.29.54a.94.94,0,0,0-.09.6l0,.09a11.54,11.54,0,0,0-2.54,6,14.41,14.41,0,0,0-.78,2.59c-1.1,1.69-.66,4.25-.4,6.16A18.32,18.32,0,0,0,1.4,95.39c-.09,2.71,2.05,5.27,3.58,7.35l.1.14a15.3,15.3,0,0,0,3.42,4.38,18.3,18.3,0,0,0,4.31,3.16,12.13,12.13,0,0,0,3.53,2.21,17.78,17.78,0,0,0,6.81,1.53c1.29.12,2.64.22,4,.24a16,16,0,0,0,2.18.16.68.68,0,0,0,.36-.13A26.18,26.18,0,0,0,36,113.8c.42-.06.83-.13,1.25-.21a.36.36,0,0,0,.32.16c3.75-.23,7.28-2.11,10.59-4,0,0,0,0,.06,0,4.48-1.26,8.33-4.32,12.17-6.86.92-.61,1.82-1.25,2.72-1.87s1.91-1.12,2.83-1.69a60.41,60.41,0,0,0,7.45-5c2,1.41,4.17,2.58,6.16,3.85A35,35,0,0,1,82,100.8a1,1,0,0,0,.68.34,79.85,79.85,0,0,0,7.44,5.52c1.79,1.3,3.6,2.53,5.41,3.77,2.26,1.77,4.73,3.33,7,4.94l2.34,1.68c2.43,2.53,5.64,4.41,8.48,6.37,1.93,1.33,3.85,2.67,5.8,4,3.42,3.27,7.61,5.94,11.36,8.7,2.74,2,5.48,4,8.32,5.89,1.3,1,2.63,2,4,2.86a25.34,25.34,0,0,0-.34,3.45c-.19,1.31-.35,2.62-.45,3.93a66.23,66.23,0,0,0-.88,10.13,65.86,65.86,0,0,0-.62,8.12c-.06.41-.13.81-.19,1.22-.25,1.82-.55,3.69-.77,5.58a56.51,56.51,0,0,0-.59,9.92c-.16,1.21-.28,2.42-.34,3.6-.73,5.39-1.1,11,.45,15.85.27,2,.81,4,2.45,5.09a9.85,9.85,0,0,0,2.87,3.53c.48.64,1,1.26,1.55,1.87,1.55,1.66,3.56,3.8,5.84,4.78a19.26,19.26,0,0,0,6.92,3.19,12.89,12.89,0,0,0,4,1.37,13.62,13.62,0,0,0,3.42.3c.87.08,1.74.12,2.62.12a25.35,25.35,0,0,0,9.35-.81c1.8-.51,4.92-1.27,6-3,.18-.11.36-.22.53-.34,2.86-1.24,5.35-4.29,7.17-6.36l.68-.77a40.41,40.41,0,0,0,5.59-6.4,32.43,32.43,0,0,0,5-9.66c.34-.65.69-1.29,1-2a74.45,74.45,0,0,0,3.32-7.46c.31-.61.61-1.22.91-1.83s.83-1.49,1.23-2.24c1.56-3,3.33-6,4.1-9.23.49-1.17,1-2.35,1.35-3.54q1.09-2.16,2.15-4.33c1.52-3.17,3.21-6.47,4.57-9.86.53-1,1-2.07,1.57-3.12,1.41-2.87,3.16-5.87,4-9,.26-.51.53-1,.78-1.54,2-4.16,4.59-8.87,4.7-13.57.07-.33.15-.67.21-1A26.3,26.3,0,0,0,234.6,120.74ZM190.54,83.92a39.18,39.18,0,0,1,8.27,1.69c4.8,2.94,9.74,5.67,13.92,9.5a.86.86,0,0,0,.78.24c1,1.26,2.08,2.43,3,3.58.59.75,1.15,1.56,1.72,2.36,1.26,2.09,2.82,4,3.93,6.22.62,1.21,1.17,2.48,1.68,3.77.19.75.38,1.51.52,2.28a46.09,46.09,0,0,1,.48,6.92c-.11,1.65-.2,3.29-.43,4.87-.07.44-.15.89-.22,1.34-1.2,3-1.94,6.25-2.9,9.26-.08.27-.17.54-.26.81-1.24,2.61-2.2,5.37-3.25,8a.78.78,0,0,0-.05.14c-2.36,3.45-3.84,7.85-5.47,11.51-.12.27-.23.55-.35.81-1.93,2.88-3.29,6.35-4.77,9.28-1.34,2.66-2.65,5.33-3.85,8s-2.46,5.32-3.62,7.92a67.42,67.42,0,0,0-3.9,8.08c-1.29,2.84-2.47,5.7-3.63,8.57a46.45,46.45,0,0,0-3,4.68c-.11.19-.21.38-.32.56-1.06,1.15-2.1,2.32-3.22,3.43-.62.61-1.26,1.21-1.91,1.81a28.45,28.45,0,0,1-3,2.15,42,42,0,0,1-6.63,3.09c-1.12.09-2.27.37-3.36.48a38,38,0,0,1-3.85.19l-2.91,0-.75-.1a25.49,25.49,0,0,0-2.88-1.09c-4-3.92-8.15-7.35-10.9-12.35a42,42,0,0,0-1.28-6.84.55.55,0,0,0,.14-.23c.61-3.23.15-6.59-.09-9.89.12-2.37,0-4.77.1-7.13.06-2.1.14-4.21.21-6.31.46-4.82.52-9.74.58-14.64q.26-4.69.47-9.38c.13-1.31.21-2.64.23-4a56.64,56.64,0,0,0,.16-12.2.19.19,0,0,0-.11-.16c0-.17,0-.34,0-.51a.56.56,0,0,0-.84-.53,1.26,1.26,0,0,0-1.16.42l0,0-.06.15a.6.6,0,0,0-.08.21,37.86,37.86,0,0,0-1.23,3.6c-.67-.44-1.38-.83-2-1.21a28.67,28.67,0,0,0-3.05-1.72,56.4,56.4,0,0,0-4.85-3.13c-1.32-1-2.69-2-4-3a35.73,35.73,0,0,0-6-4.28c-2.49-2-5.24-3.68-7.82-5.56s-5.28-4.55-8.45-5.49h0c-.41-.32-.81-.65-1.22-1-2.42-1.8-5-4.07-7.88-5l-.59-.44c-1.18-.89-2.33-1.84-3.52-2.73-.91-.78-1.81-1.57-2.74-2.33-2.86-2.32-5.8-5-9.11-6.78a32.93,32.93,0,0,0-2.77-2.48l-2-1.83c-.06-.09-.13-.18-.19-.28a25.24,25.24,0,0,1-1.84-3.34c-.1-.21-.18-.42-.26-.62A17.41,17.41,0,0,1,78,80.24c.34-3.74,2.53-6.93,4.95-9.67,3.48-4,7.39-7.21,9.6-12.08A.41.41,0,0,0,91.9,58c-1.34,1.09-2.76,2.16-4.19,3.24A28.73,28.73,0,0,0,73.09,74.73a13.85,13.85,0,0,0-1.48,4,16.76,16.76,0,0,0-.75,5.4c-.12.73-.25,1.5-.3,2.28l-.28.29-.13.09q-.77.47-1.53,1a16.85,16.85,0,0,0-4.39,3L61.9,92.37a.16.16,0,0,0-.07,0c-2.4.53-4.55,2.19-6.63,3.73A28.63,28.63,0,0,0,52.43,98a89.72,89.72,0,0,1-10,5.4c-.07,0-.11-.06-.18-.06-3.45-.12-7,1.37-10.42,1.87l-1.52.18c-2,.15-4,.2-6.06.18l-1.15-.32a.81.81,0,0,0-.37-.65,10,10,0,0,0-2.79-1c-.48-.15-.94-.32-1.4-.5-1.18-1.4-2.81-2.56-4-3.8a39.3,39.3,0,0,1-4.26-5.1,20.59,20.59,0,0,1-.9-2.68c-.11-.49-.19-1-.26-1.49a43.78,43.78,0,0,0,.34-4.44c.05-.18.09-.35.13-.52a35.36,35.36,0,0,0,2.33-5.92l0-.05c1.93-2.33,3.22-5.28,4.65-8,1-1.53,1.9-3.12,2.88-4.57l.37-.54a83.42,83.42,0,0,0,7.12-8c1.66-1.45,3.21-3.05,4.73-4.66.84-.84,1.65-1.72,2.44-2.6l.6-.64c3.73-3.93,7.39-7.9,10.88-12.05a.33.33,0,0,0,.06-.1,24.23,24.23,0,0,0,3.24-4c.2-.21.41-.41.62-.62C51.6,31,54.74,28.56,56,25.59c.37-.34.76-.65,1.13-1,1.12-1.07,2.67-2.23,3.83-3.57,1.29-1.08,2.75-2.12,4.1-3.25.62-.38,1.23-.76,1.86-1.13,1.91-1.12,4.3-2,6.15-3.37.67-.24,1.33-.52,2-.74,1.52-.5,3.4-.69,4.82-1.48l.27-.05c2.12-.34,4.33-.38,6.43-.83,1.33-.06,2.67,0,4-.19a36,36,0,0,1,5.85.45,50.07,50.07,0,0,1,7.47,2.19c.9.4,1.78.8,2.63,1.25a85.07,85.07,0,0,1,7.68,4.68c.25.25.5.49.73.74s.45.52.68.78c.79,1.75,2.14,3.4,3,5,1,2.06,1.56,4.53,2.5,6.69,0,.35,0,.69,0,1s-.24.77-.37,1.15c-1.17,3.47-3.73,6.16-5.46,9.35a1,1,0,0,0,1.64,1.2c2.16-1.89,5.65-2.21,8.52-2.28a46.32,46.32,0,0,0,4.89,3.68c2.75,2.07,5.57,4,8.43,5.85a.6.6,0,0,0,.21.08c1.32,1,2.66,2,4,3a53,53,0,0,0,8.35,6.12c1.18,1,2.42,1.83,3.6,2.69.24.18.49.35.74.52a40,40,0,0,0,9.5,7.24,50.59,50.59,0,0,0,6.08,4.23c2.05,1.29,4.1,2.64,6.23,3.82l.5.33a13.38,13.38,0,0,0-5.42,3.57c-1.08,1-2.46,2.36-2.66,3.84a.82.82,0,0,0,0,.27,6.92,6.92,0,0,0-1.2,3c-.09.2-.18.4-.26.61l0,0h0l-.1.24a.78.78,0,0,0,.16.84c-.11.25-.24.49-.34.75-.33.85.92,1.14,1.36.53A23.49,23.49,0,0,1,183.5,84,35.24,35.24,0,0,1,190.54,83.92Z"/><path class="cls-9" d="M201.28,118.89c-3.51,1.58-6,4.71-6,7.8-.71,2.32-.89,4.71.6,7,2.13,3.26,6.29,3.85,9.86,3.3,7.18-1.11,10.8-7.49,7.9-12.93-.06-.22-.12-.44-.2-.66a5.86,5.86,0,0,0-3-3.46C208.54,117.86,204.4,117.48,201.28,118.89Zm6.38,1.9a.81.81,0,0,0,.43.57,6.54,6.54,0,0,1,1.79,1.45c.06.13.13.25.18.39a.56.56,0,0,0,.32.3c2.59,4.4-4.22,10.34-10,6.51C193.8,125.69,202.79,119.09,207.66,120.79Z"/><path class="cls-9" d="M165.86,101a1,1,0,0,0-.75.77c-.06.23-.14.44-.21.65a6.78,6.78,0,0,0-.55,1.48,13.17,13.17,0,0,0-1,3.25,7.79,7.79,0,0,0,.86,5c1.67,2.92,5.19,4.11,8.38,4.26s6.42-.85,8.3-3.43a9.67,9.67,0,0,0,1.47-7.21,5.78,5.78,0,0,0-.19-1.69c-1.36-5-7.74-7.69-13.29-5.27A8.18,8.18,0,0,0,165.86,101Zm13.89,4.51a5,5,0,0,1-.82,3.29c-2.84,2.49-6.77,3.69-10.07.69s-2.33-7.91,2.65-9.1C175.61,99.41,179.41,102.13,179.75,105.5Z"/><path class="cls-9" d="M109.07,42.91a2.9,2.9,0,0,0-.19-.54,1,1,0,0,0-.16-.19.77.77,0,0,0,0-.15,24.27,24.27,0,0,0-4.4-6.16l3.27-3.13a7.82,7.82,0,0,0,2.18-2.64.85.85,0,0,0,.45-.81,13.7,13.7,0,0,0-.52-3.29,2.55,2.55,0,0,0-.3-1l-.12-.32a.09.09,0,0,0-.05-.11l-.12-.3a1.72,1.72,0,0,0-.62-1.37c-3.07-2.73-6.15-5.79-9.75-7.88a1.24,1.24,0,0,0-.53-.16,1.12,1.12,0,0,0-1.4.09c-2.76,2.17-5.5,4.37-8.25,6.56-2.94-2.6-5.9-5.16-8.91-7.67a1.56,1.56,0,0,0-1-.35,1.32,1.32,0,0,0-1.52-.22,28.06,28.06,0,0,0-6.22,3.87c-1.35,1-3.76,2.44-4.16,4.2a1.38,1.38,0,0,0-.46,1.08,16.46,16.46,0,0,0-.5,2.36,1.42,1.42,0,0,0,0,.58,1.82,1.82,0,0,0-.07.25h0c0,.14,0,.29,0,.43a.92.92,0,0,0,.15.43c.52,1.69,1.93,2.85,3.22,4.07a17.53,17.53,0,0,0,3.69,3.21,42.82,42.82,0,0,0-6.46,6.05.77.77,0,0,0-.16.19c0,.06-.12.13-.17.2a.87.87,0,0,0-.22.66,3.58,3.58,0,0,0-.56,2.56c-.42,1.66-.42,3,1.36,5A73.15,73.15,0,0,0,77,57.36a1.19,1.19,0,0,0,1.59-.46l0-.08c3.46-2.43,7.12-4.82,10.43-7.5,1.94,3.08,5.18,5.56,8,7.55a1.29,1.29,0,0,0,1.55-.24C100.39,54.91,112.37,46.49,109.07,42.91Zm-28-11.64,0,0,.09,0c-.59-.56-1.21-1.1-1.82-1.65a2.29,2.29,0,0,1-.29-.47l-.12.09a68.14,68.14,0,0,0-8.69-6.71c1-.69,1.8-1.67,2.61-2.3,1.63-1.27,3.41-2.35,5.08-3.56q4.22,3.53,8.32,7.17c.33.4.65.8,1,1.22a2.13,2.13,0,0,1,.86.69c3.19-2.55,6.39-5.1,9.57-7.67,2.64,2.72,5.81,5.05,8.62,7.58a1.54,1.54,0,0,0,.37.23A58.73,58.73,0,0,0,97,33.39c.07.08.13.17.19.25l-.16.13,1.25,1.31.06.07h0a44.15,44.15,0,0,0,7.7,6.73c-1.6.89-3.06,2.82-4.18,3.88l-3,2.9A16.41,16.41,0,0,0,97.4,50a34.18,34.18,0,0,0-6.3-8.84l.07-.06-.38-.35a.83.83,0,0,1-.15-.11l-.14-.16c-.08-.08-.17-.14-.24-.22a2.14,2.14,0,0,1-.13-.19c-.09-.1-.17-.2-.26-.29s0-.09-.08-.14-.09-.12-.14-.17c-4.34,3.25-9.14,6.68-12.52,10.74a31.24,31.24,0,0,0-4.9-6,16.15,16.15,0,0,0-3.75-3.29C73,38.4,77.08,34.62,81.08,31.27Z"/><path class="cls-9" d="M98.57,45.25c2.52,0,2.43-3.92-.1-3.92S96.05,45.25,98.57,45.25Z"/><path class="cls-9" d="M97.74,24.45a.94.94,0,0,0,.92.63.88.88,0,0,0,.53-.17.92.92,0,0,0,.51-.61,1.19,1.19,0,0,0-.65-1.83l-.24,0A1.19,1.19,0,0,0,97.74,24.45Z"/><path class="cls-9" d="M76.05,45.16c2.54,0,2.44-3.95-.1-3.95S73.51,45.16,76.05,45.16Z"/><path class="cls-9" d="M76.57,20a2.18,2.18,0,0,0-1.48,2.82A2,2,0,0,0,78,23.93a1.83,1.83,0,0,0,.78-.85A2.28,2.28,0,0,0,79,22.2,1.92,1.92,0,0,0,76.57,20Z"/><path class="cls-9" d="M197.84,113.51a12.78,12.78,0,0,0,10.88-5.3,8.31,8.31,0,0,0,.4-7.69c-.74-4.28-6.13-7.66-11-6.23a11.19,11.19,0,0,0-8.28,4.31,6.11,6.11,0,0,0-.38.65c-2.07,1.91-2.42,6.42-1.42,8.76C189.59,111.72,194.13,113.31,197.84,113.51ZM204.41,98a.46.46,0,0,0,.39,0,4.64,4.64,0,0,1,1.67,3.47c.14,3.84-4.55,6.72-9,6-4.18-.72-7.74-4.26-5.38-7.78C194.74,95.75,200.42,95.61,204.41,98Z"/><path class="cls-9" d="M177.26,139.1c4.52.79,10-.17,12.21-4.58a9.93,9.93,0,0,0,0-9.45c-1.08-5.48-8.72-7.21-14.09-4.58a9.6,9.6,0,0,0-4.82,4.93c-1.26,1.33-1.2,4.61-1.07,6C169.86,135.37,173.47,138.45,177.26,139.1Zm-2-15.72c3.3-2.59,10.21-2.91,11.75,1.4a6.68,6.68,0,0,1-2.43,7.53c-2.67,1.59-5.52,2.72-8.79.74C171.85,130.71,171.84,126.05,175.22,123.38Z"/><path class="cls-9" d="M204.84,127a1,1,0,0,0,.7-.25.87.87,0,0,0,.35-.4,2,2,0,0,0,.12-1.48,1.14,1.14,0,0,0-1.39-.75C203,124.6,203,127.06,204.84,127Z"/><path class="cls-9" d="M200.29,103.12c1.64-.83.55-4.5-1.79-3.19a2,2,0,0,0-.68,2.84A1.71,1.71,0,0,0,200.29,103.12Z"/><path class="cls-9" d="M173.29,107.51a1.42,1.42,0,0,0,.81-.8,1.3,1.3,0,0,0,.82-1.59c-.64-1.51-2.43-2-3.39-.46C170.75,105.92,171.52,108.1,173.29,107.51Z"/><path class="cls-9" d="M179.54,130.44c1.52.56,2.65-1.09,2.48-2.47a.89.89,0,0,0-.19-.43,1.72,1.72,0,0,0-2.65-.68A2.1,2.1,0,0,0,179.54,130.44Z"/><path class="cls-9" d="M151.14,72.76C150,71,147.21,69.29,145,67.93c-3.52-2.21-14.15-11.49-19-8.78a2.09,2.09,0,0,0-.43-.11c-2.45-.19-4.82,2.81-6.59,4.2-1.17.92-2.94,2.15-3.35,3.73-1.11,1.58-1,3.62-1,5.58a1.55,1.55,0,0,0,.26.84,1.67,1.67,0,0,0,.48,1.32c1.64,1.74,4.4,3.07,6.29,4.43q3.81,2.73,7.64,5.42c2.79,2,7.57,6,11.19,6a1,1,0,0,0,.5-.12,6,6,0,0,0,.72-.11,3.43,3.43,0,0,0,.72-.35c1.1-.14,2-1.13,2.83-1.89,1-1,2-1.95,3-3,1.21-.88,2.23-1.89,2.16-3.33.48-1.45.75-3,1.2-4.46S152.7,73.56,151.14,72.76ZM121.7,65.34c.9-.71,1.75-1.49,2.64-2.21a15.24,15.24,0,0,0,2.15-1.81c1.47.94,3.35,1.22,5,2.06,2.77,1.44,5.26,3.37,7.88,5.05.72.46,8.83,4.69,8.88,5.25s-.34.85-.67,1.37a16.06,16.06,0,0,0-2.88,3c-1.35,1.48-3,2.7-4.46,4.07-4.61-6.65-13.94-12-21.55-14.4C119.64,66.89,120.69,66.15,121.7,65.34Z"/><path class="cls-9" d="M132.16,70.39c.55.35,1.06.7,1.38,1a12.87,12.87,0,0,0,2.28,1.78,1.36,1.36,0,0,0,2-1.2c-.06-1.28-1.23-2.21-2.16-3-1.16-.94-2.83-2.33-4.38-2.17a1.41,1.41,0,0,0-.92,2.39A8.54,8.54,0,0,0,132.16,70.39Z"/><path class="cls-9" d="M126.53,109.51a85,85,0,0,1-9.55-4.64c-2.59-1.64-4.64-3.43-7.67-4a.64.64,0,0,0-.59,1.07,29.29,29.29,0,0,0,5.38,4.27A55.2,55.2,0,0,1,124.22,115c1.49,1.63,3,3.56,5.1,4.46,3.34,1.4,6.83,1.66,9.58,4.5.55.57,1.31-.29.83-.87C135.33,117.88,132.9,112.49,126.53,109.51Z"/><path class="cls-9" d="M193.44,177.32c-5.19,6.28-8.95,13.5-14.64,19.43-6.07,6.31-16,3.51-20.71-3.45-.33-.49-1.26-.62-1.53,0-3.95,9.88,10.4,16.61,18.37,15.18,5.4-1,8.8-5,11.11-9.66,3.52-7.09,6.78-13.08,8.47-21C194.64,177.33,193.86,176.81,193.44,177.32Z"/><path class="cls-9" d="M50.51,91c-6.49-.67-13.61,1.9-20,.2-7.69-2.06-5.87-9.72-5.53-15.71a1.29,1.29,0,0,0-2-1c-7.32,4.56-6.71,17.09-.14,22,8.44,6.28,19.94-.22,28-4.13C51.59,91.92,51.1,91,50.51,91Z"/></g></g></svg>