<svg xmlns="http://www.w3.org/2000/svg" viewBox="0 0 186.19 231.56"><defs><style>.cls-1{fill:#fff;}.cls-2{fill:#68c0f2;}.cls-3{fill:#52a7e3;}.cls-4{fill:#3b89cc;}.cls-5{fill:#85d7fa;}.cls-6{fill:#b5d658;}.cls-7{fill:#f3f779;}.cls-8{fill:#77ab38;}.cls-9{fill:#4b7335;}.cls-10{fill:#2b2016;}.cls-11{fill:#bd724f;}.cls-12{fill:#784537;}.cls-13{fill:#e0a073;}</style></defs><g id="图层_2" data-name="图层 2"><g id="央铋_1" data-name="央铋 1"><path class="cls-1" d="M62.11,134.19c.46.28.91.57,1.36.87.29.19.59.39.89.57l.21.12c.74.35,1.46.74,2.19,1.13l1.1.57a12.12,12.12,0,0,0,1.31.49,26,26,0,0,1,5.49,2.47,2.46,2.46,0,0,1,.27.17c.22.08.68.2,1.13.34l1,.34c.35.12.71.22,1.07.33a33.55,33.55,0,0,1,4.1,1.47,12.9,12.9,0,0,1,2.41.25c.4.08.79.13,1.17.18,1,.13,1.94.27,2.89.48a21.88,21.88,0,0,0,5.33.2l.52-.09a21.66,21.66,0,0,1,4.4-.36,12.55,12.55,0,0,0,2.83-.18l.44-.12a21.14,21.14,0,0,1,3.7-.71l.33-.09a23.47,23.47,0,0,1,3-.7,13.29,13.29,0,0,1,2.24-.7l.06,0,1.1-.52a15.31,15.31,0,0,1,4.31-1.26c.34-.09.76-.2,1.25-.29a14.39,14.39,0,0,1,1.89-.51c.62-.28,1.24-.53,1.86-.74s1.22-.45,1.81-.69,1.15-.45,1.74-.65l.12,0a11.63,11.63,0,0,1,3.23-1.77l.1-.09.41-.34a19.13,19.13,0,0,1,2.94-2.17,25.61,25.61,0,0,1,8.81-6.54,4.66,4.66,0,0,0,1.13-.91,11.85,11.85,0,0,1,3.5-2.68c.62-.71,1.3-1.66,2-2.66.59-.83,1.18-1.66,1.8-2.47.46-.61,1-1.45,1.54-2.35.76-1.22,1.61-2.61,2.71-4.05.24-.36.46-.82.69-1.26l.24-.46c.82-1.55,1.71-3.07,2.62-4.58.09-.15.18-.3.28-.44a40,40,0,0,1,1.76-4.26,17.4,17.4,0,0,1,1.93-4.61l.23-.37a11.76,11.76,0,0,1,1.67-5.34,18.62,18.62,0,0,1,1.58-4.89c.23-1.14.52-2.15.77-3l.16-.55c0-.21.1-.91.14-1.42s0-.73.09-1.1a11.67,11.67,0,0,1-.05-2.61,11.66,11.66,0,0,1,.26-5.2c0-.36-.08-.71-.11-1.06l0-.39c-.21-2-.37-4-.48-6a13.18,13.18,0,0,0-.17-1.39,31.59,31.59,0,0,1-.39-4.68,16.13,16.13,0,0,1-3.73-7.32,13.63,13.63,0,0,0-.89-1.27l-.4-.54a31.31,31.31,0,0,1-2.8-4.25c-.4-.75-.71-1.38-1.1-2l-.46-.7c-1-1.54-2-3.08-3-4.67l-.93-1.59a28.08,28.08,0,0,0-2.22-3.52c-.32-.4-.63-.8-.93-1.21a12,12,0,0,1-3.5-1.45,12.29,12.29,0,0,1-3.53-3.3c-.59-.67-1.05-1.29-1.43-1.81a13,13,0,0,1-5.56-3.35c-.75-.46-1.55-.84-2.35-1.23l-.46-.21a26.94,26.94,0,0,1-3.09-1.66,15.34,15.34,0,0,1-5.18-2.54,12.61,12.61,0,0,1-2.92-3,12.71,12.71,0,0,1-7.58,1c-.6-.09-1.13-.19-1.66-.29l-.49-.09a17,17,0,0,1-4.34,0L105,11.66a10.33,10.33,0,0,0-1.36-.18,12.31,12.31,0,0,1-3.63-.22l-.7-.14a11.64,11.64,0,0,1-4.11-.19H95a27.66,27.66,0,0,1-2.77,0,13.9,13.9,0,0,1-1.77.22,10.83,10.83,0,0,1-2.58.33c-.66.29-1.38.66-2,1a13,13,0,0,1-1.87.78,10.81,10.81,0,0,1-3.73,1.61c-.61.14-1.22.32-1.83.49-1.1.31-2.19.6-3.3.84a12.34,12.34,0,0,0-2.55.81,15.28,15.28,0,0,1-3.87,1.2c-.4.08-.89.17-1.46.25l-.6.3-.4.19A11.34,11.34,0,0,1,64,20.24,15,15,0,0,1,62,21.4l-.13.06c-1.41,1.06-3.15,2.32-5,3.5l0,0a12.12,12.12,0,0,1-3.67,4.28c-.17.17-.32.36-.48.54l-.34.38c-.24.27-.46.54-.67.8a29.51,29.51,0,0,1-2.47,2.76,11.38,11.38,0,0,1-1.87,2.36,12.43,12.43,0,0,1-1.47,1.76,11.65,11.65,0,0,1-3.46,5.8l-.1.28a24.37,24.37,0,0,1-2.52,5.2c-.15.24-.49,1-.73,1.57,0,.1-.09.2-.13.3a14.83,14.83,0,0,1-.68,2.21,16.48,16.48,0,0,1-1.38,4.16c-.33.87-.6,1.75-.86,2.63-.39,1.25-.77,2.49-1.22,3.72l0,.08q-.06.41-.15.78t-.09.78a11.77,11.77,0,0,1-1.1,4.25c-.15.76-.31,1.45-.45,2l-.07.28a36.38,36.38,0,0,1-1.42,4.48l-.44,1.23c-.13.34-.28.77-.38,1.07a14.37,14.37,0,0,1,0,2.55s0,.26.06.5a11.26,11.26,0,0,1,.78,3,16,16,0,0,1,.85,2.58,12.47,12.47,0,0,1,.91,3.3c0,.08.08.27.12.46a21.18,21.18,0,0,1,.72,4,16.65,16.65,0,0,1,.3,2,1.59,1.59,0,0,1,.08.21l.14.42c.26.74.58,1.66.86,2.73a28.06,28.06,0,0,1,1.6,3.8c.13.36.24.71.4,1.06s.26.53.39.8A23.76,23.76,0,0,1,39.83,111c.35.68.7,1.36,1,2,.88,1.74,1.71,3.38,2.58,4.76a20.09,20.09,0,0,1,1.76,2.36c.56.9,1.22,1.85,2,3a15.11,15.11,0,0,1,3.76,2.8c1.44,1,2.69,2,3.83,2.87.9.71,1.59,1.34,2.26,2a1.14,1.14,0,0,1,.11.11,13.55,13.55,0,0,1,3.61,2.57l.39.23C61.51,133.83,61.81,134,62.11,134.19Z"/><path class="cls-2" d="M154.82,116.26c1.17-3.63-2.1-6.46-1.3-9.78a3.74,3.74,0,0,0-1.29-4.18c-1.75-1.19-8-1.21-11.45-1-5.94-5.41-12.17-20-.95-23,3.24-.85,7.43,2.71,10.24-1.27,1.16-1.64.44-4.32-1.94-4.18-1,.06-2.48.27-3.93.31a19.68,19.68,0,0,0-4.52-1.57h-.21a2.68,2.68,0,0,1-.38-1,2.4,2.4,0,0,0-3.19-1.88,60,60,0,0,0-17.65.31c-7.28,1.22-7.9,5-13-.53-5.72-6.24-1.2-9.08-.48-16,.45-4.38-1.42-8.32-1.19-12.75.18-3.59,1.21-7,1.14-10.66-.13-6.58-.92-12.86-.79-19.5,0-1.81-1.3-4.06-3.39-4C90.29,6,95.2,19.24,95.42,24.87c.46,12.1-17,12.56-26.68,15.18a2.78,2.78,0,0,0-2,2.69c-1.21.63-1.67,1.3-2.83.88-.54-1.9-1-3.39-3-4.69a3.55,3.55,0,0,0-2.71-.39,3,3,0,0,0-.84-.43,3.44,3.44,0,0,0-4.63-2.06,3.71,3.71,0,0,0-1.07-.34v0a2.72,2.72,0,0,0-.1-2.93A34.7,34.7,0,0,0,54,26.62c.76-2.77-3-4.35-5-2.89-2.49,1.83-4.4,5.81-5.49,9.63-.76,1.11-1.52,2.23-2.24,3.38a2.13,2.13,0,0,0,.49,3,2.94,2.94,0,0,0,.7,1,37.83,37.83,0,0,0-1.31,4.44,3,3,0,0,0,.27,2.19,12.91,12.91,0,0,0-.4,1.3,3.27,3.27,0,0,0,0,1.36c-1.91-.42-4.22,1-3.62,3.29.1.36.19.72.28,1.08a3.21,3.21,0,0,0,2.76,2.5,13,13,0,0,0,2.87-.17,4.66,4.66,0,0,0,2.57-1.2,4,4,0,0,0,4.58,3.26,5.42,5.42,0,0,0,3-1.24,9.37,9.37,0,0,0,4.18.62,10.26,10.26,0,0,0,3.45-.73c2,2.2,5,3.5,7.18,5.42,5.61,5,5.52,11.61,1.58,15.15-.12,0-.22,0-.35,0a64.25,64.25,0,0,0-9.59,1.75,5,5,0,0,0-.69-.14,6.85,6.85,0,0,0-5.33,1.17,25.71,25.71,0,0,1-3.63.12c-3-.15-4.95,4.15-2.78,6.27-.93,2.61-.89,6-1.57,11.09a3.9,3.9,0,0,0,.36,2.21c-.65,4.12-1.41,9.1.27,12.31,1,2,4.48,2.93,5,4,2,3.93.11,10.61,2,15.16,2.54,5.94,5.77,7.75,12.31,7.28,5.36-.39,10-3,15.86-1.53,4.56,1.13,6.79,3.73,10.69,5.66,11.93,5.9,24.15,1.21,35.41-3.38,9-3.66,15.28-9.84,21.29-17C150.8,121.11,154.06,118.65,154.82,116.26Z"/><path class="cls-3" d="M60.07,47a6.63,6.63,0,0,0-1.84-1.93c-1.15-.89-2.66-.88-3.74-1.64-.69-.48-.83-1.51-1.56-2.23-1-1.06-2.93-1.58-4.34-2a1.83,1.83,0,0,1-.2-.66c0-.84.59-1.43.33-2.43a3.08,3.08,0,0,0-.59-1.17,7.13,7.13,0,0,1,.07-5.22c.74-1.67-1.8-3.33-2.82-1.7a17.83,17.83,0,0,0-2.61,6.62,4.85,4.85,0,0,0,.07,2.11l.18.46a4.22,4.22,0,0,0,1.18,4.34c.69.74,1.42,1,1.74,2,.44,1.47.19.83-.54,2.17s-.53,2.32-.5,3.73c0-.43,0-.46,0,0A4.62,4.62,0,0,0,45.4,52a4.52,4.52,0,0,0,3.14,2.12c3.13.7,6.14-1.42,9-1.49S61.28,49.16,60.07,47Z"/><path class="cls-3" d="M147.44,127.47c-.58-5.69,3.69-8.85-3.26-12.58a56.47,56.47,0,0,0-12.39-4.26c-2-.39-4.41.62-6.36,0-6-1.9-.79-6.5-1.11-11.36-.38-5.71-1.24-9.81-.17-15.59a3.18,3.18,0,0,0-1-3.11c-4.32-3-4.78-.08-9,1.11-4.61,1.3-2.41-.59-6.78-.73-1.28,0-8,2.67-7.39,3-1.2-.69.57-5.93-.34-8-1.08-2.47-4.09-3.2-5.11-5.25-1.91-3.82.18-9.33,1.7-13.21,1.28-3.27,2.6-4.52,2.32-7.86-.08-1-1.73-1.71-2-2.51-1.35-4.06-2.17-3.88.71-8.28,1.19-1.81-1.07-3.58-2.76-2.76-7,3.37-7.19,8.76-7.91,14.86-.14,1.1,1.42,1.52,1.1,3-2,8.6-3.56,3.09-7,5.81-1.3,1-2.53,1.86-3.74,2.92a1.35,1.35,0,0,0,1.13,2.32c3.6-.29,6.87.61,9.82-.16a17.1,17.1,0,0,0-.1,8.45c.56,2.11,3.22,4.38,3.59,5.93.3,1.25-1.53,5.87-.23,8.9a9.83,9.83,0,0,0,6.32,5.48c4.41,1.24,5.69-1.79,9.05-2.52a1.06,1.06,0,0,0,.24-.22c.47.24.94.49,1.43.7,1.48-.23,2.94.42,4.68-.07A11.69,11.69,0,0,0,116,89.77c-.24,1.3.1,2.42,0,3.81-.35,4.24-2,6.88-3,11.11-.82,3.73.47,10.47,3.07,13.31,3.45,3.76,7.19,2.1,11.58,2.54,3.92.39,3,.17,7.35,2.55.54.3,3.29,1.07,3.59,1.45l.19.24c-.17-.11-.57-.14-.55,1.74,0,2.65,2.34,5.76,5.41,4.85l.55-.16C145.73,130.76,147.62,129.31,147.44,127.47Z"/><path class="cls-3" d="M91.06,75.56c.23-3.57-2-6.3-3.69-9.2C86.27,64.48,84.77,62,82.3,62c-.94,0-2,.31-2.21,1.31h0a0,0,0,0,1,0,0s0,.07,0,.12a.56.56,0,0,0,.25.5c.21.39.5.73.69,1.13.74,1.56.24,3.52.74,5.18.42,1.35,1.5,2.48,1.82,3.84.35,1.51-1,2.91-1.92,3.88a3.62,3.62,0,0,0-.48,3.79l.13.24c1.28,2.21,4.45,3.25,6.21.81C89,80.63,90.88,78.35,91.06,75.56Z"/><path class="cls-3" d="M119.51,140.75c7.24-2.75,19.93-4.41,22.45-12.26.61-1.93-.54-4.68-2.69-4.91a18.14,18.14,0,0,0-4-3.8c-.72-1.72-2.5-3-4.27-2.52-3.6-1.82-7.47-3.3-10.81-5.45-1.82-4.58-2-7.93-1.45-13a54.47,54.47,0,0,0-.56-7,5.18,5.18,0,0,0-.81-5.56l-.58-.67a5.08,5.08,0,0,0-6-1,6.74,6.74,0,0,0-3.16,3.26c-2.86.5-7.71-.2-8.47,2.44.59-2-.95-4.73-2.88-5.5-1.54-.62-3-1.23-4.29-1.71.67-5.21-2.91-11.13-1-16.24,1.14-3.13-2.63-5.91-5-3.25a4.15,4.15,0,0,0-.58.89,1.18,1.18,0,0,0-1,.49c.93-1.63-.48-4.68-2.67-3.41l-1.09.64.26-.29a2.57,2.57,0,0,0-1,3.93c1.08,2,2.12,4,3.1,6a3.37,3.37,0,0,0,.94,1.14c0,2.14.9,4.88,0,7,.14-.55-.74-.2-2,.63-5.46,3.6-10.11,8.31-15.07,13a12.49,12.49,0,0,0-3.94,10.89c.55,4,2.53,10.91,6.93,12.53,3.58,1.31,7.17-1.55,10.62-1.49,8.4.14,9.75,5.85,14.39,10,5.74,5.2,14.47-2.54,18.91,3.85,2.83,4.07-4.67,9.24-2.24,15.18a3.15,3.15,0,0,0,3.33,1.84l.78-.12a4.31,4.31,0,0,0,3.58-3.66A9.13,9.13,0,0,1,119.51,140.75Z"/><path class="cls-4" d="M143.89,131a4.39,4.39,0,0,0-1.41-4.1c-1.87-1.34-4.39-1.71-6-2.8-1.23-.83-.78-1.68-2.3-2.66-3.74-2.4-7.07-6-10.69-8.14-2-1.15-6.43-.66-7.5-2.17-.22-.32.7-2.32.51-2.87-1.54-4.64,0-9.42-1.18-14a3.81,3.81,0,0,0-2.83-2.53c-5.35-1.37-13.81,4.22-18.45.91-.3-.85-.57-1.59-.71-2.18a13.92,13.92,0,0,1,.38-1.88,4.51,4.51,0,0,0,.13-1,16.43,16.43,0,0,0,.92-5.5c-.25-7.37-6.28-10.26-4.82-18.57.2-1.13-1.54-1.76-2-.63-.93,2.46-2.32,5.62-2.24,8.25.27,8,3,4.36-1.94,13.19-2.75,4.9-9.9,9.33-10.46,15.33a7.81,7.81,0,0,0,2.78,7c1.36,1.13,2.17,1.06,3.8,1.46,6.6,1.6,6.36-1.82,12.14,2.25s10.5,3.71,16.11,7.12A4.21,4.21,0,0,0,113,117a63.44,63.44,0,0,1,5.8,3.74c5.5,3.92,4.18,4.13,1.68,9.67-2.25,5-4.6,8.67-1,13.3,1.24,1.58,3.77,1.73,5.44.88C130.54,141.79,143.13,138.05,143.89,131Z"/><path class="cls-5" d="M152.72,73.51c-12.28.7-21.92-8.49-35-3.66-2.73,1-1.57,2-5.73,2.21-.42,0-4.41-.82-4.9-1-2.09-.65-2.32.94-4.49-1.52-3.19-3.61.47-10.16,1.78-14,1.74-5.14.3-6.54-.6-12.56S105,30.86,105,25.05c0-4.87-.8-22.69-10.08-16.73a1.36,1.36,0,0,0,.1,2.32c4.07,2.83,2.31,4.4,3.27,10.3,1,6.35.39,13.07,1.05,19.71.3,3,2.19,6.75,2,9.72-.2,2.46-1.65,3.18-2.7,5.83-1.89,4.73-3.37,11.21-.63,15.84,4.28,7.22,14.82,6.17,21.13,4,2.72-.94,1.59-.83,5.36-1.13a36,36,0,0,1,10.39.77c8.31,1.87,10.53,3.66,18.38-.26A1,1,0,0,0,152.72,73.51Z"/><path class="cls-5" d="M154.88,112.35c-1.85-4.66-1.3-8.68-7.15-10.12-2.17-.54-4.22,0-6.24-.39-.39-.07-2.84-2.62-5-2a1.47,1.47,0,0,0-.28.12c0-2.74-3.12-4.17-3.52-6.73-.25-1.55.63-3.6.64-5.37,0-2.85-.22-4.43.39-6.42,0,0,0,0,.05,0a6.38,6.38,0,0,0,1.31-3,5.3,5.3,0,0,0,1.68-3.16A2.84,2.84,0,0,0,134.6,72c-.89-.23-1.32-.88-2.07-1.4a1.31,1.31,0,0,0-1.89.81c-.1.44-.32,3.07-.37,3.06a3.18,3.18,0,0,0-3.69,3.34,5,5,0,0,0,1,2.6c-.8,3.43-.5,6.36-.3,10.82a13.19,13.19,0,0,0,.83,5c1,2.32,3.21,2.85,2.08,5.15a3,3,0,0,0,1,3.57c4,2.59,8.47,2.64,13,2.66,1.77,0,3.09-1.19,4.67.67.6.7.1,2.37.57,3.24,1,1.92,2.48,2.37,4.44,2.37A1.07,1.07,0,0,0,154.88,112.35Z"/><path class="cls-5" d="M80.87,57.13c.19-.42-.23-.79-.63-.77a14.28,14.28,0,0,0-3.92.77c-.83.3-.11.23-1,.4-.71.13-1.65.25-2.36.33-1.84.2-2.15-1.36-3.44-2.54C67.19,53.2,67,50.6,68,47.72a.18.18,0,0,0-.25-.2c-1.86,1.09-3,2.12-3.2,4.52-.26,3,2,4.94,3.7,7,1.39,1.72,2.91,3.15,5.29,2.42,1.75-.54,3.3-.22,4.45-1.78A5.17,5.17,0,0,0,80.87,57.13Z"/><path class="cls-5" d="M82.2,47.45A10.62,10.62,0,0,1,82.63,46c.38-.36.74-.73.28-.33-.67.59.66-.71.84-1a6.09,6.09,0,0,0,.62-2.09c0-.16.22-1,.08-1.08.39-.26,1.21-.5,1.51-.75a4.54,4.54,0,0,0,1.14-1.43,6,6,0,0,0,.76-3.74A.65.65,0,0,0,87.1,35c-.68.21-1.51.79-2.17.91s-1.24-.12-1.85,0c-2,.31-3.12,1.61-3.88,3.4s-1.5,5.22.1,6.75a5.27,5.27,0,0,0,.76,2A1.21,1.21,0,0,0,82.2,47.45Z"/><path class="cls-5" d="M80.49,41.37c-.44-3.11-3.95-1.85-5.75-1.13-.5.2-1,.43-1.44.64a2.66,2.66,0,0,0-.39.16,3.68,3.68,0,0,0-3-.16,1.65,1.65,0,0,0-.78,2.49,6.83,6.83,0,0,0,2.44,2,3.36,3.36,0,0,0,2.79-.14A25.26,25.26,0,0,0,77,44.07a5.17,5.17,0,0,1,1.31-.7,7.26,7.26,0,0,0,1.58-.23C80.74,42.83,80.58,42,80.49,41.37Z"/><path class="cls-5" d="M104.09,146.14c-8.63-7-18.62-21-32.12-13.77-4.66,2.49-7.09,8.44-11.93.74-2.61-4.17.79-9.65-1.79-13.66s-8-2.29-7.85-7.89c0-1.08,2.63-5.46,3.42-6.72a5.9,5.9,0,0,0,.68-.91c1.59-2.77,1.16-3.12,1.33-6.31,0-.47-.79-5.34-1.48-8.78A13.46,13.46,0,0,0,57,88.5c2-.45,3.9-2.28,5.94-2.84,1.78-.5,4,.71,6.37-.36,8.78-4,7.49-14.74,1.38-20.18a.54.54,0,0,0-.89.25c-1.17,6,5.43,10.6-4.38,12.44-1.83.35-13.67,2-12.14,3.9a3.11,3.11,0,0,0-4.87.27c-3.08,4.39.7,8.54-.47,13.5-.73,3.08-2.72,4.3-2.58,8.38.16,4.39,1.28,3,1.19,7.26-.15,6.94,4.46,7,6.11,12.84.34,1.23-1,3.21-.7,4.77a13,13,0,0,0,3.39,6.45c2.29,2.7,6.3,5.75,9.94,5.84,7.67.21,9.59-5.28,19-2.32,6.7,2.11,11.46,7.67,18.92,9.26A1.07,1.07,0,0,0,104.09,146.14Z"/><path class="cls-2" d="M170.21,65.45c.1-.32.2-.65.31-1,.54-1.76-.89-2.92-2.4-3.18-1.09-2-1.15-5.2-1.56-7.08-.6-2.74-1.44-5.49-2.11-8.22-.83-3.34-2.47-6.27-3.84-9.41s-6-2.25-7.06.65a11.11,11.11,0,0,0-.34,5.75,19.56,19.56,0,0,0,.82,3.27c.06.19.58,2.56.8,2.26a30.83,30.83,0,0,1-1.27,3.18c-.24-.22-2.65,1.53-3.08,1.55a3.73,3.73,0,0,0-3.66,4.56c.81,3.82,1.51,8.56,3.41,12a3.5,3.5,0,0,0,2.51,1.66,4,4,0,0,0-1.3.84c-1,1.11.23,3.33,1.65,2.34.64-.44,1.88-.48,2.63-.94a6.76,6.76,0,0,0,.93-.91,1.94,1.94,0,0,0,.4-.06c3.28-1.14,5.63-4,8.77-5.29.08,0,.14.11.23.15C167.92,68.53,169.66,67.2,170.21,65.45Z"/><path class="cls-5" d="M171,60.62a1.72,1.72,0,0,0-2-.48c-1.81.8-3.15,2.36-5,2.89-1.28.37-3.31-.45-4.85.45s-2,2.93-3,4.29c-.11.15-.67.84-1.3,1.63-.17-.6-.38-1.31-.59-2.13a1.41,1.41,0,0,0,0-.48c-.11-.87-.12-1.77-.3-2.66-.25-1.26-1.48-3.15-1.45-4.5,0-.89-.15-1.24-.32-1.36a7.9,7.9,0,0,0,1.26-.89c1.53-1.22,2.6-.91,3.82-2.84s3.26-4.83,3.56-7.16a11.54,11.54,0,0,0-.58-4.47,13.6,13.6,0,0,0-1.7-2.86c-1.39-1.56,0-1.81-2-1.23,1.74-.51,1.55-2.45.58-3.42l.06,0-.58-.48a2.44,2.44,0,0,0-3.74.79c-1.12,2.29-.65,4.38.34,6.65,1.69,3.86,3.13,5.79-.36,9.56-2,2.16-5.17,1.67-5.68,5.16s2.1,7.11,2.31,10.54a2.38,2.38,0,0,0,2,2.11c-.76-.06.64,2.09.65,2.05s-1.08,1.09-1,1a2,2,0,0,0,1.24,3.16c2.06.54,4.19-1.81,5.65-3,1-.79,1.81-1.73,2.79-2.53a7.92,7.92,0,0,0,.73-.66c-.08.19,0,.45,1.1.4C166.49,70,175.81,65.84,171,60.62Z"/><path class="cls-3" d="M172.85,60.78c-.78-1.57-1.91-2.92-2.79-4.38A5.13,5.13,0,0,0,167,54.14a14.44,14.44,0,0,0-1.43-.27c.06-.13.13-.25.15-.3a7.07,7.07,0,0,0,1.11-2.8,4,4,0,0,0-2.58-4.11,1.51,1.51,0,0,0-2,1.36c0,.94.35,1.72.06,2.52-.43,1.17-2,2.05-2.6,3.16A3.67,3.67,0,0,0,161.06,59c1,.53,2.61.21,3.47.76.58.37.89,1.8,1.63,2.36a5.68,5.68,0,0,0,6.19.31A1.22,1.22,0,0,0,172.85,60.78Z"/><path class="cls-6" d="M79,53.82a2.38,2.38,0,0,0-.1-3.24,2.54,2.54,0,0,0-.27-2.08,3.27,3.27,0,0,0-2.09-1.42,2.46,2.46,0,0,0-2.25-1.86c-1.65-.06-2.55.87-3.23,2.27a1.2,1.2,0,0,0,0,.33s0,.08,0,.08,0,.11,0,.16a2.3,2.3,0,0,0-.66,1,2.49,2.49,0,0,0-.71,1.74,2.56,2.56,0,0,0,2.88,2.68,2.16,2.16,0,0,0,.92,1,3,3,0,0,0,1.83.37,3.7,3.7,0,0,0,.61-.16A3.19,3.19,0,0,0,79,53.82Z"/><path class="cls-6" d="M93.75,24.74a6,6,0,0,0-.08-3.64,12.14,12.14,0,0,0-1.56-1.9,10.18,10.18,0,0,0,1.44-4.49,1.94,1.94,0,0,0,0-.59A3.16,3.16,0,0,0,94,12.85a4.78,4.78,0,0,0-1.22-3.37C90.48,7,87.46,8.4,84.64,8.69c-4.36.46-8.75-.32-12.94,1.38C68.14,11.5,64.49,13,61,14.54a7.29,7.29,0,0,0-2.76,2.18c-1.29.3-2.43.84-2.71.88-2.11.28-3.47,3.21-1.49,4.65a6.25,6.25,0,0,0,2.19,1.13,14.23,14.23,0,0,0-2.86,5.06c-1.36,5.16,2,6.54,5.82,7.65a4.19,4.19,0,0,1,2.59,1.4c1.37,1.13,2,2.46,4,2.55,2.64.12,3.57-2.38,5.69-2.8-1.39.28,1.86,1,3,1.1A3.86,3.86,0,0,0,78,37c2.09-3,5.15-2.56,7.77-4.7-.07.06.61-.69,1.19-1.31a4.23,4.23,0,0,0,2.39-.05C91.31,30,93.21,26.84,93.75,24.74Z"/><path class="cls-6" d="M150.83,65.05c0-2.26-1.67-4.42-1.65-6.73,0-1.26,1.15-2.51,1-3.8-.06-.59.06-1.37,0-1.87a6.1,6.1,0,0,0,2.77-1.5c3.79-4.9-1.74-10.95-.32-15.43a3.88,3.88,0,0,0,1.56-2.14l.3-.63c1.79-3.08-1.11-6.59-4.05-6.24-3.45-3.69-6.85-7.52-10.58-10.9a16.58,16.58,0,0,0-8.76-4.61c-1.06-.14-2.16.72-3.24.68a3.93,3.93,0,0,1-.87-.12,5.27,5.27,0,0,1,.93.82,4.23,4.23,0,0,0-4.91-.91c-3.11,1.42-4.72.35-6.84-1.5a3.38,3.38,0,0,0-3.38-3.75,19.32,19.32,0,0,0-3.93.58,1.8,1.8,0,0,0-1.24,1.69c-3.05,3-2.21,8.15-2.21,13.06,0,3.91-.94,7-1.31,10.87-.17,1.74.27,3.33,0,5.09s-1.61,2.68-1.42,4.6,1.54,2.81,2.34,4.54a2.25,2.25,0,0,0,.5.76,9.14,9.14,0,0,0-1,1.64c-1.72,3.26-1.67,8.37-1.74,12,0-1.62.09,4.52,1.82,6.53,2.33,2.7,4.85,2,6.89,2.27a4.57,4.57,0,0,0,4.36-1.49c2.2-3,14.54-.79,19.13,0C141,69.45,150.69,76.23,150.83,65.05Zm-34.71-6.88a5.4,5.4,0,0,0,1.48-2.79c.24-1.25.38-2.51.54-3.77.11-.35.2-.71.3-1.06a4.89,4.89,0,0,0,5.44.81,13.21,13.21,0,0,0,1.34,3.25,3.5,3.5,0,0,0,.71.82,3.71,3.71,0,0,0,1.8,3.11c-1.33,0-2.59-.07-3.72-.17A37.38,37.38,0,0,0,116.12,58.17Z"/><path class="cls-6" d="M127.05,11.76c-.59-.38-.68-.16,0,0Z"/><path class="cls-6" d="M132.67,53.38a2.49,2.49,0,0,0-.29-.11,4.1,4.1,0,0,0-1.84-1.61,21.68,21.68,0,0,0-7.65-1.57c-2-.11-4.53-.44-6.37.6-3,.57-5.33,4.55-3,7.09a3,3,0,0,0,.16.42c4.09,6.86,15.63,4.21,19.67-1.5A2.18,2.18,0,0,0,132.67,53.38Z"/><path class="cls-6" d="M163.42,104.67c2.25-4.62,3.75-10.08,5.31-15,1.31-4.15,7.48-19.77-2-19-2.91.23-7.35,2.17-9.76,3.83-1.62,1.12-2.83,3-4.71,3.67s-4.93.64-7,1c-3.63.57-1.5-.29-1.15,1.68-.26-1.46.15-.36.31.39l-.32.06c-.57-1-.75-2.08-2-2.74a4.24,4.24,0,0,0-1.6-.43,2.72,2.72,0,0,0-3.08.39c-.36.31-.67.65-1,1a10.08,10.08,0,0,0-2.79,3.16,3.2,3.2,0,0,0,.75,3.94c0,2.38-.17,4.82.68,7a8.4,8.4,0,0,0,2.05,3.11,7.32,7.32,0,0,0,1.39.66c1.46,2.76,5.33,4.37,8.15,1.85a3,3,0,0,0,.52.4c2.09,1.14,4.36,1.71,6.41,2.89a3.09,3.09,0,0,0,1.63.36,12.49,12.49,0,0,0,0,4.72,2.94,2.94,0,0,0,4.19,1.91C161.35,108.64,162.47,106.63,163.42,104.67Z"/><path class="cls-6" d="M72.92,72.82c-.74-3-2-4.6-4-6.88-2.22-2.56-.84-2.65-3.87-5.47-2.25-2.11-4.82-2.25-7.85-2.2-1.47,0-3,.43-4.49.41a19.43,19.43,0,0,0-1.94.82A4.66,4.66,0,0,0,48.11,58c-1.52-.15-3.76.94-4.89.79-2.21-.3-1.53-1.16-4.09-2.65a4.81,4.81,0,0,0-1.23-.56,25.31,25.31,0,0,1,.92-4c1.06-3.44,4.38-11.65-2.55-11.45a3.22,3.22,0,0,0-2.68,5c-.22.47-.43.94-.63,1.42a17.67,17.67,0,0,0-1.87,4.89,21.17,21.17,0,0,0-.78,3.49A5.33,5.33,0,0,0,28,56.5a8,8,0,0,0-1.25,8.83c0,4,.38,8.14.27,12.16-.08,3.22-.71,6.59-.38,9.78a4.08,4.08,0,0,0,1.46,2.85,43,43,0,0,0,.71,6c.91,4.6,6.83,4.94,9.43,1.79,2.67.4,5.81-1,6.33-3.93a39.35,39.35,0,0,0,.39-10.55v0c2.37-.28,4.68-2,6.94-3.58a23.62,23.62,0,0,0,2.86-.71c2-.86,2.51-1.91,4.83-1.83,3.82.13,7.63,3.34,11.62.27A4.3,4.3,0,0,0,72.92,72.82Z"/><path class="cls-6" d="M56.82,74.73c-.66.33-1.36.68-2,1-.13,0-.94.32-.93.31l-.09,0c-.63.06-.94.61-1.13,1.16a1.57,1.57,0,0,0,.46,1.53c1.64,1.68,4.65,1.07,6.19-.44S58.78,73.74,56.82,74.73Z"/><path class="cls-6" d="M50.52,124.33c-1.54-3-1.93-5.53-4.07-8.21C45,114.27,44.1,113.19,43.7,111a27.16,27.16,0,0,1-.13-7.9c.11-1.13.42-2.46.42-3.57v-.09c.08-.38.15-.76.23-1.13a1.16,1.16,0,0,0,0-.16c0-.13,0-.25.08-.38a4.1,4.1,0,0,0,0-1.88,19.84,19.84,0,0,0-.39-4.74,2.17,2.17,0,0,0-1.72-1.44l-.39,0a2,2,0,0,0-2.07,1.28c-.4.55-.8,1.11-1.18,1.69a3.53,3.53,0,0,0-1.72,1.49c-.36-3.59-5.85-5.48-7.48-1.55-2.23,5.34-1.55,15.33.94,20.47,1.54,3.18,4.15,5.47,6.58,7.91,2.71,2.71,5.14,5.69,8.06,8.18C48.28,131.94,52.36,127.94,50.52,124.33Z"/><path class="cls-6" d="M95.07,149.22c-2.59-1.49-4.34-4.45-6.88-6.2-2-1.35-3.47-3.49-5.58-4.6a10,10,0,0,0-6.09-.79,3.51,3.51,0,0,0-1.14-.11,30.9,30.9,0,0,1-3.59.16A3.83,3.83,0,0,0,68,141.49a2.18,2.18,0,0,1,0,.25,3.87,3.87,0,0,0,2.82,3.65,11.07,11.07,0,0,0,3.59.13,17.63,17.63,0,0,0,1.77,0,11.14,11.14,0,0,1,2.65.94c1.3.72,2.19,2.46,3.48,3.32,3.38,2.26,9.25,3.83,12.77,1.11A1.06,1.06,0,0,0,95.07,149.22Z"/><path class="cls-7" d="M75.71,53.07c-1.17-.28-1.8-1.62-2.53-2.73a7,7,0,0,0,0-1.3c0-.28-.37-.76-.33-1h0l.19-.08c1-.5,1-1,1-2.07a.54.54,0,0,0-.7-.46c-.55.22-1-.14-1.59,0a3.11,3.11,0,0,0-2,1.92c-.2.56-.21,1.11-.43,1.63a4,4,0,0,0-.5,2.39,2.66,2.66,0,0,0,1.77,2.12c.22.07.57.19.5.13a7,7,0,0,1,.81.49c.66.47,1.07,1.13,1.92,1.34a3.4,3.4,0,0,0,2.12-.36A1,1,0,0,0,75.71,53.07Z"/><path class="cls-7" d="M60.11,64.63a2.54,2.54,0,0,0-2.53-.07c-1.08.47-2,1.32-3.1,1.69-2.37.78-4-.32-6.31-.36a6.24,6.24,0,0,0-1,.06,2,2,0,0,0-.13-.31,5.31,5.31,0,0,0-2.28-2.45c-.41-.2-3.74-.54-3.47-.13-2.35-3.48-7.25.47-5.27,4a4.56,4.56,0,0,0-.82,2.06,3.36,3.36,0,0,0,1.41,3.15l.08,0A4.78,4.78,0,0,0,36.11,74v0a4.67,4.67,0,0,0-1.21,1.15c-2,2.8-2.65,8.82-1.66,12,.7,2.21,2.72,3.83,3.53,5.91.61,1.58.69,3.22,1.19,4.89.2.66,1.28.81,1.44,0,1.13-5.44,2-4.42,1.76-9.58a58.43,58.43,0,0,1-.52-6.76,1.08,1.08,0,0,0,.59-.81,4.59,4.59,0,0,0,0-.74c.65-.33,2.3-.34,3-.68,1.37-.68,1.65-2,2.83-2.9a17.37,17.37,0,0,1,4.05-1.65c2.58-.86,5.8-.93,8.23-2.51C62.25,70.51,62.76,66.74,60.11,64.63Z"/><path class="cls-7" d="M147.7,88.93l-.29.13a.15.15,0,0,0,.07.28h.32C148.11,89.32,148,88.79,147.7,88.93Z"/><path class="cls-7" d="M161.47,92.58a8,8,0,0,0-.21-2.23c0-.29-.09-.58-.14-.86,0,0,.08,0,.17-.1a14.26,14.26,0,0,1,2.23-2,5.11,5.11,0,0,0,1.29-1.07,6.27,6.27,0,0,0,1.72-2.48,3.49,3.49,0,0,0-2.39-4.25,17.33,17.33,0,0,0-5,.12c-1.15.11-4.68.81-5.25,2a6.89,6.89,0,0,0-1.1.21,7.67,7.67,0,0,0-2.46,1.38A8.89,8.89,0,0,0,148.87,85a3.53,3.53,0,0,0-2,1.34,3.46,3.46,0,0,0-2.22.69c-2,1.63-.43,3.79-.13,5.72l.44-.18c1.26.47,2,.22,2.18-.78a10.94,10.94,0,0,0,1.67.66,17.88,17.88,0,0,0,3,1.74c2.5,1.24,4.84,3.49,7.75,1.7A4,4,0,0,0,161.47,92.58Z"/><path class="cls-7" d="M82.32,24.14a2.83,2.83,0,0,0-.21-3.33c-1.45-1.92-3.58-1.18-5.49-.14a19.8,19.8,0,0,1-4.07.12c-2.32-.08-3.66.72-5.49,2,1.61-1.13-.35-.05-1.08.42-1.52-.47-2.45-1.66-4-2.11a.75.75,0,0,0-.92.69l-.14,0a1.36,1.36,0,0,0-1.2.63l-.18.31a.89.89,0,0,0,.11,1.07,9.64,9.64,0,0,1,1.79,2.73c-.09-.27-.1.15,0,.31-.09.06-.11.08,0,0a.07.07,0,0,0,.06,0c-.37.57-1.18,1.28-1.45,1.79-1.65,3.05,1.37,7.7,4.94,6.94a11,11,0,0,0,5.27-2.24c.4-.31.79-.64,1.18-1a8.85,8.85,0,0,0,1.12-.5,8.07,8.07,0,0,0,1.24-.82,15.2,15.2,0,0,0,5.4-1.94C81,27.87,81.17,25.84,82.32,24.14Z"/><path class="cls-7" d="M136.89,63.48c-.66-3.22-2.49-3.94-5.08-5.45a24.29,24.29,0,0,1-2.68-2.27,9.22,9.22,0,0,0,3.93-3.19c1.18-1.61,3.56-3.8,4-5.77,1.42-5.75-4.41-7.41-8.49-6.43a36.06,36.06,0,0,0-3.62.7,3,3,0,0,0-1.48.66c-1,.93-1.1.84-.44-.26C121,40.63,120,38,117.64,37.62a3.08,3.08,0,0,0-1.45.15,26.61,26.61,0,0,1,.4-2.76,1.49,1.49,0,0,0-1.06-1.47l-.87-.16a.81.81,0,0,0-1,.75c0,3.64-3.86,5.58-3.17,9.6A15,15,0,0,0,113,49.27c.15.22.26.39.35.55a7.52,7.52,0,0,1-.57,1.5,16.38,16.38,0,0,0-1.48,4.7s-.26.81-.15,1l.08.14a7.5,7.5,0,0,0-2.51,4.67,3.22,3.22,0,0,0,4.57,3.25,5.1,5.1,0,0,0,2.35,2.52,4.77,4.77,0,0,0,4.19.14,6.87,6.87,0,0,0,4.36,1.46c2.94,0,7.78,0,10.27-1.33A4.19,4.19,0,0,0,136.89,63.48Z"/><path class="cls-7" d="M147.22,63.9a7,7,0,0,0-.73-2.16c-.17-.55-.08-1.24-.24-1.73,0-.09.05-.14.08-.2l.18-.27a4.87,4.87,0,0,0,.22-.68,5.76,5.76,0,0,0,2.51-2c1.07-1.43,1.77-4.92-.26-6-1.5-.78-4,.5-5.22.89-1,.32-2,.1-3.07.68a4.23,4.23,0,0,0-2.13,3.7c.08,1.45,1,3.27,2.62,3.52l.18,0a11.57,11.57,0,0,0,1.62,4c.63.84,1.65,1.8,2.79,1.63A1.58,1.58,0,0,0,147.22,63.9Z"/><path class="cls-8" d="M90.53,29.4a32.21,32.21,0,0,1,1.81-2.79c2.33-4.06-.46-6.05-2.17-9.22a2.15,2.15,0,0,0,0-2.83,7.07,7.07,0,0,0-3-2.17c-1.78-.93-3.65-.27-5.27.56-1.7,0-2.59.52-4.56,1.11-1.82.54-4.27-.2-5.42,1.71a.67.67,0,0,0,.14.92,10.08,10.08,0,0,0,4,.85c.9.09,1.79.05,2.68.11a4.24,4.24,0,0,1,1.91.3,6.48,6.48,0,0,0,4.22.11l1-.19a11.44,11.44,0,0,0,1.8,4.23c1.34,2,1.36.54-.45,1.55-1.58.88-1.8,2-2.36,3.28-2.61.61-3.91,2.15-4.29,5,0,0,0,0,0,0s0,.07,0,.11A1,1,0,0,0,82,33c2.26-1.37,4.64,1,6.94-.85C89.94,31.32,90.06,30.45,90.53,29.4Z"/><path class="cls-8" d="M93.7,10.13C93.11,8.08,90.86,5,88.37,5.41a3.5,3.5,0,0,0-2.63,3.22,3.69,3.69,0,0,0,.61,2.3l-.5.47a5.5,5.5,0,0,1-1.36.71c-.47.23-.76.66-1.18.9a.91.91,0,0,0-.45,1c.53,2.42,3.64,3.32,5.82,2.54a8,8,0,0,0,3.68-2A4.56,4.56,0,0,0,93.7,10.13Z"/><path class="cls-8" d="M150.18,25.25c-1.74-3.68-6-4.48-10-5.71a4.67,4.67,0,0,0-2.7-3.19,12.22,12.22,0,0,0-4.06-.13,4.67,4.67,0,0,0-1.07-3.53c-1.05-1.7-3-2.9-4.91-2.21a40.5,40.5,0,0,1-3.94,1.64,4.86,4.86,0,0,0-2.85,2.58,3.46,3.46,0,0,1-3-.75c-1.52-1.37-2.16-5.27-3.88-7.21-1.43-1.61-3.76-1.37-5.49-.57-3.18,1.48-3.77,4.8-3.4,7.92s.71,6.38,1.26,9.52a8.35,8.35,0,0,0-.45,1,11.34,11.34,0,0,0-.21,2.07c-.21,1.39-1.11,5.83-.3,5a1.06,1.06,0,0,0,1.3,1.65c.56-.29.48-.63.81-1.1a24.06,24.06,0,0,0,2.07-4l.36.11a4,4,0,0,0,4.41-1.06l0,0,.58.38c1.76,1.66,4.32,1.17,5.9,2.22,2.9,1.94,3.51,5.85,8.05,5.17,1.95-.29,2.56-1.56,4.18-2.34,2-1,3.78-.81,5.81-1.39a11.66,11.66,0,0,0,2.82-1.17l.09-.06c1.42,1.72,5.7.55,7-.16A4,4,0,0,0,150.18,25.25Z"/><path class="cls-8" d="M172.72,78.07c0-1.88.37-3.77-.84-5.42a5.86,5.86,0,0,0-6.07-1.89c-1.2.25-3,.3-4.15,1.64a1.41,1.41,0,0,0,.31,2.17c-1.18-.82.31.36.64.48a7.05,7.05,0,0,0,1.2.16,7.47,7.47,0,0,1,1.61.48c.14.07.22,0,.27,0a2.2,2.2,0,0,0-.13.37c-.69,2.6,1.13,6.1,3.1,7.76a1.36,1.36,0,0,0,1.61.19A7.41,7.41,0,0,0,172.72,78.07Z"/><path class="cls-8" d="M169.31,92a1.07,1.07,0,0,0-1.13-.63A16.43,16.43,0,0,0,160.71,96a21.09,21.09,0,0,0-2.86,4.33,7.86,7.86,0,0,0-2.24-.11,1.64,1.64,0,0,0-1.38,2.44c.11.25,1.28,1.68,1.26,1.73a3.34,3.34,0,0,0,5,3.58c2.65-1.73,4.47-5.53,6.3-8.06C168.31,97.73,170.29,94.76,169.31,92Z"/><path class="cls-8" d="M160.79,105a1,1,0,0,0-1-1.15,7.36,7.36,0,0,0-5.06,4.36l.08,0a2.16,2.16,0,0,0,3.4,2.38C159.75,109.38,160.59,106.81,160.79,105Z"/><path class="cls-8" d="M92.75,149.36a2.48,2.48,0,0,0,0-2.42c-2.06-2.67-5.38-5.35-9-5.35-1.49,0-2.53.76-3.78,1.32-.25.06-.61.16-.84.19-.7.11-1.43.32-2.12.39a1.69,1.69,0,0,0-1.54,1.19c-1.14,3,4.68,5.16,6.86,4.9,0,0,.44-.05.72-.11.23.14.62.32.73.39A19,19,0,0,0,87,151.61,4.54,4.54,0,0,0,92.75,149.36Z"/><path class="cls-8" d="M33.87,108.35c.28-.16.1-1.25.22-1.52.72-1.62.42-3.74.78-5.46,1.44-6.86-.71-6.26-3.88-12.84-1.28-2.65-2.67-7.19-1.78-10,.46-1.41,2.2-2.6,2.86-4,1.44-3.08.44-6,1.07-9.29s3.12-6.56,4.47-9.5a1.21,1.21,0,0,0-1-1.81C28.75,53.38,26,62.54,26,69c0,5.82-2.21,10.35-1.46,16.64.68,5.55,3.93,9.73,4.88,14.74.4,2.14,0,8.25,3.1,8.83a1,1,0,0,0,1.1-.7Z"/><path class="cls-8" d="M72.53,74.17a8.83,8.83,0,0,0-.85-5.81c-.74-1.65-1.2-3.75-2.49-5a2.28,2.28,0,0,0-3.58.38,7.33,7.33,0,0,0-.77,4.82,11.52,11.52,0,0,0,1,2.51,4.46,4.46,0,0,1,.28.8,11.8,11.8,0,0,0-4,2.42,4.34,4.34,0,0,0-.74,2.43c.07-.89,0,.09,0,.24l.13.3a1,1,0,0,0,1.19.46,8.77,8.77,0,0,1,2-.06,17.11,17.11,0,0,1,3.26-.41C70.17,77.36,71.9,76.52,72.53,74.17Z"/><path class="cls-9" d="M146.2,20.27c-3-3.08-5.92-1.87-9.68-2.66-3.3-.7-5.69-4.49-9.24-4.6-1.47,0-2,.53-3.2,1-.61.26.33.82,0,.76-1.73-.34-2.83-2-4.85-2.11a4.78,4.78,0,0,0-1.4.19c-1.46-2.25-2.46-4.85-5.18-6.21-3.34-1.66-6.19-.25-7.81,2.87a1.75,1.75,0,0,0,1.86,2.36c2.37-.35,3.06,5.75,5,7.53s3.59,2,6.12,1.95c1.46,0,1.58-.32,2.63-.32.81,0,1.68.52,2.59.5a6.41,6.41,0,0,0,4.6-2.1c2.14.81,4.23,3.65,6.24,4.28,3.74,1.17,8.31-.73,11.85-1.84A1.06,1.06,0,0,0,146.2,20.27Z"/><path class="cls-9" d="M126.24,9.92a3.43,3.43,0,0,0-2.82,3.93c.19,1.14,1.73,2.25,2.78,1.26a9.92,9.92,0,0,0,1.85-2.41A1.94,1.94,0,0,0,126.24,9.92Z"/><path class="cls-10" d="M176,55a8.92,8.92,0,0,0-.93-3,3.7,3.7,0,0,0-1.36-1.83,4.91,4.91,0,0,1-1.83-2.94,14.24,14.24,0,0,0-2.74-5.38,29.31,29.31,0,0,1-2.38-3.48,32.21,32.21,0,0,0-1.63-2.85c-1.07-1.62-2.15-3.24-3.14-4.91a53,53,0,0,0-4-6.4,52.69,52.69,0,0,0-3.81-4.87c-.64-.64-1-.76-1.68-.27a1.56,1.56,0,0,1-1.25.19c-.74-.07-.92-.73-1.33-1.16-1.26-1.31-1.93-3.13-3.7-4.06a6.15,6.15,0,0,0-2.58-1.15,2,2,0,0,1-1.53-.86,2.63,2.63,0,0,0-.51-.49A28.18,28.18,0,0,0,137,8.94a16.06,16.06,0,0,1-3.05-1.68,4.07,4.07,0,0,0-2.28-.92,3.42,3.42,0,0,1-1.75-.82h0a62.53,62.53,0,0,0-7.1-2.17v0a.18.18,0,0,0-.07,0,3.22,3.22,0,0,0-2-.41c-1-.18-2-.36-2.93-.56a10,10,0,0,1-1.54-.4,5,5,0,0,1-.68-.37,2.76,2.76,0,0,1-1.08-.05,14.71,14.71,0,0,0-4.81-.44,5.84,5.84,0,0,1-1.82,0,22.23,22.23,0,0,0-5.08-.44,3.48,3.48,0,0,1-.84-.09c-1.34-.25-2.66-.88-4.06-.24a.53.53,0,0,1-.35,0C95.77-.26,94,.3,92.21,0a4.29,4.29,0,0,0-1.8.19c-.84.23-1.77-.07-2.6.38-.14.08-.39,0-.59-.08a1.12,1.12,0,0,0-.58-.06,25.9,25.9,0,0,0-5.72,2.32c-1,.51-2.37.33-3,1.48-1.69.38-3.33.94-5,1.3A23,23,0,0,0,68,7.13a5.09,5.09,0,0,1-1.22.38,5,5,0,0,1-2.37.11.58.58,0,0,0-.45.15c-1.3,1-3,1.41-4.25,2.46-.12.1-.17.08-.28,0a.69.69,0,0,0-1.16.37c-.26.73-.86.93-1.42,1.24a5.46,5.46,0,0,0-.86.46c-1.59,1.21-3.2,2.39-4.9,3.45-1,.62-1.85,1.46-2.86,2a1.7,1.7,0,0,0-1,1.73,1.05,1.05,0,0,1-.53,1,14.64,14.64,0,0,0-2.48,2.43c-1.21,1.35-2.19,2.89-3.72,3.93a.72.72,0,0,0-.3.37c-.15.55-.2,1.13-.92,1.32-.18.05-.28.38-.42.58-.28.4-.48.95-.86,1.15-1.2.64-1.65,1.95-2.68,2.74a1.11,1.11,0,0,0-.2,1.78c.35.38.14.67-.24,1a10,10,0,0,0-2.81,4.43,14.46,14.46,0,0,1-1.39,3A41.94,41.94,0,0,0,28.35,48c.15,1.06-.71,1.84-.74,2.89a10.22,10.22,0,0,1-1,2.81C25.89,55.81,25.34,58,24.58,60a4.27,4.27,0,0,0-.53,1.85A4.74,4.74,0,0,1,23.81,63c0,.32.08.67-.09,1s.09.92,0,.92c-.57,0-.33.62-.63.78-.06,0-.07.15-.08.23a18.56,18.56,0,0,1-.64,3.62,38.52,38.52,0,0,1-1.43,4.29,16.38,16.38,0,0,0-1.13,4.4c-.05.73.14,1.43.08,2.14A31.6,31.6,0,0,0,20,84.06c0,.6-.09,1.32.58,1.77.21.15.26.41-.06.59a.79.79,0,0,0-.1,1.33c1.17.7,1.34,1.82,1.56,3a3.29,3.29,0,0,0,.34.77,1.69,1.69,0,0,1,.2.57c.17,1.38.74,2.68.79,4.11,0,.6.24,1.24.3,1.89a11.6,11.6,0,0,0,.61,2.83,22.44,22.44,0,0,1,.95,3.19,1.75,1.75,0,0,0,.22.69c1.07,1.56,1.45,3.42,2.22,5.12s1.71,3.06,1.92,4.85c1.67,3.07,3.06,6.29,5,9.22.44.68,1.06,1.24,1.48,1.93.88,1.41,1.84,2.76,2.84,4.08a8.44,8.44,0,0,0,2.48,2.28c.84.48,1.79.79,2.25,1.75.06.13.24.21.38.29a41,41,0,0,1,4.38,3.17c1.05.83,1.92,1.85,3,2.64.58.42,1.3.42,1.84,1a10.37,10.37,0,0,0,2.71,2c1.36.77,2.59,1.76,4,2.44,1,.5,2.06,1.09,3.1,1.61,2,1,4.2,1.36,6.11,2.57a20.14,20.14,0,0,0,4.45,1.8,34.45,34.45,0,0,1,4.69,1.67,5.82,5.82,0,0,0,2.37.85,12.26,12.26,0,0,1,1.9-.09c1.29.27,2.61.35,3.89.63a30.37,30.37,0,0,0,8.24.42c1.32-.07,2.63-.48,3.93-.43a22.35,22.35,0,0,0,5.29-.38,27.35,27.35,0,0,1,3.21-.68c1.69-.09,3.22-1,5-.94a1.41,1.41,0,0,0,.9-.33,2.47,2.47,0,0,1,1.22-.48,12.45,12.45,0,0,0,2.89-1.15,4.28,4.28,0,0,1,1.5-.45c.88-.06,1.71-.57,2.63-.39.7-.74,1.76-.42,2.6-.87a12.17,12.17,0,0,1,1.78-.78c.8-.28,1.6-.58,2.38-.9,1.49-.62,3.15-.93,4.37-2.14a.9.9,0,0,1,.43-.2,8.35,8.35,0,0,0,3.35-2,9.63,9.63,0,0,1,2.12-1.56,4.19,4.19,0,0,0,1.5-1.14,16.1,16.1,0,0,1,6.37-4.9,15.81,15.81,0,0,0,4.15-3.19,1.18,1.18,0,0,1,.43-.37,7.81,7.81,0,0,0,2.8-2,76.11,76.11,0,0,0,4.75-6.25c1.56-2,2.71-4.36,4.27-6.42a22.35,22.35,0,0,0,1.87-3.2c.74-1.39,1.54-2.74,2.35-4.09.19-.32.52-.49.65-.87a39,39,0,0,1,2-4.93c.56-1.07.59-2.3,1.26-3.38a9.26,9.26,0,0,0,1.83-5.29.72.72,0,0,1,.38-.72c.74-.35.85-1,.92-1.72a9.38,9.38,0,0,1,1.14-4.29,3.93,3.93,0,0,0,.51-1.5,26.15,26.15,0,0,1,.85-3.41,51.29,51.29,0,0,0,.75-5.76c.07-.48-.31-.9-.19-1.43a5,5,0,0,0-.07-2.46,1.09,1.09,0,0,1,0-.71,12.39,12.39,0,0,0,.18-5.48c-.19-1.81-.33-3.64-.43-5.44-.13-2.37-.88-4.72-.36-7.12C176.05,55.17,176,55.08,176,55ZM106.76,35.26A14,14,0,0,0,107.87,31a3,3,0,0,1,.42,0,1.49,1.49,0,0,1,0-.21,1.27,1.27,0,0,0-.47-1.56,7.72,7.72,0,0,0-.81-2.58.54.54,0,0,1,.32.06.87.87,0,0,0,1.11-.07,1.31,1.31,0,0,0,.38-1.34,2.65,2.65,0,0,1-.1-.84,3.35,3.35,0,0,0-1-2.75,2.07,2.07,0,0,1-.48-1.47,33,33,0,0,0-1-4.64c-.08-.45-.27-.85.35-1.06.11,0,.18-.26.22-.41A34.75,34.75,0,0,0,108,10.75a8.09,8.09,0,0,1,1-2.05c1.26.41,2.55.1,3.77.5s1.19.3,1.32,1.5a2.62,2.62,0,0,0,1.14,1.92,4.66,4.66,0,0,1,1.56,1.5c.22.41.67.46,1,.65,1.33.75,2.87.59,4.31.91,1.25-.69,3.13-.72,2.93-3,1.22.32,2,1.09,2.91,1.43.18.06.32.26.53.27,1.58.06,2.68,1.1,4,1.82a16,16,0,0,0,3.21,1.65c.19.05.47,0,.56.18.47.93,1.5,1.07,2.24,1.62a15.17,15.17,0,0,1,3,2.81c.43.56.88.82,1.57.47.24-.12.55-.28.81-.06a23.26,23.26,0,0,1,2.23,2c.49.52.71,1.27,1.3,1.75a.65.65,0,0,1,.17.88c-.34.56,0,1,.3,1.42a6.11,6.11,0,0,0,1.89,1.65,5.52,5.52,0,0,1,1,.91c.15.14.29.42.42.42,1.13,0,1.29,1,1.94,1.58a.83.83,0,0,1,.1,1.29,12.29,12.29,0,0,1-1.59,2c-.82.62-.89,1.2-.47,2.21a1,1,0,0,1,.1.58c-.16,1.34.36,2.62.4,3.94a5.07,5.07,0,0,0,.87,2c.38.78.63,1.41-.07,2.2a4.3,4.3,0,0,0-.84,1.73c-.23.87-.62,1.13-1.5,1-.41-.06-.79.07-1.2,0a1.35,1.35,0,0,0-1.28.79,6.19,6.19,0,0,1-1.17,1.66c-.4.36-.39,1.18-.56,1.79-.35,1.19-.34,2.44-.57,3.65a9,9,0,0,0,.14,3.39c.27,1.43.79,2.81,1,4.23a12.44,12.44,0,0,0,1.08,3.05c.38.85.28.94-.6,1.27a7.7,7.7,0,0,1-1.4.4,1.66,1.66,0,0,0-.8.27c-.79.54-.75.49-1.34-.14A20.68,20.68,0,0,0,139,67a6.09,6.09,0,0,0-2.35-.68c-1.32-.22-2.64.1-3.94-.17-.08,0-.17,0-.25,0a9.07,9.07,0,0,0-5.66.4,2.08,2.08,0,0,1-1.21.11,41.18,41.18,0,0,0-6.92-.87c-.31,0-.58-.21-.94-.12a3,3,0,0,0-2,1.16c-.64,1-1.46,1.85-2.19,2.76-.25.32-.52.53-.94.37a34.11,34.11,0,0,0-4-.88,2.92,2.92,0,0,1-2.36-2.17,56.3,56.3,0,0,0-2.15-7,.88.88,0,0,1,.2-1.11c.2-.18.3-.47.55-.63,1.14-.73,1.52-2.1,2.55-2.93,0-.82.66-1.21,1.12-1.74a.92.92,0,0,0,.09-.81,14.92,14.92,0,0,1-.25-4.11,2.91,2.91,0,0,0-1-2.14,1.3,1.3,0,0,1-.41-1.06,2.23,2.23,0,0,0-.38-1.27,3.21,3.21,0,0,1-.3-1.14,5.6,5.6,0,0,1-.9.4c-.62-1.18-1.29-2.67-.87-3.86.22-.6,1-1.12,1.27-1.72C106.12,37,106.41,36.11,106.76,35.26Zm43.77,40c.09.24-.07.39-.28.46-.37.13-.7.48-1.13.39-.71-.14-1.29.45-2.09.31a3.47,3.47,0,0,1,3.08-1.32C150.27,75.12,150.46,75.1,150.53,75.27ZM56.72,28.82a9.49,9.49,0,0,1,.77-.93,3.35,3.35,0,0,0,.38-4.71c-1.1-1.65-1-1.42.54-2.79,1.38-1.18,3.09-1.77,4.48-2.91a7.11,7.11,0,0,1,2.66-1.18,51,51,0,0,0,6.17-2.25c1.46-.59,2.86-1.32,4.29-2a18,18,0,0,1,5.42-1.73,27.41,27.41,0,0,0,3.68-.79c.41-.11.8,0,1.19-.12a10.87,10.87,0,0,0,2.94-.62c.89-.44,1.21-.22,1.59.66s.71,1.71,1.09,2.56c.19.44.17.77-.28,1-.7.41-1.21,1.07-1.93,1.49a2.3,2.3,0,0,0-.84,2.87c.12.3.35.65.28.91a4.52,4.52,0,0,0,.37,2.36,2,2,0,0,0,1.41,1.5,4.47,4.47,0,0,1,1.82,2.69c0,.58-1.35,2.33-1.94,2.36s-1.08.53-1.72.56-.69.64-.92,1.05-.33,1.09-1,1.3c-.09,0-.14.17-.2.27-.41.72-.44.76-1.08.26a2.88,2.88,0,0,0-2.36-.73c-.33.06-.76.1-.87.35-.36.77-1.45.79-1.63,1.71,0,.11-.23.21-.38.27a8.06,8.06,0,0,0-3,2.72,5.35,5.35,0,0,1-1.39,1.17A2,2,0,0,1,74,36a6.89,6.89,0,0,0-3.3-1c-.38,0-.58.25-.79.5A10.4,10.4,0,0,1,66.4,38a2.91,2.91,0,0,1-3.67-1.15c-.88-1.93-2.53-2.79-4.36-3.53A3.75,3.75,0,0,0,55.31,33,6.07,6.07,0,0,1,56.72,28.82Zm14,22.37a17.06,17.06,0,0,0,1-3.48,2,2,0,0,1,2.81-1,15.59,15.59,0,0,0,1.54.95,2.32,2.32,0,0,1,1.09,1.27c.35,1.3,1.27,2.3,1.8,3.51-1,.68-2.36.78-3.21,1.81-.37.44-1.8.2-2.24-.32a6.24,6.24,0,0,0-2.53-2A.43.43,0,0,1,70.76,51.19Zm-21.07,73a1.77,1.77,0,0,1-.39.88c-.25.38.1.8-.1,1.26a4.76,4.76,0,0,1-2-1.68,11.43,11.43,0,0,0-3-2.79,1.28,1.28,0,0,1-.47-.39c-1.23-1.84-2.91-3.32-4.2-5.12a2.42,2.42,0,0,0-.5-.51,10,10,0,0,1-3.29-5.55,12,12,0,0,0-1.2-3.06,3,3,0,0,1-.47-1.74c.06-.84-.52-1.53-.59-2.35,0-.47-.43-.9-.17-1.41,0-.06,0-.22,0-.23-1-.33-.48-1.31-.87-1.92s-.23-1.43-.41-2.12c-.64-2.34-.85-4.77-1.48-7.12a1,1,0,0,1,0-.24c.09-2.93-.76-5.77-1-8.67a28.87,28.87,0,0,1-.16-3.83A6.29,6.29,0,0,0,29,75.88c-.09-.35.41-.95.35-1.52a8.12,8.12,0,0,0-.2-1.2,5.36,5.36,0,0,1,.35-4.31,1.4,1.4,0,0,0,0-1.08c-.11-.43,0-1,.29-1.1.58-.24.5-.6.5-1A8.15,8.15,0,0,1,31,62.07c.36-.79.34-1.77,1.17-2.35.29-.21.11-.5,0-.77a1.89,1.89,0,0,1,.12-1.52c1-2.57,2-5.2,3.06-7.75.47-1.1.58-2.37,1.37-3.31a12.67,12.67,0,0,0,1.41-2.61.89.89,0,0,1,.61-.47,5.93,5.93,0,0,1,.73,2.27s0,.11,0,.12c-.79.59-.49,1.69-1.06,2.34-.27.31-.35.49-.21.83a.47.47,0,0,1-.08.45c-.24.39-.75.54-.94.88s.13.87-.51,1c-.08,0-.2.23-.17.3.3.83-.18,1.67,0,2.49,0,.15.11.35.23.41.86.43,1,1.34,1.31,2.1.39.93.65,1.92,1,2.87a2,2,0,0,0,.86,1.25,1.74,1.74,0,0,0,2.46-.25c.12-.11.22-.23.34-.35.65-.63.69-.56,1.42-.11,1.35.82,2.59,1.91,4.26,2.09a1.91,1.91,0,0,0,1.83-.5A3.46,3.46,0,0,1,52,61a4.38,4.38,0,0,0,1.67-.65c.87-.54,1.76-1,2.74,0a5.41,5.41,0,0,0,2,.85.57.57,0,0,0,.58,0,3.57,3.57,0,0,1,1.34-.54A.9.9,0,0,0,61,60a.79.79,0,0,1,1.4-.22,3.06,3.06,0,0,0,.68.47,3.92,3.92,0,0,1,1.32,1.24c1.1,1.7,2.47,3.21,3.54,4.92a14.63,14.63,0,0,1,1.74,3c.25.73.59,1.42.91,2.13a2.58,2.58,0,0,1-.28,2.85,3.46,3.46,0,0,1-4,1.36,15.49,15.49,0,0,1-2.59-.88,7.6,7.6,0,0,0-2.7-.5,2.72,2.72,0,0,0-2.33,1.52,4.67,4.67,0,0,1-.48.84C57.31,77.86,57,77.94,56,77a10.85,10.85,0,0,0-2-1.36,4,4,0,0,0-.66-.24,1.84,1.84,0,0,1-1.51,1.75c-.34.06-.24.36-.2.6a.93.93,0,0,1-.53,1,5.18,5.18,0,0,1-2.55,1c-.84,0-1.65.38-2.52.39a1.32,1.32,0,0,0-1.3.91A7.69,7.69,0,0,0,44,82.89a1.39,1.39,0,0,1-.76,1,1.35,1.35,0,0,0-.68,1.67,7.36,7.36,0,0,0,2.11,4.17c.48.42.55.76.16,1.23-1.08,1.3-1.2,2.94-1.6,4.49a.78.78,0,0,0,.24.78c.75.63.78,1.13.17,2a4.61,4.61,0,0,0-.88,3,33.62,33.62,0,0,1-.5,4.95c-.1,1.15-.09,2.32-.13,3.49a4,4,0,0,1,0,.6,5.31,5.31,0,0,0,2.2,5.3,24.77,24.77,0,0,1,4.1,3.76,1.45,1.45,0,0,1,.33.5A13.3,13.3,0,0,1,49.69,124.22Zm38.77,22.89c-1.84-.19-3.61-.73-5.47-.86a13.67,13.67,0,0,1-2.44-.68c-1.38-.35-2.77-.64-4.14-1a4,4,0,0,1-1.19-.6c-1.48-1-3.09-1.7-4.7-2.63a1.57,1.57,0,0,1,.85-.84,1.48,1.48,0,0,0,.74-.61c1-1.43,2.6-1.36,4-1.67a1.7,1.7,0,0,1,1.55.83,6.2,6.2,0,0,0,1.06,1,1.22,1.22,0,0,0,1.36.27,1.93,1.93,0,0,1,1.74.14,5.41,5.41,0,0,0,1.87.46,3.22,3.22,0,0,1,2.21,1.17,5.56,5.56,0,0,1,1.36,1.87,3,3,0,0,0,2.74,1.9A4.16,4.16,0,0,1,92.64,147C91.23,146.85,89.87,147.26,88.46,147.11ZM153.4,115a43.35,43.35,0,0,0-3.81,4.2,4.32,4.32,0,0,1-.77.77,2.69,2.69,0,0,0-.88,1,11.91,11.91,0,0,1-2.76,3.15,25.51,25.51,0,0,1-2.79,2.71,19.19,19.19,0,0,0-2.91,2.65,11.74,11.74,0,0,1-2.5,1.83c-1.46.94-2.85,2-4.3,3-1.9,1.24-3.86,2.4-5.86,3.48s-4.22,2.42-6.46,3.39a42.48,42.48,0,0,1-12.12,3.57,2.35,2.35,0,0,1-1.38-.32c-.91-.44-1.6-1.27-2.62-1.51-.19,0-.37-.32-.54-.17-.68.59-1.38.2-2.09.12a4,4,0,0,0-1.8.27,5,5,0,0,1-3.34,0,11.77,11.77,0,0,0-2.62-.39,3.61,3.61,0,0,1-3.14-1.93A21.39,21.39,0,0,0,88.77,138c-.32-.38-.69-.71-.54-1.34.1-.45-.26-.64-.66-.37a2.59,2.59,0,0,1-2.27.28c-1-.25-2-.41-2.94-.75a4.78,4.78,0,0,1-1.94-.93.93.93,0,0,0-.66-.29c-1.18.16-2.07-.56-3.09-.92a5,5,0,0,0-4.74.61,5.47,5.47,0,0,0-1.68,1.57,1.46,1.46,0,0,1-.45.4,18.24,18.24,0,0,1-4,2.06,1.28,1.28,0,0,1-1.15-.07c-2.48-1.37-5.19-2.33-7.41-4.15a2.33,2.33,0,0,0-.53-.3,6.72,6.72,0,0,1-3.3-4,4.41,4.41,0,0,1,.12-3.33,19.46,19.46,0,0,0,1-6.06,4.89,4.89,0,0,0-1-2.31c-.36-.68-1-1.17-1.36-1.85a1.53,1.53,0,0,0-1.3-.78s-.1,0-.12,0a3.26,3.26,0,0,0-1.84-.79c-.72-.06-1.18-.7-1.8-1a.63.63,0,0,1-.37-.59c-.11-1-.23-2-.34-3a1,1,0,0,1,0-.49c.64-1.35.53-2.9,1.09-4.27a7.88,7.88,0,0,0,.32-2.64,29.52,29.52,0,0,0-.4-7c-.25-1.3-.16-2,1.12-2.54.6-.26,1-1.11,1.38-1.73s-.1-.94-.16-1.42A15.77,15.77,0,0,0,49.09,87,10,10,0,0,0,48,84.65c-.21-.32-.38-.68-.71-1.28a4.43,4.43,0,0,0,3.69.13A3.69,3.69,0,0,0,53.42,81c.11-.35.41-.37.64-.5.42-.23.4.2.55.41.5.68,1,1.24,2,.88a2.21,2.21,0,0,1,1.32,0c.64.2,1.1.1,1.39-.51.1-.2.21-.37.41-.42C61,80.6,62,79.84,63.3,79.69c.2,0,.41-.11.57,0,.59.57,1.39.33,2.07.58.18.07.45.12.58,0,.24-.31.47-.41.8-.14a.36.36,0,0,0,.45,0,1.4,1.4,0,0,1,1.7.17.92.92,0,0,0,1.3-.18,3.89,3.89,0,0,0,.94-1.25,4.27,4.27,0,0,1,1.77-2.3,2.37,2.37,0,0,0,1-1.57c.16-.58.1-1.18.79-1.5.32-.14,0-.52.06-.79.07-.45-.47-1,.24-1.34-.16-.86.09-1.79-.46-2.58A8.87,8.87,0,0,1,73.28,65a1.91,1.91,0,0,0-.79-1.19c-1.4-1.11-2.56-2.48-4-3.52-1-.74-1.48-1.93-2.28-2.84a5.6,5.6,0,0,0-1.39-1.14,18.6,18.6,0,0,1-1.57-1.11,2.06,2.06,0,0,0-2.33-.5,1,1,0,0,1-.32.15,6.68,6.68,0,0,0-3.36,1.19,2.69,2.69,0,0,1-1.67.14c-.19,0-.5-.13-.58,0-.8.92-1.84.35-2.74.39a4.2,4.2,0,0,0-2.67.92c-.35.3-.6.16-.78-.17-.36-.64-.67-1.31-1-2-.21-.36-.34-.86-1-.44-.3.19-.6-.12-.85-.33s-.93-.7-1.28-.55c-.72.31-1.6.1-2.2.73-.14.15-.27.35-.44.41-.4.12-.85.37-1.12-.26-.09-.21-.32-.36-.46-.56-.79-1.12-.76-1.19.2-2.31a6.32,6.32,0,0,0,.75-1.35c.17-.36.23-.82.81-.71.13,0,.27-.09.24-.2-.19-.72.48-1.22.43-2,0-.56.54-1.18.89-1.75.17-.28.26-.56.09-.79a1.84,1.84,0,0,1-.19-1.73,1.36,1.36,0,0,0-.18-1.18c-.92-1.24-.81-2.77-1.18-4.16a.49.49,0,0,1,.17-.54,6.2,6.2,0,0,0,1.59-2.38,3.52,3.52,0,0,1,.55-.94A19.33,19.33,0,0,0,46.22,32c.48-.68,1.3-.94,1.85-1.55.23-.25.88-.17.6-.81,0,0,0-.1,0-.1A1.87,1.87,0,0,0,50.34,28a.1.1,0,0,1,.1-.05c1.25.4.73-.39.65-.94-.07-.38.49-1.18.76-1.1.6.17.42.57.33,1.05A26.26,26.26,0,0,1,51.31,30c-.17.5-.82.45-.84.94a9.9,9.9,0,0,0,.17,1.2.78.78,0,0,1-.12.34c-.75,1.33-.44,2.75-.35,4.14A2,2,0,0,0,51.5,37.9c1.18.09,2.35.68,3.57.08a1,1,0,0,1,1,.24,20.38,20.38,0,0,1,2,1.6,2.27,2.27,0,0,0,1.2.77,1.8,1.8,0,0,1,1.65,1.67A3.72,3.72,0,0,0,61.72,44c.24.31.56.61.91.55,1.23-.2,2.24.57,3.41.67a3.6,3.6,0,0,0,1.9-.13c.21-.1.49-.18.67,0s.07.4,0,.59c-.42,1-.55,2.09-1,3.08-.34.72-.72,1.43-1,2.17a3.27,3.27,0,0,0,.45,3,5.58,5.58,0,0,0,1.79,2,1,1,0,0,1,.19.15c.32.39,1,0,1.08.24s.23.62.63.78a6.43,6.43,0,0,1,2.06,1.25,1.7,1.7,0,0,0,1.24.41A11.9,11.9,0,0,0,77.17,58a.57.57,0,0,0,.36-.29c.32-1.12,1.39-1.34,2.19-1.9a5,5,0,0,1,3.5-1c.56.06,1-.64,1-1.36,0-.15-.2-.33,0-.44.75-.56.27-1.16.09-1.74a5,5,0,0,0-1.68-2.63,1.21,1.21,0,0,1-.44-1.6,1.27,1.27,0,0,0-.48-1.78c-.45-.33-.72-.84-1.25-1.14-.78-.44-1.48-1-2.46-.67-1.5-.49-3,0-4.56-.13-.48,0-.87.59-1.48.45-.25-.06-.41.37-.75.31S70.42,44,70.06,44a2.47,2.47,0,0,1,.76-1.72c.15-.13.21-.38.44-.35a1.15,1.15,0,0,0,.94-.48c.94-1,1.84-.67,2.82-.11a2.75,2.75,0,0,0,2.51,0,5,5,0,0,0,2-1.54c.19-.21.34-.51.63-.55,1-.13,1.44-.83,2-1.45.3-.33.65-.61,1-.91s.69-.22,1-.33.47.35.68.58a3,3,0,0,0,3.14.34c.12-.09.31-.25.29-.35-.13-.89.59-1,1.13-1.36A3.54,3.54,0,0,0,91,34.11a1.07,1.07,0,0,1,.24-.43c1.37-1,2.15-2.66,3.6-3.68a16.18,16.18,0,0,0,2.82-2.79,1,1,0,0,0,.08-1.32,9.15,9.15,0,0,1-.94-2.72,28.52,28.52,0,0,0-1.42-4.78c-.35-.66-.52-1.37.29-1.94a1.69,1.69,0,0,0,.56-.92,14.55,14.55,0,0,1,1-3.49.66.66,0,0,0-.14-.69c-.53-.75-.36-1.66-.58-2.48-.11-.41.12-.76.6-.68,1.74.31,3.48,0,5.22.12.5,0,.65.31.47.74-.34.78-.36,1.65-.75,2.42-.18.36-.23.81-.58,1-.55.37.12.93-.17,1.19a1.81,1.81,0,0,0-.64,1,.66.66,0,0,0,.12.46A12,12,0,0,1,101.85,19a2.65,2.65,0,0,0,.46,1.11,3.38,3.38,0,0,1,.15,4.26,2.36,2.36,0,0,0-.24,2.4,4.36,4.36,0,0,1,.17.51,3.26,3.26,0,0,0-.08.94,13.66,13.66,0,0,1-.14,5.13c-.44,1.69-1.45,3-2,4.56-.92,2.82.42,5.5,1.94,7.83a11.12,11.12,0,0,0,.53,1.5c.58,1.33.78,2.79,1.43,4.1.2.41.1.61-.38.79a5.44,5.44,0,0,0-2.71,2.8c-.12.21-.18.46-.3.66a10.9,10.9,0,0,0-1.6,5.53,8.22,8.22,0,0,0,.38,3.11c.5,1.45.91,2.93,1.33,4.41a2.14,2.14,0,0,0,.64,1,10.33,10.33,0,0,1,1.28,1.6A7.05,7.05,0,0,0,105.8,73a1.81,1.81,0,0,0,1.3-.19,2.26,2.26,0,0,1,1.74.12c1.27.43,2.47,1.25,4,.84a2.63,2.63,0,0,1,1.43.15,1.32,1.32,0,0,0,1.24-.33c.37-.27.48-.88,1.17-.67.21.06.22-.29.29-.47a22.56,22.56,0,0,1,1.12-2.79c.37-.07.3.42.52.41.78-.06,1.14.43,1.48,1,.11.18.35.18.56.13,2.62-.7,5.38-.46,8-1.1a15.76,15.76,0,0,1,4.75,0c1.13,0,2.26.12,3.39.11A2.47,2.47,0,0,1,139,71.37c.23.34.43.7.66,1a11.83,11.83,0,0,0,3.78,3.32,7.68,7.68,0,0,0,3.17.78,3.59,3.59,0,0,1-3.68.13,12.08,12.08,0,0,1-2.9-2.07.93.93,0,0,0-1.24,0c-.66.4-1.34.76-2,1.15A1.48,1.48,0,0,1,136,76a3.18,3.18,0,0,0-2.2,1.11c-1.1,1-2.07,2.07-3.09,3.11a2,2,0,0,0-.61,1.89c.25,1,.14,2.22,1.2,3,.13.09.17.36.2.56.11.72.2,1.44.37,2.16a2,2,0,0,1-.13,1.32,3.21,3.21,0,0,0-.38,1.63c0,.17,0,.36-.13.44-.87.4-.55,1-.19,1.49a4,4,0,0,1,.56,3.35c-.16.77,0,1,.77,1.22a4.61,4.61,0,0,1,2.94,2.17,3.5,3.5,0,0,0,.49.53,8.12,8.12,0,0,1,1.73,2.17,2.7,2.7,0,0,0,2.87,1.3,19.74,19.74,0,0,0,2.91-.75,13.46,13.46,0,0,1,3.94-.57,2.6,2.6,0,0,1,1.49.46c.8.56,1.62,1.09,2.39,1.69A1.9,1.9,0,0,1,152,106a1.57,1.57,0,0,0,.11.84,9.06,9.06,0,0,1,.48,4.19,3.15,3.15,0,0,0,.84,2.57C154,114.13,154,114.51,153.4,115Zm15.54-34.46a17.79,17.79,0,0,1-1.07,4.22,1.57,1.57,0,0,0,0,1.74c.11.15,0,.28-.1.43a27.51,27.51,0,0,0-1.67,4.37,37.08,37.08,0,0,1-2.18,5.2,8.11,8.11,0,0,0-.68,1.54,1.55,1.55,0,0,1-.76,1.19c-.13.07-.3.22-.31.35-.12,1-1.09,1.57-1.39,2.49s-.89,1.64-1.21,2.48c-.63,1.64-2.08,2.76-2.64,4.43a2.37,2.37,0,0,1,.25-2.45c.18-.27.39-.52.58-.78.86-1.13.83-1.4-.19-2.3s-2-1.57-2.88-2.43a3.52,3.52,0,0,0-1.44-.83,4.64,4.64,0,0,1-1.75-1,3.11,3.11,0,0,0-1.52-.72,1.4,1.4,0,0,1-.69-.2,3.78,3.78,0,0,0-2.39-.66,2.89,2.89,0,0,0-2.24.69c-1,.84-2.27.8-3.47.93a1.43,1.43,0,0,1-1.23-.71A42,42,0,0,1,136.39,93c-.16-.34-.39-.63,0-1a.35.35,0,0,0,.06-.33c-.73-1.61-.31-3.45-1-5.08a1.18,1.18,0,0,1,0-.72,6.34,6.34,0,0,0,0-2.53,1.39,1.39,0,0,1,.59-1.65,8.9,8.9,0,0,0,2.12-1.95c.34-.47.86-.17,1.19,0a14.77,14.77,0,0,0,1.77.8,18.67,18.67,0,0,1,2,.94,2.66,2.66,0,0,0,3.57-.48,1.08,1.08,0,0,1,.87-.34,2.15,2.15,0,0,0,2.17-1,1.2,1.2,0,0,1,1.65-.27,1.46,1.46,0,0,0,1.44-.16,11.71,11.71,0,0,0,2.51-1.68,16.47,16.47,0,0,1,3.43-2.15,7,7,0,0,0,1.62-1c.42-.39,1-.54,1.42-1a6.09,6.09,0,0,1,1.58-.89,6.33,6.33,0,0,1,1.86-.55,5.85,5.85,0,0,1,4,.51.66.66,0,0,1,.43.74A48.73,48.73,0,0,1,168.94,80.58Zm-.18-14.15a11.47,11.47,0,0,1-1.43-.58,5.73,5.73,0,0,0-3.79.17.8.8,0,0,0-.59.56,3.11,3.11,0,0,1-1.37,1.67,9.29,9.29,0,0,0-2.39,2.17,1.45,1.45,0,0,1-.46.39c-1.93,1.18-3.68,2.66-5.87,3.37a10,10,0,0,1-1.24.43c1.21-.71,1.16-2.16,1.94-3.13.58-.71.07-2-.77-2.5-.17-.1-.4-.12-.48-.33-.59-1.37-1.64-2.53-1.76-4.12a4.6,4.6,0,0,0-.67-2.2,2.29,2.29,0,0,1-.28-1.53,12.14,12.14,0,0,1,.67-4c.23-.51,0-1.11.21-1.68s.47-.82,1-.78a8.29,8.29,0,0,1,1.21.08c.68.15,1.34-.13,1.39-.77.07-1,.93-1.45,1.11-2.33a17.62,17.62,0,0,1,.88-2.53,2.71,2.71,0,0,0,.24-1.41c-.12-.83.41-1.55.62-2.33a2.78,2.78,0,0,0-.28-2.39c-.65-1.12-1.31-2.23-2-3.32a1.71,1.71,0,0,1,.86-2.4c.32-.13.46.06.57.28a2.68,2.68,0,0,1,.36,1.52.67.67,0,0,0,.63.85,2.84,2.84,0,0,1,2.1,1.83c1,2,2.33,3.91,2.9,6.16a3.39,3.39,0,0,0,1.22,1.79,2.09,2.09,0,0,1,1,2.05,2.15,2.15,0,0,0,1.11,2.48,1.12,1.12,0,0,1,.5.51,19.65,19.65,0,0,1,2.26,9c0,.16.05.38,0,.47-.47.51-.13.88.15,1.29A1.8,1.8,0,0,1,168.76,66.43Z"/><path class="cls-11" d="M173.23,123.22c-2.53-.94-4.63-.92-6.92.81a13,13,0,0,0-2.11,2.7c-3.06,3.89-4.43,7.78-8.38,11.48-4.55,4.27-8.77,8.73-14,11.91-2.82,1.7-5.6,3-8.19,4.79-.94.43-1.88.82-2.82,1.15a3.33,3.33,0,0,0-1.73,1.21,3.89,3.89,0,0,0-3-.58c-5.71,1.47-11.25,3.29-17,4.29-2,.34-3.86.7-5.81,1-3.9.06-7.75,0-11.62-.19a63.45,63.45,0,0,0-9.22-1.08,3.35,3.35,0,0,0-3,1.26l-2.88-.58a4,4,0,0,0-1.18-.05l-3-.82c-4.18-1.68-8.26-3.89-12.69-5.16l-1-.28a3.72,3.72,0,0,0-1-1c-.29-.18-.61-.35-.92-.51v0c-19.25-11.62-36.4-28.35-42.64-50.89C6.16,73.92,15.5,44.67,33.21,22c0-.05.12-.08.17-.13A35,35,0,0,0,37.22,18c.34-.29.71-.54,1-.84a2.57,2.57,0,0,0,.9-2.52c.44-2.91-3.92-4.92-6.15-2.55a13.55,13.55,0,0,0-1.37,1.47,2.68,2.68,0,0,0-1.2.8,18.63,18.63,0,0,0-2,2.49C9,40.74-.1,70.63,6.68,101.5c2.37,10.83,9.13,22,15.25,31.13,4.81,7.2,11,12.76,17.84,17.64a4,4,0,0,0,1.11,1.87,31.12,31.12,0,0,0,11.67,8.14h0a4.12,4.12,0,0,0,.91,1.22,18.45,18.45,0,0,0,9.23,4.54c.24.11.48.23.73.33,3.49,1.37,6.76,1,10.33,1.65l.54.13a5.08,5.08,0,0,0,.89.16c6.41,1.31,12.83,3.15,19.19,4.66a3.24,3.24,0,0,0,4.09-2.28A50.83,50.83,0,0,0,111,169c9.09-.74,19.77-3.4,28.32-8,15.22-4.47,27.18-21.49,36-33.18C176.83,125.8,175.05,123.89,173.23,123.22Z"/><path class="cls-11" d="M94.23,176.65c-.38,0-.24.5.09.5S94.55,176.65,94.23,176.65Z"/><path class="cls-11" d="M103.19,187.85a33.27,33.27,0,0,0,.13-5,2.72,2.72,0,0,0-.45-1.48c0-.71,0-1.44-.06-2.2a2.34,2.34,0,0,0-1.06-1.78c-1-1.5-3.29-2.58-4.68-1.17a2.92,2.92,0,0,0-1.06-.06c-.6-1.07-2.82-1.58-3,.07a30.55,30.55,0,0,0-1.16,6.46,2.39,2.39,0,0,0,.26,1c-1.15,2.8-1,6.09-1,9a8.37,8.37,0,0,0,.67,3.87c.33,2.16,1.28,3.94,3.5,4.74,5,1.81,9-2.21,6.93-7A27.07,27.07,0,0,0,103.19,187.85Z"/><path class="cls-11" d="M138.44,203.17c-.45-7.9-2.52-11.3-10.27-13.53A58.51,58.51,0,0,0,108,187.4a3.1,3.1,0,0,0-2.91,3.72c.63,4,1.65,6.81,5.76,7.8,2.94.71,6.25-1.35,9.17-.15,6.57,2.7,5,7.18,6.35,12.67a2.35,2.35,0,0,0,2,1.52c-2.59,2.95-7.15,3.9-12.62,5.16a103.13,103.13,0,0,1-16.13,2.14c-6.34.44-14,1.43-20.26.34-7.1-1.23-22.34-7.27-14.44-17.15,3-3.74,8.9-5.69,13.32-7,3.48-1,7.6-.52,10-3.5,1-1.29-.35-2.63-1.81-3l0-.06c-11.77-1.92-31.93,4.77-31,19.44,1.2,18.56,29.76,18.85,42.6,18,9.76-.68,20.17-1.77,29.38-5.28C137.84,218.08,139.09,214.44,138.44,203.17Z"/><path class="cls-11" d="M127.13,209.27c.22-.2.47-.37.68-.57,2.05-2,.47-4.48-1.69-5.52a6,6,0,0,0-.73-2.75,8.21,8.21,0,0,0-1.15-1.55c0-.06.09-.12.13-.19,1.32-2.32-.63-5.4-3.24-5.63a21.69,21.69,0,0,0-9.54,1.85c-.57,0-1.13-.09-1.66-.15-5.44-.55-10.4.42-15.58,1.59a3.76,3.76,0,0,0-2.63-1.06,19.55,19.55,0,0,0-2.77.29c.1-.16.21-.31.3-.48,1.67-2.91-3-5.78-5.38-4.54a102.49,102.49,0,0,0-11,6.71c-.88-2.18-3.74-4.09-5.66-2.66-.23.18-.43.37-.66.55h0l-.16.15c-3.49,2.89-5.35,6.36-5.1,11a2,2,0,0,0,.15,1.27c0,.1,0,.2,0,.3-.58.43-1.15.87-1.67,1.33-2.16,1.89.4,5,2.79,5.59-.6,2.37,2.36,5.19,5,4.54,1.32-.33,2.63-.74,3.93-1.19.48.31,1,.64,1.44,1,2.61,2,4.17,5.42,7.8,5.73,3,.26,6-1.52,8.58-3.68a4.36,4.36,0,0,0,3.22,1.7,29.39,29.39,0,0,0,6-.52,3.72,3.72,0,0,0,1.74.51c5,.06,11.48-1.3,17.46-3.16a13.13,13.13,0,0,0,8.47-2.25A3.5,3.5,0,0,0,127.5,216l1-.45C131.64,214,129.77,210.32,127.13,209.27Z"/><path class="cls-12" d="M36.65,11.42l-.57-.26c-3.39-1.06-9.47,4.49-11.19,6.92s-3.28,5.24-5,7.84c-1.51,2.31-3.58,5.4-3.45,8.25a1,1,0,0,0,1.66.49c2.87-4.24,6.15-8.35,9.43-12.28a24.1,24.1,0,0,1,5.51-4.81,28.57,28.57,0,0,0,4-2.8A2,2,0,0,0,36.65,11.42Z"/><path class="cls-12" d="M23.16,38.38c.08-.56-.83-.73-1.13-.36a41.33,41.33,0,0,0-3.25,4.74,1.22,1.22,0,0,0-1.26.24C4.74,55.92,3.84,77.92,10.14,94.15c.62,1.58,4.26,2.23,4-.11a121.93,121.93,0,0,1,.2-25.41C15.53,57.78,21.74,48.86,23.16,38.38Z"/><path class="cls-12" d="M98.59,170.29C92.76,165.53,86.3,168,79.47,167c-7.93-1.2-17.66-4.9-24.77-8.65-7.45-3.94-15.55-8.59-22-14s-10.39-12.39-15.56-18.94c-.43-.56-1.52-.22-1.26.54,5.65,16.39,18.52,23.83,32.22,33,6.34,4.23,13.26,7,20.42,9.52,9.67,3.4,18.89,2.56,28.82,4.14C98.71,172.78,99.75,171.23,98.59,170.29Z"/><path class="cls-12" d="M171.68,125.54c-9.08,15.32-25.5,28-41.69,34.81-7.57,3.18-15.72,5.83-23.93,6.43-7.39.54-14-1.52-20.86,2.34-1.62.91-.34,3.22,1.32,3,9-1.46,17.93.59,26.86-1.3a106.43,106.43,0,0,0,24-8c9.88-4.65,17.2-11,24.76-18.75,5.08-5.2,10.22-9.91,12.56-17C175.18,125.56,172.53,124.11,171.68,125.54Z"/><path class="cls-12" d="M99.66,175.67a31.49,31.49,0,0,0-4.31.61c-.35.08-.71.14-1.07.2a2.23,2.23,0,0,0-.32-.38,2.54,2.54,0,0,0-3.09-.3,3.16,3.16,0,0,0-1.23,3.34,2.43,2.43,0,0,0,.61,2.88,7.35,7.35,0,0,0,6.3,2,21.23,21.23,0,0,0,2.91-.89A6.58,6.58,0,0,0,102,182a2.49,2.49,0,0,0,.86-1.36c.14-.17.3-.31.44-.49C105.09,177.69,101.82,175.5,99.66,175.67Z"/><path class="cls-12" d="M97.85,176.32l-.27-.06a1.75,1.75,0,0,0-1.85.78c-1,1.62-.88,3.39-.87,5.23a17.17,17.17,0,0,0,1.25,7.27,1,1,0,0,0,1.64,0A13.68,13.68,0,0,0,98.88,184c.08-1.85.25-3.79.2-5.65C99.66,177.5,98.66,176.5,97.85,176.32Z"/><path class="cls-12" d="M111,198.9c-1.9.83-1.73,1.23-3.31,2.42-2.73,2.05-5.12,2.07-8.43,2.05a39,39,0,0,1-9.53-.76c-1.07-.27-4.93-1.15-5.52-2.52-.87-2,1.76-3.6,1.2-5.73a2.31,2.31,0,0,0-2.43-1.58,6.91,6.91,0,0,0-5.33,7.7c.56,3.81,5.32,6.32,8.72,7.21,4.74,1.23,10.78.64,15.61.59,5,0,9.93-2.24,11.67-7.17C114.11,199.7,112.24,198.35,111,198.9Z"/><path class="cls-12" d="M132.13,209.51c-4.52.46-8.93,2-13.35,3.56-10.5.26-20,3.23-30.83,1.71-4.91-.69-11.65-2.62-16.63-1.05-1.46-.39-2.93-.76-4.45-1.11-4.29-1-6.89-3.19-10.61-4.57-3.19-1.18-4.43,3.13-1.66,4.62a20.61,20.61,0,0,1,2.52,1.75,2.19,2.19,0,0,0,1,2.57c11.48,8.07,24.31,10.14,37.36,9.27,8.18.77,16.27.23,23.78-2.83a2.86,2.86,0,0,0,1.76-1.86,29.05,29.05,0,0,0,12.87-5.8,2.34,2.34,0,0,0,1-1.76,7.1,7.1,0,0,0,.71-1C136.84,210.88,133.79,209.34,132.13,209.51Z"/><path class="cls-13" d="M29.78,8.77a2.22,2.22,0,0,0-1.62-1.13A3,3,0,0,0,25,7.19a13.07,13.07,0,0,0-3.23,3.11c-1.22,1.38-2.44,2.71-3.71,4-1.91,2,1.08,4.94,3.2,4.22a2.13,2.13,0,0,0,2.24-.47c1.46-1.56,2.94-3.11,4.26-4.8C28.78,12,30.81,10.66,29.78,8.77Z"/><path class="cls-13" d="M22.1,17.16a9,9,0,0,0-1.28-2.94,2.81,2.81,0,0,0-2.65-1.31,1.8,1.8,0,0,0-1.44,2,16.09,16.09,0,0,0,.8,2.81,9.87,9.87,0,0,0,1.19,2.79h0a2.87,2.87,0,0,0,2,1.3,1.75,1.75,0,0,0,2-1.44A10.5,10.5,0,0,0,22.1,17.16Z"/><path class="cls-13" d="M177.65,132.83a8.15,8.15,0,0,0-2.3,3.13,5.43,5.43,0,0,0-1.22,1.14c-.74.87-1.6,1.62-2.31,2.52l.06,0a4.31,4.31,0,0,0-.39.46c-1.42,2.18,3.12,4.73,4.59,2.69,1.75-.07,2.87-1.33,3.65-2.79.85-1.61,2.22-2.89,2.33-4.8C182.18,133.15,179.33,131.68,177.65,132.83Z"/><path class="cls-13" d="M76.76,187.67c-2.38.18-5,1.75-7.11,2.72-2.33,1.06-4.53,3.24-6.9,3.73-3.56.73-9.3,4.65-6,8.72a1.36,1.36,0,0,0,1.68.37c1.43-1,2.05-2.84,3.42-3.86,1.63-1.2,4.29-.71,6.15-1.74,3.28-1.81,7.8-4.22,10.57-5.48S79.34,187.48,76.76,187.67Z"/><path class="cls-13" d="M133.28,193a11,11,0,0,0-5.4-2.87,17.62,17.62,0,0,0-2.55.17,11.45,11.45,0,0,0-2.5-1.3,6.36,6.36,0,0,0-5.13.09,9.6,9.6,0,0,0-1.4.84,6.46,6.46,0,0,1-.74-.41,8.29,8.29,0,0,0-9.92-.31c-.73.52-.15,1.39.37,1.73,1.78,1.13,3.39.69,5.17,1.53.72.35,1.4,1.24,2.28,1.74a8.6,8.6,0,0,0,3.76,1.25c1.45,0,2-.83,3.24-1.13s.12-.26,1.1-.06c.68.14,1.37.93,2.07,1.17,1.17.4,2.76,0,3.34.1,2.46.46,3.25,4.89,4.9,7.15a1.74,1.74,0,0,0,2.47.15C136.88,199.9,135.72,195.71,133.28,193Z"/><path class="cls-13" d="M91.3,163.38c-9.26-.17-18-3.71-26.62-6.7-9.55-3.31-15.93-8.89-23.28-15.56-4.79-4.35-9.85-9-13.9-14.15-5.83-7.39-8.21-16.46-13.08-24.34-.72-1.16-3.05-1-2.4.63,3.72,9.5,6.11,18.65,12.84,26.76,4.5,5.44,10.19,10.11,15.42,14.7,8.09,7.11,15.36,13.19,26,15.91,8.18,2.09,16.8,7.78,25.44,4.29C92.7,164.54,92.13,163.39,91.3,163.38Z"/><path class="cls-13" d="M37.46,12.81c-.25-1.85-2.89-3.08-4.19-1.4a1.87,1.87,0,0,0-.4,1.41,1.14,1.14,0,0,0,.38.76C34,17,26.55,23.18,25,25.23c-2.78,3.59-6,9.5-5.58,14.17,0,.45.74.76,1,.33,3.38-5,6.47-10,10.64-14.32C34.47,21.84,38.14,18.07,37.46,12.81Z"/><path class="cls-13" d="M174.4,123.74c-2.84-3.52-7.24-1.29-9.58,1.53-1.31,1.59-2.35,3.35-3.72,4.89a6.58,6.58,0,0,0-2.07,4.35,1.46,1.46,0,0,0,1.3,1.35c2.19.41,4.63-2.15,6-3.63,1.77-2,3.32-5.81,6.44-5.55C174.52,126.82,175.57,125.2,174.4,123.74Z"/><path class="cls-10" d="M179.55,125.35l-.94-.18a1.8,1.8,0,0,0-.36-1.11l.07,0a15.52,15.52,0,0,0-4.78-4.19c-1-.88-2-1.71-3-2.52a1.75,1.75,0,0,0-2.4.49c-1,1.42-2.37,2.84-3.34,4.39-.2.23-.39.46-.58.7-2.9,2.14-5,5.47-7.24,8.21v0c-1.73,1-3.15,3.3-4.29,4.55-1.4,1.54-3.23,3-4.68,4.68-1.63,1-3.15,2.31-4.69,3.47L141.72,145l-.24.15c-2.74.56-5.29,2.51-7.58,4a79.36,79.36,0,0,0-6.74,4.69,47.3,47.3,0,0,1-8.47,2.74.57.57,0,0,0-.44.62h0c-.66.16-1.33.29-2,.42-2.61.13-5.22.68-7.79,1a35.62,35.62,0,0,0-6.39.61c-.81.09-1.62.15-2.43.2a14.55,14.55,0,0,0-2-.56c-3.85-.17-7.7,1.2-11.48,0l-.06,0-.61.08L83,158.58c-1.69-.26-3.42-.62-5.15-.85-.84-.2-1.68-.38-2.5-.59-1.38-.35-2.76-.73-4.14-1.09a16.73,16.73,0,0,0-1.46-.89,17.14,17.14,0,0,1-6.48-2l-.84-.45-.48-.28q-.46-.27-.93-.57l-.4-.24-1-.63-.4-.27c-1.13-.77-2.24-1.58-3.32-2.38-1.29-1-2.55-1.87-3.77-2.68-1.88-1.24-3.72-2.54-5.57-3.82-.11-.06-.23-.1-.34-.15-.31-.23-.62-.46-.93-.67l0,0c-1.29-.87-2.58-1.73-3.92-2.53-.29-.18-.56-.36-.82-.55l-.06,0a19.42,19.42,0,0,1-4.13-4.37,9.91,9.91,0,0,0-1.56-.29,4.15,4.15,0,0,1-.27-.32A20.57,20.57,0,0,1,33.27,131a23.55,23.55,0,0,0-1.07-2.13,2.67,2.67,0,0,0-.07-.55l-.77-.94v0l-.17-.2-.08-.1-1-1.14-.9-1.1-.47-.6-.62-.78-.41-.56-.73-1a21.09,21.09,0,0,1-1.5-2.6v0c-.11-.22-.23-.44-.33-.67a1.61,1.61,0,0,1-.09-.29,1.42,1.42,0,0,1,0-.2l-.07,0c-.56-1.26-1.16-2.5-1.68-3.75-.35-.84-.7-1.69-1-2.54a20,20,0,0,0-1.84-4.46c-.4-1-.8-2-1.22-3,0,0,0,0,0-.06-.14-.4-.27-.79-.4-1.19.14-2.66-.82-5.56-1.4-8a47.47,47.47,0,0,0-1.85-7.26c-.1-1-.2-2-.26-3-.13-2.22-.13-4.46-.18-6.69,1.2-2.62,1.1-5.57,1.34-8.43l.06-.7a31.21,31.21,0,0,0,1-6.71,29,29,0,0,0,1.32-5.37,32.11,32.11,0,0,0,1-5.87c1.23-1.84,1.79-4.26,2.6-6.26.67-1.66,1.5-3.32,2.26-5,.15-.28.31-.57.45-.85.34-.52.67-1,1-1.55s.59-.9.9-1.35a7.88,7.88,0,0,0,1-.82c.74-1.25,1.52-2.47,2.38-3.64a19.23,19.23,0,0,1,2.84-2.94,28,28,0,0,0,2.34-3.46c.22-.26.42-.52.62-.79a42.14,42.14,0,0,0,6-6.54,1.09,1.09,0,0,0,.2-.88,4.41,4.41,0,0,0,.37-.62,2,2,0,0,0-.34-2.12,1.49,1.49,0,0,0-.1-.73c-1-2.43-2.84-5.44-5.74-5.65a5.21,5.21,0,0,0-1.07-.77c-1.17-.61-2.93-.77-3.74.52a2.24,2.24,0,0,0-.33,1,7.91,7.91,0,0,0-1.94,1.51,12.46,12.46,0,0,0-1.21,1.2,11.15,11.15,0,0,0-2.59,2.33,33,33,0,0,0-4.49,5.07,21.1,21.1,0,0,0-3.13,4.57c-.17.2-.33.41-.49.61a37,37,0,0,0-6.74,10A18.5,18.5,0,0,0,8.7,38.36,66.87,66.87,0,0,0,4.86,48.7c-.13.33-.27.66-.41,1C3.52,52,2,55.43,2.35,58.18,1.72,60.05,1,62,.42,64c.14.83.24,1.67.34,2.5S.9,67.89,1,68.61l.06.78c.05.86.09,1.72.11,2.59v.9c0,.61,0,1.22,0,1.83s0,1,0,1.49l0,1.45c0,.45,0,.9-.05,1.35s0,.79,0,1.18-.05,1-.07,1.54c0,.78-.08,1.55-.11,2.33l0,.5,0,.6h0C.69,86.51.63,87.87.59,89.21A1.63,1.63,0,0,1,0,90.47q.36,4.69,1.05,9.34a17.63,17.63,0,0,0,2,3.82,2,2,0,0,1,0,.24c.43,2.15.68,4.77,1.88,6.67a18.48,18.48,0,0,0,4,9.72,43.08,43.08,0,0,0,2.07,4.4,43.41,43.41,0,0,0,5.37,8.83c.38.74.84,1.45,1.24,2.09a24,24,0,0,0,3.95,4.92c1.31,1.74,2.88,3.33,4.33,4.9s3.15,3.84,5.32,4.68c1,1,1.91,1.93,2.63,2.68a32.86,32.86,0,0,0,7.63,6.11l0,.08c4.28,4.27,12.36,8.13,18.8,8.9,1,.48,2.11.92,3.18,1.32l.46.18a41.41,41.41,0,0,0,9.43,4.07,1.47,1.47,0,0,0,.51.2c1.4.32,2.79.59,4.19.8a1.61,1.61,0,0,0,1.3.56h3.25a35.13,35.13,0,0,0,5.06.95,39.48,39.48,0,0,0,14.28.57,1.08,1.08,0,0,0,.7-.42c2.45,0,4.89-.22,7.23-.42a1.15,1.15,0,0,0,1-.76l2.39-.45a1.55,1.55,0,0,0,1.15.06l2.06-.67,3.75-.71a1.77,1.77,0,0,0,1.35-1c6.72-.42,14.37-2.66,18.84-6.86a1.35,1.35,0,0,0,.22-.28l.79-.29c3.42-1.3,7.14-2.63,9.77-5.23.75-.37,1.5-.75,2.22-1.14,3.26-1.75,7.09-3.81,9.23-6.91a.71.71,0,0,0,.11-.63,9.58,9.58,0,0,0,.72-.88,22.86,22.86,0,0,0,3.78-4.14,36.67,36.67,0,0,0,4.71-4.79,28.44,28.44,0,0,0,2.09-2.17c1.37-1.55,4.15-4.42,4-6.81a34.53,34.53,0,0,0,2.46-3.48C181.31,127.51,180.94,125.64,179.55,125.35Zm-61,36.26c20.95-5.79,40-19.26,51.38-37.92l.2.06a3,3,0,0,1,1.52,1.16,7.6,7.6,0,0,0,3.1,2.38c-22,34.43-66.66,51.74-105.8,38.61-39.43-13.25-66.38-52-63-93.73a96.49,96.49,0,0,1,9-33.31c4-8.42,9.38-15.6,15.19-22.65A14.47,14.47,0,0,0,31.6,15c.82-.69,1.71-1.19,2.59-1.8a1,1,0,0,0,.3-1.17,4.37,4.37,0,0,1,.46.18,2.27,2.27,0,0,0,.91,1.43,10.21,10.21,0,0,0,1.83,1.1l.3.37C8.68,40.82,2,87.52,21.37,120.91,40.84,154.48,80.89,172,118.53,161.61Zm-22.87.28h0Z"/><path class="cls-10" d="M92.43,175.4c-.56-1.61-3-1.22-3.47.21-1.41,4.15-.69,9.3-.67,13.63,0,3.23,5,3.6,5,.35C93.29,185.06,93.93,179.73,92.43,175.4Z"/><path class="cls-10" d="M92.18,187.44a64.43,64.43,0,0,0-.74-11.11,1.33,1.33,0,0,0-2.62.15c-.58,3.73-.32,7.66-.25,11.43.05,2.62-.56,5.77,1.47,7.71a.65.65,0,0,0,.91.07C93,193.51,92.25,190.27,92.18,187.44Z"/><path class="cls-10" d="M91.84,174.07c-.32-1-1.64-.64-2,.13h0c-1.58,3.87-1.22,8.7-1.36,12.84-.14,3.8-.82,8,.67,11.53a1,1,0,0,0,1.78.12c1.81-3.67,1.39-8.19,1.5-12.22S93.13,178,91.84,174.07Z"/><path class="cls-10" d="M92.65,187.05c0-3.89.47-8.1-.86-11.8-.34-1-1.59-.62-1.9.13l0,0c-1.71,3.91-1.33,8.93-1.38,13.13,0,3.39-.62,7.32,1.52,10.12a.74.74,0,0,0,1.17-.08C93.46,195.45,92.65,190.71,92.65,187.05Z"/><path class="cls-10" d="M106.8,182.1c-.08-2.54.63-6.33-1.65-8a.38.38,0,0,0-.45,0c-2.42,1.89-1.35,6.34-1.33,9.08,0,3.12-.44,6.84,1.36,9.51a.71.71,0,0,0,1.12-.08C107.72,189.7,106.9,185.47,106.8,182.1Z"/><path class="cls-10" d="M106.52,183.14c0-3.16,1-7.32-1-9.92a.53.53,0,0,0-.73-.05c-2.64,2.38-2.13,7.16-2.25,10.47s-.77,8,1.53,10.85a.72.72,0,0,0,1.12-.08C107.28,191.44,106.47,186.65,106.52,183.14Z"/><path class="cls-10" d="M105.79,186c.13-3.51.51-7,0-10.53-.15-1.06-1.51-1-1.88-.13-1.58,3.47-1.9,7.35-2.08,11.12-.13,2.79-.66,6.55,1.46,8.65a.7.7,0,0,0,1.09-.07C106.4,192.67,105.68,188.88,105.79,186Z"/><path class="cls-10" d="M106,189.62c-.15-3.13,0-6.42-1.17-9.37a.77.77,0,0,0-1.4.09c-1.2,3.23-1,7-1,10.4,0,2.8-.43,5.84,1.34,8.16a.75.75,0,0,0,1.17-.08C106.83,196.27,106.18,192.62,106,189.62Z"/><path class="cls-10" d="M105.07,186.88c-.14-.65-1.18-.81-1.36-.1a31.11,31.11,0,0,0-.87,9.66,1.32,1.32,0,0,0,.91,1.06,1.66,1.66,0,0,0,.7.05,1.42,1.42,0,0,0,1.13-1.27A30.6,30.6,0,0,0,105.07,186.88Z"/><path class="cls-10" d="M105.16,194.25c-.24-2.09-.59-4.16-1-6.23-.19-1-1.8-1-1.8.1,0,2,0,4,.18,6.08.09,1.53-.07,3.23,1.25,4.22a.71.71,0,0,0,.85-.06C105.72,197.18,105.33,195.77,105.16,194.25Z"/><path class="cls-10" d="M90.75,185.24,90.2,185a65,65,0,0,0-13.15,1.26q-4,1-8,2.38C63.53,190.55,55,193.24,54,200.13c-2.11,14.4,23.1,16.27,32.22,15.36.33,0,.28-.55,0-.57-5.74-.49-36.46-6.51-26-16.93,3.73-3.73,11-5.41,15.88-6.69,2.9-.76,5.83-1.33,8.79-1.82,2.41-.4,4.23-.44,6.13-2A1.4,1.4,0,0,0,90.75,185.24Z"/><path class="cls-10" d="M128.67,189.21a47.63,47.63,0,0,0-22.4-4.27c-2.77.15-3.22,4.41-.31,4.41a51.8,51.8,0,0,1,16.17,2.33c3.9,1.28,10.78,3.49,11.52,8.27.93,6-6.79,8.47-11.23,10.06-4.86,1.74-10,2.7-14.79,4.5-.24.09-.14.43.08.45,6.72.7,14.07-1.12,20.36-3.38,5.13-1.84,10.58-5.63,10.29-11.75C138.09,194.44,133.09,191.23,128.67,189.21Z"/><path class="cls-10" d="M139.29,206.56c-.19-3.11.45-7.86-2.33-9.86a1,1,0,0,0-1.16.08c-2.29,2.5-.94,6.9-.77,10,.15,2.87-.75,7.27,1.9,9.06a1,1,0,0,0,1.14-.07C140.62,213.91,139.46,209.36,139.29,206.56Z"/><path class="cls-10" d="M57.23,209.89A36.79,36.79,0,0,1,57,199.36a1.43,1.43,0,0,0-2.77-.55,24.77,24.77,0,0,0-.87,10.62c.34,2.48.69,7.12,3.6,7.78a1,1,0,0,0,1.07-.36C59.42,214.65,57.67,212.24,57.23,209.89Z"/><path class="cls-10" d="M137.73,207.47a1.58,1.58,0,0,0-2.4,1.59c.48,2,1.09,4-.17,5.92s-3.47,3-5.44,4a67.5,67.5,0,0,1-10.79,4.15,81.06,81.06,0,0,1-22.65,3.09,99.83,99.83,0,0,1-22.91-2.74c-7.7-1.83-17-4.21-17.8-13.59a1.38,1.38,0,0,0-2.65-.19c-2.1,9.32,7.32,14.15,14.8,16.29a102.06,102.06,0,0,0,32.08,4A80.18,80.18,0,0,0,130,223.1c3.47-1.59,7.32-3.55,9.05-7.17C140.44,213.08,140.47,209.38,137.73,207.47Z"/><path class="cls-10" d="M55.41,208.91c0-1.37.2-3.28-1.09-4.11a.6.6,0,0,0-.7,0c-1.25.83-1,2.87-1,4.19,0,1.62-.27,3.55.54,5a1,1,0,0,0,1.66.12C55.67,212.59,55.4,210.65,55.41,208.91Z"/><path class="cls-10" d="M54.77,200.73a.72.72,0,0,0-1.12.07c-1.38,1.58-1.09,4.08-1,6a14.8,14.8,0,0,0,1,6.19.71.71,0,0,0,1.3-.08c1-2.14,1-4.44,1-6.77C55.9,204.32,56.09,202.2,54.77,200.73Z"/><path class="cls-10" d="M139.74,206.16a1.43,1.43,0,0,0-2.62.16,14.73,14.73,0,0,0-.3,3.7c0,1.31-.33,2.66-.26,4a1.47,1.47,0,0,0,2.85.57C140.42,212.36,140.75,208.39,139.74,206.16Z"/><path class="cls-10" d="M139.13,202.19c-.4-1.11-2.06-.85-2.4.15a12.94,12.94,0,0,0-.24,4.77,8.21,8.21,0,0,0,.81,4.22.82.82,0,0,0,1.4.1,8.48,8.48,0,0,0,.81-4.46A13,13,0,0,0,139.13,202.19Z"/><path class="cls-10" d="M139,198.8a1.36,1.36,0,0,0-2.57.49,28.88,28.88,0,0,0,1.1,8.46.65.65,0,0,0,1.25.08A12.94,12.94,0,0,0,139,198.8Z"/><path class="cls-10" d="M138.54,199c-.43-1.32-1.57-4.41-3.47-4.08-1.62.29-.69,2.41-.28,3.31a55.46,55.46,0,0,1,2.1,6.75.85.85,0,0,0,1.62.11A8.37,8.37,0,0,0,138.54,199Z"/><path class="cls-10" d="M88.78,187.28c-4.28-1.37-9.85,0-14.12,1-4.59,1.07-9.2,2.36-13.15,5-.6.4,0,1.29.58,1.19,4.71-.82,9.21-2.46,13.93-3.3,4.18-.73,9-.45,12.88-2A1.05,1.05,0,0,0,88.78,187.28Z"/><path class="cls-10" d="M67.27,222.33c-2.17-3.41-7.18-4.27-9.36-7.75a.46.46,0,0,0-.7-.14C54.31,217,64.7,222.9,67,222.8,67.17,222.79,67.42,222.56,67.27,222.33Z"/><path class="cls-10" d="M58.47,216.32A6.1,6.1,0,0,0,57,214.09a.87.87,0,0,0-1.34.66,8.29,8.29,0,0,0,.72,2.4,2.58,2.58,0,0,0,1.48,1.66.51.51,0,0,0,.58-.2A2.47,2.47,0,0,0,58.47,216.32Z"/><path class="cls-10" d="M70.45,223.77a18.93,18.93,0,0,0-3.82-2.69,13.8,13.8,0,0,0-4.06-1.86c-.73-.13-1,.81-.65,1.3a10.67,10.67,0,0,0,3.74,2.53,12.83,12.83,0,0,0,4.48,1.34A.38.38,0,0,0,70.45,223.77Z"/><path class="cls-10" d="M79.17,224.41c-3.25-3.1-9.12-2.86-13.2-1.86a.6.6,0,0,0,.07,1.19,47.9,47.9,0,0,1,7.17.75,21.86,21.86,0,0,0,5.68.73A.5.5,0,0,0,79.17,224.41Z"/><path class="cls-10" d="M89.19,226.47c-5.9-3.28-13.13-3.47-19.72-3-.74.05-.6,1.18.08,1.26,6.41.76,13,2.43,19.42,2.39C89.28,227.1,89.51,226.65,89.19,226.47Z"/><path class="cls-10" d="M95.17,225.63a34.64,34.64,0,0,0-18.38,0,.59.59,0,0,0,.07,1.16,99.66,99.66,0,0,0,18.19.57C96,227.28,96,225.89,95.17,225.63Z"/><path class="cls-10" d="M104.7,225.79c-2.12-1.1-4.43-1-6.76-.77-2.63.23-5,.49-7.18,2a.44.44,0,0,0,.15.73,22.19,22.19,0,0,0,6.51,0c2.43-.18,4.94,0,7.21-1A.57.57,0,0,0,104.7,225.79Z"/><path class="cls-10" d="M112.7,225c-2-.67-4.12-.26-6.21,0a76.55,76.55,0,0,0-7.95,1.44.79.79,0,0,0,.29,1.55c2.48-.42,5-.75,7.48-1,2.17-.26,4.45-.19,6.44-1.14A.44.44,0,0,0,112.7,225Z"/><path class="cls-10" d="M120.06,223.45c-5.9-.12-12,1.8-17.68,3.23a.53.53,0,0,0,.2,1c5.8-.75,12.19-1.2,17.63-3.47A.43.43,0,0,0,120.06,223.45Z"/><path class="cls-10" d="M124.59,222.29c-5.06-.66-11.2,1.86-15.85,3.72-.52.2-.23,1,.29.9,2.82-.5,5.61-1.11,8.41-1.72,2.47-.54,5.08-.87,7.3-2.12A.42.42,0,0,0,124.59,222.29Z"/><path class="cls-10" d="M130.78,218.94c-5.77.59-11.77,3.94-17.11,6.07-.49.19-.22,1,.29.87,5.61-1.08,12.7-2.42,17.18-6.19A.43.43,0,0,0,130.78,218.94Z"/><path class="cls-10" d="M134.88,216.38c-2,.26-3.85,1.48-5.62,2.49-2,1.15-4,2.32-6.07,3.4a.47.47,0,0,0,.4.84c3.74-1.43,9.15-2.86,11.62-6.23C135.39,216.64,135.14,216.35,134.88,216.38Z"/><path class="cls-10" d="M136,213.69c-1.36,0-2.32,1.2-3.22,2.07-1.12,1.08-2.27,2.14-3.39,3.23a.62.62,0,0,0,.67,1,19.74,19.74,0,0,0,4.18-2.57c1.05-.84,2.35-1.85,2.24-3.32A.53.53,0,0,0,136,213.69Z"/><path class="cls-10" d="M135.57,212.93a20.31,20.31,0,0,0-2.6,3.56.57.57,0,0,0,.84.74,20,20,0,0,0,3.18-3.06A1,1,0,0,0,135.57,212.93Z"/><path class="cls-10" d="M136.33,216.28a28.34,28.34,0,0,0-4.9,3.07c-1.36,1-3.17,1.83-3.84,3.41-.16.36.21.63.52.61,1.68-.11,3.24-1.65,4.54-2.61A24.5,24.5,0,0,0,137,217C137.33,216.62,136.75,216.1,136.33,216.28Z"/><path class="cls-10" d="M134.7,218.3a31.33,31.33,0,0,0-6.08,3.09c-1.73,1-3.91,2-5,3.71a.52.52,0,0,0,.52.79c2-.26,3.8-1.74,5.46-2.81a31.2,31.2,0,0,0,5.49-4C135.32,218.77,135.15,218.15,134.7,218.3Z"/><path class="cls-10" d="M132.17,220.7c-2.43.74-4.7,1.91-7,2.87s-4.93,1.67-6.71,3.46a.47.47,0,0,0,.27.81c2.44.18,4.8-1,7-2a36.7,36.7,0,0,0,7.08-4C133.21,221.45,132.79,220.51,132.17,220.7Z"/><path class="cls-10" d="M132.91,222.07c-2.12-.11-4.14.86-6.09,1.6a28.22,28.22,0,0,0-6.34,3c-.4.28,0,.81.38.77a26.61,26.61,0,0,0,6.41-1.75c2-.73,4.3-1.29,5.9-2.81A.45.45,0,0,0,132.91,222.07Z"/><path class="cls-10" d="M135.44,218.69a8.36,8.36,0,0,0-3.27,1.86c-1.15.92-2.28,1.87-3.46,2.76-.38.28,0,.8.43.65,2.36-.88,5.77-2.23,6.67-4.85A.32.32,0,0,0,135.44,218.69Z"/><path class="cls-10" d="M136.37,217.93a63.31,63.31,0,0,0-12.21,7.67c-.33.28,0,.72.39.59a37.89,37.89,0,0,0,12.25-7.61C137.12,218.29,136.77,217.72,136.37,217.93Z"/><path class="cls-10" d="M125.47,224.19a16.62,16.62,0,0,0-6.1,1.86,33,33,0,0,0-6.26,3.4.5.5,0,0,0,.42.86,45.74,45.74,0,0,0,6.3-2.22c2-.81,4.29-1.51,6-2.94C126.13,224.86,126,224.17,125.47,224.19Z"/><path class="cls-10" d="M120.3,226.8a29.5,29.5,0,0,0-12.73,3.27c-.31.18-.28.74.15.75a29.43,29.43,0,0,0,12.73-3.27C120.77,227.39,120.72,226.79,120.3,226.8Z"/><path class="cls-10" d="M115,228.05c-2.06-.43-4.16.12-6.21.45-2.33.37-4.84.51-7,1.62a.47.47,0,0,0,.17.88c2.2.34,4.45-.27,6.62-.65s4.52-.51,6.41-1.64C115.27,228.58,115.34,228.12,115,228.05Z"/><path class="cls-10" d="M110.27,228.69a26.67,26.67,0,0,0-6.74,0c-2.17.14-4.54,0-6.52,1a.49.49,0,0,0,0,.89c2.09.7,4.42.29,6.59.16a26.74,26.74,0,0,0,6.68-.88A.57.57,0,0,0,110.27,228.69Z"/><path class="cls-10" d="M104.86,229.34c-3.57-.68-9.09-.73-12.49.74-.42.18-.22.71.14.78,2.15.41,4.42,0,6.58-.11a51.27,51.27,0,0,0,5.82-.43C105.51,230.22,105.38,229.44,104.86,229.34Z"/><path class="cls-10" d="M98.72,229.47c-3.65-.49-8.73-1.14-12.1.74a.5.5,0,0,0,0,.92c3.71.92,8.36-.23,12.11-.54C99.46,230.53,99.32,229.55,98.72,229.47Z"/><path class="cls-10" d="M91.59,229.77l-5.1-1a10,10,0,0,0-4.14-.34.5.5,0,0,0-.18.9,9.94,9.94,0,0,0,4,1.06l5.17.71C92.07,231.17,92.34,229.92,91.59,229.77Z"/><path class="cls-10" d="M89.12,229.19c-3-1.32-6.87-2.56-10.19-2.23a.35.35,0,0,0-.13.62c2.84,1.71,6.91,2.22,10.18,2.31A.36.36,0,0,0,89.12,229.19Z"/><path class="cls-10" d="M86.19,228a23,23,0,0,0-5.08-1.07c-1.52-.27-3.14-.92-4.6-.23a.58.58,0,0,0-.18.88c1,1.27,2.76,1.36,4.25,1.64a15.15,15.15,0,0,0,5.63.46A.86.86,0,0,0,86.19,228Z"/><path class="cls-10" d="M59.62,219.61c-.71-.45-1.4-.94-2.06-1.45s-1.15-1.08-2-1.09a.68.68,0,0,0-.7.79C55,219.22,57,220.3,58,221c.61.44,2.76,2.12,3.53,1S60.2,220,59.62,219.61Z"/><path class="cls-10" d="M58.26,220c-1.21-.85-2-2.18-3.41-2.76a.55.55,0,0,0-.72.48c-.25,1.51.86,2.73,1.91,3.66.76.68,2.73,2.15,3.76,1.11C60.62,221.62,58.81,220.34,58.26,220Z"/><path class="cls-10" d="M65.27,224.32a16.73,16.73,0,0,0-3.22-1.9c-1.16-.65-2.34-1.29-3.47-2a.4.4,0,0,0-.52.59c1.59,1.92,4,4.27,6.63,4.48C65.25,225.53,65.74,224.75,65.27,224.32Z"/><path class="cls-10" d="M67.08,226.09c-.82-1.15-2.34-1.65-3.57-2.25a15.23,15.23,0,0,0-3.88-1.53c-.42-.07-.57.46-.37.74a10.45,10.45,0,0,0,3.67,2.8A6.17,6.17,0,0,0,66.78,227,.54.54,0,0,0,67.08,226.09Z"/><path class="cls-10" d="M73.64,228.39c-1.13-1-2.75-1.18-4.16-1.55l-4.85-1.27a.48.48,0,0,0-.31.91l5.05,1.73a9.18,9.18,0,0,0,4.12.9C73.87,229.06,73.87,228.6,73.64,228.39Z"/><path class="cls-10" d="M77.63,228.52c-.82-1.11-2.52-1.15-3.79-1.39a23.45,23.45,0,0,0-5-.37c-.51,0-.75.77-.19.93q2.46.72,5,1.29c1.25.29,2.57,1,3.79.39A.55.55,0,0,0,77.63,228.52Z"/><path class="cls-10" d="M80.14,227.93c-1.59-1.23-3.94-1.49-5.88-1.94a46.6,46.6,0,0,0-6.09-1.12c-.72-.08-.82.9-.24,1.16a50.32,50.32,0,0,0,6.51,2.3c1.77.52,3.56,1.28,5.41,1A.8.8,0,0,0,80.14,227.93Z"/><path class="cls-10" d="M82.77,228.45c-2-1.27-4.56-1.67-6.89-2.15a21.73,21.73,0,0,0-7.11-.76h0a.67.67,0,0,0-.1,1.27c2.22,1,4.75,1.19,7.09,1.77a35.41,35.41,0,0,0,6.31,1.46C82.91,230.26,83.64,229,82.77,228.45Z"/><path class="cls-10" d="M78.74,228.79c-2.07-2.54-6.37-3.48-9.79-4-.61-.37-1.55-.81-1.77-.13a1.14,1.14,0,0,0,.14,2.25,55.53,55.53,0,0,1,6.11,1.36,14.83,14.83,0,0,0,5,1.05A.35.35,0,0,0,78.74,228.79Z"/><path class="cls-10" d="M84.46,229.49c-1-.82-2.6-.86-3.87-1.07a33.91,33.91,0,0,0-4.82-.47c-.64,0-.93,1-.24,1.17,1.57.33,3.15.63,4.72,1,1.29.28,2.64.89,4,.64A.69.69,0,0,0,84.46,229.49Z"/><path class="cls-10" d="M90.31,230.12c-1.27-.93-3.12-.85-4.63-1s-3.21-.65-4.6,0a.54.54,0,0,0-.29.85c1.1,1.25,3.15,1.36,4.72,1.51s3.48.39,4.85-.55A.47.47,0,0,0,90.31,230.12Z"/><path class="cls-10" d="M93.39,229.48a27.15,27.15,0,0,0-5.63-.24c-.77,0-.86,1.2-.09,1.2a26.18,26.18,0,0,0,5.67-.23C93.68,230.14,93.78,229.57,93.39,229.48Z"/><path class="cls-10" d="M122.67,225c-2.18-.5-4.3.19-6.46.6-2.72.51-5.41,1.09-8.12,1.69a.57.57,0,0,0,.06,1.12,34.55,34.55,0,0,0,8-.34c2.32-.39,4.88-.68,6.67-2.31A.45.45,0,0,0,122.67,225Z"/><path class="cls-10" d="M128,224.55c-1.62-.59-3.3.25-4.88.69-2,.55-4,1-6.06,1.51-.57.14-.59,1.11.06,1.08a50.23,50.23,0,0,0,6.36-.67c1.7-.28,3.66-.4,4.79-1.81A.53.53,0,0,0,128,224.55Z"/><path class="cls-10" d="M130,223.76c-1.91-.35-3.93.73-5.73,1.32s-3.79,1.26-5.66,2c-.62.23-.28,1.24.36,1.09,2.15-.5,4.27-1.07,6.4-1.67,1.67-.47,3.61-.68,4.89-1.92A.45.45,0,0,0,130,223.76Z"/><path class="cls-10" d="M133.21,222.2c-1.78-.25-3.5.77-5.12,1.42-2.06.84-4.08,1.77-6.12,2.66-.64.29-.3,1.42.4,1.2,2-.67,4.11-1.3,6.14-2,1.76-.64,3.82-1.06,5.07-2.52C133.83,222.64,133.53,222.24,133.21,222.2Z"/><path class="cls-10" d="M135.85,220.15c-1.38-.49-2.75.69-3.88,1.36-1.57.91-3.15,1.82-4.75,2.69-.61.33-.34,1.43.4,1.22a32,32,0,0,0,5.31-1.9c1.26-.6,3.08-1.28,3.28-2.83A.53.53,0,0,0,135.85,220.15Z"/><path class="cls-10" d="M137.92,218.08a.35.35,0,0,0-.24-.27c-1-.31-2,.95-2.68,1.54-1.11.89-2.22,1.76-3.4,2.56-.6.4.06,1.39.68,1.05a25.88,25.88,0,0,0,3.6-2.3C136.62,220.07,138.18,219.19,137.92,218.08Z"/><path class="cls-10" d="M139.29,215a.57.57,0,0,0-.58-.29c-.83.11-1.24,1.24-1.67,1.85a16.29,16.29,0,0,1-1.83,2.31c-.41.41,0,1.23.6.91a8.61,8.61,0,0,0,2.52-2C138.84,217.05,139.83,215.8,139.29,215Z"/><path class="cls-10" d="M122.14,213c-1.48-.79-3.18-.35-4.82-.24-2.39.16-4.68.51-7,.83a.48.48,0,0,0,0,.95c2.16,0,4.25.11,6.41,0,1.82-.11,3.91.19,5.43-.89A.4.4,0,0,0,122.14,213Z"/><path class="cls-10" d="M127.94,210.62c-1.67-.28-3.29.38-4.86.89s-3.16,1.08-4.71,1.72a.5.5,0,0,0,.3.94c1.85-.28,3.65-.63,5.46-1.08a9.29,9.29,0,0,0,4.08-1.66A.47.47,0,0,0,127.94,210.62Z"/><path class="cls-10" d="M126.47,211.39a7.14,7.14,0,0,0-2.49.77,23.92,23.92,0,0,1-3.3,1.06c-.46.12-.48.9,0,.89,1.89-.07,4.9-.43,6-2.24A.31.31,0,0,0,126.47,211.39Z"/><path class="cls-10" d="M135.84,207c-1.72-.06-3.15.88-4.66,1.57-1.81.83-3.57,1.59-5.3,2.58a.33.33,0,0,0,.12.62c3.27.54,8.95-.58,10.26-4.14A.49.49,0,0,0,135.84,207Z"/><path class="cls-10" d="M137,205.14a11.93,11.93,0,0,0-3.57,1.86c-1.22.79-2.44,1.54-3.61,2.4-.34.26,0,.72.33.69,2.76-.24,6.17-1.72,7.33-4.39A.43.43,0,0,0,137,205.14Z"/><path class="cls-10" d="M136.64,200.64a.45.45,0,0,0-.63-.31c-1.41.57-2.25,2.11-3.24,3.2a15.2,15.2,0,0,1-4.06,3.2.72.72,0,0,0,.62,1.29,15.09,15.09,0,0,0,5.06-3C135.58,204,137,202.38,136.64,200.64Z"/><path class="cls-10" d="M111.6,189.24c-1.48-1.8-4.33-.7-6.11-.08-.46.16-.18.83.26.78,1.8-.21,4,.8,5.7,0A.48.48,0,0,0,111.6,189.24Z"/><path class="cls-10" d="M117.54,189.31c-2.67-1.24-6.59-.56-9.45-.31-.58.05-.52,1,.06,1,1.65,0,3.29.15,4.94.24a14.35,14.35,0,0,0,4.39-.06A.46.46,0,0,0,117.54,189.31Z"/><path class="cls-10" d="M123.48,191.1c-1.21-1.19-3-1.41-4.63-1.72a26.62,26.62,0,0,0-6.24-.37c-.71,0-.82,1.1-.08,1.13a35.91,35.91,0,0,1,6,.76c1.56.33,3.08,1.06,4.68.9A.43.43,0,0,0,123.48,191.1Z"/><path class="cls-10" d="M127.49,193.51c-.43-1.23-2.11-1.82-3.25-2.27a15.83,15.83,0,0,0-4.61-1,.72.72,0,0,0-.1,1.44,14.1,14.1,0,0,1,4.2,1.06c1.06.45,2.12,1.45,3.29,1.45A.49.49,0,0,0,127.49,193.51Z"/><path class="cls-10" d="M136.56,195.75c-3.11-1.95-6.74-3.07-10.18-4.27a.69.69,0,0,0-.6,1.22c3,2.27,6.6,4.08,10.43,4.06A.56.56,0,0,0,136.56,195.75Z"/><path class="cls-10" d="M85.13,188.27a.2.2,0,0,0,0,.4,1.08,1.08,0,0,1-1.27.27L82,189,79.2,189a42.06,42.06,0,0,0-5.72.38.28.28,0,0,0,0,.55,48.52,48.52,0,0,0,7,0,31.29,31.29,0,0,0,5.57-.35.37.37,0,0,0,.3-.33C86.5,188.37,85.91,188.18,85.13,188.27Z"/><path class="cls-10" d="M76.64,189.43a15.8,15.8,0,0,0-5.42.66c-1.23.38-2.87.71-3.39,2a.25.25,0,0,0,.16.32c1.26.26,2.39-.62,3.56-1a25.17,25.17,0,0,1,5.14-1.09A.45.45,0,0,0,76.64,189.43Z"/><path class="cls-10" d="M72.39,190.61A16.39,16.39,0,0,0,66.3,192c-1.59.71-3.75,1.72-4.36,3.47a.28.28,0,0,0,.31.36c1.61-.37,2.88-1.72,4.35-2.44a18.74,18.74,0,0,1,5.85-1.75C73,191.55,73,190.58,72.39,190.61Z"/><path class="cls-10" d="M65.09,193.63a55.13,55.13,0,0,0-7.17,3.79.66.66,0,0,0-.29.21l-.07,0h0c-.43.59-.33,1.85.86,1.35a46.64,46.64,0,0,0,7.14-4.35C66.2,194.29,65.78,193.29,65.09,193.63Z"/><path class="cls-10" d="M61.25,195.74c-1.65.8-3.78,1.8-4.8,3.39-.48.75.36,1.89,1.22,1.4a12.74,12.74,0,0,0,2.15-1.81c.7-.65,1.4-1.28,2.15-1.87A.67.67,0,0,0,61.25,195.74Z"/><path class="cls-10" d="M62.77,207.76c-1-1.33-2.81-2-4.06-3a4.57,4.57,0,0,1-1.25-1.27,3.18,3.18,0,0,1,.83-3.64c.72-.62-.2-1.6-.94-1.09-4.59,3.2.39,10.22,4.95,10A.58.58,0,0,0,62.77,207.76Z"/><path class="cls-10" d="M71.46,211.26a7.49,7.49,0,0,0-3.71-1.54.29.29,0,0,0-.11-.36v0a8.36,8.36,0,0,0-3.2-1.36A13,13,0,0,0,61,207.1a.5.5,0,0,0-.41.82,7,7,0,0,0,4.58,2.17s0,0,0,0c1.66.82,4.26,1.94,6.1,1.51C71.48,211.62,71.6,211.39,71.46,211.26Z"/><path class="cls-10" d="M64,210.31c-1.2-.48-2.42-.9-3.64-1.33l-.19-.1a1.89,1.89,0,0,0-.34-.09l-1.15-.42a.41.41,0,0,0-.33-.6,1.14,1.14,0,0,0-1.21,1.38,1.82,1.82,0,0,0,.79,1.11,6.29,6.29,0,0,0,1,.33,6.59,6.59,0,0,0,1,.75,1,1,0,0,0,1.59-.94,15.16,15.16,0,0,0,2.38.41C64.17,210.84,64.23,210.42,64,210.31Z"/><path class="cls-10" d="M98.8,200.32a23.57,23.57,0,0,1-4-1.61,14.91,14.91,0,0,1-3.07-1.66,4.9,4.9,0,0,0-.4-2.77.8.8,0,0,0-1.37-.1,6,6,0,0,0-.61,3.29c0,.06,0,.11,0,.16a2.42,2.42,0,0,0,0,1.6,4.57,4.57,0,0,0,2.7,2.59,6.92,6.92,0,0,0,6.93-.89A.36.36,0,0,0,98.8,200.32Z"/><path class="cls-10" d="M104.25,187.16a.67.67,0,0,0-1.23.07,22.26,22.26,0,0,0-.68,6.08,27.8,27.8,0,0,1-.1,3c-.13,1.25-.68,1.64-1.49,2.47a1.1,1.1,0,0,0,.11,1.73c2.26,1.46,4.2-.94,4.7-3A15.28,15.28,0,0,0,104.25,187.16Z"/><path class="cls-10" d="M93.2,176.31c-.13-1.09-1.66-1.05-2-.14a21.65,21.65,0,0,0-.49,2.15c-.19.71-.36,1.43-.58,2.14-.31.95,1.07,1.7,1.61.79A8.37,8.37,0,0,0,93.2,176.31Z"/><path class="cls-10" d="M93.61,176.05a1.21,1.21,0,0,0-2.42-.17c-.29,3.52-.56,7-.84,10.56a1.23,1.23,0,0,0,2.46.18c.21-2.82.43-5.64.64-8.46C93.54,177.47,93.58,176.77,93.61,176.05Z"/><path class="cls-10" d="M91.17,183.15c-.28-2.53-.38-5.72-1.7-8a.6.6,0,0,0-1.1.06c-.88,2.54-.3,5.81-.06,8.43C88.48,185.55,91.37,185,91.17,183.15Z"/><path class="cls-10" d="M90.14,181.23a23.5,23.5,0,0,0-.62-5.22,1,1,0,0,0-1.9.12,44.61,44.61,0,0,0-.05,5.3,18.9,18.9,0,0,0,.21,4.7,1.11,1.11,0,0,0,2.13.31A14,14,0,0,0,90.14,181.23Z"/><path class="cls-10" d="M89.39,176.7v0c-.08-.92-1.34-.81-1.64-.11-.8,1.88-.62,4.38-.65,6.4,0,1.65-.24,3.42.6,4.85a.54.54,0,0,0,.11.18.25.25,0,0,0,0,.07v0a.69.69,0,0,0,1-.05c1.15-1.52.87-3.85.88-5.67A17.67,17.67,0,0,0,89.39,176.7Z"/><path class="cls-10" d="M89.89,195.93a53.36,53.36,0,0,1-1-6.08,21.29,21.29,0,0,0,0-8.92.52.52,0,0,0-1-.06h0a21,21,0,0,0-.62,10.31.64.64,0,0,0,.1.22,13.68,13.68,0,0,0,1.37,4.9A.59.59,0,0,0,89.89,195.93Z"/><path class="cls-10" d="M105.64,175.61a.7.7,0,0,0-.45-.55c0-.27,0-.54-.08-.81-.11-.91-1.06-.95-1.6-.47a.82.82,0,0,0-1.42.52l-.06,1.17c-.49-.16-1.14.08-1.1.69.16,2.76.15,5.51.32,8.26,0,.36,0,.72,0,1.08a.61.61,0,0,0-.23.42,35.89,35.89,0,0,0-.41,7,.65.65,0,0,0,0,.14v.06h0a.61.61,0,0,0,1.2-.07c.06-.28.09-.57.13-.86a.58.58,0,0,0,.35-.51c.17-2.19.28-4.39.33-6.58v0a1,1,0,0,0,.85-.44,1.43,1.43,0,0,0,2.63-.73A40.5,40.5,0,0,0,105.64,175.61Z"/><path class="cls-10" d="M103.41,189.73c.06-1.43.11-2.86.09-4.3a.44.44,0,0,0-.86-.17,23.23,23.23,0,0,0-1,4.93.27.27,0,0,0-.47.16c-.06,1.38-.11,2.75-.12,4.12a38.43,38.43,0,0,1-.71,4.72.71.71,0,0,0,1.34.46c.29-.75.55-1.52.78-2.29a.84.84,0,0,0,.84-.84q.21-3,.39-6.05A1,1,0,0,0,103.41,189.73Z"/><path class="cls-10" d="M100.67,175a2.67,2.67,0,0,0-4.33-1.51c-1.45,1.39-2.22,4.25-.48,5.76,0,0,.3.24.53.4.07.19.14.38.2.58a6,6,0,0,0,.78,1.63.42.42,0,0,0,.7-.14,13,13,0,0,0,.3-1.38c.06-.31.14-.55,0-.57a2.78,2.78,0,0,0,.76-.29A4.51,4.51,0,0,0,100.67,175Z"/><path class="cls-10" d="M83,188.6c-3.36-1.13-6.79-.27-9.88,1.31A9.2,9.2,0,0,1,71,191a15.74,15.74,0,0,1-2.2-.29c-.12,0-3.44,1-3,1.31-.42-.32-1,.23-.77.68l.21.42a.67.67,0,0,0,.7.35c2.44-.25,4.61,1.63,6.85.18,1.37-.89,2.39-2.1,4-2.78A33.82,33.82,0,0,1,83,189.39.41.41,0,0,0,83,188.6Z"/><path class="cls-10" d="M88,188.79a57.85,57.85,0,0,0-8.53.1.65.65,0,0,0-.09,1.3c2.54.5,7.2,2,9-.66A.48.48,0,0,0,88,188.79Z"/><path class="cls-10" d="M122.67,190.53c-1.89-2.3-4.65-.88-7.1-1.27-3.11-.49-5.3-2.44-8.65-1.38-.64.2-1,1.3-.11,1.49a38.45,38.45,0,0,1,4.41,1c1.21.41,2.41,1.47,3.73,1.58,1,.08,1.86-.53,2.82-.74,1.56-.34,3,.28,4.62.17C122.79,191.32,122.89,190.79,122.67,190.53Z"/><path class="cls-10" d="M43.44,28.13c-.28-2.31-3.06-4.6-4.55-6.23a1.68,1.68,0,0,0-2.16-.39,2.17,2.17,0,0,0-2.13.62A1.9,1.9,0,0,0,34.22,24a2.27,2.27,0,0,0-.29.4,2.63,2.63,0,0,0-1.3,1.68,2.32,2.32,0,0,0-.07,2.72,2.49,2.49,0,0,0,.55.9c.43.54.87,1.07,1.28,1.62a2.23,2.23,0,0,0,1.87.88A2.13,2.13,0,0,0,39,31.83a2.56,2.56,0,0,0,1.86-1.92l0,0a1.71,1.71,0,0,0,1.6-.58A1,1,0,0,0,43.44,28.13Z"/><path class="cls-10" d="M164.5,124.47c-1.2-1.52-3.25-2.09-4.62-3.45a2.33,2.33,0,0,0-3-.4,2.6,2.6,0,0,0-1.07,1.75,2.39,2.39,0,0,0-.89,1,2.73,2.73,0,0,0-.66.56,2.25,2.25,0,0,0-.36,3.93c1.16.77,2.24,1.64,3.39,2.41a7.51,7.51,0,0,0,1.61.85c.49.17,1,.07,1.47.22a.66.66,0,0,0,.85-.74,6.81,6.81,0,0,1,0-1,23,23,0,0,1,.86-1.72,4.41,4.41,0,0,0,.73,0A2.1,2.1,0,0,0,164.5,124.47Z"/><path class="cls-10" d="M19.76,21.41a21.4,21.4,0,0,1-2.08-1.95,6.52,6.52,0,0,1-.91-2.12,2.43,2.43,0,0,0-4.78.9c.27,2.81,3.3,6.28,6.27,6.17C19.69,24.36,21,22.64,19.76,21.41Z"/><path class="cls-10" d="M18,9.33a7.9,7.9,0,0,0-4.19,3.88c-.69,1.3-1.48,3.22-.68,4.63a.38.38,0,0,0,.48.17c1.21-.46,2.07-1.77,2.94-2.67A24.14,24.14,0,0,0,19.78,12C20.5,10.85,19.53,8.86,18,9.33Z"/><path class="cls-10" d="M23.21,5.24c-2.36.65-4.46,2.93-6.08,4.69-1.4,1.53-3.59,3.8-3.63,6a.61.61,0,0,0,.71.63c2-.39,3.83-2.47,5.34-3.73,1.72-1.44,4.29-3,5.44-4.9h0C25.65,6.75,24.85,4.8,23.21,5.24Z"/><path class="cls-10" d="M34.19,8.06c-.28-.34-.58-.66-.9-1-1.78-2-4.12-5.17-6.6-5.19-1.92,0-3.59,1.71-5,3.6A23.7,23.7,0,0,0,14.1,16.31a4.11,4.11,0,0,0-1,1.93,2.56,2.56,0,0,0,1.11,2.38c.38.28,2,.95,2.44.56.31.27.63.54,1,.81a2.06,2.06,0,0,0,3.14-2.08,3,3,0,0,0-2.3-2.47,4.83,4.83,0,0,0-.7-.05l-.37-.13A11.9,11.9,0,0,0,19,15.34c1.73-2.05,3.66-3.91,5.41-5.94.29-.33.6-.8.94-1.23a3.7,3.7,0,0,1,1.83.15c1.56.5,2.91,2,4.3,2.8C33.39,12.25,35.93,9.76,34.19,8.06Z"/><path class="cls-10" d="M19,6.66c-1.13,1-2.06,2.21-3.27,3.19a11.87,11.87,0,0,0-3.25,3.41,6.36,6.36,0,0,0-.4.93,1,1,0,0,0-.49.64A7.58,7.58,0,0,0,11.73,19a.43.43,0,0,0,.85,0,.5.5,0,0,1,0-.12,3.53,3.53,0,0,0,1.1.9c.74.4,2.05.08,2-1a6,6,0,0,0-.81-2.86c.31-1.49,2.11-2.73,3.3-3.64a7.91,7.91,0,0,0,3.1-3.65C22.08,7.34,20.25,5.44,19,6.66Z"/><path class="cls-10" d="M28.81,1C26.67,0,24.37,1.21,22.37,3a1.43,1.43,0,0,0-1.11.25C17.62,5.71,15,9.86,12.69,13.51c-.39.62.46,1.47,1,.89C15.07,13,16.56,11.66,18,10.32a.86.86,0,0,0,.89-.12v0c1.61-1.1,3.07-2.35,4.56-3.6.66-.55,1.29-1.17,2-1.65,1.17-.79,1.29-1.1,2.3-.16,1.44,1.35,1.36,3.11,3.77,3.28a1.39,1.39,0,0,0,1.27-.62C33.94,5.71,30.31,1.61,28.81,1Z"/><path class="cls-10" d="M175.48,143a9.45,9.45,0,0,0-5.89-3.47,3.89,3.89,0,0,0-3,.57c-.45.32-1.21,1-.85,1.68.66,1.17,1.82,1.58,3,2.15a8.17,8.17,0,0,1,2.95,2.39C173.63,148.89,177.59,145.5,175.48,143Z"/><path class="cls-10" d="M178.58,140.83c-1.43,1.29-2.17,2.47-4.32,2.46a26.75,26.75,0,0,1-6-1.23.68.68,0,0,0-.87.76c1,6,12.72,6.11,13.87,0C181.62,140.82,180.2,139.37,178.58,140.83Z"/><path class="cls-10" d="M185.73,135.3a4.69,4.69,0,0,0-1.47-3.14,3.5,3.5,0,0,0-.79-.53A5.88,5.88,0,0,0,181.2,130a8.58,8.58,0,0,0-1.94-1.71,1.74,1.74,0,0,0-2.64,1.75c0,.16.08.31.13.45a1.72,1.72,0,0,0,1.54,2.12l.09,0c.6.4,1.31.74,2.06,1.27a2.71,2.71,0,0,1,.27,1.61,16.43,16.43,0,0,0-3.27,5.53,31.94,31.94,0,0,0-2.31,4.74c-.3.76.73,1.12,1.19.58l1.3-1.5a.83.83,0,0,0,.8-.38h0a17.15,17.15,0,0,0,1.25-1.66,2.81,2.81,0,0,0,0,.29c0,.55.7,1.09,1.19.59C183.1,141.45,186,138.78,185.73,135.3Z"/><path class="cls-10" d="M174.4,146.74a13.18,13.18,0,0,0-3.64-3c-1.25-.84-2.41-1.71-4-1.53a1.37,1.37,0,0,0-1.08,1.58c.36,1.55,1.66,2.38,2.86,3.28a13.13,13.13,0,0,0,4,2.4A1.73,1.73,0,0,0,174.4,146.74Z"/><path class="cls-10" d="M183.05,140.1c-.57-1.06-2.09-.47-2.83,0-2.31,1.47-4.79,9.65-8.13,5.34a.61.61,0,0,0-1,.06c-1.29,2.42,1.37,4.38,3.67,4.09,3.85-.5,5-4.66,7.18-7.17C182.48,141.85,183.53,141,183.05,140.1Z"/><path class="cls-10" d="M180,126.28a1.58,1.58,0,0,0-1.31-.89,1.55,1.55,0,0,0-.79.15,1.6,1.6,0,0,0-.74,2.1A7.66,7.66,0,0,0,179,130c1.67,1.48,2.88,1.52,3.28,4,.66,4.05-4.37,8.05-5.3,12.21a.5.5,0,0,0,.79.54c2.52-1.84,4.21-4.55,5.92-7.12,1.09-1.64,2.45-3.38,2.48-5.44C186.26,129.91,181.61,129.49,180,126.28Z"/><path class="cls-10" d="M22.36,13.14a5.5,5.5,0,0,0-.86-.81,2.19,2.19,0,0,0-1-.51,1.89,1.89,0,0,0-.67,0c-.17,0-.38.19-.53.17a.7.7,0,0,0-.55,1.17,2.59,2.59,0,0,0,1,1.7c-.12-.11,0,0,.08.06a3.52,3.52,0,0,0,.51.43,1.9,1.9,0,0,0,1.39.26,1.28,1.28,0,0,0,1-1.16A2,2,0,0,0,22.36,13.14Z"/><path class="cls-10" d="M24.62,8.39,24.26,8a5,5,0,0,0-.42-.38c-.1-.07-.07,0,0,0l0,0c-.4-.38-.77-.89-1.41-.76-.89.19-1.09,1.08-1,1.85a2.72,2.72,0,0,0,1,1.78,3.89,3.89,0,0,0,1.68.91,4.15,4.15,0,0,0,1.75.12.68.68,0,0,0,.53-.78A5.31,5.31,0,0,0,24.62,8.39Z"/><path class="cls-10" d="M179.85,140.67a3.43,3.43,0,0,0-.5-.43,4,4,0,0,0-.36-.17l-.14-.1h0a2.37,2.37,0,0,0-.34-.29,1.5,1.5,0,0,0-.79-.27,1.08,1.08,0,0,0-1,.69,1.7,1.7,0,0,0,.85,1.95,2,2,0,0,0,2,.3A1.06,1.06,0,0,0,179.85,140.67Z"/><path class="cls-10" d="M87.39,166.56c-1.79-1.19-4.26-1.44-6.34-1.64a25.32,25.32,0,0,1-7-1.3c-.54-.21-.93.39-.76.85.76,2,4.28,2.95,6.16,3.37,2.43.56,5.73.7,7.92-.71A.34.34,0,0,0,87.39,166.56Z"/><path class="cls-10" d="M138.09,156.54c-5.58,1.92-10.9,4.26-16.57,6-2.38.73-4.71,1.72-7.15,2.25-2.92.62-5.93.64-8.85,1.23a.59.59,0,0,0,.06,1.16c5.51.89,12.72-.18,18-1.89a46.63,46.63,0,0,0,15.06-8C139.05,157,138.57,156.37,138.09,156.54Z"/><path class="cls-10" d="M162.51,138.09c-3,.39-5.06,2.82-7.26,4.66-1.13.93-2.33,1.77-3.44,2.73-1.4,1.21-2.42,2.78-4,3.75a.31.31,0,0,0,.11.59c3,.23,5-1.53,7.27-3.22,2.75-2.06,6.4-4.34,8-7.45A.7.7,0,0,0,162.51,138.09Z"/><path class="cls-10" d="M9.37,86.75c-.4-4-.28-8.1-1.12-12.09-.08-.38-.74-.5-.83-.06-1.51,7.33-.91,15.59,2.68,22.24a.4.4,0,0,0,.75-.15C10.93,93.32,9.69,90.11,9.37,86.75Z"/><path class="cls-10" d="M13.43,43.86A82,82,0,0,0,9.35,57.33C8.65,60.42,7.41,64,8.6,67a.36.36,0,0,0,.62,0c2-3.08,2.19-7.6,3.19-11.16a42.39,42.39,0,0,0,2.12-11.8A.57.57,0,0,0,13.43,43.86Z"/><path class="cls-10" d="M111.35,200.17c-1.64,1.3-3.4,3.08-5.38,3.83-1.16.44-2.77.54-4,.9a17.33,17.33,0,0,1-7.55.42c-4.82-.73-10.72-3.2-9.33-9a1,1,0,0,0-1.6-1.07c-3,2-4,5.28-1.77,8.33s6.2,3.86,9.56,4.51a23.24,23.24,0,0,0,11.06-.4c4.2-1.21,8.22-2.38,9.49-7.21A.29.29,0,0,0,111.35,200.17Z"/></g></g></svg>