<svg xmlns="http://www.w3.org/2000/svg" viewBox="0 0 199.07 234.05"><defs><style>.cls-1{fill:#fffb8f;}.cls-2{fill:#c78a50;}.cls-3{fill:#e8f8ff;}.cls-4{fill:#708791;}.cls-5{fill:#fffbeb;}.cls-6{fill:#b0a390;}.cls-7{fill:#2b2016;}</style></defs><g id="图层_2" data-name="图层 2"><g id="央铋_1" data-name="央铋 1"><path class="cls-1" d="M176.24,160c1.33-3.83,2.18-7.81,1-11.62-.91-3-4.69-4.25-7.43-3.88-5.08.67-6.34,5.93-8.52,10-.88,1.65-1.77,3.46-2.67,5.31-2.51-.8-5.3-.26-6.45,2.52-2.6,6.3-8.83,14.16-10.75,21.4-11.71,4.71-23.42,10.12-35.72,12.75a50.59,50.59,0,0,0-15.67-3.72c-6.82-2.65-13.92-5.55-20.33-5.72-4.37-7.33-15-13.51-23.46-16.66a19.31,19.31,0,0,0-2.75-6.06,8,8,0,0,0-1.5-1.52,9.12,9.12,0,0,0-1.41-1.45,16.67,16.67,0,0,0-.59-2.62,5.69,5.69,0,0,0-1.34-2,17.8,17.8,0,0,0-2-8.34,4.88,4.88,0,0,0-1.13-1.29c0-2.14,0-4.22-.08-6.16A7.85,7.85,0,0,0,33,136.19q.54-2.85,1-5.7a6.22,6.22,0,0,0-.7-4c.13-.56.26-1.11.38-1.66,5.07-7.16,8.84-17.21,12.25-26,.55-1.32,1.08-2.61,1.6-3.88a71.84,71.84,0,0,0,10.29-8.22A146.93,146.93,0,0,0,72.36,74.85c2.78-2.65,1.23-6.71-1.57-8.37-.21-2.46-2.14-5.24-4.34-6C65,57.77,62,56,59.21,58.37c-3.29,2.82-6.4,6-9.52,9.15a4,4,0,0,0-4.44,1.63C43.82,71,42.41,72.93,41,74.83a61.5,61.5,0,0,1-8.2,7.84c-1.3-.56-2.69-.31-3.83,1.5-4.73,7.51-11.77,18.1-12.53,27.13-2.12,4.86-3.28,9.8-1.86,14.88a6.73,6.73,0,0,0,.71,1.58c-1.15,4.09-2.28,8.2-3.56,12.31-.57,1.84.13,4.68,1.45,6.7a10.31,10.31,0,0,0,2.69,6.58,2.14,2.14,0,0,0-.13.19c-3.25,7.08,2.33,22.58,11,24.4,2,3.19,3.9,6,5.39,8.16-1.41,2.48-.19,7.19,2.84,9,.72.43,1.46.84,2.18,1.27A5.1,5.1,0,0,0,38.41,200c6.67,7.7,18.66,10,28.29,13.87a68.85,68.85,0,0,0,14.48,7.4C86,223,92,226.12,97.07,226.38c9.13.45,20.48-4.64,29.79-5.89a5.67,5.67,0,0,0,1.45-.38c1.49,2.93,5.92,4.65,9.07,2.68,7.11-4.44,13.29-10.75,19.07-17.53a5.06,5.06,0,0,0,2.49-1c10.45-8.08,19.65-24.22,23.65-36.52C183.78,164.08,179.81,160.16,176.24,160Z"/><path class="cls-1" d="M188.53,116.56a6.15,6.15,0,0,0-4.1-3.48,20.77,20.77,0,0,0-3.31-10.79,26.84,26.84,0,0,0-2.6-5.45,6.48,6.48,0,0,0-.48-.62c-1.48-2.66-4.22-5.48-7.58-8.22a7,7,0,0,0-1.37-2.1c.15-1,.31-2,.48-2.84.83-4.09-4-8.27-7.4-7.59A6.46,6.46,0,0,0,160.92,73c-4.84-6-9.47-7.58-16.25-10.94a17.68,17.68,0,0,1-4.15-3c-.69-2.53-2.49-5-5.1-5.43l-1.83-.4a12.94,12.94,0,0,0-1.64-.74,4.34,4.34,0,0,0-3.85.16c-.24-.18-.45-.39-.71-.56-3.66-2.57-6.53-.31-7.16,2.85a146.14,146.14,0,0,0-21-3.9,35,35,0,0,0-5.84-.22,4.12,4.12,0,0,0-3.88-2.37C83.54,48.8,77.29,52.25,72,56c-3.94,1.13-7.57,2.8-9.77,6.92a6.69,6.69,0,0,0,2.21,8.65l-.23.2c-3.2,3.21-1.5,10,3,11,6.21,1.32,12.62-1.56,19.13-4a135.14,135.14,0,0,0,19.83-2.34A3.77,3.77,0,0,0,109,74.07l.35,0c5.87,1.59,11.41,4.66,17.25,5.73A95.67,95.67,0,0,1,136,84.7c5.25,4,12.06,10.78,17.12,16.15a10.11,10.11,0,0,0,.16,2.36,6.89,6.89,0,0,0,2.9,4c0,.43-.05.87-.09,1.3-.18,2.17,1.49,4.22,3.55,5.36-.22,5.46.24,11.34,3.32,15.7.06,1.28.12,2.54.21,3.74.06.92.19,2,.33,3.06-5.37,4.91-3.3,16.08.66,21.46,1.17,1.58,4.31,3.25,6.69,2.87.06,1.18.11,2.37.25,3.54,0,.06,0,.11.05.17a3.39,3.39,0,0,1-1.14,1.29c-3.76,2.26,1.53,7.41,4.8,5.73A9.46,9.46,0,0,0,177.7,169a3.35,3.35,0,0,0,2.22-1.25,26.7,26.7,0,0,0,3.32-5.74,4.38,4.38,0,0,0,2.44-1.83C192.22,149.94,192.86,127.6,188.53,116.56Z"/><path class="cls-2" d="M116.69,66.89c-15.53-3.68-36.07-.67-50.43,6.18C53.45,79.18,37.48,96.8,36.69,111.71c-.16,2.87,4.6,5.57,5.33,1.92,5.88-29.44,47.25-43.45,73.51-37.44,10.32,2.36,20.09,6.89,27.12,14.66,11,12.21,13.55,24.49,20.78,38.58.4.77,2,.92,2.06-.16C167.28,98.37,146.32,73.91,116.69,66.89Z"/><path class="cls-2" d="M191.09,117.7c-.42-2.27-4.6-2.7-5.32-.43-3.43,11-4,22.39-7.69,33.35-3.83,11.49-9,22.9-16.14,32.69-11.52,15.77-31.1,25.06-49.94,27.28-10.85,1.28-26.83-1.36-37.44-3.94C66,204.55,56.35,199.31,49.37,194c-7.82-6-15.38-17.11-20-26.07-3.61-7-9.87-17.09-11.62-24.81-.49-2.16-2.92-4.11-5-2.44l-1,.56c-1.43.69-.86,2.4.13,3.27.19,7.88,7.82,21.26,10.3,26.44C27.84,182.71,35,193.68,45.5,201.49c17.9,13.37,38,17.89,59.9,19.17,21.51,1.25,48.1-10.49,61.62-26.72C182.89,174.88,195.67,142.78,191.09,117.7Z"/><path class="cls-2" d="M135.54,208.36c-7.72.64-15,3.4-22.61,4.36-9,1.13-19.33.39-28.25-.19-7.45-.48-28.23-1-33-7.87a1.17,1.17,0,0,0-2.1,1c4.29,10.38,18.5,13.22,28.61,14.53,20.29,2.65,41.86,2.87,59.45-8.64C139.6,210.28,137,208.24,135.54,208.36Z"/><path class="cls-3" d="M54.28,46.58c-.51,0-1,.12-1.47.18,1.74-3.52-3.67-7-6.58-4.24-2.66,2.54-5.57,4.86-8.36,7.28-.8.65-1.58,1.31-2.31,2C33.06,54,30,56.38,30.25,59.94a2.13,2.13,0,0,0,3.21,1.62,5.47,5.47,0,0,0,6.35,2.38c3.59-1.3,6-5.15,9.3-7.14s6-3.41,7.56-6.93A2.49,2.49,0,0,0,54.28,46.58Z"/><path class="cls-3" d="M142.66,21.18a11.37,11.37,0,0,0-2.15-1.33,7,7,0,0,0-5.3-3.58c-3-.12-6.06-.33-9.1-.53a5.25,5.25,0,0,0-3.64-2.48c-3.75-.65-9.09-1.17-12.22,1.54a5.9,5.9,0,0,0-1.45-.06,5.84,5.84,0,0,0-6.35-1.14c-2-2.18-5.35-3.37-7.35-1A5.29,5.29,0,0,0,90.88,12c-1.39-1.45-3.52-2.33-5.23-1.56l-.29.17a3.31,3.31,0,0,0-3.21,1.56c-2.07,3.35-3.75,6.88-5.87,10.18a1.86,1.86,0,0,0,.27,2.36,4.86,4.86,0,0,0,3.14,4.15A6.52,6.52,0,0,0,84,32.12a6.58,6.58,0,0,0,5.65,3.14,6.33,6.33,0,0,0,5.59,3.09,5.58,5.58,0,0,0,2.6,2.25c-.37,4.32,6.09,7.63,9.39,4.8.14-.13.28-.31.42-.45a13.51,13.51,0,0,0,1.55.62c6.22,2.1,13-2.93,15.44-8.49,7.32,1.86,17.5-3.32,19.92-9.85A5.28,5.28,0,0,0,142.66,21.18Z"/><path class="cls-3" d="M179.53,65.6c-.16-4.23-.31-8.78-2.73-12.39a2.5,2.5,0,0,0-3.91-.32,10.4,10.4,0,0,0-1.79,2.65,4.83,4.83,0,0,0-2.27,0,14.43,14.43,0,0,0-1.51-1.71c-1.82-1.66-5-1.32-6.72.18A9.41,9.41,0,0,0,159,56c-2,1.84-3.86,4.65-2.36,7a2.91,2.91,0,0,0,.85.86,4.9,4.9,0,0,0,4.11,1.8,5.09,5.09,0,0,0,1,2.3,5.36,5.36,0,0,0,2.47,1.7,4.71,4.71,0,0,0,2.64,3.09c1.68,3.06,6.59,4.59,8.66,1,.42-.73.7-1.53,1.11-2.28l-.51.27,1-.61C179.39,69.59,179.6,67.62,179.53,65.6Z"/><path class="cls-4" d="M44.57,43.92c-3,2.24-4,6.68-5.37,10-.79,1.93-1.64,3.77-2.36,5.72C36.34,61,35,65.26,34,66.21c-1.51,1.47,1,3.63,2.57,2.83,3.4-1.73,4.26-6.9,5.64-10.2a45.84,45.84,0,0,0,2.2-6.32c.61-2.38.82-5.36,1.73-7.61C46.44,44.09,45.18,43.47,44.57,43.92Z"/><path class="cls-4" d="M56.85,42.17a1.23,1.23,0,0,0-1.93-.79c-1.48,1.56-2.68,2.17-3.71,4.12s-1.54,3.9-2.34,5.82c-.38.92-1.07,6.4-1.7,6.6a1.15,1.15,0,0,0-.07,2.18c3.21,1.6,4.53-2.21,5.31-4.62C53.81,51.15,57,46.87,56.85,42.17Z"/><path class="cls-4" d="M169,57.66a2,2,0,0,0-.79-.17c-2.72,0-3.32,2.15-4.6,4.09-.7,1.08-1.47,2.06-2.11,3.17a11.7,11.7,0,0,1-1.4,2.47,1.17,1.17,0,0,0,.3,1.93,2.22,2.22,0,0,0,.31.1c-.55,1.63,2.25,3.16,3.59,2a11.24,11.24,0,0,0,1.25-1.33s.06,0,.11,0c2.21.27,3.34-2.88,4.22-4.34,1.18-2,2.71-3.6,2.81-6C172.75,58,170.35,56.88,169,57.66Z"/><path class="cls-4" d="M179,62c-2.38.42-3.69,2.18-4.64,4.29-1.35,3-2.23,6.08-3.92,8.92-.85,1.44,1.68,2.87,2.67,1.69a33.27,33.27,0,0,0,4.65-7.49c.89-1.89,2.47-3.9,2.78-6A1.29,1.29,0,0,0,179,62Z"/><path class="cls-4" d="M100.2,8.17c-1.63-.12-3.29,1.16-4.79,2.75a2,2,0,0,0-2,.28c-5.53,4.92-9.55,11.3-15.09,16.29a1.71,1.71,0,0,0,0,2.49c-.18.35-.4.68-.54,1-.69,1.69,1.54,2.85,2.84,1.92,4.3-3.08,7.81-7.19,11.37-11.08,2-2.19,4-4.41,5.86-6.69a18.78,18.78,0,0,1,2.64-3,1.17,1.17,0,0,0,1-.28l.73-.68C103.61,9.87,101.43,8.26,100.2,8.17Z"/><path class="cls-4" d="M127.26,9c-2,1.41-3.83,2.69-5.62,4.08A3.4,3.4,0,0,0,118,11.47a7,7,0,0,0-2.31,1.27c-4-.48-5.86,2.75-8.4,5.44-2.32,2.45-4.54,5-6.93,7.35-.63.64-3.74,4.72-4.74,4.78-3.18.21-2.4,4.14.28,4.38a3,3,0,0,0,3.35.69A30.74,30.74,0,0,0,103.89,32a3.75,3.75,0,0,0,3.07.8c4.71-1.29,8.69-6.14,12.23-9.29,2.71-2.41,5.2-5.09,8-7.44,1.54-1.31,3.26-2.23,4-4.19S129.05,7.69,127.26,9Z"/><path class="cls-4" d="M140.1,22.12a8.7,8.7,0,0,0-1.1.44c.31-.41.64-.82.93-1.25,2.09-3-3-6.14-5.18-3.54s-4.48,4.9-6.65,7.41A55.67,55.67,0,0,1,119.78,33c-2.59,2,1.15,5.42,3.49,3.81,1.41-1,2.79-2,4.15-3.13a3.31,3.31,0,0,0,.84.49c5.57,2.17,13.66-5,14.54-10.27C143,22.55,141.16,21.81,140.1,22.12Z"/><path class="cls-4" d="M119.84,30.61a1.77,1.77,0,0,0-2.37-.77c-2.43,1.41-3.25,3.95-4.82,6.16A45.07,45.07,0,0,1,106,43c-2.07,1.91,1.34,4.63,3.25,3.06,2.88-2.38,6.08-4.75,8.19-7.89C118.76,36.17,120.67,33,119.84,30.61Z"/><path class="cls-5" d="M141.77,100.09a55.54,55.54,0,0,0-9.53-7.4c.56-3.28-2-7.36-5.61-7.67-7.35-.63-14.93-1.26-21.81-4-1.31-2.24-3.55-3.73-6.17-2.63a30.09,30.09,0,0,0-5,2.76,6.36,6.36,0,0,0-3.33.09c-7.54.57-13.23,3.7-18.17,8a4.92,4.92,0,0,0-4.57.8c-1.34,1-2.63,2.12-3.91,3.25a4.11,4.11,0,0,0-3.86,2.11c-1.12,1.8-2.29,3.48-3.53,5.11-2.24,2.4-4.44,4.84-6.56,7.22a5.23,5.23,0,0,0-.79,5.56,40.32,40.32,0,0,0-5.11,14.29,31.84,31.84,0,0,0,.79,10.92,3.85,3.85,0,0,0-.39.55c-4.69,9.57,6.15,25.05,11.41,32.85,5.15,7.61,9.83,11.5,19,13.35,25.29,5.13,54.23,9.19,72-14.29C161.86,150.81,160.42,118.25,141.77,100.09Zm3.8,41.7a11.53,11.53,0,0,0-2.94-.09,15.14,15.14,0,0,0,3-3.55C145.68,139.37,145.65,140.58,145.57,141.79Z"/><path class="cls-6" d="M160.84,126.15c-5.58-16.37-17.92-31.68-32.13-39.07a47.84,47.84,0,0,0-21-5.83c-3.38-2.6-9.41-2.3-13.92-1.94-10.8.86-22.9,3.32-28.94,12.83A51.63,51.63,0,0,0,58.24,96c-10.19,7.19-23.26,25.66-20,38.71.63,2.5,4.33,3.05,5.36.66,5.55-12.92,12.28-24.73,24.5-31.63a5.09,5.09,0,0,0,.66.12c5.37.28,7.44-2.69,12.68-4.78.65-.25,1.33-.45,2-.66,5.42-1.06,11.1-1.69,16.1-2.39,16.19-2.24,29.48,2.75,39.91,15.17,6.24,7.44,14.46,19.86,15,30.4,0,.83,0,1.68,0,2.5-.28,5.14,9.05,8,9.43,2.43A49.37,49.37,0,0,0,160.84,126.15Z"/><path class="cls-6" d="M154.19,115.53C141.43,100.59,115.73,89.31,96,89.78c-17.07.4-42.49,9.48-51.16,24.77-2,1.58,1,6.66,4.31,4.74,17.29-10,33.07-20.93,54.06-19.72,17.78,1,32.35,14,49,19C154.36,119.26,155.61,117.2,154.19,115.53Z"/><path class="cls-6" d="M128.73,176.05c-1.33-3-4-3.84-6.22-6.1-3.42-3.53-6.86-7.34-10.07-11.09-2.87-3.34-5.9-6.59-8.7-10-4.24-5.13-1.8-9.21,0-14.65.66-1.95-1.36-3.39-3-3.52-4.86-.35-8.26,3.91-9,8.46-1,6.27,3.65,11.65,7.5,16,5,5.64,9.94,11.15,15.16,16.61,3.7,3.86,6.7,7.24,12.49,7.25A2,2,0,0,0,128.73,176.05Z"/><path class="cls-6" d="M104.66,106.41c0-.9-1.64-1.33-1.68-.34q-.24,6-.49,12c0,1.11,2,1.57,2,.41Q104.57,112.45,104.66,106.41Z"/><path class="cls-6" d="M107.6,87.85c-.55-1.86-3.48-2.64-4.42-.68-3.38,7-3.17,16.73-3.6,24.37-.24,4.15-.47,8.32-.6,12.48-.06,1.79,1.07,8.87.27,10.3-.58,1,.44,2.06,1.22,2.51l.25.14a2.38,2.38,0,0,0,2.73-.39c4.42-4.36,3.24-14.6,3.65-20.34C107.77,107,110.27,96.87,107.6,87.85Z"/><path class="cls-6" d="M109.06,93.85h0c0-2.21-3.78-3.82-5.12-1.65-3.29,5.32-2.22,13.87-2.58,19.92-.57,9.41-2.18,19.67.41,28.84.26.89,2,1.39,2.42.4C110.52,127.43,107.66,108.89,109.06,93.85Z"/><path class="cls-7" d="M198.86,132.61a26,26,0,0,0,0-6.66,12.46,12.46,0,0,1-.52-2.49,25,25,0,0,0-.52-4.84c-.27-2.12,0-4.25-.61-6.42-.42-1.52-.6-3.14-1.15-4.66a4,4,0,0,1-.2-1.09,7.92,7.92,0,0,0-1.43-4.34,3.33,3.33,0,0,1-.59-1.75,4.4,4.4,0,0,0-.57-2,6.6,6.6,0,0,1-1.14-4.07,1.55,1.55,0,0,0-.29-1.06c-1.62-2.31-2.41-5.06-4-7.35a42.69,42.69,0,0,1-2.89-4.56c-.84-1.59-.86-2.54.38-3.68a13.67,13.67,0,0,0,3.32-4.53c.88-1.93,1.4-4,2.2-5.91a6.25,6.25,0,0,0-.09-4.56A8.64,8.64,0,0,0,188,58.77c-2.65-2.23-5.49-4.2-7.59-7.06a16.68,16.68,0,0,0-3.84-3.4c-1.27-.9-2.76-1.44-4-2.58a15,15,0,0,0-3.3-2c-1.52-.82-3.21-1.26-4.52-2.51a2.64,2.64,0,0,0-2.3-.43,3.89,3.89,0,0,1-2.36.22c-.27-.1-.47.07-.67.22-1.73,1.29-3.36,2.69-5.19,3.88a14.88,14.88,0,0,0-4.35,4,4.56,4.56,0,0,1-4.25,1.86,22.71,22.71,0,0,1-3-.23,3.22,3.22,0,0,1-2.52-4.72,5.4,5.4,0,0,1,3.54-3.28,2.13,2.13,0,0,0,1.43-1.12c1.35-2.93,4-5.08,5.07-8.16a1.72,1.72,0,0,1,.53-.76c1.7-1.3,1.88-3.3,2.4-5.13.93-3.3-.47-6.23-1.63-9.17a3.11,3.11,0,0,0-1-1.07,15.57,15.57,0,0,1-2.61-2.65c-1.07-1.43-2.79-2.34-3.35-4.19,0-.1-.16-.18-.25-.27a8.21,8.21,0,0,0-4.89-2.5,4.69,4.69,0,0,1-2.78-1.37,2.56,2.56,0,0,0-2-.74c-2.29-.1-4.58-.31-6.87-.48-2.77-.2-5.48-1-8.28-1-.31,0-.84.07-.9-.06-.56-1.27-1.39-.74-2.27-.48a3.38,3.38,0,0,1-1.09,0c-2.88-.36-5.75-.8-8.64-1.09-1.74-.18-3.56.5-5.21-.57A9.09,9.09,0,0,1,94.62,1a.7.7,0,0,0-.53,0c-1,.53-1.94-.07-2.9-.13C89,.68,86.9-.6,84.62.35c-.23.1-.6-.09-.88-.19s-.64-.22-.89,0c-.76.62-1.67.37-2.51.53C79.21.88,78,.57,77,1.52a.74.74,0,0,1-.71.15c-.88-.21-1.33.39-1.87.94A19.29,19.29,0,0,1,69.88,6.4a4.25,4.25,0,0,0-2,2.36,24,24,0,0,0-1.53,5A14.81,14.81,0,0,1,64,21a2.66,2.66,0,0,0,.24,3.58c.91,1,1.91,2.17,1.92,3.56a23.14,23.14,0,0,0,1.12,5.63c.7,2.73,1.65,5.2,4.38,6.53.49.24.39.8,0,.85-1.18.17-2.1,1-3.22,1.2a7.37,7.37,0,0,0-2.06.61c-.62.32-1.56,1-2.32-.05-1.19-1.66-2.58-3.2-3.61-4.95a20.8,20.8,0,0,0-4.26-5.06,3.54,3.54,0,0,0-3.09-.73A1.47,1.47,0,0,1,51.71,32c-1.41-1-1.84-.92-3.34.14C47,33,45.64,34,44.28,34.91a2.61,2.61,0,0,1-1.7.68,2,2,0,0,0-1.77.83,22.38,22.38,0,0,1-6.94,4.47,29.54,29.54,0,0,0-7.53,4.38c-.85.71-1.81,1.28-2.7,1.93-2.15,1.55-4,3.46-4,6.36a7.11,7.11,0,0,1-.57,3,2.54,2.54,0,0,0,.8,3.31c2.35,1.94,3.86,4.67,6.09,6.74a1,1,0,0,1,.32.45,4.32,4.32,0,0,0,2,2.6c.66.47.51.94-.21,1.23a5,5,0,0,0-2.22,1.92c-1.78,2.49-4,4.57-5.89,7-.24.31-.45.61-.89.56-2.17-.25-3.42,1.19-4.39,2.72a37.15,37.15,0,0,0-3.42,6.41,2.13,2.13,0,0,1-1.64,1.57A1.83,1.83,0,0,0,8,92.52c-.64,2.92-2.2,5.5-3,8.4-.68,2.55-2.13,4.89-2.78,7.49-.41,1.68-1.12,3.34-.33,5.1.24.52,0,.93-.35,1.35a4.67,4.67,0,0,0-1,2.77,35.78,35.78,0,0,0,0,4.27,48.17,48.17,0,0,1-.32,6.34c-.09,2.8-.7,5.66,0,8.38a30,30,0,0,1,.63,7.6c0,1.05-.09,2.11-.13,3.17A2.56,2.56,0,0,0,1.09,149c.9,1.29,1,2.81,1.25,4.27.77,4.14.94,8.42,2.84,12.3a2.52,2.52,0,0,1,.17.72A7.17,7.17,0,0,0,6.52,169c.9,1.65,2.13,3.21,2,5.29a1.82,1.82,0,0,0,.34,1,20.87,20.87,0,0,0,2.07,2.85A7.7,7.7,0,0,1,13,180.76a19.81,19.81,0,0,0,2.13,3.72,27.63,27.63,0,0,1,1.87,3,15.46,15.46,0,0,0,2.56,3.8c1.06,1.1,1.37,3.06,3.31,3.28.07,0,.15.19.18.31.42,1.76,2.33,2.6,2.69,4.41.07.35.52.3.75.47A29.06,29.06,0,0,1,32.22,205a6,6,0,0,0,2.19,2,2.07,2.07,0,0,1,.73.55A16,16,0,0,0,41,212.21c1.76.75,2.82,2.48,4.69,3,.44,1,1.54.57,2.25,1,1.78,1.05,3.43,2.36,5.52,2.8a1.54,1.54,0,0,1,.5.24c2.73,1.67,5.54,3.23,8.14,5.07.77.54,1.76.73,2.33,1.39a10.42,10.42,0,0,0,3.81,2.39c2.63,1.22,5.24,2.45,8,3.41,2.21.78,4.58,1,6.76,1.89a.66.66,0,0,0,.37,0,5.5,5.5,0,0,1,3.24.54c.3.15.68.28.81-.07.32-.93,1-.22,1.37-.36,2.25-.75,4.4.32,6.62.3,1.79,0,3.64,0,5.45.13s3.42-.48,5.15-.61c1.09-.08,2.4.86,3.34-.45,0,0,.23.06.34.11a4.93,4.93,0,0,0,1.83.16c1.71.12,3.46-.68,5.13.26a.76.76,0,0,0,.87-.18,1.4,1.4,0,0,1,1.71-.22,1.12,1.12,0,0,0,1.08-.16c1.44-1,3.16-1.17,4.75-1.72.69-.23,1.17.51,1.77.09,1.47-1.05,3.39-.84,4.93-1.8s3.38-.54,5-1.16a28.68,28.68,0,0,1,3.74-1.52c1.35-.29,2.6-1.11,4.07-1.09a.72.72,0,0,0,.63-.34c.6-.87,1.58-.8,2.44-1.09,1.3-.43,2.9-.11,3.87-1.45.11-.16.45-.15.68-.23,1.81-.6,3.66-1,5.14-2.41a8.11,8.11,0,0,1,3.66-2.37c.37-.09,1-.27,1-.75.07-1.38,1.16-1.57,2.09-2,.39-.18.88-.2,1.14-.6.67-1.07,1.94-1.44,2.67-2.55,1-1.46,2.82-2.21,3.61-3.91a1.12,1.12,0,0,1,.39-.39,11.73,11.73,0,0,0,3.51-3.47c2.68-3.87,5.33-7.76,7.86-11.73.61-1,1.29-1.92,1.82-2.94s1.12-2.36,1.67-3.54c1.71-3.65,3.58-7.24,4.13-11.32.08-.55.14-1.18.68-1.48.83-.46.85-1.27,1.12-2,.47-1.28.24-2.84,1.25-3.86a3.36,3.36,0,0,0,.93-2.31,16.48,16.48,0,0,1,.57-3.12,31.09,31.09,0,0,0,.78-8.54,6.14,6.14,0,0,1,.4-2.91,11.54,11.54,0,0,0,1.1-4.49c.41-3.25,1.09-6.5.51-9.83-.17-.95-.79-2.1.55-2.82C198.85,133.08,198.85,132.79,198.86,132.61Zm-40-72.7a9.81,9.81,0,0,0,1.88-2,1.9,1.9,0,0,0,.49-1c.06-.46-.24-1.11.45-1.27a4.8,4.8,0,0,1,2.11-.25c2,.36,2.75,1.74,3.47,3.26.35.73.63,1.35,1.62,1.16a1.35,1.35,0,0,1,1,.36c1.95,1.42,3.91,2.82,5.8,4.31a2.94,2.94,0,0,1,1,2.68A6.42,6.42,0,0,1,175,70.2a15.44,15.44,0,0,0-2.31,2.62c-.69.92-.81.87-1.74.08-1.56-1.33-2.85-3-4.4-4.28-2.42-2-4.37-4.59-7.16-6.17a3.29,3.29,0,0,1-.72-.57C157.89,61,157.86,60.54,158.82,59.91ZM133.31,16.82a4,4,0,0,1,1.63.34,5.48,5.48,0,0,0,3.95.57c0,1.39-.67,2.52-.67,3.78,0,2-.24,4.1-.35,6.15a8.46,8.46,0,0,1-1,3,.76.76,0,0,1-.77.44c-.36,0-.48-.33-.54-.66a2.42,2.42,0,0,0-.1-.36c-.52-1.72-.52-1.72-2.14-.71a1.11,1.11,0,0,1-.52-1.26c.19-1.62-.22-3.24.09-4.85a1.25,1.25,0,0,0-.11-1.09c-1.14-1.28-.61-2.83-.7-4.27C132,16.9,132.28,16.7,133.31,16.82ZM120.35,28c.81-2.37.66-4.79.92-7.19.13-1.24.16-2.49.37-3.72.26-1.52.67-1.72,2.18-1.26.17.05.41.24.48.19,1.25-1,2.69.1,4-.41.72-.29,1.3.14,2.26.37a5.88,5.88,0,0,0-1.76,3.82,27.43,27.43,0,0,1-.9,4.87,17.58,17.58,0,0,0-.51,5,5.15,5.15,0,0,1,0,1.11c-.31,1.41-.39,1.47-1.82,1a3.12,3.12,0,0,0-1.28-.16,10.52,10.52,0,0,1-1.12.07C120.77,31.63,119.59,30.28,120.35,28Zm-8.74-13a18.1,18.1,0,0,0,5.35.07c.64-.15,1.18.69.92,1.49-1,3-.81,6.14-1.83,9.11a14.26,14.26,0,0,0-.38,2.95c-.25,2.08-.36,2.17-2.38,2l-.59,0-.52-.13c-.63-.19-1.56.32-1.87-.46s-.84-1.88-.4-2.88c.54-1.2.2-2.45.33-3.67a40.84,40.84,0,0,0-.3-6.63C109.84,15.09,109.9,15,111.61,15.08ZM110,38a6.58,6.58,0,0,0,2,.13c1.08,0,1.5.41,1.59,1.38.15,1.59-.16,2.51-1.17,2.55-2.4.09-4.64,1.45-6.74.86l-1.11-.07c-2.43-.22-2.45-.22-1.75-2.48a3.55,3.55,0,0,0,0-1.45c-.07-.75.27-1.22,1.05-1.2C106,37.77,108,37.43,110,38ZM97.94,17.7c0-1.58.47-1.86,2.07-1.67a9.38,9.38,0,0,0,2.48,0,10.5,10.5,0,0,1,3.31.37c.76.1,1,.75.67,1.19-1.62,1.93-1,4.27-1.34,6.43-.2,1.29-.19,2.61-.3,3.91-.16,2.06-.35,2.19-2.26,1.64-1.35-.39-2.6-1.11-4.14-.7-.7.19-1.3-.36-1.24-1.24,0-.31.09-.62.17-1.13C97,23.69,98,20.73,97.94,17.7Zm-9.35-3.55c.81-.32,1.44.47,2,1a.31.31,0,0,0,.17.05c.46-.09.29-.66.76-.91a2.36,2.36,0,0,0,1.87,1.42c.86.05,1,.73.77,1.36A6.35,6.35,0,0,0,94,20.77a1.73,1.73,0,0,1-.12,1.1,17.67,17.67,0,0,0-1.35,5.19c-.17.9-.65,1.14-1.44,1a7.41,7.41,0,0,0-2.92-.43c-.42.07-.69-.24-.7-.68s0-1,0-1.48c.15-3,.29-6.08.46-9.12C88,15.53,87.72,14.48,88.59,14.15ZM80.83,20.3c.36-1.62.3-3.34,1.11-4.88.27-.51-.11-1.08-.21-1.62s-.16-1.15.5-1.41c.41-.16,1.59.71,1.67,1.2a7.88,7.88,0,0,1,0,1A4.91,4.91,0,0,1,83.69,16c-1.35,2.79-1.27,5.81-1.55,8.78a5.21,5.21,0,0,1-.08.55.59.59,0,0,1-.45.53c-.28,0-.42-.19-.53-.43A8.06,8.06,0,0,1,80.83,20.3Zm-45,32.83A46.33,46.33,0,0,0,39.63,50c1.26-1,2.88-1.48,3.82-2.87.1-.14.47-.17.7-.14a2.5,2.5,0,0,0,2.14-.92c1.08-1,1.57-.88,2.14.52a29.19,29.19,0,0,0,2,3.82c.35.58.53,1.25,1.31,1.48a.81.81,0,0,1,.53,1.06c-.16.49-.51,1-1,.86-.78-.28-1.11.28-1.61.57-1.28.74-2.36,1.82-3.88,2.13a1,1,0,0,0-.62.39c-1.19,2.11-3.37,3.22-5,4.92a12.35,12.35,0,0,0-1.33,1.55c-.38.58-.82.64-1.28-.07a41,41,0,0,0-3.44-5.23c-.45-.5-.33-1.18-.35-1.84A4,4,0,0,1,35.8,53.13Zm148.91,94.2c-.34,3-.92,6-1.48,9a100.76,100.76,0,0,1-3,10.81c-.81,2.68-1.81,5.3-2.64,8a15.5,15.5,0,0,1-.92,1.82c-1.59,3.5-3.3,6.94-6.28,9.55a7.09,7.09,0,0,0-1.17,1.44c-.35.53-.61,1.06-1.35,1.16s-.81.74-1.12,1.18a4.38,4.38,0,0,1-2.26,1.84,3.2,3.2,0,0,0-2.21,2.12,4.76,4.76,0,0,1-2.35,2.72,7.23,7.23,0,0,0-2.5,2.15c-.68,1.07-2,1.43-3,2.16-.39.28-.7.08-1-.2a2.78,2.78,0,0,0-1.28-.9,6.09,6.09,0,0,0-1.35,2.56,3.69,3.69,0,0,1-1.46,2.27c-2.35,2.24-5.19,3.7-8,5.28-1.18.68-2.59.89-3.56,2-.22.25-1,.85-1.27.31-.56-1.26-1.35-.31-2-.41-1.06-.16-1.16.72-1.43,1.39a1.69,1.69,0,0,1-1.64,1c-1.19.09-2,.52-2.13,1.88-.06.61-2.36,2-3,1.94a.78.78,0,0,1-.73-.72,3.46,3.46,0,0,0-.38-1.43c-.83-1.27-1.14-1.37-2.39-.49a13.94,13.94,0,0,1-5.31,2.27c-2.13.43-4.18,1.13-6.35,1.4a12.54,12.54,0,0,1-4.19.13,2.26,2.26,0,0,0-1.46.17,1.06,1.06,0,0,1-1.24-.05,1.07,1.07,0,0,0-1.5-.12c-.17.11-.48,0-.71,0a10.43,10.43,0,0,0-6.35.07c-.37.14-.72-.09-1.08-.16a2.93,2.93,0,0,0-2.34,0,1.62,1.62,0,0,1-1.28.05c-2.1-.87-4.42-.64-6.54-1.5a23.89,23.89,0,0,0-8.24-1.77c-1.59,0-2.92-.65-3.3-2.42-.1-.44-.43-.53-.77-.7-1.53-.81-3.25-1-4.85-1.63a28.22,28.22,0,0,1-6.64-3.25,6.26,6.26,0,0,0-1.33-.64c-1.84-.79-3.74-1.38-5.21-3a46.59,46.59,0,0,0-4.9-4.14,5.12,5.12,0,0,0-1.31-.69c-1.36-.52-1.49-.72-1.24-2.07.35-1.85.15-2.17-1.75-3-.4-.17-.81-.35-.9-.86s-.17-.82-.53-.94c-2-.68-2.87-2.69-4.63-3.63s-3-2.56-4.48-3.86c-1.65-1.48-3.51-2.77-4.69-4.75-.24-.41-.56-.79-.79-1.24a5.53,5.53,0,0,0-1-1.58c-2.21-2.11-3.32-4.89-4.63-7.55-.07-.15-.21-.41-.32-.41-1.24,0-1.41-1.21-1.79-1.88a15.12,15.12,0,0,1-2.41-7.32c0-2.06-.32-4.1-.31-6.16a6.83,6.83,0,0,0-.93-3,7.35,7.35,0,0,1-1-4.62,10.19,10.19,0,0,0-.25-3.14A47.42,47.42,0,0,1,16,132.29a74.63,74.63,0,0,0,.07-11.19,17.75,17.75,0,0,1,1.26-6.74,54,54,0,0,0,2.09-7.14,3.15,3.15,0,0,1,1.05-1.63c1.28-1.38,3.05-2.4,3.27-4.66a6.29,6.29,0,0,1,1.45-3.19c1.33-1.58,2-3.56,3.46-5.06a3.6,3.6,0,0,0,.59-1,18.14,18.14,0,0,1,3.64-5,3.2,3.2,0,0,0,.68-.89c.83-2,2.47-3.23,3.89-4.69a4.5,4.5,0,0,0,.74-.84c1.06-1.82,2.68-3.19,3.88-4.9,1.92-2.72,4.61-4.67,6.94-7a1.47,1.47,0,0,1,.48-.29,29.39,29.39,0,0,0,5.93-4c.1-.08.18-.22.28-.24C58,63.4,60,62,62.33,61.41a34.16,34.16,0,0,0,4.3-1.64c2.29-.93,3.87-3.1,6.43-3.52a12,12,0,0,1,1.43-.31A20.69,20.69,0,0,0,82,54.47c2.48-1.1,5.15-1.25,7.68-2.07a6.86,6.86,0,0,1,2.76-.11,20.27,20.27,0,0,1,6.32,1.6,2.77,2.77,0,0,0,1.44.24c2.61-.32,5.17.23,7.75.51a25.17,25.17,0,0,0,5.34.5c.42,0,.67.25,1,.37,1,.37,2,1.36,3.13.09.25-.29.33.14.47.31a3.44,3.44,0,0,0,2.88,1.4c.32,0,.63,0,.79-.3.34-.76.67-.88,1.06,0a.68.68,0,0,0,.6.38c2,.29,3.89,1.09,5.91,1.28a12.29,12.29,0,0,0,1.49.08,6.81,6.81,0,0,1,3.25.61c1.66.8,3.55,1,5.24,1.77.52.25,1.11.46,1.64.76a3.82,3.82,0,0,0,1.47.76,4.59,4.59,0,0,1,2.17,1,6.86,6.86,0,0,0,3.09,1.52c1.73.27,2.95,1.55,4.12,2.76.46.46.86.9,1.58.8.52-.07.72.36,1,.66a14.42,14.42,0,0,0,3.61,2.92,2.58,2.58,0,0,1,1.26,1.32,5,5,0,0,0,1.55,1.85,2.36,2.36,0,0,1,1,1.47,5.39,5.39,0,0,0,1.88,2.48A3.92,3.92,0,0,1,164.69,81c.29,1.43,1.37,2.15,2.28,3a34.18,34.18,0,0,1,4.63,6.38,6.69,6.69,0,0,0,2.3,2.6,1.75,1.75,0,0,1,.95,1.12,8.29,8.29,0,0,0,1.54,2.75,55.48,55.48,0,0,1,3.12,5.71,7.63,7.63,0,0,1,1.3,4.17,1.13,1.13,0,0,0,.2.71c1.83,2.45,1.82,5.51,2.6,8.29.5,1.8.21,3.84.26,5.77a1,1,0,0,1-.15.53c-1,1.31-1,2.77-.81,4.33.25,2.54-.22,5.11.36,7.64a2.62,2.62,0,0,1-.08,1.3,2.43,2.43,0,0,0,.31,2.3,2.45,2.45,0,0,1,.3,1.62c0,.69-.11,1.41.74,1.73.47.17.32.59.37.95A22.63,22.63,0,0,1,184.71,147.33Z"/><path class="cls-7" d="M165.41,141.26c-.13-3.48-.42-7-.64-10.44a65.71,65.71,0,0,0-.93-6.82c-.38-2.16-1.13-4.16-1.65-6.25-.31-1.25-1.28-2.16-1.44-3.4a14,14,0,0,0-1.12-3.12c-.65-1.76-1.76-3.31-2.33-5.07s-1.12-3.61-2.68-4.88c-1.77-1.45-2.92-3.5-4.83-4.88a8,8,0,0,1-3.41-4.32,7.35,7.35,0,0,0-2.25-3.54,7.15,7.15,0,0,1-1.71-2,10.24,10.24,0,0,0-4.54-4.79c-1.92-1-3.58-2.37-5.59-3.25-1.21-.53-2.86-1.12-2.36-3.19.11-.44-.5-.77-.9-.25a1.44,1.44,0,0,1-2.28.19,3,3,0,0,0-2.33-.31c-2,.16-2.61-.26-2.74-2.27,0-.32,0-.65-.39-.77s-.7.14-.87.5a4.21,4.21,0,0,0-.23.71c-.2.66-.57.78-1.1.33-1.07-.92-2.35-1.71-2.22-3.43,0-.29-.12-.7-.47-.69-.51,0-.48.48-.45.86,0,.19.06.37.07.56a.7.7,0,0,1-.2.68c-.35.23-.56-.06-.78-.28s-.41-.48-.69-.35a.46.46,0,0,0-.22.55c.09.34.35.75-.19.93a.69.69,0,0,1-.91-.44,19.58,19.58,0,0,0-1-2c-.2-.52-.35-1.14-1-1.22s-.65.62-.86,1a.33.33,0,0,1-.46.15c-.58-.26-.65.17-.66.54,0,.85-.53,1-1.25,1a11,11,0,0,1-2.42.06c-2.52-.6-4.94.09-7.34.53a56.6,56.6,0,0,1-7.89,1.26c-1.27,0-1.27.11-1.65-1.68A2.2,2.2,0,0,1,86,73.4a5.92,5.92,0,0,0-3,.5,19.55,19.55,0,0,1-3.59,1,11.94,11.94,0,0,0-5.13,1.82A1.55,1.55,0,0,1,73,76.9c-1.86-.39-3.25,1.41-5.1,1.09-.07,0-.17.17-.24.27-.56.75-1.44.89-2.23,1.24s-2.17.1-2.48,1.46c0,.13-.26.25-.42.31a17.81,17.81,0,0,0-6.79,4.59,21.07,21.07,0,0,1-2.11,2C51.5,89.68,49.35,91.51,48,94a2.91,2.91,0,0,1-.33.66,21.66,21.66,0,0,0-4.41,7c-.09.23-.17.54-.35.63-1.3.68-1.61,2.05-2.16,3.19a8.47,8.47,0,0,1-2.95,4,.83.83,0,0,0-.34.44c-.52,1.66-1.83,2.86-2.43,4.54-1.27,3.59-2.51,7.14-2.6,11a32.67,32.67,0,0,1-.55,5,22.22,22.22,0,0,0,.84,9.94c.36,1.28,1,2.48.9,3.93a3.93,3.93,0,0,0,.73,2.28,8.06,8.06,0,0,1,1.25,3.46,12.74,12.74,0,0,0,.94,3.2c.64,1.69,2.09,3.16,1.65,5.2a.45.45,0,0,0,.09.35c1.07,1.32,1.35,3,2.33,4.41a18.18,18.18,0,0,1,1.49,3.12c1.07,2.19,2.62,4.14,3.9,6.24.33.55.9,1,1,1.68a3.41,3.41,0,0,0,1.42,2.12,16.67,16.67,0,0,1,2,1.93A33.1,33.1,0,0,0,53.32,181c.9.72,1.19,2.41,2.9,1.94.67,1.14,2,1.47,2.94,2.18a15,15,0,0,0,4.46,2.72c2.47.76,4.79,2,7.27,2.82.59.2,1.34.45,1.49,1,.51,1.88,2.18,2.05,3.58,2.58a5.26,5.26,0,0,0,2.2,0c.71-.05,1,1.13,1.89,1.18a3.09,3.09,0,0,1,2.13,1.31c.73.81,1.58,1.71,3,1.34a4.16,4.16,0,0,1,3.28.34,10.11,10.11,0,0,0,4.92,1.5c2.4.22,4.84-.32,7.23.36a3,3,0,0,0,.92-.11c2.52-.25,5.05-.69,7.57-.69a16.07,16.07,0,0,0,7.43-1.6,19.18,19.18,0,0,1,8-2.26,2.2,2.2,0,0,0,1.08-.18,20.59,20.59,0,0,1,4.53-1.68c1.2-.41,2.26-1.2,3.65-1.2a1.49,1.49,0,0,0,1.31-1.39,1.12,1.12,0,0,1,.75-1,37.18,37.18,0,0,0,7.57-3.78,16.38,16.38,0,0,0,5.11-4.5c.72-1.09,1.24-2.29,2-3.33a25.6,25.6,0,0,0,2.56-4.32c.84-1.71,1.78-3.41,2.77-5,1.13-1.84,2.06-3.79,3.24-5.6a28.84,28.84,0,0,0,3-7.37c.73-2.33,1.88-4.6,1.72-7.2a3.43,3.43,0,0,1,.86-2.41,1.56,1.56,0,0,0,.5-1.35C165,144,165.45,142.61,165.41,141.26Zm-14-28.06a.39.39,0,0,1,.17.26.36.36,0,0,1-.1.25.35.35,0,0,1-.27-.37C151.19,113.2,151.27,113.13,151.38,113.2ZM155,136.69c-.52,4-.15,8.13-1.91,11.92a11.94,11.94,0,0,0-.56,3.68,15.58,15.58,0,0,1-2.69,6.88c-.61.9-.94,2-2.3,2.19-.62.09-.8.79-.69,1.38a4,4,0,0,1-1.18,4.25c-.3.25-.26.69-.31,1a.73.73,0,0,1-.55.68c-1.45.3-1.82,1.46-2.29,2.66a15.16,15.16,0,0,1-5.5,6.84,14.41,14.41,0,0,0-2.63,2.11c-.27.3-.78,1-1.28,0-.18-.35-.46-.1-.53.15-.25.87-1.14,1.11-1.64,1.73a1.88,1.88,0,0,1-1.48.67,8.79,8.79,0,0,0-5.06,1.74c-1.14.74-2.4,1.81-4.07,1.5a2.26,2.26,0,0,0-1.69.53,14,14,0,0,1-6.56,2.31c-1.93.18-3.77-.22-5.66-.12a1.75,1.75,0,0,1-.86-.28,2.5,2.5,0,0,0-2.55,0c-.49-.68.3-1.41-.23-2-1.11.38-1.11.38-2-.14-.37.56.16.92.3,1.36a.73.73,0,0,1-.31.82c-.26.19-.45-.06-.63-.22a2.17,2.17,0,0,0-1.68-.69,5.71,5.71,0,0,1-3.56-.89c-.22-.14-.49-.31-.69-.15-1.32,1.12-2.88,0-4.28.49a2.45,2.45,0,0,1-2.26-.64c-1.44-1.35-3.58-1.2-5-2.59-.54-.53-1.56-.24-2.36-.32a3.57,3.57,0,0,1-2.43-.75,2.62,2.62,0,0,0-1.89-.59,8,8,0,0,1-2.33-.6,13.46,13.46,0,0,0-1.58-.55,7,7,0,0,1-4.7-2.61.91.91,0,0,0-.45-.32c-2.6-.9-4.3-3.15-6.6-4.44-2-1.14-2.89-3.28-4.7-4.56A5.2,5.2,0,0,1,54.25,167a7.57,7.57,0,0,0-1.58-2.5,4.56,4.56,0,0,1-1-2,3,3,0,0,0-1.59-2.18,1.24,1.24,0,0,1-.71-1A53.17,53.17,0,0,0,47,151.5a22.12,22.12,0,0,1-.61-2.91c-.78-3.39-1.57-6.79-1.28-10.33a9.68,9.68,0,0,0-.26-3.34,7.28,7.28,0,0,1-.11-2.42c.18-3,.36-6,.53-9a4.54,4.54,0,0,1,.47-2c.15-.27.36-.63.29-.87-.43-1.36.27-2.56.5-3.82A8.74,8.74,0,0,1,48,112.74a18.79,18.79,0,0,0,1.55-3.51A18.72,18.72,0,0,1,53.72,104c1.71-1.7,3.49-3.33,5.08-5.17a12.85,12.85,0,0,1,2-1.94c1.4-1,2.41-2.51,3.91-3.41a1.5,1.5,0,0,0,.67-.84,1.39,1.39,0,0,1,1-1c1.23-.15,1.92-1.08,2.79-1.75.24-.19.46-.53.72-.56,2.09-.25,3.58-1.66,5.27-2.66a12.39,12.39,0,0,1,3.7-1.13c1-.22,2-.19,2.67-1.08.37-.45,1-.39,1.57-.43a29.31,29.31,0,0,1,5.13,0,12,12,0,0,0,4.13-.81c1.42-.41,2.78-1.15,4.22-.09a.73.73,0,0,0,.54.07c1.73-.5,3.28.09,4.86.7a8,8,0,0,0,1.95.25c2.64.31,5.37.16,7.89,1.27,1.87.83,3.59,2,5.67,2.32a4.39,4.39,0,0,0,2.68-.11,4.1,4.1,0,0,1,4.51.66,22.25,22.25,0,0,1,4,3.33c.83,1,2.22,1.34,3.28,2.1a3.17,3.17,0,0,1,1.34,1.47,10.33,10.33,0,0,0,3.12,3.87,37.24,37.24,0,0,1,4.23,4.83c.72.92,1.42,1.87,2.23,2.72a3.57,3.57,0,0,1,1,1.56,22.52,22.52,0,0,0,3.15,7.08c.5.76.63,1.67,1.23,2.45a7.8,7.8,0,0,0,1.4,1.88,2.26,2.26,0,0,1,.66,1.49c.26,1.13.65,1.5,1.8,1.36.73-.09.93.18,1,.73a4.51,4.51,0,0,0,1,2.33,9,9,0,0,1,1.06,4.45A33,33,0,0,1,155,136.69Z"/><path class="cls-7" d="M126.46,71.53c.43,0,.54-.41.58-.81s-.18-.87-.68-.9-.47.46-.48.8S125.86,71.55,126.46,71.53Z"/><path class="cls-7" d="M119.61,71.35c.41-.47.26-.89-.21-1.33-.47.41-.75.82-.28,1.38A.54.54,0,0,0,119.61,71.35Z"/><path class="cls-7" d="M74.38,71a.33.33,0,0,0-.12-.48c-.09.06-.24.09-.28.18s-.08.38.13.46S74.34,71.05,74.38,71Z"/><path class="cls-7" d="M129.42,169c-1.37-2-3-3.7-4.44-5.66-1-1.45-2.61-2.47-3.63-4.1-.7-1.13-1.82-2-2.41-3.36a21.37,21.37,0,0,0-2.19-3.2,11.37,11.37,0,0,0-2.78-2.71,4.51,4.51,0,0,1-1.85-3.09,1.14,1.14,0,0,0-.85-1,3.48,3.48,0,0,1-1.8-4.23,10.24,10.24,0,0,0,.14-5.13c-.23-1.15-1.16-1.9-1.48-3a10.67,10.67,0,0,0-1.85-3.63,2.81,2.81,0,0,1-.5-2.47c1.09-4.7.7-9.53,1.31-14.27.25-1.91-.11-3.85.46-5.81.74-2.53-.15-5.3.81-7.86.08-.22,0-.5,0-.74.45-2.82-.59-5.69.28-8.54a2.46,2.46,0,0,0-1.5-2.56,1.61,1.61,0,0,1-.81-.73,1.93,1.93,0,0,0-2.48-1.2,2.79,2.79,0,0,0-1.68,1c-.32.36-.49.87-1,1-1.92.55-2.52,2-2.68,3.81-.09.93-.17,1.86-.31,2.78a72.7,72.7,0,0,0-.77,9c-.11,3.52-1.16,7-.6,10.56-.86,4.17-.9,8.43-1.17,12.65-.17,2.66-1.75,4.07-3.43,5.58-1.11,1-2.21,2-2.31,3.62a9.8,9.8,0,0,1-.48,2.36,3.53,3.53,0,0,0,.37,2.69,5,5,0,0,0,2.85,2.29,3.22,3.22,0,0,1,2,2,3.87,3.87,0,0,0,2.08,2.27,15.41,15.41,0,0,1,3.27,2.34c.76.57.79,1.7,1.35,2.06,1.19.74,2,1.92,3,2.63,1.6,1.06,2.39,2.7,3.58,4,.59.68.72,1.8,2,1.68.31,0,.71.46,1,.78a18.6,18.6,0,0,0,2.41,2.53,1.15,1.15,0,0,1,.5,1.14c-.24,1.34.7,2,1.46,2.82,1.3,1.42,3.06,2.33,4.1,4.07s2.87,2.86,3.74,4.77a1.72,1.72,0,0,0,1.87,1,1.53,1.53,0,0,1,1.6.63c.67.85,1.81,1,2.76,1.36a1.36,1.36,0,0,0,1.83-.73,22.52,22.52,0,0,0,1.83-3.43,2.48,2.48,0,0,0-.57-2.73A31,31,0,0,1,129.42,169Z"/><path class="cls-7" d="M97.58,165.8a5.82,5.82,0,0,0-.93-2.62,2.69,2.69,0,0,0-3.74-.82,10.31,10.31,0,0,0-2.9,2.47,4.73,4.73,0,0,0-1.19,4.1,4.92,4.92,0,0,1-.18,2.37,17.47,17.47,0,0,0-.86,4.93,5.6,5.6,0,0,1-.21,1.84,3.11,3.11,0,0,0,.55,3.21,4,4,0,0,0,2.64,1.7,4.05,4.05,0,0,0,3.21-.4,8.89,8.89,0,0,0,1.68-1.45c1.12-1.1,2.12-2.23,1.93-4-.12-1.1.35-2.22.12-3.36A25.92,25.92,0,0,0,97.58,165.8Z"/><path class="cls-7" d="M66.17,135.66c1.3.24,1.9-.3,1.64-1.58a3,3,0,0,1,.33-2.13,9.66,9.66,0,0,0,.65-1.75c.51-1.75-.22-2.82-2-2.88a4,4,0,0,1-2-.36c-1.66-1-3.55-1.35-5.3-2.11-.27-.12-.72-.28-.88-.15-1,.82-1.6-.06-2.32-.54-1.48-1-4.13-.29-4.65,1.28a42.76,42.76,0,0,0-.93,4.36c-.1,1.58.34,2.5,1.7,2.65,1.62.19,2.82,1.18,4.2,1.79a22.82,22.82,0,0,0,7,1.79,2,2,0,0,0,1.75-.34C65.56,135.45,65.85,135.6,66.17,135.66Z"/><path class="cls-7" d="M127.28,133.5c-1.32.11-1.76.79-1.17,1.95a3,3,0,0,1,.23,2.15,11.36,11.36,0,0,0-.17,1.85c0,1.83,1,2.67,2.73,2.25a4,4,0,0,1,2-.16c1.86.53,3.79.37,5.67.65.29,0,.77.08.89-.09.79-1.06,1.56-.36,2.38-.09,1.68.55,4.06-.79,4.15-2.44a41.65,41.65,0,0,0-.24-4.46c-.31-1.55-1-2.32-2.33-2.12-1.61.25-3-.39-4.53-.62a22.75,22.75,0,0,0-7.18.09,2,2,0,0,0-1.6.79C127.92,133.55,127.6,133.47,127.28,133.5Z"/><path class="cls-7" d="M83.38,110c.22-1.81-1.12-2.9-1.93-4.23a.43.43,0,0,0-.29-.14c-.69.78-1.64.16-2.46.47A37.6,37.6,0,0,0,75.23,108a2.19,2.19,0,0,0-1.15,1.79,10.28,10.28,0,0,0,.88,6.66A5.31,5.31,0,0,0,76.47,118c.51.4.91.19,1.35-.1.25-.17.47-.06.64.16.63.87,1.44.43,2.18.25a17.19,17.19,0,0,1,1.73-.63c1.45-.17,1.8-1.13,1.92-2.34a4.74,4.74,0,0,0-.48-2.71A4.71,4.71,0,0,1,83.38,110Z"/><path class="cls-7" d="M123.28,116.43c1.83-.06,2.69-1.56,3.88-2.57.07-.06.12-.29.09-.31-.88-.56-.41-1.6-.86-2.35a32.6,32.6,0,0,0-2.44-3.12,2.22,2.22,0,0,0-2-.86,10.32,10.32,0,0,0-6.44,1.92,5.34,5.34,0,0,0-1.33,1.74c-.32.57,0,.93.31,1.32a.45.45,0,0,1-.06.66c-.76.76-.2,1.49.1,2.19s.73,1,.9,1.61c.39,1.4,1.4,1.6,2.61,1.52a4.75,4.75,0,0,0,2.6-.89A4.74,4.74,0,0,1,123.28,116.43Z"/><path class="cls-7" d="M117.38,162.12c-.1,1.82,1.3,2.82,2.2,4.1,0,.07.28.14.3.11.64-.82,1.63-.26,2.42-.63a35.81,35.81,0,0,0,3.34-2.14,2.23,2.23,0,0,0,1-1.86,10.3,10.3,0,0,0-1.31-6.59,5.23,5.23,0,0,0-1.61-1.49c-.53-.37-.92-.13-1.34.19a.45.45,0,0,1-.65-.13c-.69-.82-1.47-.33-2.19-.1a16.66,16.66,0,0,1-1.69.74c-1.43.27-1.72,1.25-1.76,2.46a4.72,4.72,0,0,0,.65,2.67A4.78,4.78,0,0,1,117.38,162.12Z"/><path class="cls-7" d="M73.13,150.27a2.3,2.3,0,0,1-.88-.66c-1.13-1.12-1.94-1.14-3,0-.48.49-.84,1.13-1.54,1.31-2.42.62-3.2,2.51-3.79,4.63a3.43,3.43,0,0,0,1.06,3.55c2.12,2.14,3.64,2,5.69-.25a7.55,7.55,0,0,1,2.57-1.77,2.89,2.89,0,0,0,1.57-2.39,13.77,13.77,0,0,1-.11-1.82C74.76,151.61,74.49,150.66,73.13,150.27Z"/><path class="cls-7" d="M85.68,86.58a.51.51,0,0,0,.38-.7c-.1-.3-.3-.56-.66-.44a.49.49,0,0,0-.3.59C85.15,86.34,85.29,86.59,85.68,86.58Z"/><path class="cls-7" d="M77,93c.12-.23.17-.5-.14-.6-.11,0-.33.14-.42.27a.73.73,0,0,0-.06.91A.94.94,0,0,0,77,93Z"/></g></g></svg>